<svg width="70" height="70" viewBox="0 0 70 70" fill="none" xmlns="http://www.w3.org/2000/svg">
<g clip-path="url(#clip0_485_1076)">
<path d="M40.6875 0.21875C39.0195 0.738281 37.8164 2.05078 37.461 3.75977C37.3652 4.23828 37.3242 7.04102 37.3516 12.1133L37.3926 19.7559L37.7754 20.5762C38.2676 21.6152 39.2793 22.5859 40.3047 22.9824C41.0293 23.2832 41.3301 23.2969 45.0215 23.3516L48.9453 23.4062V25.0742C48.9453 26.0039 49.0137 26.9473 49.0957 27.1934C49.2461 27.6172 49.8067 28.0273 50.2305 28.0273C50.3399 28.0273 52.0078 26.9883 53.9082 25.7168L57.3945 23.4062L61.8106 23.3516C66.0078 23.2969 66.2813 23.2832 67.0059 22.9961C68.0996 22.5586 68.9473 21.7656 69.4805 20.6719L69.9317 19.7559L69.9727 12.0996C70.0137 4.06055 69.9863 3.43164 69.4121 2.46094C68.7559 1.33984 67.6895 0.492188 66.5137 0.191406C65.4473 -0.0957031 41.6309 -0.0683594 40.6875 0.21875ZM66.2129 2.51562C66.7461 2.73438 67.334 3.34961 67.5254 3.86914C67.6211 4.11523 67.6758 6.27539 67.6758 10.0215V15.7773L65.7207 13.8496C64.6543 12.7832 63.6016 11.8535 63.3965 11.7715C63.1504 11.6758 62.918 11.6758 62.6582 11.7715C62.4531 11.8398 61.2363 12.7422 59.9649 13.7676C58.6797 14.793 57.5586 15.6816 57.4629 15.75C57.3535 15.832 56.1367 14.5332 53.4844 11.5117C50.9414 8.61328 49.5332 7.10938 49.3145 7.05469C49.1231 7.01367 48.8223 7.02734 48.6445 7.0957C48.4668 7.16406 46.4297 9.13281 44.0918 11.4707C41.7676 13.8086 39.8125 15.7227 39.7442 15.7227C39.6895 15.7227 39.6621 13.0566 39.6758 9.78906L39.7168 3.85547L40.127 3.33594C41.0156 2.24219 40.0039 2.32422 53.6348 2.32422C63.6289 2.32422 65.8438 2.35156 66.2129 2.51562ZM52.1719 13.5625C56.6289 18.6895 56.5332 18.5938 57.1485 18.5938C57.5996 18.5938 57.9551 18.3613 60.2246 16.543C61.6328 15.4082 62.8223 14.4922 62.877 14.4922C63.0547 14.4922 67.5391 19.0723 67.5391 19.2637C67.5391 19.6191 66.9785 20.3574 66.4727 20.6719C65.9805 20.9863 65.8985 20.9863 61.3457 21.0273L56.7246 21.0684L54.0586 22.8457C52.5957 23.8164 51.3789 24.6094 51.3379 24.6094C51.2969 24.6094 51.2695 23.9395 51.2695 23.1328C51.2695 20.918 51.6934 21.082 46.0059 21.0273C41.4258 20.9863 41.3438 20.9863 40.8516 20.6719C40.3457 20.3574 39.7852 19.6191 39.7852 19.2637C39.7852 19.0859 48.7813 9.98047 48.959 9.98047C49 9.98047 50.4492 11.5938 52.1719 13.5625Z" fill="#484545"/>
<path d="M57.1758 4.89453C55.1387 5.61914 54.2774 7.92969 55.3165 9.84375C56.1915 11.457 58.1329 12.0859 59.8145 11.293C62.4122 10.0898 62.4532 6.37109 59.8829 5.05859C59.0899 4.64844 58.0372 4.59375 57.1758 4.89453ZM59.1719 7.41015C59.5958 7.80664 59.5821 8.51758 59.1309 8.95508C58.2422 9.84375 56.7657 8.83203 57.3126 7.71094C57.668 6.94531 58.5293 6.82226 59.1719 7.41015Z" fill="#484545"/>
<path d="M13.0293 4.78515C11.457 5.0996 10.0625 6.37109 9.54297 7.95702C9.46094 8.20312 9.36523 9.66601 9.31055 11.2109L9.22852 14.0137L8.57227 14.1094C6.67188 14.3691 5.11328 15.9277 4.75781 17.9101L4.62109 18.7031L3.97852 18.7578C2.57031 18.8945 1.10742 20.0019 0.4375 21.4375L0.0683594 22.2168V30.3516V38.4863L0.423828 39.2383C0.875 40.1953 1.77734 41.0976 2.73438 41.5488L3.48633 41.9043L7.9707 41.9453L12.4551 41.9863L15.9414 44.2969C19.7559 46.8398 20.0156 46.9492 20.6582 46.2656C20.9727 45.9375 20.9863 45.8144 21.0273 43.9414L21.082 41.9726H24.9648C28.5332 41.9726 28.9023 41.9453 29.5859 41.6992C31.1445 41.1113 32.2656 39.7851 32.5391 38.1855C32.6484 37.5293 32.6895 35.0684 32.6484 29.7363L32.6074 22.2168L32.2383 21.4375C31.8145 20.5078 30.9395 19.6191 29.9961 19.1406L29.3262 18.7988L18.1836 18.7305L7.04102 18.6621L7.06836 18.2656C7.10938 17.6914 7.69727 16.8984 8.29883 16.6113C8.6543 16.4336 9.25586 16.3379 10.2266 16.2969L11.6211 16.2285V12.7969C11.6211 10.9101 11.6895 9.11913 11.7578 8.83202C11.9219 8.09374 12.2773 7.64257 12.9883 7.27343L13.5898 6.97265H24.2949H35V5.81054V4.64843L24.3086 4.6621C18.416 4.67577 13.3438 4.73046 13.0293 4.78515ZM29.1758 21.3691C29.5176 21.5605 29.832 21.9023 30.0371 22.2715L30.3516 22.873V30.2969C30.3516 35.2051 30.2969 37.8437 30.2012 38.1035C30.1328 38.3086 29.9004 38.6641 29.6953 38.8828C28.998 39.6211 28.8203 39.6484 24.0625 39.6484C19.4688 39.6484 19.0312 39.7031 18.8125 40.2637C18.7715 40.3867 18.7305 41.1113 18.7305 41.8633C18.7305 42.998 18.7031 43.2168 18.5391 43.1621C18.4297 43.1211 17.3359 42.4101 16.1055 41.5898C14.875 40.7695 13.6855 40.0039 13.4395 39.8808C13.0566 39.6758 12.4277 39.6484 8.61328 39.6484C3.85547 39.6484 3.67773 39.6211 2.98047 38.8828C2.77539 38.6641 2.54297 38.3086 2.47461 38.1035C2.37891 37.8437 2.32422 35.2187 2.32422 30.3105C2.32422 23.3789 2.35156 22.8594 2.58398 22.3398C2.81641 21.8203 3.32227 21.3418 3.82812 21.1504C3.9375 21.1094 9.57031 21.0684 16.3379 21.0684L28.6426 21.0547L29.1758 21.3691Z" fill="#484545"/>
<path d="M12.3047 24.6504C11.6484 24.9785 11.6211 25.1699 11.6211 30.2285C11.6211 35.1094 11.6758 35.6973 12.168 35.957C12.7969 36.2988 13.248 36.1074 17.4727 33.7012C19.7832 32.375 21.7793 31.1719 21.916 31.0215C22.2441 30.625 22.2031 30.0234 21.8477 29.6133C21.4922 29.2168 13.1934 24.4726 12.8652 24.4726C12.7422 24.4726 12.4961 24.5547 12.3047 24.6504ZM16.3652 29.0117C18.0332 29.9687 18.5391 30.3242 18.416 30.4336C18.2246 30.6113 14.123 32.9492 14.0137 32.9492C13.9727 32.9492 13.9453 31.7734 13.9453 30.3516C13.9453 28.916 13.9863 27.7539 14.041 27.7539C14.0957 27.7539 15.1348 28.3281 16.3652 29.0117Z" fill="#484545"/>
<path d="M14.041 9.39258C13.9863 9.43359 13.9453 9.9668 13.9453 10.5547V11.6211H15.1074H16.2695V10.459V9.29688H15.2031C14.6152 9.29688 14.082 9.33789 14.041 9.39258Z" fill="#484545"/>
<path d="M18.7305 10.459V11.6211H19.8926H21.0684L21.0273 10.4863L20.9863 9.36523L19.8652 9.32422L18.7305 9.2832V10.459Z" fill="#484545"/>
<path d="M23.3789 10.459V11.6211H24.541H25.7031V10.459V9.29688H24.541H23.3789V10.459Z" fill="#484545"/>
<path d="M14.041 14.041C13.9863 14.082 13.9453 14.6152 13.9453 15.2031V16.2695H24.4727H35V15.1074V13.9453H24.5684C18.8262 13.9453 14.082 13.9863 14.041 14.041Z" fill="#484545"/>
<path d="M58.3789 34.4531V43.2031H59.541H60.7031V34.4531V25.7031H59.541H58.3789V34.4531Z" fill="#484545"/>
<path d="M63.0273 34.4531V43.2031H64.1895H65.3516V34.4531V25.7031H64.1895H63.0273V34.4531Z" fill="#484545"/>
<path d="M35 29.1895V30.3516H41.4258H47.8516V29.1895V28.0273H41.4258H35V29.1895Z" fill="#484545"/>
<path d="M52.5 29.1895V30.3516H53.6621H54.8242V29.1895V28.0273H53.6621H52.5V29.1895Z" fill="#484545"/>
<path d="M35 33.8379V35H39.6484H44.2969V33.8379V32.6758H39.6484H35V33.8379Z" fill="#484545"/>
<path d="M46.6211 33.8379V35H50.7227H54.8242V33.8379V32.6758H50.7227H46.6211V33.8379Z" fill="#484545"/>
<path d="M35 38.4863V39.6484H41.4258H47.8516V38.4863V37.3242H41.4258H35V38.4863Z" fill="#484545"/>
<path d="M50.1758 38.4863V39.6484H52.5H54.8242V38.4863V37.3242H52.5H50.1758V38.4863Z" fill="#484545"/>
<path d="M43.545 41.2207C43.2169 41.5352 43.2032 41.6035 43.2032 43.5449V45.5273H39.4024C35.0958 45.5273 34.6993 45.5957 33.7969 46.4707C32.7169 47.5234 32.7442 47.3594 32.7442 53.6621C32.7442 59.9102 32.7305 59.7871 33.7286 60.7852C34.754 61.8105 33.1954 61.7285 51.338 61.7285C69.4805 61.7285 67.9219 61.8105 68.9473 60.7852C69.9454 59.7871 69.9317 59.9102 69.9317 53.6621C69.9317 48.1387 69.9317 48.043 69.6309 47.4961C69.2481 46.7715 68.6602 46.1836 67.9903 45.8555C67.4981 45.6094 66.9923 45.5957 58.5157 45.5547L49.5743 45.5273L47.2227 43.2031C45.0489 41.043 44.8438 40.8789 44.379 40.8789C44.0235 40.8789 43.7774 40.9746 43.545 41.2207ZM48.5899 47.7148C48.836 47.7969 52.0079 47.8516 57.9141 47.8516H66.8829L67.2794 48.248L67.6758 48.6445V53.5937C67.6758 58.6387 67.6485 58.9121 67.1426 59.2949C66.8282 59.541 35.8477 59.541 35.5333 59.2949C35.0274 58.9121 35.0001 58.6387 35.0001 53.6758C35.0001 48.6035 35.0274 48.2891 35.6016 48.0019C35.793 47.9062 37.4337 47.8379 40.3594 47.8242C44.8165 47.7832 44.8438 47.7832 45.1446 47.4687C45.4044 47.209 45.459 46.9902 45.5137 46.0605L45.5548 44.9531L46.8809 46.2656C47.6192 46.9766 48.3848 47.6328 48.5899 47.7148Z" fill="#484545"/>
<path d="M37.3242 51.3379V52.5H39.6484H41.9727V51.3379V50.1758H39.6484H37.3242V51.3379Z" fill="#484545"/>
<path d="M44.2969 51.3379V52.5H54.8242H65.3516V51.3379V50.1758H54.8242H44.2969V51.3379Z" fill="#484545"/>
<path d="M37.3242 55.9863V57.1484H43.1348H48.9453V55.9863V54.8242H43.1348H37.3242V55.9863Z" fill="#484545"/>
<path d="M51.3652 54.9199C51.3105 54.9609 51.2695 55.4941 51.2695 56.082V57.1484H54.8242H58.3789V55.9863V54.8242H54.9199C53.0059 54.8242 51.4062 54.8652 51.3652 54.9199Z" fill="#484545"/>
<path d="M60.7031 55.9863V57.1484H63.0273H65.3516V55.9863V54.8242H63.0273H60.7031V55.9863Z" fill="#484545"/>
<path d="M4.67578 49.5195L4.7168 54.7559L5.08594 55.5488C5.57812 56.5742 6.61719 57.5859 7.61523 57.9961L8.4082 58.3105L17.9922 58.3789L27.5762 58.4473L26.1953 63.0273L24.8145 67.6074L23.4883 67.6484L22.1484 67.6895V68.8379V70H35H47.8516V68.8379V67.6895L46.5254 67.6484L45.1855 67.6074L44.6387 65.8027C44.3379 64.8184 44.0645 63.9707 44.0234 63.9297C43.9414 63.8477 42.0957 64.3672 41.9453 64.5176C41.8906 64.5586 42.0547 65.2969 42.3008 66.1445L42.7656 67.6758H35H27.2207L27.3438 67.293C28.2188 64.6953 30.3516 57.1621 30.2832 56.916C30.2422 56.752 30.0781 56.4922 29.9141 56.3418C29.627 56.0684 29.4082 56.0684 19.1406 56.0273L8.66797 55.9863L8.08008 55.6035C7.20508 55.0156 6.95898 54.3457 7 52.6777L7.04102 51.3379L18.7031 51.2969L30.3516 51.2695V50.1074V48.9453H18.6621H6.97266V46.6211V44.2969H5.79688H4.63477L4.67578 49.5195Z" fill="#484545"/>
</g>
<defs>
<clipPath id="clip0_485_1076">
<rect width="70" height="70" fill="white"/>
</clipPath>
</defs>
</svg>
