<svg width="70" height="70" viewBox="0 0 70 70" fill="none" xmlns="http://www.w3.org/2000/svg">
<path d="M33.8652 1.09375C32.4023 1.46289 31.1172 2.54297 30.4336 3.96484C30.0508 4.75781 30.0098 4.99023 30.0098 6.08398C30.0098 7.13672 30.0644 7.42383 30.3789 8.09375C30.584 8.53125 30.8984 9.07812 31.0898 9.33789L31.4316 9.77539L30.707 10.1582C28.5195 11.3066 26.7148 13.7539 26.1953 16.2559C25.9766 17.3359 26.0039 17.541 26.4277 18.0059L26.7012 18.3203H35C43.1894 18.3203 43.3125 18.3203 43.668 18.0332C43.9687 17.8008 44.0234 17.6504 44.0234 17.0898C44.0234 16.2285 43.5723 14.7793 42.9707 13.6719C42.3555 12.5645 40.5508 10.7461 39.5117 10.1992C39.1016 9.98047 38.7324 9.77539 38.7051 9.74805C38.6641 9.7207 38.8008 9.5293 39.0059 9.32422C39.1973 9.11914 39.5254 8.58594 39.7441 8.13476C40.0723 7.42383 40.1269 7.15039 40.1269 6.08398C40.1269 5.03125 40.0723 4.73047 39.7578 4.07422C38.9238 2.29687 37.2559 1.12109 35.3965 1.02539C34.8359 0.998045 34.1523 1.02539 33.8652 1.09375ZM36.5449 3.5957C37.9258 4.41601 38.3769 6.2207 37.5293 7.60156C37.0644 8.36719 35.9707 9.02344 35.1641 9.02344C33.1269 9.02344 31.6504 7.05469 32.2793 5.18164C32.8809 3.4043 34.918 2.65234 36.5449 3.5957ZM36.6269 11.416C37.8437 11.7031 38.9922 12.3594 39.9355 13.2891C40.6465 14.0137 41.5625 15.4902 41.5625 15.9551C41.5625 16.1055 40.4004 16.1328 35 16.1328H28.4375L28.6426 15.6133C29.9961 12.3867 33.3184 10.6367 36.6269 11.416Z" fill="#484545"/>
<path d="M15.1074 3.32227C13.5898 3.71875 12.3457 4.73047 11.6758 6.11133C11.375 6.72656 11.2793 7.12305 11.2383 8.05273C11.1699 9.41992 11.4707 10.4043 12.2363 11.4023L12.6875 11.9902L12.1133 12.2637C9.93944 13.3301 8.16209 15.5996 7.50584 18.1562C7.16405 19.4961 7.17772 19.7695 7.58787 20.166L7.916 20.5078H16.3242H24.7324L25.0195 20.125C25.2793 19.8105 25.3066 19.6465 25.2383 18.9902C25.1426 18.0332 24.6504 16.666 24.0488 15.627C23.4062 14.5469 21.8476 13.0156 20.8086 12.4688C20.3437 12.2227 19.9609 11.9902 19.9609 11.9629C19.9609 11.9219 20.166 11.6211 20.4258 11.293C21.6015 9.74805 21.7246 7.68359 20.7402 5.83789C19.7148 3.88281 17.2265 2.77539 15.1074 3.32227ZM17.0078 5.48242C18.8398 5.93359 19.7695 8.14844 18.8125 9.76172C18.3203 10.6094 17.5547 11.1016 16.625 11.1836C14.7109 11.334 13.2754 9.89844 13.4258 8.01172C13.5215 6.80859 14.2051 5.96094 15.4219 5.52344C16.0508 5.30469 16.2695 5.29102 17.0078 5.48242ZM17.6777 13.6035C19.9746 14.082 22.1211 15.9551 22.75 18.0059L22.8457 18.3203H16.2832H9.72069L9.91209 17.7734C10.7734 15.3535 13.4805 13.4941 16.2695 13.4121C16.5293 13.4121 17.1582 13.4941 17.6777 13.6035Z" fill="#484545"/>
<path d="M52.8828 3.28125C51.3379 3.54101 49.8613 4.62109 49.164 5.97461C48.3027 7.66992 48.4531 9.83008 49.5469 11.2656C49.7109 11.498 49.8887 11.7578 49.9433 11.8398C49.998 11.9355 49.6699 12.209 49.123 12.5234C48.0156 13.166 46.5801 14.5742 45.9512 15.627C45.3223 16.6797 44.8437 18.0742 44.748 19.0723C44.6797 19.8379 44.707 19.9199 45.0488 20.2344L45.418 20.5762L53.4023 20.6172C57.791 20.6309 61.5781 20.6035 61.8242 20.5352C62.0566 20.4805 62.3848 20.2617 62.5351 20.0566C62.8086 19.6875 62.8086 19.6602 62.5898 18.5527C62.2207 16.7754 61.4277 15.3262 60.1015 14C59.4863 13.3848 58.6113 12.6875 58.1328 12.4141C57.3125 11.9629 57.2851 11.9355 57.5449 11.7031C57.6816 11.5801 58.0098 11.0879 58.2558 10.623C58.6933 9.81641 58.7207 9.70703 58.7207 8.33984C58.7207 7.02734 58.6933 6.83594 58.3105 6.11133C57.2988 4.10156 55.0293 2.92578 52.8828 3.28125ZM55.0976 5.79687C56 6.24805 56.5058 7.02734 56.5742 8.12109C56.6289 8.88672 56.5879 9.0918 56.2598 9.69336C56.041 10.0762 55.6445 10.541 55.3301 10.7598C54.8379 11.1016 54.6601 11.1426 53.7168 11.1426C52.7598 11.1426 52.6094 11.1016 52.0625 10.7324C49.9297 9.22851 50.6269 5.94726 53.1836 5.46875C53.8262 5.3457 54.3594 5.44141 55.0976 5.79687ZM55.6445 13.7676C57.3808 14.2461 58.9668 15.5586 59.8008 17.2539L60.3066 18.252L53.7851 18.293C50.2031 18.3066 47.2363 18.293 47.1953 18.252C47.1543 18.2246 47.3183 17.8008 47.5508 17.3223C49.0273 14.3145 52.3496 12.8652 55.6445 13.7676Z" fill="#484545"/>
<path d="M36.0937 20.4668C35.6836 20.6172 35.2734 21.1094 35.2734 21.4648C35.2734 21.6562 35.4238 22.0254 35.6152 22.2851C36.0664 22.9004 36.0527 23.0918 35.4785 23.7617C34.3711 25.0469 34.3027 26.4687 35.2871 27.7266C35.9023 28.5195 36.4765 28.6152 37.0644 28.041C37.5566 27.5488 37.5703 27.125 37.1191 26.5234C36.9277 26.2637 36.7773 25.9492 36.7773 25.8262C36.7773 25.7031 37.0234 25.293 37.3242 24.9375C38.4043 23.6387 38.4043 22.1484 37.3515 21.0547C36.832 20.5215 36.4492 20.3437 36.0937 20.4668Z" fill="#484545"/>
<path d="M23.666 21.6836C23.1875 22.2852 23.3652 23.5566 24.0078 24.3359C24.5957 25.0195 25.1152 25.3066 26.0723 25.457C27.125 25.6074 27.4805 25.8535 27.4805 26.3867C27.4805 27.002 27.959 27.4805 28.5742 27.4805C30.2832 27.4805 29.8867 24.582 28.041 23.666C27.7676 23.5293 27.2207 23.3789 26.8106 23.3379C25.9629 23.2422 25.5664 22.9414 25.5664 22.4219C25.5664 21.8066 25.0879 21.3281 24.4727 21.3281C24.0625 21.3281 23.8848 21.4102 23.666 21.6836Z" fill="#484545"/>
<path d="M47.4687 21.6426C47.3047 21.8203 47.168 22.1074 47.168 22.2988C47.168 22.8867 46.8125 23.2148 46.1015 23.3106C44.8711 23.4746 44.6797 23.543 44.1191 24.0488C43.0801 24.9922 42.7109 26.5645 43.4082 27.207C44.1055 27.8633 45.2539 27.3438 45.2539 26.3867C45.2539 25.8262 45.5547 25.5938 46.4433 25.4844C47.4414 25.375 48.125 25.0332 48.6445 24.3906C49.123 23.8164 49.4238 22.7637 49.2871 22.1484C49.1094 21.3418 48.0293 21.041 47.4687 21.6426Z" fill="#484545"/>
<path d="M25.334 28.7109C24.8145 28.9297 24.7461 29.2715 24.7461 31.8418V34.3164H21.1914C18.8945 34.3164 17.5273 34.3711 17.3223 34.4668C16.7754 34.7129 16.6797 35.1367 16.6797 37.4063V39.5254L18.9902 41.9453C20.2617 43.2715 23.3652 46.5117 25.8945 49.1504L30.4883 53.9355V61.209V68.4824L30.8438 68.7559C31.0488 68.9199 31.3359 69.043 31.5 69.043C31.8281 69.043 41.4668 63.834 41.9453 63.3965C42.2461 63.123 42.2461 63.1094 42.2461 58.5156V53.9219L48.9863 46.9082C52.6777 43.0527 55.7812 39.7578 55.877 39.5938C55.9863 39.4023 56.041 38.5957 56.0547 37.2148V35.1094L55.6582 34.7129L55.2617 34.3164H51.625H47.9883V31.7871C47.9883 29.4492 47.9609 29.2305 47.7148 28.9844C47.5645 28.834 47.3047 28.6836 47.127 28.6426C46.9629 28.5879 45.4727 28.5742 43.832 28.6016L40.8516 28.6426L40.5234 29.0254C40.209 29.3945 40.1953 29.4629 40.1953 31.8691V34.3164H36.3809H32.5527L32.5117 31.7871C32.457 28.3691 32.7852 28.6563 28.7383 28.6152C27.0293 28.6016 25.498 28.6426 25.334 28.7109ZM30.3242 31.6777L30.3652 32.5391H28.6426H26.9336V31.6504V30.7481L28.6152 30.7891L30.2832 30.8301L30.3242 31.6777ZM45.8008 31.6504V32.5391H44.0918H42.3828V31.7461C42.3828 31.3086 42.4238 30.8984 42.4785 30.8574C42.5195 30.8027 43.2988 30.7617 44.1875 30.7617H45.8008V31.6504ZM30.3652 36.709C30.4199 38.1992 30.502 38.7871 30.7207 39.334C31.8145 42.082 34.8223 43.668 37.6523 43.0117C39.5391 42.5605 40.9199 41.4531 41.8086 39.6621C42.3008 38.6504 42.3145 38.623 42.3691 36.6816L42.4102 34.7266H44.1055H45.8008V36.4629C45.8008 38.5957 45.5684 39.7715 44.8574 41.2207C43.6133 43.7773 41.4258 45.582 38.6914 46.3066C37.2832 46.6895 34.959 46.6211 33.5645 46.1699C30.6934 45.2266 28.5195 43.1348 27.4531 40.3047C27.043 39.2383 27.0156 39.0332 26.9609 36.9414L26.9062 34.7129L28.5879 34.7539L30.2832 34.7949L30.3652 36.709ZM24.7188 37.2832L24.7598 38.0078H21.8203H18.8672V37.2559V36.5039L21.7793 36.5313L24.6777 36.5723L24.7188 37.2832ZM40.168 37.2148L40.127 37.9395L36.3398 37.9805L32.5391 38.0078V37.2559V36.5039H36.3809H40.209L40.168 37.2148ZM53.8672 37.2559V38.0078H50.9277H47.9883V37.2559V36.5039H50.9277H53.8672V37.2559ZM25.3887 41.0703C26.0723 42.998 27.6035 45.1035 29.2031 46.3203C34.3164 50.2031 41.4258 49.3828 45.4043 44.4609C46.1699 43.5176 47.3184 41.3984 47.5234 40.5645L47.6055 40.1953H49.9297C51.2012 40.1953 52.2266 40.25 52.1992 40.3184C52.1855 40.373 49.5195 43.1895 46.2793 46.5527C43.0527 49.916 40.332 52.8008 40.2363 52.9648C40.1133 53.1699 40.0723 54.4551 40.0586 57.6406V62.0293L36.4082 64.0254L32.7441 66.0215L32.6758 59.5C32.6348 55.918 32.5801 52.9648 32.5664 52.9375C32.5391 52.8828 23.625 43.6133 21.6836 41.6035L20.3301 40.1953H22.709H25.0879L25.3887 41.0703ZM38.3496 40.4141C38.0215 40.6602 36.8594 41.0156 36.3672 41.0156C35.875 41.0156 34.7129 40.6602 34.3848 40.4141C34.1387 40.2227 34.3301 40.209 36.3672 40.209C38.4043 40.209 38.5957 40.2227 38.3496 40.4141Z" fill="#484545"/>
</svg>
