<svg width="70" height="70" viewBox="0 0 70 70" fill="none" xmlns="http://www.w3.org/2000/svg">
<path d="M3.56836 3.60938C3.34961 3.86914 3.34961 66.1309 3.56836 66.4043C3.80078 66.6777 66.1992 66.6777 66.4316 66.4043C66.6504 66.1309 66.6504 3.86914 66.4316 3.60938C66.1992 3.32227 3.80078 3.32227 3.56836 3.60938ZM65.3242 9.39258L65.3516 14.082H35H4.64844V9.46094C4.64844 6.91797 4.68945 4.78516 4.74414 4.74414C4.78516 4.68945 18.4297 4.66211 35.0547 4.67578L65.2832 4.7168L65.3242 9.39258ZM65.2832 40.4004V65.2832H35H4.7168L4.67578 40.5371C4.66211 26.9199 4.67578 15.709 4.7168 15.6133C4.75781 15.4766 10.8965 15.4492 35.0273 15.4766L65.2832 15.5176V40.4004Z" fill="#484545"/>
<path d="M8.53125 8.53125C7.92969 9.13281 7.91602 9.66602 8.46289 10.2812C8.79102 10.6504 8.95508 10.7324 9.41992 10.7324C10.6641 10.7324 11.2109 9.29688 10.2813 8.46289C9.66602 7.91602 9.13281 7.92969 8.53125 8.53125Z" fill="#484545"/>
<path d="M14.2735 8.20314C13.5899 8.47658 13.3028 9.584 13.7403 10.1992C14.2598 10.9512 15.5176 10.8965 15.9278 10.1172C16.543 8.92775 15.4903 7.71095 14.2735 8.20314Z" fill="#484545"/>
<path d="M19.6192 8.21682C18.6074 8.80471 18.6211 10.1172 19.6465 10.5957C20.207 10.8692 20.6719 10.7871 21.1367 10.3223C21.5742 9.88479 21.5879 9.03713 21.1641 8.54494C20.8086 8.14846 20.0293 7.9844 19.6192 8.21682Z" fill="#484545"/>
<path d="M40.0996 27.3848C36.6133 30.8574 34.8633 32.6895 34.8633 32.8809C34.8633 33.0449 35.1914 33.4824 35.6152 33.9062C36.3672 34.6445 36.3809 34.6582 36.75 34.4531C37.2422 34.166 37.2832 33.7559 36.8594 33.2637L36.5176 32.8672L41.0293 28.3555L45.5273 23.8574L48.5352 26.8652L51.543 29.873L47.0449 34.3711L42.5469 38.8691L42.1777 38.5684C41.5488 38.0762 40.8789 38.2539 40.8789 38.9102C40.8789 39.2246 42.2324 40.6055 42.5469 40.6055C42.834 40.6055 53.1836 30.1875 53.1836 29.8867C53.1836 29.5586 46.0469 22.3398 45.6094 22.2305C45.377 22.1758 44.3789 23.0918 40.0996 27.3848Z" fill="#484545"/>
<path d="M34.7539 39.6895C31.2129 43.2441 28.3008 46.252 28.3008 46.375C28.3008 46.6895 28.6699 47.0312 29.0254 47.0312C29.2441 47.0312 31.1855 45.1719 35.7246 40.6328C40.7969 35.5605 42.1094 34.1797 42.1094 33.8926C42.1094 33.4824 41.877 33.2227 41.4941 33.2227C41.3027 33.2227 39.1152 35.3281 34.7539 39.6895Z" fill="#484545"/>
<path d="M22.0254 45.4453C17.4453 50.0254 16.7891 50.7363 16.8574 51.0098C16.9121 51.1875 18.5664 52.9512 20.5489 54.9199C23.2969 57.668 24.2266 58.5156 24.4727 58.5156C24.9512 58.5156 35.1367 48.3438 35.1367 47.8789C35.1367 47.4961 34.125 46.375 33.6739 46.2656C33.3047 46.1699 32.8125 46.5254 32.8125 46.8809C32.8125 46.9902 32.9766 47.2637 33.1817 47.4688L33.5508 47.8652L29.0117 52.4043L24.4727 56.9434L21.4649 53.9355L18.4571 50.9277L22.9961 46.3887L27.5352 41.8359L27.8907 42.1777C28.4785 42.7383 29.1211 42.5605 29.1211 41.8633C29.1211 41.4531 27.918 40.1953 27.5352 40.1953C27.3711 40.1953 25.252 42.2188 22.0254 45.4453Z" fill="#484545"/>
</svg>
