<svg width="70" height="70" viewBox="0 0 70 70" fill="none" xmlns="http://www.w3.org/2000/svg">
<path d="M5.89969 2.13357C6.04016 2.13232 6.04016 2.13232 6.18347 2.13105C6.49474 2.12879 6.80594 2.12943 7.11723 2.13008C7.34144 2.12908 7.56565 2.12791 7.78987 2.12658C8.39721 2.12354 9.00454 2.12314 9.61189 2.1234C10.1198 2.12341 10.6277 2.12224 11.1356 2.1211C12.3345 2.11847 13.5333 2.11808 14.7322 2.119C15.9668 2.11991 17.2014 2.11679 18.4359 2.11171C19.4978 2.10751 20.5596 2.10596 21.6215 2.1065C22.2549 2.10678 22.8882 2.10604 23.5215 2.10268C24.1176 2.09963 24.7135 2.0999 25.3095 2.10267C25.5274 2.10314 25.7454 2.10245 25.9633 2.10049C27.3754 2.08865 28.4992 2.20597 29.5958 3.16749C29.6675 3.25861 29.7393 3.34972 29.8132 3.4436C29.8881 3.53577 29.963 3.62794 30.0401 3.72291C30.2148 3.96484 30.2148 3.96484 30.3515 4.23828C30.5003 4.23597 30.6491 4.23367 30.8024 4.2313C31.362 4.2243 31.9214 4.22555 32.4811 4.2291C32.7218 4.22951 32.9626 4.22779 33.2034 4.22376C34.7478 4.19963 35.7415 4.29813 36.9235 5.34141C37.0541 5.47211 37.0541 5.47211 37.1874 5.60546C37.2559 5.55375 37.3243 5.50203 37.3948 5.44875C37.5779 5.3107 37.7617 5.17348 37.9458 5.03669C38.1715 4.86745 38.3951 4.69541 38.6166 4.52079C41.4121 2.37392 44.6042 1.84674 48.0658 2.22595C51.0094 2.66296 53.8436 4.5145 55.6274 6.85302C55.9511 7.29381 56.1834 7.63284 56.3595 8.15382C56.4948 8.42014 56.4948 8.42014 56.7382 8.61328C57.3868 8.7572 58.0365 8.73034 58.6971 8.71742C58.893 8.71731 59.0888 8.71771 59.2847 8.71858C59.8004 8.71989 60.3159 8.71598 60.8316 8.71049C61.6548 8.7021 62.4781 8.6994 63.3014 8.7009C63.5877 8.70034 63.8738 8.69621 64.1601 8.69174C65.3094 8.68917 66.0999 8.76288 66.9953 9.53559C67.0563 9.6119 67.1173 9.68822 67.1801 9.76684C67.2748 9.88078 67.2748 9.88078 67.3713 9.99702C67.7341 10.5528 67.8467 11.043 67.8476 11.7018C67.8485 11.8549 67.8494 12.008 67.8503 12.1657C67.8496 12.4169 67.8496 12.4169 67.849 12.6733C67.8496 12.8517 67.8502 13.0302 67.8509 13.2141C67.8525 13.7092 67.8525 14.2044 67.8522 14.6996C67.8521 15.2337 67.8536 15.7678 67.8549 16.3019C67.8572 17.3483 67.858 18.3947 67.8581 19.4411C67.8583 20.2916 67.8588 21.1422 67.8597 21.9927C67.8621 24.4042 67.8633 26.8156 67.8631 29.227C67.8631 29.357 67.8631 29.487 67.8631 29.621C67.8631 29.7512 67.8631 29.8813 67.8631 30.0154C67.863 32.125 67.8656 34.2345 67.8694 36.3441C67.8734 38.5101 67.8753 40.6762 67.875 42.8422C67.8749 44.0583 67.8757 45.2743 67.8786 46.4904C67.8811 47.5258 67.8817 48.5612 67.8798 49.5966C67.879 50.1248 67.8789 50.653 67.8813 51.1811C67.8839 51.754 67.8822 52.3268 67.88 52.8996C67.8814 53.0662 67.8829 53.2328 67.8843 53.4044C67.8756 54.4734 67.7455 55.225 67.0268 56.0579C66.9505 56.1189 66.8742 56.1798 66.7956 56.2427C66.7196 56.3058 66.6437 56.3689 66.5654 56.4339C65.9331 56.8467 65.3881 56.9098 64.6396 56.9131C64.5419 56.9139 64.4442 56.9146 64.3435 56.9155C64.0168 56.9178 63.6902 56.9182 63.3636 56.9186C63.1291 56.9199 62.8946 56.9212 62.6602 56.9227C62.0241 56.9265 61.388 56.9286 60.7519 56.9303C60.087 56.9325 59.4221 56.9361 58.7572 56.9396C57.4983 56.946 56.2394 56.951 54.9805 56.9556C53.5472 56.9608 52.1139 56.9676 50.6806 56.9744C47.7323 56.9886 44.7841 57.0007 41.8359 57.0117C42.2871 58.3652 42.7382 59.7187 43.2031 61.1133C43.5887 61.1152 43.9743 61.1171 44.3716 61.1191C44.7504 61.1233 45.1291 61.1287 45.5079 61.1341C45.7685 61.1373 46.0292 61.1393 46.2898 61.14C48.0159 61.1459 49.4271 61.21 50.8844 62.2417C51.9618 63.3452 52.5198 64.3916 52.5854 65.9497C52.5652 66.5213 52.5394 66.9248 52.1752 67.3767C51.7388 67.7404 51.5462 67.8295 50.9948 67.8312C50.8219 67.8323 50.8219 67.8323 50.6455 67.8333C50.5181 67.8334 50.3907 67.8335 50.2595 67.8335C50.1247 67.8341 49.99 67.8347 49.8511 67.8353C49.3966 67.8372 48.9422 67.838 48.4877 67.8389C48.163 67.8399 47.8383 67.8411 47.5137 67.8422C46.5372 67.8455 45.5608 67.8476 44.5843 67.8494C44.3086 67.8499 44.0328 67.8504 43.7571 67.851C42.0452 67.8544 40.3333 67.8574 38.6213 67.8591C38.2247 67.8595 37.8281 67.8599 37.4315 67.8604C37.3329 67.8605 37.2343 67.8606 37.1328 67.8607C35.5358 67.8624 33.9388 67.8669 32.3418 67.8726C30.7026 67.8784 29.0634 67.8817 27.4242 67.8824C26.5037 67.8828 25.5832 67.8844 24.6627 67.8889C23.7969 67.893 22.931 67.8939 22.0651 67.8923C21.7471 67.8923 21.4291 67.8934 21.1111 67.8958C20.6773 67.8989 20.2437 67.8978 19.8098 67.8956C19.6837 67.8975 19.5575 67.8994 19.4275 67.9014C18.8342 67.894 18.4421 67.8627 17.9708 67.4826C17.3756 66.8526 17.4447 66.305 17.4551 65.4616C17.5714 64.1127 18.1878 63.1919 19.1155 62.2417C20.6854 61.1302 22.2466 61.1442 24.0966 61.1389C24.3592 61.1357 24.6218 61.1323 24.8844 61.1285C25.5219 61.1194 26.1591 61.1165 26.7968 61.1133C27.248 59.7598 27.6992 58.4062 28.164 57.0117C27.8684 57.0112 27.5728 57.0107 27.2682 57.0102C24.484 57.0052 21.6998 56.9973 18.9155 56.9866C17.4841 56.9811 16.0527 56.9767 14.6212 56.9747C13.3734 56.9729 12.1257 56.9692 10.8779 56.9632C10.2173 56.9601 9.55679 56.958 8.89622 56.9581C8.27407 56.9582 7.65198 56.9558 7.02984 56.9514C6.8019 56.9502 6.57395 56.95 6.34601 56.9508C4.01063 56.9576 4.01063 56.9576 3.00455 56.0894C2.94357 56.0131 2.88259 55.9368 2.81977 55.8581C2.75667 55.7822 2.69358 55.7062 2.62857 55.628C2.24381 55.0386 2.15313 54.5279 2.15189 53.83C2.15092 53.6561 2.14995 53.4822 2.14896 53.3031C2.14927 53.1105 2.1496 52.9178 2.14996 52.7252C2.14935 52.5203 2.14862 52.3154 2.14779 52.1105C2.14585 51.5473 2.14562 50.9841 2.14568 50.4209C2.14546 49.8135 2.14367 49.2061 2.1421 48.5987C2.13898 47.2705 2.1379 45.9423 2.13721 44.6141C2.13676 43.7847 2.13587 42.9553 2.13488 42.1259C2.13221 39.8293 2.12996 37.5328 2.12957 35.2363C2.12954 35.0893 2.12951 34.9423 2.12949 34.7909C2.12944 34.493 2.12939 34.195 2.12934 33.897C2.12931 33.7491 2.12929 33.6012 2.12926 33.4489C2.12924 33.3008 2.12921 33.1527 2.12919 33.0001C2.1287 30.6008 2.12501 28.2014 2.1199 25.8021C2.11469 23.3385 2.11204 20.8749 2.112 18.4113C2.11192 17.0282 2.11076 15.645 2.10681 14.2619C2.10346 13.0841 2.10246 11.9063 2.10452 10.7285C2.1055 10.1278 2.10538 9.52705 2.10227 8.92628C2.09945 8.37579 2.09982 7.82539 2.10267 7.2749C2.10314 7.07626 2.10248 6.87761 2.10052 6.67898C2.08828 5.35075 2.20896 4.26632 3.14308 3.26228C3.96122 2.48165 4.77127 2.13702 5.89969 2.13357ZM4.73383 5.1184C4.38671 5.66578 4.35745 6.12417 4.35291 6.76534C4.3516 6.91549 4.35028 7.06564 4.34893 7.22035C4.34835 7.38199 4.34777 7.54364 4.34717 7.71018C4.34639 7.87708 4.34561 8.04397 4.34481 8.21593C4.34352 8.56909 4.34262 8.92225 4.3421 9.27541C4.34077 9.8146 4.33653 10.3537 4.33222 10.8929C4.33132 11.2362 4.33061 11.5795 4.33008 11.9228C4.32839 12.0836 4.3267 12.2445 4.32497 12.4102C4.32726 13.2554 4.36122 13.8889 4.7851 14.6289C5.44684 15.2737 5.96608 15.3293 6.86383 15.3317C7.03805 15.3325 7.21228 15.3333 7.39178 15.3341C7.58456 15.3342 7.77734 15.3344 7.97012 15.3345C8.17338 15.3352 8.37665 15.3358 8.57992 15.3366C9.13189 15.3384 9.68386 15.3393 10.2358 15.3399C10.5808 15.3403 10.9258 15.3408 11.2708 15.3414C12.3507 15.3433 13.4306 15.3446 14.5105 15.3452C15.7562 15.3458 17.0019 15.3482 18.2477 15.3521C19.2112 15.3551 20.1747 15.3565 21.1382 15.3566C21.7134 15.3568 22.2885 15.3576 22.8637 15.36C23.405 15.3623 23.9462 15.3626 24.4874 15.3614C24.6857 15.3613 24.8839 15.3619 25.0821 15.3632C26.4786 15.3902 26.4786 15.3902 27.7538 14.9023C28.367 14.2731 28.4534 13.7761 28.4595 12.9222C28.4608 12.772 28.4621 12.6218 28.4635 12.4671C28.464 12.3055 28.4646 12.1438 28.4652 11.9773C28.466 11.8104 28.4668 11.6435 28.4676 11.4716C28.4689 11.1184 28.4698 10.7652 28.4703 10.4121C28.4716 9.87289 28.4759 9.33377 28.4802 8.79459C28.4811 8.45128 28.4818 8.10797 28.4823 7.76466C28.4848 7.52343 28.4848 7.52343 28.4874 7.27734C28.4851 6.43204 28.4512 5.7986 28.0273 5.05859C27.3655 4.41381 26.8463 4.3582 25.9486 4.35579C25.6872 4.35462 25.6872 4.35462 25.4206 4.35343C25.2278 4.35326 25.035 4.3531 24.8423 4.35297C24.639 4.35233 24.4357 4.35165 24.2325 4.35091C23.6805 4.34912 23.1285 4.34823 22.5765 4.34763C22.2315 4.34722 21.8865 4.34666 21.5415 4.34605C20.4617 4.34418 19.3818 4.34286 18.3019 4.34233C17.0562 4.34172 15.8104 4.33932 14.5647 4.33536C13.6012 4.3324 12.6377 4.33103 11.6742 4.33084C11.099 4.3307 10.5238 4.3299 9.94864 4.32745C9.40741 4.32519 8.8662 4.3249 8.32497 4.3261C8.12673 4.32621 7.92848 4.32562 7.73025 4.32426C6.08047 4.28042 6.08047 4.28042 4.73383 5.1184ZM39.3947 6.94114C39.3431 6.99666 39.2914 7.05217 39.2382 7.10937C39.4332 7.58132 39.6617 7.80683 40.0756 8.10058C40.1747 8.17178 40.2737 8.24298 40.3758 8.31634C40.4515 8.36921 40.5273 8.42208 40.6054 8.47656C40.9985 8.29266 41.3267 8.07789 41.6735 7.8186C43.5477 6.58429 45.7692 6.38215 47.9455 6.79481C48.3452 6.91816 48.7061 7.06296 49.082 7.24609C49.215 7.31042 49.3481 7.37474 49.4852 7.44102C51.4963 8.48016 52.5958 10.0837 53.3352 12.1899C53.7182 13.8413 53.656 15.8325 52.9101 17.3633C52.8458 17.4963 52.7814 17.6294 52.7152 17.7665C51.676 19.7776 50.0725 20.8771 47.9663 21.6165C46.3149 21.9995 44.3237 21.9373 42.7929 21.1914C42.5933 21.0949 42.5933 21.0949 42.3897 20.9965C40.3801 19.9581 39.2747 18.3534 38.5402 16.246C38.3859 15.5857 38.3599 14.9633 38.3581 14.2871C38.3577 14.1551 38.3572 14.0232 38.3568 13.8872C38.3764 12.7029 38.6395 11.7501 39.1015 10.6641C39.1466 10.5287 39.1917 10.3934 39.2382 10.2539C39.0203 10.0671 38.8007 9.88232 38.5803 9.69848C38.4581 9.59538 38.336 9.49228 38.2102 9.38606C38.0983 9.31151 37.9863 9.23696 37.871 9.16015C37.4344 9.25608 37.4344 9.25608 37.2558 9.64134C36.1427 12.085 35.7658 14.559 36.7137 17.1229C36.7804 17.2943 36.8471 17.4655 36.914 17.6367C36.9702 17.7922 37.0264 17.9476 37.0844 18.1078C38.6953 22.3814 41.0771 26.3466 43.4765 30.2148C43.5259 30.2944 43.5752 30.3741 43.6261 30.4561C44.6947 32.1932 44.6947 32.1932 45.8007 33.9062C45.891 33.9062 45.9812 33.9062 46.0742 33.9062C46.2572 33.6819 46.2572 33.6819 46.4379 33.3829C46.5113 33.267 46.5848 33.151 46.6605 33.0316C46.7405 32.9029 46.8206 32.7742 46.903 32.6416C46.9872 32.5075 47.0713 32.3734 47.1581 32.2353C47.4362 31.7905 47.7124 31.3446 47.9882 30.8984C48.0821 30.7471 48.176 30.5957 48.2727 30.4397C54.0372 21.9415 54.0372 21.9415 55.5872 12.2543C55.4334 11.6099 55.212 11.0031 54.9609 10.3906C54.9084 10.2618 54.8558 10.133 54.8017 10.0002C54.3976 9.11361 53.8252 8.38409 53.1835 7.65624C53.0907 7.55032 52.9978 7.44441 52.9021 7.33528C51.0714 5.37695 48.6776 4.60603 46.0742 4.37499C43.6029 4.37499 41.1963 5.22303 39.3947 6.94114ZM30.6249 6.56249C30.6249 7.28437 30.6249 8.00624 30.6249 8.74999C32.1138 8.74999 33.6027 8.74999 35.1367 8.74999C35.3622 8.34394 35.5878 7.93789 35.8203 7.51953C35.0913 6.8082 34.6336 6.49809 33.6023 6.46903C33.2449 6.47534 32.8876 6.48666 32.5305 6.50268C32.3451 6.50749 32.1597 6.51186 31.9742 6.51576C31.5243 6.52697 31.0746 6.54414 30.6249 6.56249ZM42.6562 10.1172C43.6555 10.9754 44.6641 11.8157 45.7089 12.6183C46.8534 13.5035 46.8534 13.5035 46.9623 13.9501C46.9509 14.3438 46.9356 14.6834 46.7578 15.0391C46.3156 15.2601 45.8691 15.2486 45.3906 15.1758C45.0476 14.972 44.7956 14.7934 44.5019 14.5349C44.4224 14.4688 44.3428 14.4028 44.2609 14.3347C44.0894 14.1921 43.9189 14.0484 43.7491 13.9037C43.3618 13.5744 42.969 13.252 42.5753 12.9304C42.3807 12.7713 42.1868 12.6113 41.9937 12.4504C41.9057 12.3778 41.8176 12.3052 41.7269 12.2304C41.6489 12.1656 41.5709 12.1007 41.4905 12.0338C41.2923 11.8686 41.2923 11.8686 41.0156 11.8945C40.4486 13.2176 40.3699 14.7478 40.819 16.1243C41.4447 17.5835 42.5727 18.7114 44.0319 19.3372C45.3666 19.7696 46.9075 19.7383 48.1992 19.1844C49.603 18.43 50.6838 17.2726 51.1792 15.7435C51.5051 14.1876 51.3642 12.6533 50.5165 11.2894C49.644 10.0823 48.5051 9.19537 47.0312 8.88671C45.3597 8.7231 43.8562 8.8319 42.6562 10.1172ZM30.6249 10.9375C30.6249 12.0203 30.6249 13.1031 30.6249 14.2187C31.7078 14.2187 32.7906 14.2187 33.9062 14.2187C33.9904 13.3947 33.9904 13.3947 34.0739 12.5705C34.09 12.4149 34.09 12.4149 34.1065 12.2561C34.1172 12.1508 34.1279 12.0456 34.139 11.9372C34.1821 11.6015 34.25 11.2693 34.3163 10.9375C33.0982 10.9375 31.88 10.9375 30.6249 10.9375ZM57.5585 10.9375C57.5773 11.0347 57.596 11.1318 57.6153 11.2319C57.753 11.9631 57.8694 12.6805 57.9174 13.4241C57.9328 13.6512 57.9328 13.6512 57.9484 13.8828C57.9551 13.9937 57.9618 14.1045 57.9687 14.2187C58.1156 14.2207 58.2626 14.2227 58.414 14.2248C58.959 14.2327 59.504 14.2433 60.049 14.2546C60.2849 14.2592 60.5208 14.263 60.7568 14.2661C61.0959 14.2707 61.4348 14.2778 61.7739 14.2855C61.8794 14.2864 61.9849 14.2872 62.0937 14.2881C62.8285 14.3083 62.8285 14.3083 63.1236 14.5323C63.4328 14.9396 63.3568 15.4418 63.3528 15.9333C63.3534 16.054 63.3541 16.1746 63.3547 16.2989C63.3564 16.7048 63.3551 17.1107 63.3538 17.5165C63.3544 17.8069 63.3551 18.0972 63.356 18.3876C63.3578 19.1774 63.3571 19.9671 63.3558 20.7569C63.3548 21.5822 63.3557 22.4075 63.3564 23.2328C63.3571 24.6189 63.3561 26.005 63.3542 27.3911C63.352 28.9952 63.3527 30.5993 63.3549 32.2034C63.3568 33.579 63.3571 34.9545 63.356 36.3301C63.3554 37.1524 63.3553 37.9747 63.3566 38.797C63.3578 39.5699 63.357 40.3429 63.3546 41.1158C63.3541 41.4 63.3542 41.6843 63.3551 41.9685C63.3563 42.3554 63.3549 42.7423 63.3528 43.1292C63.3537 43.2426 63.3546 43.356 63.3556 43.4729C63.3478 44.2239 63.3478 44.2239 63.1499 44.5306C62.7597 44.796 62.4389 44.7585 61.9701 44.7586C61.8756 44.7592 61.781 44.7598 61.6836 44.7604C61.3645 44.762 61.0455 44.7605 60.7263 44.7591C60.4962 44.7596 60.266 44.7602 60.0359 44.761C59.4016 44.7628 58.7673 44.7619 58.1331 44.7606C57.4497 44.7597 56.7664 44.7611 56.0831 44.7623C54.7437 44.7641 53.4044 44.7637 52.065 44.7625C50.9769 44.7616 49.8887 44.7615 48.8006 44.7619C48.646 44.762 48.4913 44.762 48.332 44.7621C48.0179 44.7622 47.7038 44.7624 47.3897 44.7625C44.4416 44.7637 41.4935 44.7623 38.5453 44.7601C36.0136 44.7583 33.4818 44.7586 30.9501 44.7605C28.0128 44.7627 25.0755 44.7636 22.1382 44.7623C21.8252 44.7622 21.5123 44.762 21.1993 44.7619C21.0453 44.7618 20.8913 44.7618 20.7326 44.7617C19.6453 44.7614 18.5579 44.762 17.4706 44.7629C16.1462 44.7641 14.8218 44.7638 13.4975 44.7616C12.8212 44.7605 12.145 44.7601 11.4688 44.7614C10.8505 44.7626 10.2322 44.762 9.61387 44.7598C9.38947 44.7593 9.16508 44.7596 8.94069 44.7606C8.63702 44.7618 8.33346 44.7606 8.0298 44.7586C7.86072 44.7586 7.69165 44.7585 7.51746 44.7584C7.10932 44.707 7.10932 44.707 6.85 44.528C6.59205 44.1327 6.64171 43.687 6.64465 43.2302C6.64374 43.1205 6.64283 43.0107 6.64189 42.8976C6.63934 42.5285 6.6397 42.1595 6.64005 41.7904C6.63881 41.5264 6.6374 41.2623 6.63582 40.9982C6.63204 40.2802 6.63078 39.5622 6.62997 38.8442C6.62869 38.0943 6.6251 37.3443 6.62176 36.5944C6.61578 35.1737 6.61189 33.7531 6.60873 32.3325C6.60504 30.7153 6.59903 29.0982 6.59283 27.4811C6.58012 24.1541 6.57033 20.827 6.56244 17.5C6.45035 17.4917 6.33827 17.4834 6.22278 17.4749C6.07545 17.4634 5.92811 17.452 5.77631 17.4402C5.63038 17.4291 5.48446 17.418 5.33411 17.4065C4.92182 17.3633 4.92182 17.3633 4.37494 17.2266C4.37494 27.423 4.37494 37.6195 4.37494 48.125C24.5874 48.125 44.7999 48.125 65.6249 48.125C65.6334 42.1611 65.6419 36.1971 65.6506 30.0525C65.6543 28.1672 65.658 26.282 65.6619 24.3396C65.6633 22.6542 65.6633 22.6542 65.6641 20.9687C65.6645 20.2162 65.666 19.4638 65.6682 18.7113C65.6708 17.8438 65.672 16.9764 65.6715 16.1089C65.6712 15.665 65.6718 15.2211 65.6738 14.7772C65.6759 14.3022 65.6754 13.8272 65.6743 13.3522C65.6755 13.2132 65.6767 13.0743 65.6779 12.9311C65.6721 12.0041 65.6721 12.0041 65.2148 11.2109C64.7997 10.9213 64.4518 10.904 63.9532 10.9065C63.8109 10.9065 63.6686 10.9065 63.522 10.9065C63.3693 10.9079 63.2166 10.9093 63.0593 10.9108C62.9023 10.9112 62.7453 10.9116 62.5835 10.912C62.082 10.9135 61.5805 10.9169 61.079 10.9204C60.739 10.9218 60.399 10.923 60.059 10.9241C59.2255 10.9272 58.392 10.9317 57.5585 10.9375ZM32.6757 16.4062C32.2783 17.5082 32.004 18.6354 31.7242 19.7715C31.6355 20.1314 31.5462 20.4912 31.4568 20.8509C31.2673 21.6137 31.0785 22.3766 30.8898 23.1396C30.6706 24.0262 30.4511 24.9127 30.2307 25.799C30.1429 26.1528 30.0557 26.5068 29.9685 26.8607C29.9146 27.0779 29.8607 27.295 29.8067 27.5121C29.7828 27.61 29.7589 27.7079 29.7342 27.8087C29.6093 28.3083 29.4815 28.7927 29.2578 29.2578C28.9208 29.4263 28.6901 29.4161 28.3132 29.4226C28.1736 29.4253 28.0341 29.428 27.8902 29.4309C27.6636 29.4343 27.6636 29.4343 27.4323 29.4378C27.278 29.4406 27.1236 29.4435 26.9645 29.4464C26.47 29.4554 25.9755 29.4634 25.4809 29.4714C25.1462 29.4773 24.8115 29.4833 24.4769 29.4893C23.6551 29.504 22.8334 29.5179 22.0117 29.5312C21.8515 29.8442 21.6921 30.1576 21.5331 30.4712C21.4875 30.5602 21.4419 30.6492 21.3948 30.7409C21.141 31.2064 21.141 31.2064 21.0546 31.7187C21.2275 31.7239 21.4004 31.729 21.5785 31.7342C21.8055 31.7432 22.0325 31.7523 22.2595 31.7615C22.3734 31.7645 22.4873 31.7676 22.6047 31.7708C22.7693 31.7781 22.7693 31.7781 22.9372 31.7855C23.0886 31.7909 23.0886 31.7909 23.2431 31.7963C23.6073 31.8754 23.7056 31.9626 23.9257 32.2656C23.968 32.61 23.9855 32.9213 23.9848 33.266C23.9862 33.3674 23.9876 33.4688 23.9891 33.5733C23.9932 33.9084 23.9944 34.2435 23.9957 34.5786C23.998 34.811 24.0005 35.0434 24.0031 35.2757C24.0096 35.8873 24.0137 36.4989 24.0173 37.1105C24.0213 37.7346 24.0277 38.3587 24.0339 38.9827C24.0456 40.2072 24.0546 41.4317 24.0624 42.6562C24.7843 42.6562 25.5062 42.6562 26.2499 42.6562C26.2519 42.3436 26.2539 42.031 26.256 41.7089C26.2629 40.677 26.272 39.6451 26.2822 38.6132C26.2883 37.9874 26.2937 37.3617 26.2973 36.7359C26.3009 36.1322 26.3064 35.5285 26.3133 34.9249C26.3156 34.6943 26.3171 34.4638 26.318 34.2333C26.3193 33.9108 26.3231 33.5885 26.3275 33.266C26.3274 33.1703 26.3272 33.0746 26.327 32.976C26.3396 32.3292 26.3396 32.3292 26.5567 32.0362C26.8618 31.8065 27.0322 31.8031 27.4119 31.8009C27.5378 31.7992 27.6638 31.7975 27.7936 31.7958C28.0004 31.796 28.0004 31.796 28.2114 31.7963C28.3568 31.795 28.5022 31.7936 28.652 31.7921C29.1336 31.788 29.6152 31.7867 30.0968 31.7855C30.4303 31.7832 30.7638 31.7807 31.0973 31.7781C31.9759 31.7716 32.8545 31.7675 33.7331 31.7639C34.6294 31.7599 35.5256 31.7535 36.4219 31.7473C38.181 31.7355 39.94 31.7263 41.6992 31.7187C41.5231 31.4051 41.3464 31.0919 41.1694 30.7788C41.1195 30.6898 41.0696 30.6008 41.0182 30.5091C40.8123 30.1459 40.6286 29.8279 40.332 29.5312C39.9809 29.4887 39.9809 29.4887 39.567 29.4942C39.4068 29.4928 39.2467 29.4914 39.0817 29.4899C38.9079 29.4896 38.7342 29.4894 38.5552 29.489C38.2837 29.4865 38.0123 29.4839 37.7408 29.4812C37.0698 29.475 36.3988 29.4718 35.7278 29.4689C35.3517 29.4671 34.9755 29.4643 34.5994 29.4603C34.2445 29.4567 33.8897 29.4549 33.5349 29.4548C33.3743 29.453 33.2137 29.4512 33.0483 29.4493C32.9067 29.4486 32.7651 29.4479 32.6193 29.4472C32.2656 29.3945 32.2656 29.3945 32.0153 29.2173C31.709 28.771 31.7943 28.266 31.8554 27.7539C31.9853 27.1078 32.1442 26.4716 32.3112 25.8342C32.3952 25.5131 32.4775 25.1916 32.5593 24.8699C32.7332 24.1873 32.9094 23.5054 33.0859 22.8235C33.2905 22.0321 33.4942 21.2406 33.6957 20.4484C33.7765 20.1331 33.8588 19.8182 33.9411 19.5033C33.991 19.3084 34.0408 19.1134 34.0904 18.9184C34.1342 18.7497 34.1779 18.581 34.2229 18.4071C34.3527 17.7167 34.4053 17.0833 34.1796 16.4062C33.6833 16.4062 33.1871 16.4062 32.6757 16.4062ZM58.9257 16.4062C58.5337 17.5114 58.2499 18.6394 57.9671 19.7761C57.9156 19.9818 57.8641 20.1875 57.8125 20.3932C57.7052 20.8218 57.5983 21.2504 57.4916 21.6791C57.3548 22.2286 57.2171 22.7779 57.0792 23.3272C56.973 23.7507 56.8672 24.1744 56.7615 24.5981C56.7109 24.8008 56.6601 25.0035 56.6092 25.2061C56.5384 25.4883 56.4682 25.7707 56.3982 26.0531C56.3581 26.2137 56.3181 26.3742 56.2768 26.5396C56.1769 26.9332 56.1769 26.9332 56.1913 27.3437C57.8607 27.3437 59.53 27.3437 61.2499 27.3437C61.2499 23.7344 61.2499 20.125 61.2499 16.4062C60.4829 16.4062 59.716 16.4062 58.9257 16.4062ZM28.8989 16.8079C28.2851 17.2509 27.8724 17.3802 27.1146 17.3849C26.953 17.3862 26.7914 17.3876 26.6248 17.389C26.3586 17.3901 26.3586 17.3901 26.087 17.3913C25.8983 17.3927 25.7097 17.394 25.521 17.3954C25.0087 17.3991 24.4963 17.402 23.9839 17.4047C23.4486 17.4077 22.9132 17.4115 22.3778 17.4151C21.3639 17.422 20.35 17.4281 19.3361 17.434C17.9661 17.442 16.5961 17.4511 15.2261 17.4601C13.0674 17.4743 10.9087 17.487 8.74994 17.5C8.74994 20.7484 8.74994 23.9969 8.74994 27.3437C9.87787 27.3437 11.0058 27.3437 12.1679 27.3437C12.1566 26.9913 12.1454 26.6388 12.1337 26.2756C12.1198 24.8231 12.444 23.6985 13.392 22.5682C14.5905 21.356 15.8129 20.8842 17.4829 20.8581C19.0672 20.8698 20.3193 21.2893 21.4648 22.4219C22.8451 24.0439 22.832 25.1018 22.832 27.3437C24.366 27.3437 25.8999 27.3437 27.4804 27.3437C27.7299 26.5954 27.9603 25.8857 28.1505 25.1267C28.1732 25.0365 28.1959 24.9463 28.2194 24.8533C28.2931 24.5603 28.3661 24.2671 28.439 23.9738C28.4905 23.7681 28.5421 23.5624 28.5936 23.3567C28.7009 22.9282 28.8078 22.4996 28.9145 22.0709C29.0513 21.5214 29.189 20.9721 29.3269 20.4228C29.4332 19.9993 29.539 19.5756 29.6446 19.1519C29.6952 18.9492 29.746 18.7465 29.7969 18.5439C29.8677 18.2617 29.9379 17.9793 30.0079 17.6969C30.068 17.4561 30.068 17.4561 30.1293 17.2104C30.2293 16.8168 30.2293 16.8168 30.2148 16.4062C29.6362 16.3582 29.364 16.4682 28.8989 16.8079ZM35.8203 21.1914C35.4195 22.5958 35.0406 24.0049 34.6838 25.4211C34.6474 25.5644 34.611 25.7077 34.5734 25.8553C34.5399 25.9896 34.5063 26.1239 34.4718 26.2623C34.4417 26.3819 34.4117 26.5016 34.3808 26.6249C34.3024 26.9479 34.3024 26.9479 34.3163 27.3437C35.8503 27.3437 37.3843 27.3437 38.9648 27.3437C38.7694 26.7576 38.6019 26.3224 38.3095 25.7976C38.235 25.6626 38.1605 25.5275 38.0837 25.3883C37.9657 25.1761 37.9657 25.1761 37.8454 24.9597C37.1656 23.723 36.5261 22.4829 35.957 21.1914C35.9119 21.1914 35.8667 21.1914 35.8203 21.1914ZM14.7965 24.494C14.2822 25.2671 14.2471 26.0326 14.3554 26.9336C14.5162 27.5126 14.769 28.0396 15.039 28.5742C15.094 28.6834 15.1491 28.7926 15.2058 28.9051C15.7737 30.0229 16.3544 31.1327 16.9835 32.2176C17.0827 32.3887 17.0827 32.3887 17.1838 32.5633C17.243 32.6455 17.3022 32.7278 17.3632 32.8125C17.4535 32.8125 17.5437 32.8125 17.6367 32.8125C19.9017 29.3497 19.9017 29.3497 20.6445 25.4297C20.3976 24.5224 19.7634 23.9022 19.0038 23.3789C17.3438 22.5571 15.8989 23.1884 14.7965 24.494ZM54.2773 24.6094C54.2349 24.6853 54.1925 24.7612 54.1488 24.8394C53.1326 26.6565 52.0922 28.4568 51.0243 30.2438C50.9355 30.3927 50.8467 30.5416 50.7552 30.695C50.6763 30.8267 50.5974 30.9585 50.5161 31.0943C50.2569 31.533 50.2569 31.533 50.039 31.9922C50.0841 32.0824 50.1292 32.1726 50.1757 32.2656C50.1924 32.5951 50.2011 32.9208 50.2038 33.2505C50.2051 33.3519 50.2065 33.4533 50.2079 33.5577C50.2122 33.8936 50.2156 34.2294 50.219 34.5653C50.2218 34.7978 50.2247 35.0304 50.2276 35.263C50.2351 35.8757 50.2419 36.4884 50.2485 37.1011C50.2554 37.7261 50.263 38.3511 50.2705 38.9761C50.2852 40.2028 50.299 41.4295 50.3124 42.6562C51.0343 42.6562 51.7562 42.6562 52.4999 42.6562C52.5019 42.3768 52.5039 42.0973 52.506 41.8093C52.5129 40.8865 52.522 39.9638 52.5322 39.041C52.5383 38.4815 52.5436 37.9219 52.5473 37.3624C52.5509 36.8225 52.5564 36.2826 52.5633 35.7428C52.5655 35.5367 52.5671 35.3306 52.568 35.1245C52.5693 34.836 52.5731 34.5477 52.5775 34.2594C52.5791 34.0951 52.5806 33.9309 52.5821 33.7616C52.6367 33.3594 52.6367 33.3594 52.7955 33.1017C53.153 32.8847 53.4293 32.8945 53.8464 32.8901C54.0927 32.886 54.0927 32.886 54.344 32.8819C54.5213 32.881 54.6986 32.8801 54.8813 32.8792C55.0646 32.8769 55.248 32.8745 55.4313 32.8718C55.9134 32.8653 56.3955 32.8612 56.8776 32.8577C57.3698 32.8536 57.8619 32.8472 58.354 32.8411C59.3193 32.8293 60.2846 32.8203 61.2499 32.8125C61.2499 31.7297 61.2499 30.6469 61.2499 29.5312C60.4873 29.5236 60.4873 29.5236 59.7092 29.5158C59.2178 29.5094 58.7264 29.5024 58.235 29.4954C57.893 29.4908 57.551 29.487 57.209 29.4839C56.7179 29.4793 56.2269 29.4721 55.7358 29.4645C55.5824 29.4636 55.429 29.4627 55.271 29.4618C55.1287 29.4591 54.9864 29.4564 54.8397 29.4536C54.7144 29.4521 54.589 29.4506 54.4598 29.449C54.0818 29.3845 53.9592 29.2867 53.7304 28.9844C53.5511 28.0965 53.842 27.1852 54.0808 26.3354C54.1475 26.0954 54.2132 25.8551 54.2778 25.6145C54.3072 25.5099 54.3365 25.4053 54.3668 25.2976C54.4409 24.9931 54.4409 24.9931 54.2773 24.6094ZM8.74994 29.5312C8.74994 30.2531 8.74994 30.975 8.74994 31.7187C10.5095 31.7187 12.2691 31.7187 14.082 31.7187C13.721 30.9969 13.3601 30.275 12.9882 29.5312C11.5896 29.5312 10.191 29.5312 8.74994 29.5312ZM8.74994 33.9062C8.74994 36.7937 8.74994 39.6812 8.74994 42.6562C13.0812 42.6562 17.4124 42.6562 21.8749 42.6562C21.8749 39.7687 21.8749 36.8812 21.8749 33.9062C19.7393 33.6552 19.7393 33.6552 19.0642 34.3201C18.9177 34.578 18.9177 34.578 18.8073 34.8547C18.7167 35.0327 18.6257 35.2106 18.5344 35.3883C18.4637 35.5308 18.3931 35.6734 18.3203 35.8203C17.8924 36.0342 17.4164 36.0523 16.9531 35.957C16.6063 35.6664 16.424 35.4575 16.2633 35.0311C16.0594 34.5092 15.8925 34.2569 15.4492 33.9062C14.3538 33.6377 13.1531 33.7675 12.0397 33.8122C10.9541 33.8433 9.86847 33.8743 8.74994 33.9062ZM28.4374 33.9062C28.4374 36.7937 28.4374 39.6812 28.4374 42.6562C34.9343 42.6562 41.4312 42.6562 48.1249 42.6562C48.1249 40.1297 48.1249 37.6031 48.1249 35C47.6914 35.5419 47.3163 36.074 46.9447 36.6556C46.7578 36.9141 46.7578 36.9141 46.4843 37.0508C45.494 37.1306 45.494 37.1306 45.1348 36.8532C44.7122 36.3461 44.3576 35.8004 43.9977 35.2478C43.8506 35.0236 43.7034 34.7995 43.5561 34.5754C43.4915 34.4765 43.427 34.3776 43.3605 34.2757C43.2181 34.0494 43.2181 34.0494 43.0663 33.9062C42.8761 33.8932 42.6852 33.8896 42.4945 33.8898C42.3713 33.8896 42.248 33.8894 42.121 33.8892C41.9165 33.89 41.9165 33.89 41.7079 33.8907C41.5652 33.8907 41.4225 33.8907 41.2755 33.8907C40.8013 33.8908 40.3271 33.8918 39.8529 33.8929C39.5251 33.8931 39.1973 33.8933 38.8696 33.8935C38.0049 33.894 37.1402 33.8953 36.2756 33.8969C35.2391 33.8985 34.2027 33.8991 33.1663 33.8999C31.59 33.9013 30.0137 33.9039 28.4374 33.9062ZM54.6874 35C54.6874 37.5266 54.6874 40.0531 54.6874 42.6562C56.8531 42.6562 59.0187 42.6562 61.2499 42.6562C61.2499 40.1297 61.2499 37.6031 61.2499 35C59.0843 35 56.9187 35 54.6874 35ZM4.37494 50.3125C4.08185 53.3748 4.08185 53.3748 4.7851 54.4141C5.2582 54.7678 5.74939 54.7219 6.32403 54.7223C6.47494 54.7229 6.47494 54.7229 6.6289 54.7236C6.96786 54.7248 7.30679 54.7239 7.64576 54.7231C7.89049 54.7235 8.13523 54.7241 8.37996 54.7247C9.05393 54.7261 9.72789 54.7258 10.4019 54.7252C11.1282 54.7249 11.8544 54.7261 12.5807 54.7272C14.0041 54.7289 15.4276 54.7291 16.851 54.7288C18.0075 54.7286 19.1641 54.7288 20.3207 54.7294C20.4851 54.7295 20.6495 54.7296 20.8189 54.7297C21.1529 54.7298 21.4868 54.73 21.8208 54.7301C24.9548 54.7316 28.0889 54.7313 31.223 54.7305C34.0923 54.7298 36.9615 54.7313 39.8308 54.7339C42.7747 54.7366 45.7186 54.7377 48.6625 54.7372C50.3162 54.7369 51.9699 54.7373 53.6236 54.7392C55.0313 54.7408 56.439 54.741 57.8468 54.7394C58.5654 54.7386 59.284 54.7384 60.0026 54.7401C60.66 54.7415 61.3173 54.7411 61.9747 54.7392C62.213 54.7388 62.4513 54.7392 62.6896 54.7403C63.0126 54.7416 63.3356 54.7405 63.6586 54.7387C63.9282 54.7387 63.9282 54.7387 64.2032 54.7387C64.7054 54.6834 64.9585 54.5909 65.3515 54.2773C65.944 53.0924 65.6249 51.6372 65.6249 50.3125C45.4124 50.3125 25.1999 50.3125 4.37494 50.3125ZM30.7617 56.875C29.829 59.0208 29.829 59.0208 29.3945 61.25C33.0941 61.25 36.7937 61.25 40.6054 61.25C40.274 59.7585 39.7402 58.3181 39.2382 56.875C36.441 56.875 33.6437 56.875 30.7617 56.875ZM20.2343 64.5312C19.9183 65.0461 19.9183 65.0461 19.8242 65.625C29.8402 65.625 39.8562 65.625 50.1757 65.625C49.8805 64.7395 49.6133 64.2228 48.8085 63.7366C48.097 63.4549 47.4343 63.4174 46.6755 63.4183C46.5719 63.4179 46.4683 63.4175 46.3616 63.4171C46.0152 63.4159 45.6688 63.4157 45.3223 63.4155C45.0737 63.4148 44.8251 63.4141 44.5764 63.4134C43.9013 63.4116 43.2261 63.4107 42.551 63.4101C42.129 63.4097 41.707 63.4092 41.2849 63.4085C39.9639 63.4067 38.6428 63.4054 37.3217 63.4048C35.798 63.4042 34.2742 63.4018 32.7504 63.3979C31.5718 63.3949 30.3931 63.3935 29.2145 63.3933C28.5109 63.3932 27.8074 63.3924 27.1038 63.3899C26.4417 63.3877 25.7796 63.3874 25.1175 63.3886C24.8751 63.3887 24.6326 63.3881 24.3902 63.3868C22.1138 63.3596 22.1138 63.3596 20.2343 64.5312Z" fill="#484545"/>
<path d="M8.75 5.40038C8.92201 5.39827 9.09402 5.39615 9.27124 5.39397C10.8288 5.40057 10.8288 5.40057 11.4844 6.01562C12.0265 6.61482 12.1176 7.10913 12.0847 7.89176C12.0313 8.20312 12.0313 8.20312 11.792 8.55346C11.4977 8.74146 11.2814 8.83759 10.9375 8.88671C11.0672 8.98822 11.1969 9.08974 11.3306 9.19433C11.7636 9.53324 11.9975 9.8624 12.071 10.4173C12.0777 10.7673 12.082 11.1171 12.0825 11.4673C12.0859 11.5884 12.0892 11.7094 12.0927 11.8342C12.0961 12.6062 12.0207 13.075 11.4844 13.6719C10.8275 14.3201 10.1472 14.2898 9.27124 14.2935C9.09923 14.2914 8.92722 14.2893 8.75 14.2871C8.57799 14.2892 8.40598 14.2913 8.22876 14.2935C6.67122 14.2869 6.67122 14.2869 6.01563 13.6719C5.47349 13.0727 5.38239 12.5784 5.41535 11.7957C5.46875 11.4844 5.46875 11.4844 5.70801 11.134C6.00227 10.946 6.21862 10.8499 6.5625 10.8008C6.43279 10.6993 6.30308 10.5977 6.16944 10.4932C5.73638 10.1542 5.50248 9.82509 5.42903 9.27023C5.4223 8.92015 5.41799 8.57036 5.41748 8.22021C5.41413 8.09913 5.41079 7.97805 5.40734 7.85331C5.40388 7.08128 5.4793 6.61253 6.01563 6.01562C6.78314 5.25821 7.73949 5.38796 8.75 5.40038ZM7.65625 7.65624C7.65625 8.01718 7.65625 8.37812 7.65625 8.74999C8.5586 8.74999 9.46094 8.74999 10.3906 8.74999C10.2553 8.56952 10.1199 8.38905 9.98047 8.20312C9.93535 8.02265 9.89024 7.84218 9.84375 7.65624C9.12188 7.65624 8.4 7.65624 7.65625 7.65624ZM7.10938 10.9375C7.24473 11.118 7.38008 11.2984 7.51953 11.4844C7.56465 11.6648 7.60977 11.8453 7.65625 12.0312C8.37813 12.0312 9.1 12.0312 9.84375 12.0312C9.84375 11.6703 9.84375 11.3094 9.84375 10.9375C8.94141 10.9375 8.03907 10.9375 7.10938 10.9375Z" fill="#484545"/>
<path d="M15.3296 5.42282C15.4368 5.42191 15.5439 5.421 15.6544 5.42007C15.8805 5.41868 16.1067 5.41804 16.3328 5.41808C16.6785 5.41749 17.024 5.41251 17.3697 5.40734C17.5897 5.40653 17.8098 5.40599 18.0298 5.40573C18.1845 5.40279 18.1845 5.40279 18.3423 5.39978C18.8265 5.40399 19.0898 5.42963 19.479 5.72904C19.7049 6.03951 19.7618 6.18314 19.7559 6.5625C19.7573 6.65274 19.7587 6.74297 19.7601 6.83594C19.6528 7.2401 19.4653 7.39647 19.1406 7.65625C18.7271 7.71834 18.7271 7.71834 18.2498 7.70966C18.0789 7.7079 17.9079 7.70613 17.7318 7.70432C17.4648 7.69744 17.4648 7.69744 17.1924 7.69043C17.0123 7.68797 16.8322 7.6855 16.6466 7.68296C16.2018 7.67651 15.7572 7.66751 15.3125 7.65625C15.3125 8.01719 15.3125 8.37813 15.3125 8.75C15.4256 8.74714 15.5387 8.74428 15.6552 8.74132C16.1676 8.72996 16.6799 8.72284 17.1924 8.71582C17.3704 8.71124 17.5484 8.70666 17.7318 8.70194C17.9027 8.70018 18.0737 8.69841 18.2498 8.6966C18.4073 8.69373 18.5648 8.69087 18.7271 8.68792C19.227 8.76297 19.3823 8.90264 19.6875 9.29688C19.7601 9.57032 19.7601 9.57032 19.7559 9.84375C19.7573 9.93399 19.7587 10.0242 19.7601 10.1172C19.6528 10.5213 19.4653 10.6777 19.1406 10.9375C18.7271 10.9996 18.7271 10.9996 18.2498 10.9909C18.0789 10.9891 17.9079 10.9874 17.7318 10.9856C17.4648 10.9787 17.4648 10.9787 17.1924 10.9717C17.0123 10.9692 16.8322 10.9667 16.6466 10.9642C16.2018 10.9578 15.7572 10.9488 15.3125 10.9375C15.3125 11.2984 15.3125 11.6594 15.3125 12.0313C15.4256 12.0284 15.5387 12.0255 15.6552 12.0226C16.1676 12.0112 16.6799 12.0041 17.1924 11.9971C17.3704 11.9925 17.5484 11.9879 17.7318 11.9832C17.9027 11.9814 18.0737 11.9797 18.2498 11.9778C18.4861 11.9736 18.4861 11.9736 18.7271 11.9692C19.227 12.0442 19.3823 12.1839 19.6875 12.5781C19.7601 12.8516 19.7601 12.8516 19.7559 13.125C19.7573 13.2152 19.7587 13.3055 19.7601 13.3984C19.6507 13.8105 19.4778 13.9583 19.1406 14.2188C18.7553 14.2732 18.4244 14.2956 18.0394 14.2914C17.9329 14.2919 17.8263 14.2924 17.7166 14.293C17.4916 14.2933 17.2666 14.2923 17.0416 14.29C16.6988 14.2871 16.3565 14.29 16.0137 14.2935C15.7946 14.2932 15.5754 14.2925 15.3563 14.2914C15.2037 14.293 15.2037 14.293 15.0481 14.2947C14.3438 14.2822 13.9339 14.1275 13.3984 13.6719C13.1446 13.2636 13.0897 12.9507 13.0853 12.4735C13.0835 12.3448 13.0818 12.2161 13.08 12.0835C13.0797 11.9454 13.0794 11.8072 13.0791 11.6649C13.0782 11.5219 13.0773 11.379 13.0763 11.2317C13.0749 10.9295 13.0743 10.6272 13.0743 10.325C13.0737 9.86349 13.0688 9.40215 13.0636 8.94066C13.0628 8.64675 13.0622 8.35284 13.062 8.05893C13.06 7.92134 13.0581 7.78374 13.056 7.64197C13.0612 6.85283 13.1168 6.35218 13.6719 5.74219C14.1561 5.36587 14.7412 5.42456 15.3296 5.42282Z" fill="#484545"/>
<path d="M23.7404 5.41807C24.0435 5.41747 24.3464 5.41251 24.6494 5.40732C24.8437 5.40652 25.0379 5.40598 25.2321 5.40572C25.4076 5.4046 25.5831 5.40347 25.7639 5.40232C26.3386 5.48085 26.6275 5.64582 27.0703 6.01562C27.3247 6.42353 27.3791 6.73695 27.3835 7.21397C27.3852 7.34267 27.387 7.47137 27.3888 7.60397C27.3891 7.74212 27.3894 7.88027 27.3897 8.0226C27.3906 8.16555 27.3915 8.30849 27.3924 8.45576C27.3938 8.758 27.3945 9.06025 27.3944 9.36249C27.395 9.82401 27.4 10.2853 27.4052 10.7468C27.406 11.0407 27.4065 11.3347 27.4068 11.6286C27.4087 11.7662 27.4107 11.9038 27.4127 12.0455C27.4076 12.8347 27.352 13.3353 26.7969 13.9453C26.141 14.4383 25.1711 14.2696 24.3846 14.2694C24.0815 14.27 23.7786 14.275 23.4756 14.2802C23.2814 14.281 23.0871 14.2815 22.8929 14.2818C22.7174 14.2829 22.5419 14.284 22.3611 14.2852C21.7864 14.2066 21.4975 14.0417 21.0547 13.6719C20.8003 13.264 20.7459 12.9505 20.7415 12.4735C20.7398 12.3448 20.738 12.2161 20.7362 12.0835C20.7359 11.9454 20.7356 11.8072 20.7353 11.6649C20.7344 11.5219 20.7335 11.379 20.7326 11.2317C20.7312 10.9295 20.7305 10.6272 20.7306 10.325C20.73 9.86347 20.725 9.40214 20.7198 8.94065C20.719 8.64674 20.7185 8.35283 20.7182 8.05892C20.7163 7.92132 20.7143 7.78373 20.7123 7.64196C20.7174 6.85282 20.773 6.35217 21.3281 5.74218C21.984 5.24917 22.9539 5.4179 23.7404 5.41807ZM22.9688 7.65624C22.9688 9.09999 22.9688 10.5437 22.9688 12.0312C23.6906 12.0312 24.4125 12.0312 25.1563 12.0312C25.1563 10.5875 25.1563 9.14374 25.1563 7.65624C24.4344 7.65624 23.7125 7.65624 22.9688 7.65624Z" fill="#484545"/>
<path d="M31.0352 51.3355C31.1304 51.3346 31.2256 51.3336 31.3237 51.3326C31.6377 51.3302 31.9516 51.3318 32.2656 51.3336C32.4842 51.3333 32.7028 51.3327 32.9214 51.3321C33.3793 51.3312 33.8372 51.3324 34.295 51.335C34.8817 51.3381 35.4682 51.3363 36.0549 51.333C36.5062 51.331 36.9575 51.3317 37.4089 51.3331C37.6252 51.3335 37.8415 51.333 38.0577 51.3317C38.3602 51.3303 38.6624 51.3325 38.9648 51.3355C39.2229 51.3362 39.2229 51.3362 39.4861 51.3368C39.9978 51.4184 40.1586 51.5464 40.4688 51.9531C40.5414 52.2266 40.5414 52.2266 40.5371 52.5C40.5392 52.6354 40.5392 52.6354 40.5414 52.7735C40.4334 53.1798 40.2499 53.3335 39.9219 53.5938C39.4861 53.6632 39.4861 53.6632 38.9648 53.6645C38.8696 53.6655 38.7744 53.6665 38.6763 53.6674C38.3623 53.6698 38.0484 53.6683 37.7344 53.6664C37.5158 53.6668 37.2972 53.6673 37.0786 53.668C36.6207 53.6688 36.1628 53.6676 35.705 53.6651C35.1183 53.662 34.5318 53.6637 33.9451 53.667C33.4938 53.669 33.0425 53.6684 32.5911 53.667C32.3748 53.6666 32.1585 53.667 31.9423 53.6683C31.6398 53.6697 31.3376 53.6676 31.0352 53.6645C30.8631 53.6641 30.6911 53.6637 30.5139 53.6632C30.0022 53.5817 29.8414 53.4536 29.5312 53.0469C29.4586 52.7735 29.4586 52.7735 29.4629 52.5C29.4608 52.3647 29.4608 52.3647 29.4586 52.2266C29.6762 51.4075 30.2839 51.3374 31.0352 51.3355Z" fill="#484545"/>
<path d="M18.3203 24.0625C18.9881 24.3725 19.3774 24.7618 19.6875 25.4297C19.7906 26.1953 19.7932 26.8427 19.4653 27.5488C18.84 28.207 18.4148 28.4719 17.5 28.5058C16.5852 28.4719 16.16 28.207 15.5347 27.5488C15.2068 26.8427 15.2094 26.1953 15.3125 25.4297C15.9247 24.1111 16.9732 23.8811 18.3203 24.0625Z" fill="#484545"/>
<path d="M43.9551 51.3336C44.0989 51.3329 44.2427 51.3322 44.3909 51.3315C44.5403 51.3336 44.6898 51.3357 44.8438 51.3379C45.0679 51.3347 45.0679 51.3347 45.2966 51.3315C45.4404 51.3322 45.5843 51.3329 45.7324 51.3336C45.9291 51.3345 45.9291 51.3345 46.1298 51.3355C46.5819 51.4257 46.7454 51.5992 47.0312 51.9531C47.1039 52.2266 47.1039 52.2266 47.0996 52.5C47.101 52.5902 47.1024 52.6805 47.1039 52.7734C46.9979 53.1724 46.8001 53.333 46.4844 53.5938C46.1298 53.6645 46.1298 53.6645 45.7324 53.6664C45.5886 53.6671 45.4448 53.6678 45.2966 53.6685C45.1472 53.6664 44.9977 53.6643 44.8438 53.6621C44.6196 53.6653 44.6196 53.6653 44.3909 53.6685C44.2471 53.6678 44.1032 53.6671 43.9551 53.6664C43.824 53.6658 43.6928 53.6651 43.5577 53.6645C43.1056 53.5743 42.9421 53.4008 42.6562 53.0469C42.5836 52.7734 42.5836 52.7734 42.5879 52.5C42.5858 52.3646 42.5858 52.3646 42.5836 52.2266C42.7721 51.5169 43.2796 51.3368 43.9551 51.3336Z" fill="#484545"/>
<path d="M24.2676 51.3336C24.4114 51.3329 24.5552 51.3322 24.7034 51.3315C24.8528 51.3336 25.0023 51.3357 25.1562 51.3379C25.3804 51.3347 25.3804 51.3347 25.6091 51.3315C25.7529 51.3322 25.8968 51.3329 26.0449 51.3336C26.2416 51.3345 26.2416 51.3345 26.4423 51.3355C26.8944 51.4257 27.0579 51.5992 27.3438 51.9531C27.4164 52.2266 27.4164 52.2266 27.4121 52.5C27.4135 52.5902 27.4149 52.6805 27.4164 52.7734C27.3104 53.1724 27.1126 53.333 26.7969 53.5938C26.4423 53.6645 26.4423 53.6645 26.0449 53.6664C25.9011 53.6671 25.7573 53.6678 25.6091 53.6685C25.4597 53.6664 25.3102 53.6643 25.1562 53.6621C24.9321 53.6653 24.9321 53.6653 24.7034 53.6685C24.5596 53.6678 24.4157 53.6671 24.2676 53.6664C24.1365 53.6658 24.0053 53.6651 23.8702 53.6645C23.4181 53.5743 23.2546 53.4008 22.9688 53.0469C22.8961 52.7734 22.8961 52.7734 22.9004 52.5C22.8983 52.3646 22.8983 52.3646 22.8961 52.2266C23.0846 51.5169 23.5921 51.3368 24.2676 51.3336Z" fill="#484545"/>
</svg>
