<svg width="70" height="70" viewBox="0 0 70 70" fill="none" xmlns="http://www.w3.org/2000/svg">
<path d="M7.10935 2.50195C4.75778 3.29492 3.07614 5.05859 2.40622 7.39648C2.20114 8.08008 2.18747 10.3906 2.21482 31.1172L2.25583 54.0996L2.84372 55.2617C3.80075 57.2305 5.45505 58.584 7.5195 59.1309C8.14841 59.2949 9.96677 59.3359 18.5117 59.3359C27.959 59.3359 28.7383 59.3496 28.6562 59.5547C28.6015 59.6914 28.164 61.127 27.6582 62.7676L26.7558 65.748L24.7871 65.7891C22.9004 65.8301 22.791 65.8438 22.5449 66.1582C22.1758 66.623 22.2168 67.1836 22.6406 67.5254C23.0097 67.8125 23.0781 67.8125 35 67.8125C46.9218 67.8125 46.9902 67.8125 47.3593 67.5254C47.7832 67.1836 47.8242 66.623 47.4551 66.1582C47.209 65.8438 47.0996 65.8301 45.2129 65.7891L43.2441 65.748L42.3281 62.7402C41.8222 61.0996 41.3847 59.6504 41.3437 59.541C41.2754 59.3633 42.4511 59.3359 51.4883 59.3359C62.6855 59.3359 62.3711 59.3496 64.08 58.5156C65.666 57.7363 67.1425 55.8906 67.6211 54.0859C67.7715 53.5117 67.8125 49.4512 67.8125 30.748C67.8125 10.4316 67.7851 8.03906 67.5937 7.36914C66.8828 4.97656 65.0234 3.11719 62.6308 2.40625C61.9609 2.21484 59.2129 2.1875 34.9453 2.1875L7.99802 2.20117L7.10935 2.50195ZM62.5215 4.44336C63.4785 4.83984 64.3945 5.57812 64.9687 6.42578C65.9531 7.86133 65.8984 6.58984 65.8984 28.6699V48.5352H35H4.10153V28.6699C4.10153 6.78125 4.06052 7.90234 4.94919 6.52148C5.66013 5.41406 6.69919 4.66211 8.06638 4.29297C8.54489 4.15625 14.4101 4.12891 35.2734 4.14258C61.4277 4.16992 61.8789 4.16992 62.5215 4.44336ZM65.8711 51.9805C65.83 52.9785 65.7207 53.6074 65.5156 54.1406C64.9277 55.6582 63.3828 56.916 61.6875 57.2715C61.1679 57.3809 53.4707 57.4219 34.959 57.4219C6.49411 57.4219 8.18942 57.4629 6.65817 56.6289C6.28903 56.4375 5.71482 55.959 5.38669 55.5762C4.52536 54.6055 4.21091 53.6895 4.12888 51.9805L4.07419 50.5859H35H65.9258L65.8711 51.9805ZM39.2383 59.3906C39.2383 59.4316 40.6601 64.1074 41.0976 65.5156C41.166 65.748 40.8105 65.7617 35 65.7617C29.1894 65.7617 28.834 65.748 28.9023 65.5156C29.2715 64.3672 30.7617 59.418 30.7617 59.377C30.7617 59.3633 32.6758 59.3359 35 59.3359C37.3379 59.3359 39.2383 59.3633 39.2383 59.3906Z" fill="#484545"/>
<path d="M48.7402 11.7578C48.4121 12.1133 48.4257 12.7969 48.7539 13.125C48.9589 13.3301 49.3691 13.4258 50.6543 13.5488C51.5566 13.6445 52.3359 13.7539 52.3906 13.7949C52.6093 13.9863 47.7011 17.4043 44.5019 19.2637C35.875 24.3086 24.0898 28.4922 13.6308 30.2285C12.2226 30.4609 11.9218 30.5566 11.6621 30.8437C11.2793 31.2676 11.2656 31.582 11.6347 32.0469C11.9902 32.498 12.2636 32.498 14.6425 32.0742C29.3398 29.4219 43.6543 23.3516 53.58 15.5312C53.7441 15.4082 53.7578 15.5176 53.6894 16.2969C53.6347 16.8164 53.5527 17.623 53.5117 18.1016C53.4296 18.8672 53.457 19.0039 53.7168 19.2637C54.0859 19.6328 54.8379 19.6465 55.166 19.2773C55.3574 19.0723 55.4668 18.375 55.7265 15.9687C55.9043 14.3008 56.0136 12.8105 55.9726 12.6738C55.8222 12.1953 55.3164 12.0586 52.6367 11.7715C49.3007 11.416 49.0546 11.416 48.7402 11.7578Z" fill="#484545"/>
<path d="M52.2265 21.6973C51.7207 21.8887 51.2148 22.3672 50.9824 22.8867C50.7363 23.4199 50.7226 23.9941 50.7226 33.4551V43.4766H48.4668H46.2109V36.2305C46.2109 28.3008 46.2246 28.4648 45.4043 27.6855L44.9668 27.2754L42.0683 27.2344C39.2246 27.1934 39.1562 27.1934 38.7051 27.5078C38.4453 27.6855 38.1035 28 37.9531 28.2051C37.666 28.5879 37.666 28.7246 37.625 36.0391L37.584 43.4766H35.3418H33.0996L33.0586 38.4453L33.0176 33.4004L32.6211 32.8945C31.9785 32.0469 31.6504 31.9648 28.5742 32.0195C25.4844 32.0605 25.3476 32.1016 24.7871 33.2227C24.4726 33.8105 24.4726 33.9199 24.4726 38.6504V43.4766H22.2168H19.9609V40.9062C19.9609 38.5137 19.9336 38.2949 19.6601 37.7344C19.1133 36.6543 18.8262 36.5723 15.6543 36.5723C13.0429 36.5723 12.8926 36.5859 12.414 36.8867C11.4844 37.4609 11.3476 37.9941 11.3476 40.9199V43.4766H9.98045C9.24217 43.4766 8.47654 43.5449 8.28513 43.627C7.58787 43.9414 7.53318 45.0352 8.18943 45.377C8.57224 45.582 61.4277 45.582 61.8105 45.377C62.4668 45.0352 62.4121 43.9414 61.7148 43.627C61.5234 43.5449 60.9219 43.4766 60.3613 43.4766H59.3359L59.3086 33.25L59.2676 23.0098L58.8711 22.5039C58.2422 21.6699 57.914 21.6016 55.0019 21.6152C53.5937 21.6152 52.3359 21.6562 52.2265 21.6973ZM57.2851 33.5645V43.4766H55.0293H52.7734V33.5645V23.6523H55.0293H57.2851V33.5645ZM44.1601 36.2988V43.4766H41.9043H39.6484V36.2988V29.1211H41.9043H44.1601V36.2988ZM31.0351 38.7598V43.4766H28.7793H26.5234V38.7598V34.043H28.7793H31.0351V38.7598ZM17.9101 41.0156V43.4766H15.6543H13.3984V41.0156V38.5547H15.6543H17.9101V41.0156Z" fill="#484545"/>
<path d="M25.4844 53.1016C24.7871 53.416 24.6777 54.0859 25.2246 54.6191C25.5254 54.9336 25.6621 54.9609 26.8652 54.9609C27.9863 54.9609 28.2051 54.9199 28.4375 54.6875C28.8066 54.3184 28.793 53.5801 28.4238 53.2383C28.0547 52.8965 26.1269 52.8145 25.4844 53.1016Z" fill="#484545"/>
<path d="M32.8672 53.1016C32.1699 53.416 32.0605 54.0859 32.6074 54.6191C32.9082 54.9336 33.0449 54.9609 34.248 54.9609C35.3691 54.9609 35.5879 54.9199 35.8203 54.6875C36.1894 54.3184 36.1758 53.5801 35.8066 53.2383C35.4375 52.8965 33.5098 52.8145 32.8672 53.1016Z" fill="#484545"/>
<path d="M40.25 53.1016C39.5664 53.4023 39.4434 54.0859 39.9902 54.6191C40.291 54.9336 40.4277 54.9609 41.5625 54.9609C42.9707 54.9609 43.2578 54.8652 43.4492 54.291C43.6133 53.8125 43.4082 53.334 42.9297 53.0879C42.4785 52.8555 40.7832 52.8691 40.25 53.1016Z" fill="#484545"/>
</svg>
