<svg width="70" height="70" viewBox="0 0 70 70" fill="none" xmlns="http://www.w3.org/2000/svg">
<path d="M50.4766 2.69336L49.2051 3.04883L45.1445 6.98633L41.084 10.9102L37.8711 11.7578C33.1816 13.002 33.0723 13.0293 32.2656 13.7676C31.8828 14.1094 31.4043 14.7109 31.1992 15.0938C30.8848 15.6953 30.8301 15.9551 30.8301 17.0215C30.8301 18.4707 31.1172 19.1816 32.0332 20.084C33.25 21.3008 34.9316 21.6289 36.9277 21.0684C37.502 20.9043 38.0488 20.7812 38.1582 20.7812C38.3086 20.7812 38.4727 21.1777 38.7461 22.1758C38.9512 22.9551 39.1426 23.6934 39.1836 23.8164C39.252 24.0488 38.8555 24.0625 32.0605 24.0625C27.3164 24.0625 24.7734 24.1172 24.5957 24.1992C24.2676 24.3906 19.6875 33.4961 19.6875 33.9746C19.6875 34.166 19.8379 34.4805 20.0293 34.6582C20.3438 34.9863 20.4258 35 22.2168 35H24.0625V41.6855V48.3711L22.9688 48.6445L21.875 48.918V47.7559C21.875 46.7168 21.8477 46.5801 21.5332 46.2793L21.2051 45.9375H16.4062H11.6074L11.2793 46.2793C10.9922 46.5527 10.9375 46.7441 10.9375 47.373V48.125H6.9043H2.85742L2.5293 48.4668L2.1875 48.7949V56.875V64.9551L2.5293 65.2832L2.85742 65.625H6.9043H10.9375V66.377C10.9375 67.0059 10.9922 67.1973 11.2793 67.4707L11.6074 67.8125H16.4062H21.2051L21.5332 67.4707C21.834 67.1836 21.875 67.0195 21.875 66.1719V65.2148L22.8457 65.707C24.8828 66.7324 24.7871 66.7188 34.8496 66.7188C44.584 66.7188 44.9121 66.6914 46.3613 65.9531C46.7715 65.748 48.918 64.5449 51.1328 63.2598C53.3477 61.9746 57.5039 59.582 60.3613 57.9414C64.6406 55.4805 65.6797 54.8105 66.2539 54.209C67.1836 53.252 67.457 52.4453 67.375 51.0098C67.252 49.0273 66.0625 47.5781 64.1348 47.0859L63.5059 46.9355L63.4648 40.9609L63.4375 35H65.2832C67.0742 35 67.1562 34.9863 67.4707 34.6582C67.6621 34.4805 67.8125 34.166 67.8125 33.9746C67.8125 33.5918 63.2734 24.4316 63 24.2402C62.9043 24.1855 59.0488 24.1035 54.4277 24.0625L46.0332 23.9941L45.5 21.9707C45.1992 20.8633 44.9805 19.9062 45.0215 19.8652C45.0762 19.8242 47.168 20.3027 49.6973 20.9316L54.2773 22.0801L55.4805 21.7656C56.1367 21.5879 56.875 21.3418 57.1211 21.2324C57.7773 20.918 58.2422 20.166 58.2422 19.4141C58.2285 18.5801 54.2637 3.77344 53.9082 3.30859C53.1562 2.31055 52.3633 2.16016 50.4766 2.69336ZM54.1543 12.0039C55.2207 16.0098 56.0684 19.3047 56.041 19.332C56.0137 19.3594 55.7676 19.4277 55.5078 19.4824L55.0293 19.5645L53.1426 12.4824C52.1035 8.58594 51.2148 5.27734 51.1875 5.11328C51.1328 4.88086 51.2012 4.79883 51.5703 4.68945C51.8164 4.62109 52.0625 4.59375 52.1172 4.63477C52.1582 4.67578 53.0742 7.99805 54.1543 12.0039ZM50.9961 12.9199C51.9395 16.4473 52.6914 19.3594 52.6504 19.373C52.6094 19.3867 50.6953 18.9355 48.3984 18.3477L44.2422 17.2949L43.5859 14.9023C43.2305 13.5898 42.9434 12.4141 42.9434 12.3047C42.957 12.0176 49.1367 6.11133 49.2051 6.33008C49.2461 6.41211 50.0391 9.37891 50.9961 12.9199ZM41.4395 15.2441C41.7266 16.2969 41.959 17.2266 41.9727 17.3086C41.9727 17.5 35.6152 19.1953 34.9453 19.168C34.2617 19.1543 33.4688 18.6211 33.1816 18.0059C32.7305 17.0625 33.0039 15.8594 33.7969 15.2988C34.1797 15.0254 40.332 13.248 40.7285 13.3027C40.8516 13.3164 41.0977 14.0137 41.4395 15.2441ZM43.1211 21.5605C43.4219 22.6816 43.6816 23.6934 43.7227 23.8301C43.7773 24.0488 43.6816 24.0762 42.6426 24.0352L41.4941 23.9941L40.9883 22.0801C40.7012 21.041 40.4961 20.166 40.5098 20.1523C40.5371 20.1113 42.3691 19.5781 42.5195 19.5645C42.5605 19.5508 42.834 20.4531 43.1211 21.5605ZM40.332 29.5312L38.6914 32.8125H30.625H22.5586L24.1992 29.5312L25.8398 26.25H33.9062H41.9727L40.332 29.5312ZM63.3008 29.5312L64.9414 32.8125H56.875H48.8086L47.168 29.5312L45.5273 26.25H53.5938H61.6602L63.3008 29.5312ZM42.6016 50.4219C42.5605 50.4492 39.8672 49.7656 36.6133 48.8906C29.9961 47.1133 29.4629 47.0449 27.3164 47.5645L26.25 47.8105V41.4121V35H32.9902C38.541 35 39.7715 34.9727 39.9902 34.8086C40.1406 34.6992 40.7832 33.5645 41.4258 32.2793L42.5879 29.9277L42.6289 40.1406C42.6426 45.7598 42.6289 50.3809 42.6016 50.4219ZM47.5645 34.8633C47.7422 34.9453 50.1484 35 54.5371 35H61.25L61.2227 41.1797L61.1816 47.3457L55.7402 50.4902L50.3125 53.6211L49.6426 53.0059C48.7812 52.1992 48.4941 52.0625 46.5254 51.543L44.8438 51.0918L44.8574 40.4824V29.873L46.0742 32.293C46.7441 33.6191 47.4141 34.7812 47.5645 34.8633ZM19.6875 56.875V65.625H16.4062H13.125V56.875V48.125H16.4062H19.6875V56.875ZM64.1895 49.4785C64.4082 49.6016 64.7363 49.9297 64.9141 50.1895C65.1875 50.5723 65.2285 50.791 65.1875 51.4199C65.1465 51.8984 65.0234 52.3223 64.8457 52.582C64.4355 53.1562 45.5684 64.0391 44.4883 64.3262C43.3809 64.6133 26.4277 64.627 25.3613 64.3398C24.9922 64.2441 24.0488 63.8477 23.2832 63.4512L21.875 62.7539V56.957V51.1602L25.2246 50.3262C27.6582 49.7246 28.8203 49.4922 29.4902 49.4922C30.2285 49.4922 31.7734 49.8613 37.8574 51.4883C47.5781 54.0859 47.5098 54.0723 47.9199 54.332C48.4805 54.7012 48.8086 55.3574 48.8086 56.123C48.8086 57.3535 47.9609 58.2422 46.7715 58.2422C46.4297 58.2422 43.2988 57.4766 39.5254 56.4648C35.8613 55.4941 32.7852 54.6875 32.6621 54.6875C32.5391 54.6875 32.2793 54.8105 32.0742 54.9746C31.623 55.3301 31.5684 56.1504 31.9922 56.5332C32.4297 56.9297 45.6367 60.4297 46.6895 60.4297C47.8379 60.4297 48.6719 60.1152 49.4922 59.377C50.3535 58.6113 50.8184 57.709 50.9551 56.5879L51.0645 55.7266L56.6699 52.4863C59.7598 50.6953 62.3984 49.2051 62.5488 49.1777C62.9727 49.082 63.7383 49.2188 64.1895 49.4785ZM10.9375 56.875V63.4375H7.65625H4.375V56.875V50.3125H7.65625H10.9375V56.875Z" fill="#FF9D4D"/>
<path d="M58.6524 4.45704C57.791 4.94923 56.9707 5.48243 56.8477 5.63282C56.2461 6.31642 56.875 7.4922 57.7364 7.34181C58.2149 7.25978 60.8672 5.76954 61.3047 5.34571C61.7012 4.94923 61.6465 4.26563 61.1953 3.86915C60.9903 3.70509 60.6895 3.5547 60.5254 3.5547C60.3614 3.5547 59.5137 3.96485 58.6524 4.45704Z" fill="#FF9D4D"/>
<path d="M60.5254 9.07812C59.6504 9.32422 58.8027 9.63867 58.6386 9.78906C58.2285 10.1582 58.3242 11.0195 58.83 11.4023L59.2129 11.6758L61.0859 11.2109C62.5351 10.8418 63.041 10.6504 63.3418 10.3633C63.8066 9.91211 63.8203 9.39258 63.3691 8.95508C62.9316 8.50391 62.5215 8.53125 60.5254 9.07812Z" fill="#FF9D4D"/>
<path d="M59.2676 14.2871C59.0488 14.4922 58.9258 14.7793 58.9258 15.0391C58.9258 15.2988 59.0488 15.5859 59.2676 15.791C59.582 16.1191 59.6504 16.1328 61.5918 16.1328C62.6992 16.1328 63.6973 16.0781 63.834 15.9961C64.2441 15.791 64.4629 15.1074 64.2715 14.6426C64.0117 14.041 63.6152 13.9453 61.5098 13.9453C59.6641 13.9453 59.582 13.959 59.2676 14.2871Z" fill="#FF9D4D"/>
</svg>
