<svg width="70" height="70" viewBox="0 0 70 70" fill="none" xmlns="http://www.w3.org/2000/svg">
<path d="M42.1504 2.73437C41.6992 2.92578 41.4258 3.43164 41.084 4.79882C40.9062 5.48242 40.7422 6.05664 40.7148 6.07031C40.7012 6.08398 40.3047 6.20703 39.8535 6.34375C39.4023 6.48046 38.5684 6.82226 37.9805 7.10937L36.9414 7.6289L35.998 7.08203C34.5625 6.23437 34.2344 6.11132 33.7148 6.28906C33.4414 6.37109 32.6211 7.0957 31.541 8.18945C29.4355 10.3086 29.4355 10.3223 30.4883 12.1816L31.1855 13.3848L30.7207 14.3144C30.4609 14.8203 30.1055 15.6816 29.9414 16.2148L29.627 17.1855L28.3145 17.5137C27.3574 17.7461 26.9062 17.9375 26.6328 18.2109L26.25 18.5664V21.1914C26.25 22.7227 26.3047 23.9121 26.3867 24.0762C26.5781 24.4316 27.0566 24.6504 28.4512 25.0059L29.627 25.3203L29.873 26.0996C29.9961 26.5234 30.3516 27.3848 30.6387 28.0137L31.1719 29.1621L30.4883 30.3379C29.4492 32.1426 29.4629 32.2109 31.3496 34.1387C32.1836 35 33.0586 35.834 33.2637 35.9844C33.8789 36.4355 34.4395 36.3398 35.752 35.5605L36.9277 34.8633L37.8438 35.3281C38.3496 35.5742 39.2109 35.9297 39.7578 36.1074C40.7148 36.4082 40.7559 36.4355 40.8926 36.9824C40.9609 37.2832 41.1523 37.9394 41.3027 38.4453C41.7266 39.9082 41.4941 39.8535 46.8535 39.8535H51.4062L51.748 39.5117C51.9805 39.2793 52.2129 38.7324 52.459 37.8164L52.8418 36.4629L53.6211 36.2031C54.3184 35.9707 54.4551 35.957 54.9746 36.1348C55.6855 36.3809 56.123 36.2578 56.6699 35.6836C56.8887 35.4512 57.1348 35.2734 57.2031 35.2734C57.2852 35.2734 57.6953 35.4785 58.1055 35.7246C59.0352 36.2852 59.4043 36.3945 59.8691 36.2168C60.293 36.0527 63.3691 33.0449 63.6699 32.4844C63.9297 31.9785 63.8477 31.6777 63.041 30.2559L62.3848 29.1074L62.7539 28.3965C62.9727 28 63.3145 27.1934 63.5195 26.5918C63.7246 25.9902 63.9297 25.457 63.9844 25.3887C64.0254 25.334 64.6543 25.1289 65.3652 24.9375C66.2129 24.7051 66.7734 24.4727 66.9922 24.2539C67.334 23.9258 67.334 23.9121 67.334 21.2598V18.5937L66.9785 18.2519C66.7461 18.0059 66.2129 17.7871 65.2969 17.5273L63.9434 17.1582L63.6426 16.2285C63.4648 15.7227 63.123 14.8613 62.8633 14.3144L62.3984 13.3301L63.082 12.168C64.1484 10.3496 64.1621 10.3633 61.9336 8.13476C60.7168 6.91796 59.9648 6.27539 59.7051 6.20703C59.3223 6.125 58.8711 6.30273 57.5996 7.05468L57.1621 7.31445L56.6426 6.80859C55.9863 6.17968 55.5352 6.05664 54.9199 6.35742C54.4824 6.5625 54.4004 6.5625 53.6484 6.30273L52.8418 6.04296L52.459 4.68945C52.2129 3.78711 51.9805 3.24023 51.748 3.00781L51.4062 2.66601L46.9219 2.63867C44.4609 2.625 42.3145 2.66601 42.1504 2.73437ZM47.332 5.46875C47.7012 6.87695 48.002 7.38281 48.4805 7.38281C48.8496 7.38281 50.3945 7.9707 51.4062 8.49023C51.9805 8.79101 52.5684 9.02343 52.7051 9.02343C52.8555 9.02343 53.5527 8.68164 54.2637 8.25781L55.5488 7.49218L55.9043 7.88867C56.1094 8.09375 56.7793 8.79101 57.3945 9.43359L58.502 10.6094L57.7637 11.8809C57.3535 12.5781 57.0117 13.2344 57.0117 13.3301C57.0117 13.4394 57.2852 14.0957 57.627 14.793C57.9688 15.4902 58.3789 16.4883 58.543 17.0215C58.6934 17.541 58.8984 18.0605 59.0078 18.1699C59.1035 18.2793 59.8145 18.5254 60.5938 18.7305L62.002 19.0996L62.043 21.2324L62.0703 23.3516L61.3457 23.5703C60.9492 23.6934 60.293 23.8574 59.9102 23.9394C59.5137 24.0352 59.1172 24.2129 59.0078 24.3223C58.8984 24.4453 58.6797 24.9785 58.5293 25.5254C58.3652 26.0723 57.9551 27.0566 57.627 27.7266C57.2852 28.4102 57.0117 29.0391 57.0117 29.1348C57.0117 29.2441 57.3535 29.9141 57.7637 30.625L58.5156 31.9238L56.9844 33.4551L55.4668 34.9727L54.6191 34.4531C54.1406 34.166 53.5117 33.7969 53.2109 33.6465L52.6641 33.3594L51.4473 33.9883C50.791 34.3164 49.7383 34.7539 49.123 34.9453C48.5215 35.123 47.9473 35.3691 47.8516 35.4785C47.7695 35.5742 47.5234 36.2988 47.3184 37.0781L46.9355 38.4863L44.8027 38.5273L42.6699 38.5684L42.5332 38.0488C42.4648 37.7617 42.3008 37.1328 42.1777 36.6406C42.0547 36.1484 41.9043 35.6699 41.8359 35.5605C41.7812 35.4512 41.1934 35.1914 40.5371 34.9727C39.8809 34.7676 38.8691 34.3437 38.2676 34.043C37.666 33.7422 37.0645 33.4961 36.9277 33.4961C36.791 33.4961 36.0938 33.8379 35.3965 34.248L34.1113 35L32.5801 33.4687L31.0625 31.9512L31.7324 30.8164C32.7441 29.1074 32.7305 29.2715 31.9102 27.5625C31.5137 26.7285 31.1035 25.6758 30.9805 25.2383C30.8711 24.8008 30.7207 24.3769 30.6523 24.3086C30.584 24.2402 29.9551 24.0352 29.2441 23.8437C28.5332 23.666 27.8496 23.4746 27.7129 23.4336C27.4941 23.3652 27.4805 23.1738 27.5078 21.2324L27.5488 19.0996L28.916 18.7168C29.668 18.5117 30.3789 18.3066 30.502 18.2656C30.6387 18.2109 30.8438 17.7324 31.0215 17.1172C31.1992 16.543 31.6367 15.4492 31.9922 14.7109C32.7578 13.166 32.7852 13.4668 31.6504 11.5527L31.0625 10.5547L32.5938 9.03711L34.1113 7.51953L35.4102 8.27148C36.1211 8.68164 36.8184 9.02343 36.9414 9.02343C37.0645 9.02343 37.6113 8.77734 38.1719 8.49023C38.7188 8.18945 39.7715 7.75195 40.4961 7.51953L41.8359 7.0957L41.9727 6.52148C42.0547 6.20703 42.1777 5.75586 42.2461 5.53711C42.3145 5.30468 42.4375 4.86718 42.5195 4.53906L42.6699 3.95117L44.8027 3.99218L46.9492 4.0332L47.332 5.46875Z" fill="#484545"/>
<path d="M43.6816 9.78906C39.3887 10.418 36.0801 12.7832 34.3848 16.4473C33.7012 17.9375 33.3594 19.4824 33.3594 21.1641C33.3594 24.377 34.4395 27.043 36.627 29.2715C38.9102 31.582 41.6035 32.7031 44.8438 32.7031C53.5391 32.7031 59.0625 23.3516 54.8789 15.7363C52.9512 12.2227 49.3965 10.0078 45.377 9.80274C44.666 9.76172 43.9141 9.76172 43.6816 9.78906ZM47.6465 11.4844C51.2969 12.6328 54.0039 15.5313 54.7695 19.127C55.0156 20.3301 55.0156 22.2168 54.7422 23.4199C54.4688 24.6914 53.5117 26.6465 52.6777 27.6855C51.3926 29.2715 49.5469 30.4746 47.5098 31.0625C46.6211 31.3086 46.0879 31.3633 44.707 31.3633C43.1484 31.3633 42.8887 31.3223 41.6992 30.9121C39.9629 30.3242 38.6641 29.4902 37.4199 28.1777C35.3145 25.9355 34.3164 22.9004 34.7266 19.9746C35.3145 15.6406 38.5547 12.1543 42.7793 11.2656C44.0781 11.0059 46.4297 11.1016 47.6465 11.4844Z" fill="#484545"/>
<path d="M37.8164 18.1836C36.8867 18.4707 36.3398 19.5098 36.627 20.4121C36.832 21.041 37.1875 21.2461 38.5684 21.6016C40.0859 21.998 40.1953 22.0664 40.1953 22.6269C40.1953 23.2422 39.7168 23.5703 38.8281 23.5703C38.0215 23.5703 37.502 23.2559 37.3516 22.6543C37.2559 22.2851 37.1738 22.2031 36.8047 22.1758C36.4082 22.1348 36.3672 22.1621 36.3672 22.4902C36.3672 23.0781 36.7637 23.7617 37.3105 24.0898C38.377 24.7598 40.5781 24.3633 41.002 23.4199C41.248 22.8867 41.1797 21.957 40.8789 21.5742C40.5645 21.1641 40.1816 21 38.8965 20.7129C37.5156 20.3984 37.1602 19.9609 37.7207 19.2637C37.9258 19.0176 38.1035 18.9492 38.6367 18.9492C39.4844 18.9492 39.9082 19.1816 40.0176 19.7012C40.0859 20.043 40.1543 20.0976 40.5781 20.0976C41.043 20.0976 41.0566 20.0976 40.9746 19.5781C40.7969 18.457 39.2246 17.7734 37.8164 18.1836Z" fill="#484545"/>
<path d="M49.2188 18.2656C47.9883 18.7988 47.3594 20.002 47.4688 21.6152C47.6055 23.4199 48.6035 24.4043 50.3125 24.4043C51.4199 24.3906 52.1172 24.0762 52.6504 23.3379C53.1699 22.6133 53.3613 21.8613 53.2793 20.8496C53.1699 19.4551 52.5684 18.5937 51.4199 18.2109C50.7773 17.9922 49.793 18.0195 49.2188 18.2656ZM51.4336 19.209C52.2813 19.5508 52.5957 21.5469 51.9668 22.6406C51.584 23.3105 51.2148 23.5156 50.3672 23.5156C49.0547 23.5156 48.4805 22.832 48.4668 21.2598C48.4668 20.5625 48.5352 20.1934 48.7266 19.8789C49.2598 18.9902 50.2852 18.7305 51.4336 19.209Z" fill="#484545"/>
<path d="M42.1641 18.3613C42.1367 18.457 42.123 19.8242 42.1367 21.3965L42.1777 24.2676H44.4336H46.6894V23.8574V23.4473L44.8848 23.4062L43.0664 23.3652V22.4902V21.6016H44.707H46.3476V21.1914V20.7949L44.748 20.7539L43.1348 20.7129L43.0937 19.9199L43.0527 19.1406H44.8437H46.6211V18.6621V18.1836H44.4336C42.7793 18.1836 42.2187 18.2246 42.1641 18.3613Z" fill="#484545"/>
<path d="M24.1308 41.8496C21.082 42.2734 17.7051 44.2012 15.8867 46.5527C15.1484 47.5098 15.0801 47.5645 14.5469 47.5645L13.9726 47.5781L13.9179 46.7578C13.8496 45.7461 13.3301 44.9395 12.4414 44.4336C11.8398 44.1055 11.7304 44.0918 8.74997 44.0508C4.92185 43.9824 4.45701 44.0781 3.55466 44.9805C3.03513 45.4863 2.87107 45.7734 2.73435 46.3613C2.62497 46.8945 2.59763 49.6016 2.62497 56.123C2.66599 64.627 2.67966 65.1738 2.92576 65.625C3.28122 66.2949 3.67771 66.7051 4.30662 67.0332C4.82615 67.3203 5.03122 67.334 8.33982 67.334H11.8261L12.4824 66.9512C13.3437 66.4453 13.8222 65.707 13.9316 64.709L14.0136 63.916L15.6953 63.875L17.3769 63.834L21.9843 65.1328C27.6035 66.7187 28.8203 66.9102 32.539 66.8145C36.832 66.7187 43.1894 65.584 46.5527 64.3262C49.3144 63.3008 51.1738 62.207 58.748 57.1621C66.4179 52.0625 66.5 52.0078 67.0742 50.6543C67.8398 48.877 66.8828 46.4434 65.0371 45.5C64.2851 45.1172 62.7265 45.0078 61.9062 45.2812C61.5918 45.3906 59.1992 46.8945 56.6015 48.6035C51.6386 51.8848 50.1484 52.7051 48.2617 53.2109C47.1269 53.498 46.8672 53.5117 38.8418 53.5527C32.6621 53.5937 30.4746 53.5664 30.1875 53.4434C29.791 53.2793 29.3945 52.7051 29.3945 52.2949C29.3945 51.8848 29.791 51.3105 30.1738 51.1602C30.3789 51.0781 31.7871 50.9824 33.291 50.9551C35.8066 50.9004 36.1211 50.873 37.1465 50.5312C38.5 50.0937 40.0722 49.082 40.9472 48.084C42.1914 46.6621 43.2168 44.0781 42.9297 43.0801C42.8613 42.8203 42.6972 42.4922 42.5605 42.3555C41.959 41.6855 42.1094 41.6992 33.2636 41.7129C28.6972 41.7266 24.582 41.7812 24.1308 41.8496ZM41.5625 43.2715C41.6992 43.4492 41.6992 43.6406 41.5078 44.3379C40.8515 46.7578 38.6914 48.8359 36.2168 49.4238C35.6152 49.5605 34.5898 49.6289 32.9492 49.6289C31.6367 49.6289 30.3242 49.6973 30.0371 49.7793C29.4492 49.9434 28.6562 50.5859 28.3554 51.1465C28.1093 51.625 28.1093 52.7871 28.3554 53.3613C28.5879 53.9492 29.3945 54.6328 30.0371 54.8105C30.7617 55.0156 45.0625 55.0156 46.6894 54.8105C48.1933 54.6191 49.8886 54.1406 51.2285 53.5254C51.789 53.2656 54.3867 51.6523 56.9844 49.9297C59.5957 48.207 61.8789 46.7168 62.0703 46.6211C62.2617 46.5254 62.7539 46.4297 63.164 46.4297C64.1211 46.416 64.9687 46.8672 65.5566 47.6875C65.9121 48.207 65.9668 48.3984 65.9668 49.2051C65.9668 50.8184 66.1582 50.6406 58.0644 56.0273C50.8457 60.8398 49.2734 61.7969 47.1543 62.6719C44.4609 63.7793 42.957 64.1621 38.541 64.8594C34.3437 65.5293 32.3203 65.6797 30.0234 65.4883C27.5215 65.2969 27.1933 65.2285 22.2441 63.834L17.8965 62.6172H15.914H13.9453V55.7812V48.9453H14.6836C15.0937 48.9453 15.5176 48.9043 15.6406 48.8633C15.7636 48.8223 16.1191 48.3984 16.4609 47.9336C18.1426 45.5957 20.7129 43.9414 23.7207 43.2715C24.3496 43.1348 26.5097 43.0801 32.9629 43.0801C40.3594 43.0664 41.4121 43.0937 41.5625 43.2715ZM11.9082 45.7051C12.1816 45.8828 12.4414 46.2109 12.5371 46.4844C12.7695 47.168 12.7695 64.2578 12.5371 64.9414C12.4414 65.2148 12.1679 65.543 11.8945 65.7344C11.4297 66.0488 11.3886 66.0488 8.17576 66.0078L4.92185 65.9668L4.48435 65.5156L4.03318 65.0781L3.99216 55.9043C3.96482 47.7559 3.97849 46.6895 4.18357 46.2793C4.56638 45.4727 4.89451 45.3906 8.35349 45.3906C11.3476 45.3906 11.457 45.4043 11.9082 45.7051Z" fill="#484545"/>
<path d="M8.24412 60.498C7.38279 60.8672 7.10935 62.125 7.72459 62.877C8.43553 63.7109 9.54295 63.6973 10.2265 62.8223C10.8008 62.084 10.4863 60.8398 9.63865 60.4844C9.06443 60.252 8.80467 60.252 8.24412 60.498Z" fill="#484545"/>
</svg>
