<svg width="70" height="70" viewBox="0 0 70 70" fill="none" xmlns="http://www.w3.org/2000/svg">
<path d="M27.6172 1.28516C23.9395 2.07813 20.959 4.88086 20.002 8.47657C19.6192 9.88477 19.6875 12.4824 20.125 13.8359C20.6582 15.4629 21.3828 16.625 22.6133 17.8555C24.377 19.6191 26.4141 20.5625 28.8203 20.7266C34.7676 21.1504 39.7168 16.2285 39.3203 10.2813C39.2383 8.81836 38.7324 7.16407 37.9942 5.90625C37.3242 4.78516 35.5332 3.02149 34.4121 2.39258C32.3887 1.27149 29.7227 0.84766 27.6172 1.28516ZM30.9805 3.43164C32.293 3.66407 33.8926 4.51172 34.8906 5.50977C36.4219 7.04102 37.1192 8.72266 37.1192 10.9375C37.1192 13.125 36.4219 14.834 34.918 16.3242C33.4278 17.8281 31.7188 18.5254 29.5313 18.5254C27.3164 18.5254 25.6348 17.8281 24.1035 16.2969C20.8633 13.0566 21.2735 7.46485 24.9649 4.83985C26.8653 3.48633 28.7793 3.03516 30.9805 3.43164Z" fill="#484545"/>
<path d="M26.5918 6.9043L26.25 7.23242V10.9375V14.6426L26.5918 14.9707C26.7832 15.1758 27.0703 15.3125 27.3027 15.3125C27.5078 15.2988 29.2852 14.4922 31.2402 13.4941C34.2617 11.9629 34.8086 11.6348 34.918 11.3066C35.2188 10.4453 35.082 10.3223 31.2402 8.38086C29.2852 7.38281 27.5078 6.57617 27.3027 6.5625C27.0703 6.5625 26.7832 6.69922 26.5918 6.9043ZM31.3086 10.9375C31.3086 10.9785 30.666 11.334 29.873 11.7305L28.4375 12.4414V10.9375V9.43359L29.873 10.1445C30.666 10.541 31.3086 10.8965 31.3086 10.9375Z" fill="#484545"/>
<path d="M50.3125 2.36524C49.6426 2.58399 48.4941 3.75977 48.2891 4.45703C48.1934 4.77149 48.125 5.71485 48.125 6.54883C48.125 7.98438 48.1387 8.09375 48.4668 8.40821C48.6719 8.62696 48.959 8.75 49.2188 8.75C49.4785 8.75 49.7656 8.62696 49.9707 8.40821C50.2988 8.09375 50.3125 7.98438 50.3125 6.5625C50.3125 5.14063 50.3262 5.03125 50.6543 4.7168L50.9824 4.375H57.9688H64.9551L65.2832 4.7168L65.625 5.04492V12.0313V19.0176L65.2832 19.3457L64.9551 19.6875H57.9688H50.9824L50.6543 19.3457L50.3125 19.0176V15.3125V11.6074L49.9707 11.2793C49.7656 11.0605 49.4785 10.9375 49.2188 10.9375C48.959 10.9375 48.6719 11.0605 48.4668 11.2793L48.125 11.6074V15.3262C48.125 17.8418 48.1797 19.2227 48.2891 19.6055C48.5078 20.3574 49.6426 21.4922 50.3945 21.7109C50.8047 21.834 52.8691 21.875 57.9961 21.875C66.0625 21.875 65.8984 21.9023 66.8965 20.7813C67.2246 20.4258 67.5664 19.8789 67.6484 19.5781C67.8809 18.8125 67.8809 5.25 67.6484 4.48438C67.5664 4.1836 67.2246 3.63672 66.8965 3.28125C65.8984 2.16016 66.0762 2.1875 57.9141 2.20117C53.1426 2.21485 50.627 2.26953 50.3125 2.36524Z" fill="#484545"/>
<path d="M57.9688 6.74024C57.2988 6.95899 56.1504 8.13477 55.9453 8.83203C55.8496 9.14649 55.7812 9.74805 55.7812 10.1719V10.9375H55.0293C54.1133 10.9375 53.5938 11.334 53.5938 12.0313C53.5938 12.7285 54.1133 13.125 55.0293 13.125H55.7812V14.9707C55.7812 16.7617 55.7949 16.8438 56.123 17.1582C56.3281 17.377 56.6152 17.5 56.875 17.5C57.1348 17.5 57.4219 17.377 57.627 17.1582C57.9551 16.8438 57.9688 16.7617 57.9688 14.9707V13.125H58.7207C59.6367 13.125 60.1562 12.7285 60.1562 12.0313C60.1562 11.334 59.6367 10.9375 58.7207 10.9375H57.9688V10.1855C57.9688 9.55664 58.0234 9.36524 58.3105 9.0918C58.625 8.76367 58.7344 8.75 60.1562 8.75C61.5781 8.75 61.6875 8.73633 62.002 8.4082C62.2207 8.20313 62.3438 7.91602 62.3438 7.65625C62.3438 7.39649 62.2207 7.10938 62.002 6.9043C61.6875 6.57617 61.6055 6.5625 60.0605 6.57617C59.1719 6.58984 58.2285 6.6582 57.9688 6.74024Z" fill="#484545"/>
<path d="M2.5293 12.373L2.1875 12.7012V21.875V31.0488L2.5293 31.377L2.85742 31.7188H9.84375H16.8301L17.1582 31.377L17.5 31.0488V21.875V12.7012L17.1582 12.373L16.8301 12.0312H9.84375H2.85742L2.5293 12.373ZM15.3125 21.875V29.5312H9.84375H4.375V21.875V14.2188H9.84375H15.3125V21.875Z" fill="#484545"/>
<path d="M9.0918 16.748C8.87305 16.9531 8.75 17.2402 8.75 17.5C8.75 17.7598 8.87305 18.0469 9.0918 18.252C9.40625 18.5801 9.51562 18.5938 10.9375 18.5938C12.3594 18.5938 12.4688 18.5801 12.7832 18.252C13.002 18.0469 13.125 17.7598 13.125 17.5C13.125 17.2402 13.002 16.9531 12.7832 16.748C12.4688 16.4199 12.3594 16.4062 10.9375 16.4062C9.51562 16.4062 9.40625 16.4199 9.0918 16.748Z" fill="#484545"/>
<path d="M6.9043 21.123C6.68555 21.3281 6.5625 21.6152 6.5625 21.875C6.5625 22.1348 6.68555 22.4219 6.9043 22.627C7.23242 22.9688 7.25977 22.9688 9.84375 22.9688C12.4277 22.9688 12.4551 22.9688 12.7832 22.627C13.002 22.4219 13.125 22.1348 13.125 21.875C13.125 21.6152 13.002 21.3281 12.7832 21.123C12.4551 20.7812 12.4277 20.7812 9.84375 20.7812C7.25977 20.7812 7.23242 20.7812 6.9043 21.123Z" fill="#484545"/>
<path d="M6.9043 25.498C6.68555 25.7031 6.5625 25.9902 6.5625 26.25C6.5625 26.5098 6.68555 26.7969 6.9043 27.002C7.23242 27.3438 7.25977 27.3438 9.84375 27.3438C12.4277 27.3438 12.4551 27.3438 12.7832 27.002C13.002 26.7969 13.125 26.5098 13.125 26.25C13.125 25.9902 13.002 25.7031 12.7832 25.498C12.4551 25.1562 12.4277 25.1562 9.84375 25.1562C7.25977 25.1562 7.23242 25.1562 6.9043 25.498Z" fill="#484545"/>
<path d="M43.1621 18.7578C43.039 18.8535 42.1367 20.0019 41.1523 21.3144C39.2246 23.9121 39.1015 24.1992 39.7167 24.8144C40.0722 25.1836 40.6874 25.2656 41.0566 24.9785C41.1796 24.8965 42.082 23.748 43.0664 22.4355C44.9941 19.8379 45.1171 19.5508 44.5019 18.9355C44.1464 18.5664 43.5312 18.4844 43.1621 18.7578Z" fill="#484545"/>
<path d="M45.377 25.8398C44.0645 26.8242 42.9161 27.7266 42.834 27.8496C42.5469 28.2187 42.6289 28.834 42.9981 29.1894C43.6133 29.8047 43.9004 29.6816 46.4981 27.7539C47.8106 26.7695 48.959 25.8672 49.0547 25.7441C49.3282 25.375 49.2461 24.7598 48.877 24.4043C48.2618 23.7891 47.9746 23.9121 45.377 25.8398Z" fill="#484545"/>
<path d="M34.7949 25.3203C34.6445 25.4024 31.1035 28.3008 26.9062 31.7598C19.3593 37.9805 19.2773 38.0352 16.789 39.4707C14.0273 41.0566 13.4258 41.5488 12.8789 42.6563C12.5644 43.2988 12.5097 43.5723 12.5097 44.5703L12.5234 45.7461L11.7168 46.2109C10.3222 47.0313 9.62497 48.4805 9.96677 49.834C10.3633 51.4063 11.5937 52.3633 13.207 52.3633C13.9179 52.3633 14.2051 52.2813 14.957 51.8848L15.8593 51.4063L16.4199 51.8027C17.7871 52.8008 19.4824 52.8965 21.0547 52.0762C21.5468 51.8164 21.9843 51.5977 22.039 51.5703C22.0801 51.543 22.5996 52.377 23.2011 53.416C23.789 54.4551 24.4863 55.5488 24.7461 55.8359C26.0176 57.2578 28.2597 57.2578 29.5449 55.8223C30.1875 55.1113 30.3926 54.4551 30.3242 53.4024C30.2832 52.6504 30.1601 52.377 29.1484 50.5996C28.5332 49.5195 28.0547 48.6035 28.082 48.5625C28.123 48.5352 31.8281 47.127 36.3261 45.4317C44.7343 42.2871 45.1172 42.1094 45.1172 41.3984C45.1172 41.125 40.0722 32.2109 39.416 31.3359C39.1425 30.9805 38.9922 30.8984 38.5547 30.8984C38.1445 30.8984 37.9668 30.9805 37.748 31.2539C37.2285 31.9238 37.0781 31.5957 40.1543 36.9004C41.3847 39.0195 42.3828 40.7969 42.3418 40.8242C42.3144 40.8516 38.2675 42.3828 33.3593 44.2285C24.5273 47.5371 24.4043 47.5918 22.0937 48.9317C20.8086 49.6699 19.5644 50.3262 19.3183 50.3672C18.6894 50.5039 17.8965 50.2442 17.4179 49.7383C17.1855 49.4922 16.4883 48.3984 15.8593 47.3047C14.6152 45.1445 14.4101 44.4336 14.8066 43.668C15.1211 43.0527 15.5176 42.7656 17.5547 41.5762L19.4551 40.4824L20.9043 42.9707C22.4765 45.6777 22.7226 45.9238 23.5019 45.6504C23.9804 45.4863 24.1992 45.1719 24.1992 44.6387C24.1992 44.4336 23.5976 43.2441 22.7636 41.8086C21.9707 40.4414 21.3418 39.2793 21.3554 39.2246C21.3828 39.1699 23.3652 37.5156 25.7715 35.5195C28.1777 33.5371 31.2129 31.0488 32.5117 29.9688C34.7402 28.1367 35.1367 27.8496 35.1367 28.1504C35.1367 28.4512 36.0664 29.2578 36.4218 29.2578C36.914 29.2578 37.4609 28.6973 37.4609 28.2051C37.4609 27.7676 36.3672 25.7578 35.9433 25.3887C35.6152 25.1152 35.1914 25.0879 34.7949 25.3203ZM14.1093 48.6445L14.6152 49.5742L14.041 49.875C13.248 50.2852 12.6738 50.2715 12.3183 49.8203C11.8125 49.1914 11.9902 48.6172 12.8242 48.0567C13.0976 47.8789 13.3984 47.7285 13.4668 47.7285C13.5488 47.7149 13.8359 48.1387 14.1093 48.6445ZM27.0566 51.4063C28.3828 53.7031 28.4648 54.2774 27.4941 54.6875C26.7695 54.9883 26.4414 54.6875 25.1972 52.5684C24.582 51.5156 24.0761 50.5859 24.0761 50.5176C24.0625 50.3672 25.5254 49.5059 25.7851 49.4922C25.8808 49.4922 26.4414 50.3535 27.0566 51.4063Z" fill="#484545"/>
<path d="M49.2871 31.2266C47.7832 31.541 46.457 31.8555 46.3203 31.9102C46.0195 32.0469 45.7597 32.7305 45.8691 33.0859C46.0058 33.5098 46.4844 33.9062 46.8808 33.9062C47.0722 33.9062 48.5215 33.6465 50.1074 33.332C52.4316 32.8672 53.0332 32.7031 53.2793 32.457C53.9492 31.7871 53.4297 30.6113 52.4726 30.6387C52.2265 30.6523 50.791 30.9121 49.2871 31.2266Z" fill="#484545"/>
<path d="M5.8106 35.3418L5.4688 35.6699V47.373V59.0625H4.16997C2.93951 59.0625 2.83013 59.0898 2.50201 59.418C2.16021 59.7598 2.16021 59.7734 2.2149 61.7012C2.25591 63.5332 2.28326 63.6973 2.69341 64.5586C3.29497 65.8301 4.0606 66.623 5.30474 67.2383L6.3438 67.7441H21.8751H37.4063L38.4454 67.2383C39.6895 66.623 40.4551 65.8301 41.0567 64.5586C41.4669 63.6973 41.4942 63.5332 41.5352 61.7012C41.5899 59.7734 41.5899 59.7598 41.2481 59.418C40.92 59.0898 40.8106 59.0625 39.5801 59.0625H38.2813V53.5391C38.2813 48.166 38.2676 48.0156 37.9942 47.6602C37.5977 47.1543 36.7774 47.1543 36.3809 47.6602C36.1075 48.0156 36.0938 48.166 36.0938 53.5391V59.0625H21.8751H7.6563V48.125V37.1875H12.3594H17.0762L17.4454 36.873C17.7188 36.6406 17.8145 36.4219 17.8145 36.0938C17.8145 35.7656 17.7188 35.5469 17.4454 35.3145L17.0762 35H11.6075H6.13872L5.8106 35.3418ZM39.3751 62.0156C39.3751 63.2051 39.129 63.834 38.3497 64.5996C37.5157 65.4473 36.9688 65.625 35.2188 65.625H33.9063V64.873C33.9063 63.957 33.5098 63.4375 32.8126 63.4375C32.1153 63.4375 31.7188 63.957 31.7188 64.873V65.625H21.8751H12.0313V64.873C12.0313 63.957 11.6348 63.4375 10.9376 63.4375C10.2403 63.4375 9.8438 63.957 9.8438 64.873V65.625H8.5313C6.7813 65.625 6.23443 65.4473 5.40044 64.5996C4.62115 63.834 4.37505 63.2051 4.37505 62.0156V61.25H21.8751H39.3751V62.0156Z" fill="#484545"/>
<path d="M50.3125 36.2715C49.6426 36.4902 48.4941 37.666 48.2891 38.3633C48.0566 39.1699 48.0566 52.7051 48.2891 53.5117C48.5078 54.2637 49.6426 55.3984 50.3945 55.6172C50.8047 55.7402 52.8691 55.7813 57.9961 55.7813C66.0625 55.7813 65.8984 55.8086 66.8965 54.6875C67.6621 53.8398 67.8125 53.293 67.8125 51.4199C67.8125 49.9844 67.7988 49.875 67.4707 49.5605C67.0332 49.1094 66.4043 49.1094 65.9668 49.5605C65.6387 49.875 65.625 49.9844 65.625 51.4063C65.625 52.8281 65.6113 52.9375 65.2832 53.252L64.9551 53.5938H57.9688H50.9824L50.6543 53.252L50.3125 52.9238V45.9375V38.9512L50.6543 38.623L50.9824 38.2813H57.9688H64.9551L65.2832 38.623L65.625 38.9512V42.6563V46.3613L65.9668 46.6895C66.1719 46.9082 66.459 47.0313 66.7188 47.0313C66.9785 47.0313 67.2656 46.9082 67.4707 46.6895L67.8125 46.3613V42.6426C67.8125 40.168 67.7578 38.7461 67.6484 38.3906C67.5664 38.0898 67.2246 37.543 66.8965 37.1875C65.8984 36.0664 66.0762 36.0938 57.9141 36.1074C53.1426 36.1211 50.627 36.1758 50.3125 36.2715Z" fill="#484545"/>
<path d="M56.9434 41.6855C55.6855 42.0137 54.5781 42.916 54.0039 44.0918C53.5254 45.0898 53.5254 46.8125 54.0039 47.7832C54.4277 48.6582 55.248 49.4785 56.123 49.9023C57.0938 50.3809 58.8164 50.3809 59.8145 49.9023C60.6895 49.4785 61.5098 48.6582 61.9336 47.7832C62.4121 46.7852 62.4121 45.0625 61.9336 44.0918C61.4961 43.2168 60.6758 42.3965 59.8145 41.9863C59.0762 41.6445 57.6816 41.4941 56.9434 41.6855ZM58.8301 43.9414C60.2383 44.5293 60.5801 46.3613 59.4863 47.4551C58.5977 48.3438 57.3398 48.3438 56.4512 47.4551C54.7559 45.7734 56.6289 43.0117 58.8301 43.9414Z" fill="#484545"/>
</svg>
