<svg width="92" height="92" viewBox="0 0 92 92" fill="none" xmlns="http://www.w3.org/2000/svg">
<path d="M83.8242 14.1234C83.5367 14.2672 80.3922 17.2859 76.8703 20.8078L70.4375 27.2226V23.7906C70.4375 20.4844 70.4195 20.3406 69.9703 19.4422C69.7188 18.9211 69.2156 18.2742 68.8562 17.9687C67.4547 16.8187 69.7187 16.8906 34.9492 16.9266C4.70781 16.9805 3.28828 16.9984 2.65937 17.3039C1.7789 17.7531 0.862497 18.6695 0.431247 19.5141C0.10781 20.1969 0.0898411 21.0055 0.0359349 47.2578C-0.0179714 77.6609 -0.107815 75.325 1.36562 76.7984C2.83906 78.2898 -0.053909 78.182 35.5781 78.1281L67.293 78.0742L68.0117 77.6789C68.9461 77.1758 69.6109 76.457 70.0602 75.4687C70.4195 74.6781 70.4375 74.3726 70.4375 59.1172V43.5742L80.8773 33.1523C87.9211 26.1086 91.425 22.4969 91.6586 22.0117C92.4133 20.3945 92.0359 19.568 89.2687 16.7648C86.4476 13.9258 85.2977 13.3508 83.8242 14.1234ZM87.8312 22.0476L86.5195 23.3594L84.507 21.3469L82.4766 19.3164L83.7703 18.0226L85.082 16.7109L87.0945 18.7234L89.125 20.7539L87.8312 22.0476ZM6.10937 21.3828V23H4.49219H2.875V22.0476C2.89297 20.4125 3.52187 19.7836 5.175 19.7656H6.10937V21.3828ZM49.2344 21.3828V23H29.1094H8.98437V21.3828V19.7656H29.1094H49.2344V21.3828ZM55.3438 21.3828V23H53.7266H52.1094V21.3828V19.7656H53.7266H55.3438V21.3828ZM61.4531 21.3828V23H59.8359H58.2188V21.3828V19.7656H59.8359H61.4531V21.3828ZM67.1312 20.3766C67.4727 20.7719 67.5625 21.0594 67.5625 21.9398V23H65.9453H64.3281V21.3648V19.7297L65.5141 19.8016C66.5563 19.8734 66.7719 19.9453 67.1312 20.3766ZM82.5664 23.3594L84.543 25.3359L67.5625 42.3164L50.582 59.2969L48.5695 57.2844L46.5391 55.2539L63.4656 38.3273C72.7914 29.0016 80.4461 21.3828 80.5 21.3828C80.5539 21.3828 81.4883 22.2812 82.5664 23.3594ZM67.5625 27.9773V30.0976L55.0023 42.6758L42.4242 55.2539L39.7109 61.0937C38.2195 64.3101 36.9437 67.1492 36.8898 67.4008C36.7461 68.1016 37.5008 68.8922 38.2914 68.8742C38.6687 68.8562 41.1844 67.7781 44.7422 66.125L50.582 63.3937L59.0812 54.9305L67.5625 46.4492V60.3391V74.2469L67.0414 74.768L66.5023 75.2891L35.1469 75.2531L3.7914 75.1992L3.37812 74.7859L2.96484 74.3726L2.91093 50.1328L2.875 25.875H35.2187H67.5625V27.9773ZM48.2461 61.2375C48.1742 61.3094 43.8797 63.3398 42.2805 64.0586L41.3461 64.4719L41.6875 63.7351C41.8672 63.3219 42.4242 62.082 42.9453 61.0039C43.4664 59.9078 44.0414 58.668 44.2391 58.2367L44.5805 57.4281L46.4492 59.2969C47.4734 60.3211 48.3 61.2016 48.2461 61.2375Z" fill="#484545"/>
<path d="M9.91874 32.4695C9.79296 32.5234 9.57734 32.775 9.43359 33.0625C9.09218 33.7273 9.03827 33.6016 12.5601 42.4062C15.5609 49.9172 15.8664 50.4922 16.8008 50.4922C17.7891 50.4922 18.1484 49.7914 21.2391 41.8672C21.4008 41.4719 21.6164 41.9211 23.1078 45.6406C24.1141 48.1742 24.9406 49.9891 25.1742 50.1688C25.7312 50.6359 26.5398 50.582 27.007 50.0609C27.2226 49.8094 28.6781 46.3953 30.2594 42.4602L33.0984 35.2906L33.907 35.075C34.5359 34.8953 34.7516 34.7336 34.9312 34.2844C35.2187 33.6195 35.0211 32.793 34.5 32.5234C34.3203 32.4156 33.2242 32.3438 32.0922 32.3438C30.2414 32.3438 29.9719 32.3797 29.6484 32.7031C29.1633 33.1883 29.1633 34.1945 29.6664 34.6977L30.0617 35.093L28.3008 39.5133C27.3305 41.9391 26.4141 44.2211 26.2703 44.5625L26.0187 45.1914L24.15 40.5195C23.1258 37.95 22.2273 35.7219 22.1914 35.5602C22.1195 35.3266 22.2633 35.2367 22.8922 35.1469C23.7008 35.0211 24.132 34.6977 24.3297 34.0148C24.4734 33.5477 24.0422 32.6133 23.6289 32.4516C23.4672 32.3977 22.425 32.3438 21.3109 32.3438C19.4242 32.3438 19.2625 32.3797 18.9031 32.757C18.3641 33.332 18.4 33.8891 19.1367 35.7039C19.4781 36.5664 19.7656 37.393 19.7656 37.5367C19.7656 37.8422 16.8726 45.1555 16.8008 45.0656C16.7289 44.9938 13.0812 35.9195 12.9914 35.5602C12.9195 35.3445 13.0812 35.2367 13.6383 35.1469C14.0516 35.093 14.5367 34.8773 14.7344 34.6797C15.2375 34.1766 15.2016 33.2242 14.6805 32.7391C14.3031 32.3797 14.0875 32.3438 12.2008 32.3617C11.0687 32.3617 10.0445 32.4156 9.91874 32.4695Z" fill="#484545"/>
<path d="M40.5554 32.5594C39.7469 33.1883 39.8726 34.4281 40.789 34.9133C41.364 35.2008 42.0648 35.2187 49.3601 35.1828L57.3023 35.1289L57.7156 34.7336C58.2726 34.1765 58.2547 33.1344 57.6976 32.6851C57.3023 32.3617 56.8172 32.3437 49.0726 32.3437C42.7836 32.3437 40.789 32.3976 40.5554 32.5594Z" fill="#484545"/>
<path d="M40.5735 38.7047C39.7289 39.3336 39.8547 40.6273 40.7891 41.0945C41.436 41.418 50.5641 41.418 51.211 41.0945C51.8578 40.7711 52.1633 40.0523 51.9297 39.4234C51.5524 38.4711 51.5164 38.4711 46 38.4711C42.0828 38.4711 40.8071 38.525 40.5735 38.7047Z" fill="#484545"/>
<path d="M10.0985 57.0508C9.79299 57.1945 9.45159 57.5 9.34378 57.7516C9.12815 58.3086 9.43362 59.225 9.88284 59.4766C10.0985 59.5844 14.5008 59.6562 21.5446 59.6562H32.8649L33.2242 59.1891C33.7274 58.5602 33.6914 57.9852 33.1703 57.3742L32.7391 56.8711L21.7063 56.8352C12.4703 56.7992 10.6016 56.8352 10.0985 57.0508Z" fill="#484545"/>
<path d="M9.82888 63.2859C9.39763 63.6273 9.14607 64.4359 9.32575 64.9211C9.68513 65.8734 9.48747 65.8554 18.3461 65.8554H26.5758L26.989 65.4601C27.5461 64.9031 27.5281 63.8609 26.9711 63.4117C26.5758 63.0883 26.0906 63.0703 18.3461 63.0703C12.057 63.0703 10.0625 63.1242 9.82888 63.2859Z" fill="#484545"/>
</svg>
