<svg width="1440" height="246" viewBox="0 0 1440 246" fill="none" xmlns="http://www.w3.org/2000/svg">
<rect width="1440" height="246" fill="#FFDEC3"/>
<path d="M474 165.72C474 170.43 469.981 172.939 467.038 175.186C466 175.978 465 176.725 464 176.725C463 176.725 462 175.978 460.962 175.186C458.019 172.939 454 170.43 454 165.72C454 161.011 459.5 157.671 464 162.199C468.5 157.671 474 161.011 474 165.72Z" fill="#FF9D4D" fill-opacity="0.3"/>
<g clip-path="url(#clip0_692_1577)">
<path d="M1425.5 27.3754C1425.5 28.5527 1424.5 29.1801 1423.76 29.7417C1423.5 29.9399 1423.25 30.1265 1423 30.1265C1422.75 30.1265 1422.5 29.9399 1422.24 29.7417C1421.5 29.1801 1420.5 28.5527 1420.5 27.3754C1420.5 26.198 1421.88 25.363 1423 26.4949C1424.12 25.363 1425.5 26.198 1425.5 27.3754Z" fill="#FF9D4D" fill-opacity="0.3"/>
</g>
<path d="M1103.74 204.651C1103.02 204.491 1102.29 204.036 1102.29 203.18C1102.29 202.832 1102.39 202.591 1102.51 202.386C1102.59 202.27 1102.58 202.181 1102.47 202.137C1101.89 201.887 1101.41 201.388 1101.41 200.665C1101.41 200.264 1101.52 199.899 1101.73 199.64C1101.83 199.506 1101.81 199.399 1101.65 199.301C1101.22 199.069 1100.94 198.552 1100.94 197.963C1100.94 197.553 1101.08 197.099 1101.34 196.876C1101.47 196.751 1101.45 196.662 1101.29 196.537C1100.99 196.314 1100.82 195.886 1100.82 195.378C1100.82 194.504 1101.52 193.799 1102.44 193.799H1105.73C1106.56 193.799 1107.12 193.38 1107.12 192.72C1107.12 191.49 1105.54 189.278 1105.54 187.682C1105.54 186.853 1106.11 186.354 1106.83 186.354C1107.5 186.354 1107.84 186.799 1108.2 187.477C1109.57 190.099 1111.43 192.212 1112.84 194.022C1114.03 195.574 1114.62 196.876 1114.65 199.016C1114.7 202.306 1111.94 204.812 1107.62 204.847L1106.34 204.856C1105.13 204.865 1104.25 204.776 1103.74 204.651ZM1119.18 199.078C1119.18 201.753 1117.47 203.991 1115.16 203.991H1113.51C1115.17 202.814 1115.94 201.031 1115.9 198.989C1115.87 196.724 1114.96 195.11 1114.15 194.129H1115.51C1117.58 194.129 1119.18 196.305 1119.18 199.078Z" fill="#FF9D4D" fill-opacity="0.3"/>
<path d="M782.333 224.84C782.333 231.119 776.974 234.465 773.051 237.46C771.667 238.517 770.333 239.512 769 239.512C767.667 239.512 766.333 238.517 764.949 237.46C761.026 234.465 755.667 231.119 755.667 224.84C755.667 218.56 763 214.107 769 220.144C775 214.107 782.333 218.56 782.333 224.84Z" fill="#FF9D4D" fill-opacity="0.3"/>
<path d="M669.833 108.769C669.833 111.516 667.489 112.98 665.772 114.29C665.167 114.753 664.583 115.188 664 115.188C663.417 115.188 662.833 114.753 662.228 114.29C660.511 112.98 658.167 111.516 658.167 108.769C658.167 106.022 661.375 104.073 664 106.715C666.625 104.073 669.833 106.022 669.833 108.769Z" fill="#FF9D4D" fill-opacity="0.3"/>
<path d="M1198.83 168.812C1198.83 171.56 1196.49 173.024 1194.77 174.334C1194.17 174.796 1193.58 175.232 1193 175.232C1192.42 175.232 1191.83 174.796 1191.23 174.334C1189.51 173.024 1187.17 171.56 1187.17 168.812C1187.17 166.065 1190.38 164.117 1193 166.758C1195.62 164.117 1198.83 166.065 1198.83 168.812Z" fill="#FF9D4D" fill-opacity="0.3"/>
<path d="M222.784 193.203H207.216C206.072 193.203 204.975 193.643 204.167 194.427C203.358 195.21 202.903 196.272 202.903 197.38V210.716C202.903 211.824 203.358 212.886 204.167 213.67C204.975 214.453 206.072 214.893 207.216 214.893H208.819L214.454 221.318C214.549 221.425 214.675 221.502 214.817 221.538C214.958 221.574 215.107 221.568 215.244 221.519C215.384 221.472 215.504 221.383 215.589 221.266C215.674 221.148 215.72 221.008 215.719 220.865V214.893H222.784C223.928 214.893 225.025 214.453 225.833 213.67C226.642 212.886 227.097 211.824 227.097 210.716V197.38C227.097 196.272 226.642 195.21 225.833 194.427C225.025 193.643 223.928 193.203 222.784 193.203ZM225.659 210.716C225.659 211.455 225.356 212.163 224.817 212.685C224.278 213.207 223.547 213.501 222.784 213.501H215C214.809 213.501 214.627 213.574 214.492 213.705C214.357 213.835 214.281 214.012 214.281 214.197V218.972L209.696 213.744C209.628 213.668 209.544 213.607 209.45 213.565C209.356 213.523 209.253 213.501 209.149 213.501H207.216C206.453 213.501 205.722 213.207 205.183 212.685C204.644 212.163 204.341 211.455 204.341 210.716V197.38C204.341 196.641 204.644 195.933 205.183 195.411C205.722 194.889 206.453 194.596 207.216 194.596H222.784C223.547 194.596 224.278 194.889 224.817 195.411C225.356 195.933 225.659 196.641 225.659 197.38V210.716Z" fill="#FF9D4D" fill-opacity="0.3"/>
<path d="M224.099 198.25C224.099 198.435 224.024 198.612 223.889 198.742C223.754 198.873 223.571 198.946 223.381 198.946H206.619C206.429 198.946 206.246 198.873 206.111 198.742C205.976 198.612 205.901 198.435 205.901 198.25C205.901 198.065 205.976 197.888 206.111 197.758C206.246 197.627 206.429 197.554 206.619 197.554H223.381C223.571 197.554 223.754 197.627 223.889 197.758C224.024 197.888 224.099 198.065 224.099 198.25Z" fill="#FF9D4D" fill-opacity="0.3"/>
<path d="M224.099 201.153C224.099 201.337 224.024 201.514 223.889 201.645C223.754 201.775 223.571 201.849 223.381 201.849H206.619C206.429 201.849 206.246 201.775 206.111 201.645C205.976 201.514 205.901 201.337 205.901 201.153C205.901 200.968 205.976 200.791 206.111 200.66C206.246 200.53 206.429 200.456 206.619 200.456H223.381C223.475 200.456 223.569 200.473 223.657 200.508C223.744 200.542 223.824 200.593 223.891 200.658C223.958 200.723 224.011 200.8 224.047 200.885C224.082 200.97 224.1 201.061 224.099 201.153Z" fill="#FF9D4D" fill-opacity="0.3"/>
<path d="M224.099 204.048C224.099 204.233 224.024 204.41 223.889 204.54C223.754 204.671 223.571 204.744 223.381 204.744H206.619C206.429 204.744 206.246 204.671 206.111 204.54C205.976 204.41 205.901 204.233 205.901 204.048C205.901 203.864 205.976 203.686 206.111 203.556C206.246 203.425 206.429 203.352 206.619 203.352H223.381C223.571 203.352 223.754 203.425 223.889 203.556C224.024 203.686 224.099 203.864 224.099 204.048Z" fill="#FF9D4D" fill-opacity="0.3"/>
<path d="M224.099 206.951C224.099 207.135 224.024 207.312 223.889 207.443C223.754 207.573 223.571 207.647 223.381 207.647H212.607C212.416 207.647 212.233 207.573 212.098 207.443C211.964 207.312 211.888 207.135 211.888 206.951C211.888 206.766 211.964 206.589 212.098 206.459C212.233 206.328 212.416 206.255 212.607 206.255H223.381C223.475 206.254 223.569 206.271 223.657 206.306C223.744 206.34 223.824 206.392 223.891 206.456C223.958 206.521 224.011 206.598 224.047 206.683C224.082 206.768 224.1 206.859 224.099 206.951Z" fill="#FF9D4D" fill-opacity="0.3"/>
<path d="M224.099 209.846C224.099 210.031 224.024 210.208 223.889 210.339C223.754 210.469 223.571 210.542 223.381 210.542H212.607C212.416 210.542 212.233 210.469 212.098 210.339C211.964 210.208 211.888 210.031 211.888 209.846C211.888 209.662 211.964 209.485 212.098 209.354C212.233 209.224 212.416 209.15 212.607 209.15H223.381C223.571 209.15 223.754 209.224 223.889 209.354C224.024 209.485 224.099 209.662 224.099 209.846Z" fill="#FF9D4D" fill-opacity="0.3"/>
<path d="M205.405 223.169C205.357 223.03 205.265 222.909 205.143 222.823C205.02 222.737 204.873 222.69 204.722 222.689H201.753L200.833 219.953C200.786 219.814 200.695 219.693 200.572 219.607C200.449 219.521 200.302 219.475 200.151 219.475C199.999 219.475 199.852 219.521 199.729 219.607C199.607 219.693 199.515 219.814 199.468 219.953L198.548 222.689H195.579C195.427 222.688 195.279 222.735 195.156 222.821C195.032 222.907 194.941 223.029 194.893 223.169C194.846 223.309 194.846 223.46 194.893 223.6C194.94 223.74 195.032 223.862 195.155 223.949L197.556 225.64L196.643 228.369C196.608 228.473 196.599 228.584 196.616 228.693C196.634 228.801 196.678 228.904 196.745 228.993C196.811 229.082 196.899 229.155 197 229.205C197.101 229.254 197.212 229.281 197.326 229.281C197.478 229.281 197.626 229.234 197.75 229.148L200.151 227.457L202.551 229.148C202.674 229.234 202.821 229.28 202.972 229.28C203.123 229.281 203.27 229.235 203.393 229.149C203.515 229.063 203.607 228.943 203.654 228.804C203.702 228.665 203.703 228.515 203.658 228.376L202.738 225.64L205.146 223.949C205.268 223.861 205.358 223.739 205.404 223.599C205.451 223.459 205.451 223.309 205.405 223.169ZM201.214 225.585L201.61 226.768L200.575 226.037C200.452 225.949 200.303 225.901 200.151 225.901C199.998 225.901 199.849 225.949 199.727 226.037L198.692 226.768L199.087 225.585C199.134 225.446 199.134 225.296 199.087 225.157C199.041 225.019 198.95 224.898 198.828 224.812L197.793 224.081H199.072C199.224 224.08 199.371 224.033 199.493 223.947C199.616 223.861 199.707 223.74 199.755 223.601L200.151 222.417L200.546 223.601C200.593 223.74 200.684 223.862 200.807 223.948C200.93 224.034 201.077 224.081 201.229 224.081H202.508L201.473 224.812C201.35 224.897 201.258 225.017 201.212 225.157C201.165 225.296 201.166 225.446 201.214 225.585Z" fill="#FF9D4D" fill-opacity="0.3"/>
<path d="M220.254 226.761C220.207 226.621 220.116 226.5 219.993 226.413C219.87 226.327 219.723 226.281 219.571 226.281H216.603L215.683 223.545C215.636 223.406 215.544 223.284 215.421 223.199C215.299 223.113 215.151 223.066 215 223.066C214.849 223.066 214.701 223.113 214.578 223.199C214.456 223.284 214.364 223.406 214.317 223.545L213.397 226.281H210.429C210.277 226.28 210.128 226.326 210.005 226.413C209.882 226.499 209.79 226.621 209.743 226.761C209.696 226.901 209.696 227.052 209.743 227.192C209.79 227.332 209.881 227.454 210.005 227.54L212.412 229.232L211.492 231.967C211.446 232.107 211.446 232.258 211.493 232.397C211.539 232.537 211.63 232.659 211.751 232.747C211.875 232.832 212.023 232.878 212.175 232.878C212.327 232.878 212.475 232.832 212.599 232.747L215 231.056L217.401 232.747C217.524 232.833 217.672 232.879 217.825 232.879C217.977 232.879 218.125 232.833 218.249 232.747C218.37 232.659 218.461 232.537 218.507 232.397C218.553 232.258 218.554 232.107 218.507 231.967L217.587 229.232L219.995 227.54C220.118 227.454 220.209 227.331 220.256 227.191C220.302 227.051 220.302 226.901 220.254 226.761ZM216.064 229.183L216.459 230.36L215.424 229.629C215.3 229.543 215.152 229.496 215 229.496C214.848 229.496 214.699 229.543 214.576 229.629L213.541 230.36L213.936 229.183C213.985 229.043 213.986 228.892 213.939 228.752C213.892 228.612 213.801 228.49 213.677 228.404L212.642 227.673H213.922C214.073 227.673 214.221 227.626 214.344 227.54C214.466 227.454 214.558 227.332 214.605 227.192L215 226.016L215.395 227.192C215.442 227.332 215.534 227.454 215.656 227.54C215.779 227.626 215.927 227.673 216.078 227.673H217.357L216.322 228.404C216.199 228.49 216.107 228.612 216.061 228.752C216.014 228.892 216.015 229.043 216.064 229.183Z" fill="#FF9D4D" fill-opacity="0.3"/>
<path d="M235.103 223.169C235.057 223.029 234.966 222.907 234.843 222.821C234.721 222.734 234.572 222.688 234.421 222.689H231.452L230.532 219.953C230.485 219.814 230.393 219.693 230.271 219.607C230.148 219.521 230.001 219.475 229.849 219.475C229.698 219.475 229.55 219.521 229.428 219.607C229.305 219.693 229.214 219.814 229.167 219.953L228.247 222.689H225.278C225.126 222.688 224.978 222.735 224.854 222.821C224.731 222.907 224.639 223.029 224.592 223.169C224.545 223.309 224.545 223.46 224.592 223.6C224.639 223.74 224.731 223.862 224.854 223.949L227.262 225.64L226.342 228.376C226.297 228.515 226.298 228.665 226.346 228.804C226.393 228.943 226.485 229.063 226.607 229.149C226.73 229.235 226.877 229.281 227.028 229.28C227.179 229.28 227.326 229.234 227.449 229.148L229.849 227.457L232.25 229.148C232.374 229.234 232.522 229.281 232.674 229.281C232.827 229.283 232.976 229.236 233.098 229.148C233.222 229.063 233.314 228.94 233.361 228.8C233.407 228.66 233.406 228.508 233.357 228.369L232.444 225.64L234.845 223.949C234.967 223.862 235.058 223.74 235.105 223.6C235.151 223.46 235.151 223.309 235.103 223.169ZM230.913 225.585L231.308 226.768L230.273 226.037C230.15 225.95 230.002 225.904 229.849 225.905C229.697 225.905 229.549 225.951 229.425 226.037L228.39 226.768L228.786 225.585C228.834 225.446 228.835 225.296 228.788 225.157C228.742 225.017 228.65 224.897 228.527 224.812L227.492 224.081H228.771C228.923 224.081 229.07 224.034 229.193 223.948C229.316 223.862 229.407 223.74 229.454 223.601L229.849 222.417L230.245 223.601C230.292 223.74 230.384 223.861 230.506 223.947C230.629 224.033 230.776 224.08 230.927 224.081H232.207L231.172 224.812C231.05 224.898 230.959 225.019 230.913 225.157C230.866 225.296 230.866 225.446 230.913 225.585Z" fill="#FF9D4D" fill-opacity="0.3"/>
<path d="M1294.78 202.888H1279.22C1278.07 202.888 1276.98 203.328 1276.17 204.111C1275.36 204.894 1274.9 205.957 1274.9 207.064V220.401C1274.9 221.509 1275.36 222.571 1276.17 223.354C1276.98 224.137 1278.07 224.577 1279.22 224.577H1280.82L1286.45 231.002C1286.55 231.11 1286.68 231.186 1286.82 231.222C1286.96 231.259 1287.11 231.252 1287.24 231.204C1287.38 231.156 1287.5 231.067 1287.59 230.95C1287.67 230.833 1287.72 230.693 1287.72 230.55V224.577H1294.78C1295.93 224.577 1297.02 224.137 1297.83 223.354C1298.64 222.571 1299.1 221.509 1299.1 220.401V207.064C1299.1 205.957 1298.64 204.894 1297.83 204.111C1297.02 203.328 1295.93 202.888 1294.78 202.888ZM1297.66 220.401C1297.66 221.139 1297.36 221.848 1296.82 222.37C1296.28 222.892 1295.55 223.185 1294.78 223.185H1287C1286.81 223.185 1286.63 223.259 1286.49 223.389C1286.36 223.52 1286.28 223.697 1286.28 223.881V228.656L1281.7 223.429C1281.63 223.353 1281.54 223.292 1281.45 223.25C1281.36 223.208 1281.25 223.186 1281.15 223.185H1279.22C1278.45 223.185 1277.72 222.892 1277.18 222.37C1276.64 221.848 1276.34 221.139 1276.34 220.401V207.064C1276.34 206.326 1276.64 205.618 1277.18 205.095C1277.72 204.573 1278.45 204.28 1279.22 204.28H1294.78C1295.55 204.28 1296.28 204.573 1296.82 205.095C1297.36 205.618 1297.66 206.326 1297.66 207.064V220.401Z" fill="#FF9D4D" fill-opacity="0.3"/>
<path d="M1296.1 207.934C1296.1 208.119 1296.02 208.296 1295.89 208.427C1295.75 208.557 1295.57 208.63 1295.38 208.63H1278.62C1278.43 208.63 1278.25 208.557 1278.11 208.427C1277.98 208.296 1277.9 208.119 1277.9 207.934C1277.9 207.75 1277.98 207.573 1278.11 207.442C1278.25 207.312 1278.43 207.238 1278.62 207.238H1295.38C1295.57 207.238 1295.75 207.312 1295.89 207.442C1296.02 207.573 1296.1 207.75 1296.1 207.934Z" fill="#FF9D4D" fill-opacity="0.3"/>
<path d="M1296.1 210.837C1296.1 211.022 1296.02 211.199 1295.89 211.329C1295.75 211.46 1295.57 211.533 1295.38 211.533H1278.62C1278.43 211.533 1278.25 211.46 1278.11 211.329C1277.98 211.199 1277.9 211.022 1277.9 210.837C1277.9 210.652 1277.98 210.475 1278.11 210.345C1278.25 210.214 1278.43 210.141 1278.62 210.141H1295.38C1295.48 210.14 1295.57 210.157 1295.66 210.192C1295.74 210.227 1295.82 210.278 1295.89 210.343C1295.96 210.408 1296.01 210.485 1296.05 210.57C1296.08 210.654 1296.1 210.745 1296.1 210.837Z" fill="#FF9D4D" fill-opacity="0.3"/>
<path d="M1296.1 213.733C1296.1 213.917 1296.02 214.094 1295.89 214.225C1295.75 214.355 1295.57 214.429 1295.38 214.429H1278.62C1278.43 214.429 1278.25 214.355 1278.11 214.225C1277.98 214.094 1277.9 213.917 1277.9 213.733C1277.9 213.548 1277.98 213.371 1278.11 213.24C1278.25 213.11 1278.43 213.036 1278.62 213.036H1295.38C1295.57 213.036 1295.75 213.11 1295.89 213.24C1296.02 213.371 1296.1 213.548 1296.1 213.733Z" fill="#FF9D4D" fill-opacity="0.3"/>
<path d="M1296.1 216.635C1296.1 216.82 1296.02 216.997 1295.89 217.127C1295.75 217.258 1295.57 217.331 1295.38 217.331H1284.61C1284.42 217.331 1284.23 217.258 1284.1 217.127C1283.96 216.997 1283.89 216.82 1283.89 216.635C1283.89 216.451 1283.96 216.274 1284.1 216.143C1284.23 216.012 1284.42 215.939 1284.61 215.939H1295.38C1295.48 215.938 1295.57 215.956 1295.66 215.99C1295.74 216.025 1295.82 216.076 1295.89 216.141C1295.96 216.206 1296.01 216.283 1296.05 216.368C1296.08 216.453 1296.1 216.544 1296.1 216.635Z" fill="#FF9D4D" fill-opacity="0.3"/>
<path d="M1296.1 219.531C1296.1 219.715 1296.02 219.892 1295.89 220.023C1295.75 220.154 1295.57 220.227 1295.38 220.227H1284.61C1284.42 220.227 1284.23 220.154 1284.1 220.023C1283.96 219.892 1283.89 219.715 1283.89 219.531C1283.89 219.346 1283.96 219.169 1284.1 219.039C1284.23 218.908 1284.42 218.835 1284.61 218.835H1295.38C1295.57 218.835 1295.75 218.908 1295.89 219.039C1296.02 219.169 1296.1 219.346 1296.1 219.531Z" fill="#FF9D4D" fill-opacity="0.3"/>
<path d="M1277.4 232.854C1277.36 232.715 1277.27 232.594 1277.14 232.507C1277.02 232.421 1276.87 232.374 1276.72 232.373H1273.75L1272.83 229.638C1272.79 229.499 1272.69 229.377 1272.57 229.291C1272.45 229.205 1272.3 229.159 1272.15 229.159C1272 229.159 1271.85 229.205 1271.73 229.291C1271.61 229.377 1271.52 229.499 1271.47 229.638L1270.55 232.373H1267.58C1267.43 232.373 1267.28 232.419 1267.16 232.505C1267.03 232.592 1266.94 232.714 1266.89 232.854C1266.85 232.994 1266.85 233.145 1266.89 233.285C1266.94 233.425 1267.03 233.547 1267.16 233.633L1269.56 235.325L1268.64 238.053C1268.61 238.158 1268.6 238.269 1268.62 238.377C1268.63 238.486 1268.68 238.589 1268.74 238.678C1268.81 238.767 1268.9 238.839 1269 238.889C1269.1 238.939 1269.21 238.965 1269.33 238.965C1269.48 238.965 1269.63 238.919 1269.75 238.833L1272.15 237.141L1274.55 238.833C1274.67 238.919 1274.82 238.965 1274.97 238.965C1275.12 238.965 1275.27 238.919 1275.39 238.833C1275.52 238.748 1275.61 238.627 1275.65 238.488C1275.7 238.35 1275.7 238.2 1275.66 238.06L1274.74 235.325L1277.15 233.633C1277.27 233.546 1277.36 233.423 1277.4 233.284C1277.45 233.144 1277.45 232.993 1277.4 232.854ZM1273.21 235.269L1273.61 236.452L1272.57 235.721C1272.45 235.633 1272.3 235.586 1272.15 235.586C1272 235.586 1271.85 235.633 1271.73 235.721L1270.69 236.452L1271.09 235.269C1271.13 235.13 1271.13 234.981 1271.09 234.842C1271.04 234.703 1270.95 234.582 1270.83 234.496L1269.79 233.765H1271.07C1271.22 233.764 1271.37 233.718 1271.49 233.631C1271.62 233.545 1271.71 233.424 1271.76 233.285L1272.15 232.102L1272.55 233.285C1272.59 233.425 1272.68 233.546 1272.81 233.633C1272.93 233.719 1273.08 233.765 1273.23 233.765H1274.51L1273.47 234.496C1273.35 234.581 1273.26 234.702 1273.21 234.841C1273.16 234.98 1273.17 235.13 1273.21 235.269Z" fill="#FF9D4D" fill-opacity="0.3"/>
<path d="M1292.25 236.445C1292.21 236.306 1292.12 236.184 1291.99 236.098C1291.87 236.012 1291.72 235.965 1291.57 235.965H1288.6L1287.68 233.229C1287.64 233.09 1287.54 232.969 1287.42 232.883C1287.3 232.797 1287.15 232.751 1287 232.751C1286.85 232.751 1286.7 232.797 1286.58 232.883C1286.46 232.969 1286.36 233.09 1286.32 233.229L1285.4 235.965H1282.43C1282.28 235.964 1282.13 236.011 1282.01 236.097C1281.88 236.183 1281.79 236.305 1281.74 236.445C1281.7 236.585 1281.7 236.736 1281.74 236.876C1281.79 237.016 1281.88 237.139 1282 237.225L1284.41 238.916L1283.49 241.652C1283.45 241.792 1283.45 241.942 1283.49 242.082C1283.54 242.222 1283.63 242.344 1283.75 242.431C1283.88 242.516 1284.02 242.562 1284.18 242.562C1284.33 242.562 1284.48 242.516 1284.6 242.431L1287 240.74L1289.4 242.431C1289.52 242.517 1289.67 242.564 1289.82 242.564C1289.98 242.564 1290.13 242.517 1290.25 242.431C1290.37 242.344 1290.46 242.222 1290.51 242.082C1290.55 241.942 1290.55 241.792 1290.51 241.652L1289.59 238.916L1292 237.225C1292.12 237.138 1292.21 237.016 1292.26 236.876C1292.3 236.736 1292.3 236.585 1292.25 236.445ZM1288.06 238.868L1288.46 240.044L1287.42 239.313C1287.3 239.227 1287.15 239.181 1287 239.181C1286.85 239.181 1286.7 239.227 1286.58 239.313L1285.54 240.044L1285.94 238.868C1285.98 238.728 1285.99 238.577 1285.94 238.437C1285.89 238.296 1285.8 238.174 1285.68 238.088L1284.64 237.357H1285.92C1286.07 237.357 1286.22 237.311 1286.34 237.224C1286.47 237.138 1286.56 237.016 1286.6 236.877L1287 235.701L1287.4 236.877C1287.44 237.016 1287.53 237.138 1287.66 237.224C1287.78 237.311 1287.93 237.357 1288.08 237.357H1289.36L1288.32 238.088C1288.2 238.174 1288.11 238.296 1288.06 238.437C1288.01 238.577 1288.02 238.728 1288.06 238.868Z" fill="#FF9D4D" fill-opacity="0.3"/>
<path d="M1307.1 232.854C1307.06 232.714 1306.97 232.591 1306.84 232.505C1306.72 232.419 1306.57 232.372 1306.42 232.373H1303.45L1302.53 229.638C1302.48 229.499 1302.39 229.377 1302.27 229.291C1302.15 229.205 1302 229.159 1301.85 229.159C1301.7 229.159 1301.55 229.205 1301.43 229.291C1301.31 229.377 1301.21 229.499 1301.17 229.638L1300.25 232.373H1297.28C1297.13 232.373 1296.98 232.419 1296.85 232.505C1296.73 232.592 1296.64 232.714 1296.59 232.854C1296.55 232.994 1296.55 233.145 1296.59 233.285C1296.64 233.425 1296.73 233.547 1296.85 233.633L1299.26 235.325L1298.34 238.06C1298.3 238.2 1298.3 238.35 1298.35 238.488C1298.39 238.627 1298.48 238.748 1298.61 238.833C1298.73 238.919 1298.88 238.965 1299.03 238.965C1299.18 238.965 1299.33 238.919 1299.45 238.833L1301.85 237.141L1304.25 238.833C1304.37 238.919 1304.52 238.965 1304.67 238.965C1304.83 238.967 1304.98 238.921 1305.1 238.833C1305.22 238.747 1305.31 238.625 1305.36 238.484C1305.41 238.344 1305.41 238.193 1305.36 238.053L1304.44 235.325L1306.84 233.633C1306.97 233.546 1307.06 233.424 1307.1 233.284C1307.15 233.144 1307.15 232.993 1307.1 232.854ZM1302.91 235.269L1303.31 236.452L1302.27 235.721C1302.15 235.634 1302 235.588 1301.85 235.589C1301.7 235.589 1301.55 235.635 1301.43 235.721L1300.39 236.452L1300.79 235.269C1300.83 235.13 1300.84 234.98 1300.79 234.841C1300.74 234.702 1300.65 234.581 1300.53 234.496L1299.49 233.765H1300.77C1300.92 233.765 1301.07 233.719 1301.19 233.633C1301.32 233.546 1301.41 233.425 1301.45 233.285L1301.85 232.102L1302.24 233.285C1302.29 233.424 1302.38 233.545 1302.51 233.631C1302.63 233.718 1302.78 233.764 1302.93 233.765H1304.21L1303.17 234.496C1303.05 234.582 1302.96 234.703 1302.91 234.842C1302.87 234.981 1302.87 235.13 1302.91 235.269Z" fill="#FF9D4D" fill-opacity="0.3"/>
<path d="M22.1853 223.817C20.9448 223.54 19.6883 222.754 19.6883 221.275C19.6883 220.675 19.8633 220.259 20.07 219.905C20.1973 219.704 20.1814 219.55 19.9905 219.473C18.9887 219.042 18.1614 218.18 18.1614 216.932C18.1614 216.239 18.3523 215.608 18.7181 215.161C18.8933 214.93 18.8614 214.745 18.5751 214.576C17.8276 214.175 17.3504 213.282 17.3504 212.265C17.3504 211.557 17.5891 210.771 18.0344 210.386C18.2728 210.171 18.2253 210.017 17.9549 209.801C17.4298 209.416 17.1436 208.677 17.1436 207.799C17.1436 206.289 18.3523 205.072 19.9428 205.072H25.6205C27.0519 205.072 28.0221 204.349 28.0221 203.209C28.0221 201.083 25.3025 197.264 25.3025 194.507C25.3025 193.074 26.2726 192.212 27.529 192.212C28.6741 192.212 29.2626 192.982 29.8829 194.152C32.2526 198.681 35.4651 202.331 37.8985 205.457C39.966 208.138 40.9838 210.386 41.0315 214.083C41.1111 219.766 36.3557 224.094 28.8809 224.156L26.6702 224.171C24.5868 224.186 23.06 224.032 22.1853 223.817ZM48.8563 214.191C48.8563 218.811 45.8982 222.677 41.9063 222.677H39.0594C41.9381 220.644 43.2581 217.564 43.1945 214.036C43.1468 210.124 41.5723 207.337 40.1727 205.642H42.5106C46.089 205.642 48.8563 209.4 48.8563 214.191Z" fill="#FF9D4D" fill-opacity="0.3"/>
<path d="M1396.19 140.531C1394.94 140.254 1393.69 139.468 1393.69 137.989C1393.69 137.389 1393.86 136.973 1394.07 136.619C1394.2 136.418 1394.18 136.264 1393.99 136.187C1392.99 135.756 1392.16 134.894 1392.16 133.646C1392.16 132.953 1392.35 132.321 1392.72 131.875C1392.89 131.644 1392.86 131.459 1392.58 131.289C1391.83 130.889 1391.35 129.996 1391.35 128.979C1391.35 128.271 1391.59 127.485 1392.03 127.1C1392.27 126.884 1392.23 126.73 1391.95 126.515C1391.43 126.13 1391.14 125.39 1391.14 124.512C1391.14 123.003 1392.35 121.786 1393.94 121.786H1399.62C1401.05 121.786 1402.02 121.062 1402.02 119.923C1402.02 117.797 1399.3 113.977 1399.3 111.22C1399.3 109.788 1400.27 108.926 1401.53 108.926C1402.67 108.926 1403.26 109.696 1403.88 110.866C1406.25 115.394 1409.47 119.045 1411.9 122.171C1413.97 124.851 1414.98 127.1 1415.03 130.797C1415.11 136.48 1410.36 140.808 1402.88 140.87L1400.67 140.885C1398.59 140.9 1397.06 140.746 1396.19 140.531ZM1422.86 130.904C1422.86 135.525 1419.9 139.391 1415.91 139.391H1413.06C1415.94 137.358 1417.26 134.277 1417.19 130.75C1417.15 126.838 1415.57 124.05 1414.17 122.356H1416.51C1420.09 122.356 1422.86 126.114 1422.86 130.904Z" fill="#FF9D4D" fill-opacity="0.3"/>
<path d="M1298.45 43.3604C1297.92 43.2437 1297.4 42.9129 1297.4 42.2904C1297.4 42.0375 1297.47 41.8624 1297.56 41.7132C1297.61 41.6289 1297.6 41.564 1297.52 41.5316C1297.1 41.35 1296.75 40.9869 1296.75 40.4616C1296.75 40.1698 1296.83 39.9039 1296.99 39.7158C1297.06 39.6185 1297.05 39.5407 1296.93 39.4694C1296.61 39.3007 1296.41 38.9246 1296.41 38.4966C1296.41 38.1983 1296.51 37.8675 1296.7 37.7054C1296.8 37.6146 1296.78 37.5498 1296.67 37.459C1296.44 37.2969 1296.32 36.9856 1296.32 36.6159C1296.32 35.9804 1296.83 35.468 1297.5 35.468H1299.89C1300.5 35.468 1300.9 35.1632 1300.9 34.6834C1300.9 33.7884 1299.76 32.1801 1299.76 31.0193C1299.76 30.4161 1300.17 30.053 1300.7 30.053C1301.18 30.053 1301.43 30.3772 1301.69 30.8701C1302.69 32.7767 1304.04 34.3137 1305.06 35.6302C1305.93 36.7586 1306.36 37.7054 1306.38 39.2619C1306.42 41.6549 1304.41 43.4772 1301.27 43.5031L1300.33 43.5096C1299.46 43.5161 1298.81 43.4512 1298.45 43.3604ZM1309.68 39.3072C1309.68 41.2528 1308.43 42.8805 1306.75 42.8805H1305.55C1306.76 42.0245 1307.32 40.7275 1307.29 39.2424C1307.27 37.5952 1306.61 36.4214 1306.02 35.708H1307C1308.51 35.708 1309.68 37.2904 1309.68 39.3072Z" fill="#FF9D4D" fill-opacity="0.3"/>
<path d="M877.185 99.6107C875.945 99.8879 874.688 100.673 874.688 102.152C874.688 102.753 874.863 103.169 875.07 103.523C875.197 103.723 875.181 103.877 874.991 103.954C873.989 104.385 873.161 105.248 873.161 106.495C873.161 107.189 873.352 107.82 873.718 108.267C873.893 108.498 873.861 108.683 873.575 108.852C872.828 109.252 872.35 110.146 872.35 111.162C872.35 111.871 872.589 112.656 873.034 113.041C873.273 113.257 873.225 113.411 872.955 113.627C872.43 114.012 872.144 114.751 872.144 115.629C872.144 117.138 873.352 118.355 874.943 118.355H880.621C882.052 118.355 883.022 119.079 883.022 120.219C883.022 122.344 880.303 126.164 880.303 128.921C880.303 130.353 881.273 131.216 882.529 131.216C883.674 131.216 884.263 130.446 884.883 129.275C887.253 124.747 890.465 121.097 892.899 117.97C894.966 115.29 895.984 113.041 896.032 109.345C896.111 103.661 891.356 99.3335 883.881 99.2718L881.67 99.2564C879.587 99.2411 878.06 99.3951 877.185 99.6107ZM903.856 109.237C903.856 104.616 900.898 100.75 896.906 100.75H894.06C896.938 102.784 898.258 105.864 898.195 109.391C898.147 113.303 896.572 116.091 895.173 117.785H897.511C901.089 117.785 903.856 114.027 903.856 109.237Z" fill="#FF9D4D" fill-opacity="0.3"/>
<path d="M658.877 221.139C658.29 221.27 657.695 221.642 657.695 222.342C657.695 222.627 657.777 222.824 657.875 222.992C657.936 223.086 657.928 223.159 657.838 223.196C657.363 223.4 656.971 223.809 656.971 224.4C656.971 224.728 657.062 225.027 657.235 225.239C657.318 225.348 657.303 225.436 657.167 225.516C656.813 225.706 656.587 226.129 656.587 226.61C656.587 226.946 656.7 227.318 656.911 227.5C657.024 227.603 657.001 227.675 656.873 227.778C656.625 227.96 656.489 228.31 656.489 228.726C656.489 229.441 657.062 230.017 657.815 230.017H660.505C661.183 230.017 661.642 230.36 661.642 230.9C661.642 231.907 660.354 233.716 660.354 235.022C660.354 235.701 660.813 236.109 661.409 236.109C661.951 236.109 662.23 235.745 662.523 235.19C663.646 233.045 665.168 231.316 666.32 229.835C667.3 228.566 667.782 227.5 667.804 225.749C667.842 223.057 665.59 221.007 662.049 220.978L661.002 220.971C660.015 220.963 659.292 221.036 658.877 221.139ZM671.511 225.698C671.511 223.51 670.11 221.678 668.219 221.678H666.87C668.234 222.641 668.859 224.101 668.829 225.771C668.806 227.624 668.061 228.945 667.398 229.747H668.505C670.2 229.747 671.511 227.967 671.511 225.698Z" fill="#FF9D4D" fill-opacity="0.3"/>
<path d="M59.8772 64.5198C59.2896 64.3885 58.6945 64.0164 58.6945 63.316C58.6945 63.0314 58.7773 62.8345 58.8753 62.6666C58.9355 62.5718 58.928 62.4988 58.8376 62.4624C58.3631 62.2581 57.9712 61.8495 57.9712 61.2586C57.9712 60.9303 58.0616 60.6312 58.2348 60.4195C58.3179 60.3101 58.3027 60.2226 58.1671 60.1423C57.813 59.9526 57.587 59.5295 57.587 59.048C57.587 58.7124 57.7001 58.3403 57.911 58.1579C58.024 58.0557 58.0014 57.9828 57.8734 57.8806C57.6246 57.6983 57.489 57.3481 57.489 56.9322C57.489 56.2172 58.0616 55.6408 58.815 55.6408H61.5044C62.1825 55.6408 62.642 55.2979 62.642 54.7581C62.642 53.7512 61.3538 51.9419 61.3538 50.636C61.3538 49.9575 61.8133 49.5489 62.4085 49.5489C62.9509 49.5489 63.2296 49.9137 63.5234 50.4681C64.6459 52.6131 66.1677 54.3422 67.3203 55.8232C68.2996 57.0927 68.7818 58.1579 68.8044 59.9089C68.8421 62.601 66.5895 64.6511 63.0488 64.6803L62.0017 64.6876C61.0148 64.6949 60.2916 64.6219 59.8772 64.5198ZM72.5109 59.9599C72.5109 62.1486 71.1096 63.9799 69.2187 63.9799H67.8702C69.2338 63.0168 69.8591 61.5577 69.829 59.887C69.8064 58.0338 69.0605 56.7133 68.3976 55.9108H69.505C71.2 55.9108 72.5109 57.6909 72.5109 59.9599Z" fill="#FF9D4D" fill-opacity="0.3"/>
<path d="M1034.89 223.433C1034.82 223.232 1034.63 223.088 1034.4 223.088H1027.59L1025.49 216.821C1025.42 216.619 1025.23 216.476 1025 216.476C1024.94 216.476 1024.89 216.486 1024.84 216.502L1024.84 216.501C1024.69 216.553 1024.57 216.671 1024.52 216.821L1024.52 216.824L1024.51 216.821L1022.41 223.088H1015.6C1015.32 223.088 1015.09 223.311 1015.09 223.587C1015.09 223.752 1015.17 223.899 1015.3 223.99L1015.3 223.991L1020.8 227.864L1018.7 234.131C1018.69 234.177 1018.68 234.23 1018.68 234.285C1018.68 234.561 1018.91 234.785 1019.19 234.785C1019.31 234.785 1019.41 234.749 1019.5 234.689L1019.49 234.689L1025 230.815L1030.5 234.689C1030.59 234.749 1030.69 234.785 1030.81 234.785C1031.09 234.785 1031.32 234.562 1031.32 234.286C1031.32 234.231 1031.31 234.177 1031.3 234.127L1031.3 234.13L1029.19 227.864L1034.7 223.99C1034.83 223.898 1034.91 223.752 1034.91 223.587C1034.91 223.532 1034.9 223.479 1034.89 223.429L1034.89 223.432V223.433ZM1028.29 227.27C1028.16 227.362 1028.07 227.508 1028.07 227.674C1028.07 227.729 1028.08 227.782 1028.1 227.832L1028.1 227.829L1029.83 232.98L1025.3 229.795C1025.22 229.742 1025.12 229.71 1025.02 229.71C1025.01 229.71 1025.01 229.71 1025 229.71L1025 218.59L1026.73 223.742C1026.8 223.943 1026.99 224.087 1027.22 224.087H1032.81L1028.29 227.27Z" fill="#FF9D4D" fill-opacity="0.3"/>
<path d="M1216.98 213.887C1216.85 213.521 1216.5 213.259 1216.09 213.259H1203.72L1199.89 201.865C1199.77 201.499 1199.42 201.238 1199 201.238C1198.9 201.238 1198.8 201.255 1198.7 201.286L1198.71 201.283C1198.43 201.378 1198.21 201.593 1198.13 201.864L1198.12 201.87L1198.11 201.865L1194.29 213.259H1181.91C1181.4 213.259 1180.98 213.666 1180.98 214.167C1180.98 214.467 1181.13 214.735 1181.36 214.9L1181.36 214.901L1191.37 221.944L1187.55 233.337C1187.52 233.421 1187.5 233.518 1187.5 233.618C1187.5 234.119 1187.92 234.526 1188.44 234.526C1188.65 234.526 1188.84 234.462 1188.99 234.352L1188.99 234.353L1199 227.309L1209.01 234.353C1209.16 234.462 1209.35 234.527 1209.56 234.527C1210.08 234.527 1210.5 234.121 1210.5 233.62C1210.5 233.519 1210.48 233.421 1210.45 233.33L1210.45 233.336L1206.63 221.943L1216.64 214.9C1216.87 214.732 1217.02 214.467 1217.02 214.167C1217.02 214.067 1217.01 213.97 1216.98 213.879L1216.98 213.885V213.887ZM1204.97 220.863C1204.74 221.03 1204.59 221.296 1204.59 221.598C1204.59 221.698 1204.61 221.795 1204.64 221.886L1204.63 221.88L1207.78 231.244L1199.55 225.454C1199.41 225.358 1199.23 225.299 1199.03 225.299C1199.02 225.299 1199.01 225.299 1199 225.299L1199 205.082L1202.14 214.448C1202.27 214.815 1202.62 215.076 1203.03 215.076H1213.2L1204.97 220.863Z" fill="#FF9D4D" fill-opacity="0.3"/>
<path d="M1333.15 93.9707H1317.99C1317.02 93.9707 1316.23 94.6473 1316.23 95.479V102.173C1316.23 103.004 1317.02 103.681 1317.99 103.681H1319.32V106.338C1319.32 106.522 1319.45 106.689 1319.64 106.765C1319.72 106.793 1319.79 106.808 1319.87 106.808C1320 106.808 1320.13 106.768 1320.23 106.693L1324.3 103.681H1333.15C1334.12 103.681 1334.91 103.004 1334.91 102.173V95.479C1334.91 94.6472 1334.12 93.9707 1333.15 93.9707ZM1322.36 98.546L1321.55 99.2213L1321.74 100.175C1321.75 100.244 1321.72 100.313 1321.66 100.354C1321.62 100.377 1321.57 100.389 1321.53 100.389C1321.5 100.389 1321.46 100.382 1321.43 100.368L1320.43 99.918L1319.43 100.368C1319.36 100.401 1319.27 100.395 1319.2 100.354C1319.14 100.313 1319.1 100.244 1319.12 100.175L1319.31 99.2213L1318.5 98.546C1318.44 98.4973 1318.42 98.4244 1318.45 98.3581C1318.47 98.2917 1318.54 98.2434 1318.62 98.2333L1319.74 98.0942L1320.24 97.2267C1320.27 97.164 1320.35 97.1244 1320.43 97.1244C1320.51 97.1244 1320.59 97.164 1320.62 97.2267L1321.12 98.0942L1322.24 98.2333C1322.32 98.2434 1322.39 98.2917 1322.41 98.3581C1322.44 98.4244 1322.42 98.4973 1322.36 98.546ZM1327.5 98.546L1326.69 99.2213L1326.88 100.175C1326.89 100.244 1326.86 100.313 1326.8 100.354C1326.76 100.377 1326.71 100.389 1326.67 100.389C1326.64 100.389 1326.6 100.382 1326.57 100.368L1325.57 99.918L1324.57 100.368C1324.5 100.401 1324.41 100.395 1324.34 100.354C1324.28 100.313 1324.24 100.244 1324.26 100.175L1324.45 99.2213L1323.64 98.546C1323.58 98.4973 1323.56 98.4244 1323.59 98.3581C1323.61 98.2917 1323.68 98.2434 1323.76 98.2333L1324.88 98.0942L1325.38 97.2267C1325.41 97.164 1325.49 97.1244 1325.57 97.1244C1325.65 97.1244 1325.73 97.164 1325.76 97.2267L1326.26 98.0942L1327.38 98.2333C1327.46 98.2434 1327.53 98.2917 1327.55 98.3581C1327.58 98.4244 1327.56 98.4973 1327.5 98.546ZM1332.64 98.546L1331.83 99.2213L1332.02 100.175C1332.03 100.244 1332 100.313 1331.94 100.354C1331.9 100.377 1331.85 100.389 1331.81 100.389C1331.77 100.389 1331.74 100.382 1331.71 100.368L1330.71 99.918L1329.71 100.368C1329.64 100.401 1329.55 100.395 1329.48 100.354C1329.42 100.313 1329.38 100.244 1329.4 100.175L1329.59 99.2213L1328.78 98.546C1328.72 98.4973 1328.7 98.4244 1328.73 98.3581C1328.75 98.2917 1328.82 98.2434 1328.9 98.2333L1330.02 98.0942L1330.52 97.2267C1330.55 97.164 1330.63 97.1244 1330.71 97.1244C1330.79 97.1244 1330.87 97.164 1330.9 97.2267L1331.4 98.0942L1332.52 98.2333C1332.6 98.2434 1332.67 98.2917 1332.69 98.3581C1332.72 98.4244 1332.7 98.4973 1332.64 98.546Z" fill="#FF9D4D" fill-opacity="0.3"/>
<path d="M1309.12 98.5915C1305.41 98.5915 1303.36 100.236 1303.4 103.404C1303.45 107.742 1305.6 110.375 1309.12 110.329C1309.12 110.329 1314.83 110.527 1314.83 103.404C1314.83 100.236 1312.9 98.5915 1309.12 98.5915Z" fill="#FF9D4D" fill-opacity="0.3"/>
<path d="M1319.23 113.622L1313.52 111.672L1312.18 110.707C1311.82 110.452 1311.3 110.47 1310.97 110.749L1309.11 112.333L1307.25 110.749C1306.92 110.47 1306.4 110.452 1306.05 110.707L1304.71 111.672L1299 113.622C1297.16 114.249 1297.16 119.826 1297 120.338H1321.23C1321.07 119.827 1321.07 114.248 1319.23 113.622Z" fill="#FF9D4D" fill-opacity="0.3"/>
<path d="M943.147 163.699H927.992C927.02 163.699 926.23 164.375 926.23 165.207V171.901C926.23 172.732 927.02 173.409 927.992 173.409H929.323V176.066C929.323 176.25 929.448 176.416 929.643 176.493C929.716 176.521 929.794 176.535 929.871 176.535C930 176.535 930.128 176.496 930.23 176.421L934.302 173.409H943.147C944.118 173.409 944.909 172.732 944.909 171.901V165.207C944.909 164.375 944.118 163.699 943.147 163.699ZM932.359 168.274L931.55 168.949L931.741 169.903C931.755 169.972 931.722 170.041 931.655 170.082C931.618 170.105 931.574 170.117 931.53 170.117C931.496 170.117 931.461 170.11 931.43 170.096L930.43 169.646L929.429 170.096C929.357 170.129 929.27 170.123 929.204 170.082C929.138 170.041 929.105 169.972 929.118 169.903L929.31 168.949L928.5 168.274C928.442 168.225 928.421 168.152 928.446 168.086C928.471 168.02 928.538 167.971 928.619 167.961L929.737 167.822L930.237 166.955C930.274 166.892 930.348 166.852 930.43 166.852C930.511 166.852 930.586 166.892 930.622 166.955L931.122 167.822L932.24 167.961C932.321 167.971 932.388 168.02 932.413 168.086C932.438 168.152 932.417 168.225 932.359 168.274ZM937.499 168.274L936.689 168.949L936.881 169.903C936.894 169.972 936.861 170.041 936.795 170.082C936.758 170.105 936.714 170.117 936.67 170.117C936.635 170.117 936.601 170.11 936.57 170.096L935.569 169.646L934.569 170.096C934.497 170.129 934.409 170.123 934.344 170.082C934.277 170.041 934.244 169.972 934.258 169.903L934.449 168.949L933.64 168.274C933.582 168.225 933.561 168.152 933.586 168.086C933.611 168.02 933.678 167.971 933.759 167.961L934.877 167.822L935.377 166.955C935.413 166.892 935.488 166.852 935.569 166.852C935.651 166.852 935.725 166.892 935.761 166.955L936.262 167.822L937.38 167.961C937.461 167.971 937.528 168.02 937.553 168.086C937.578 168.152 937.557 168.225 937.499 168.274ZM942.639 168.274L941.829 168.949L942.02 169.903C942.034 169.972 942.001 170.041 941.935 170.082C941.898 170.105 941.854 170.117 941.809 170.117C941.775 170.117 941.741 170.11 941.709 170.096L940.709 169.646L939.708 170.096C939.637 170.129 939.549 170.123 939.483 170.082C939.417 170.041 939.384 169.972 939.398 169.903L939.589 168.949L938.78 168.274C938.721 168.225 938.7 168.152 938.725 168.086C938.75 168.02 938.818 167.971 938.898 167.961L940.017 167.822L940.517 166.955C940.553 166.892 940.628 166.852 940.709 166.852C940.79 166.852 940.865 166.892 940.901 166.955L941.401 167.822L942.52 167.961C942.601 167.971 942.667 168.02 942.693 168.086C942.718 168.152 942.697 168.225 942.639 168.274Z" fill="#FF9D4D" fill-opacity="0.3"/>
<path d="M919.115 168.319C915.409 168.319 913.358 169.964 913.395 173.132C913.449 177.47 915.603 180.103 919.115 180.057C919.115 180.057 924.833 180.255 924.833 173.132C924.833 169.964 922.901 168.319 919.115 168.319Z" fill="#FF9D4D" fill-opacity="0.3"/>
<path d="M929.228 183.35L923.515 181.4L922.178 180.435C921.824 180.179 921.302 180.198 920.975 180.477L919.115 182.06L917.249 180.477C916.921 180.198 916.4 180.18 916.047 180.435L914.709 181.4L908.996 183.35C907.157 183.977 907.158 189.554 907 190.066H931.227C931.07 189.555 931.069 183.976 929.228 183.35Z" fill="#FF9D4D" fill-opacity="0.3"/>
<path d="M1034.07 122.441H1026.03C1025.52 122.441 1025.1 122.8 1025.1 123.241V126.788C1025.1 127.229 1025.52 127.588 1026.03 127.588H1026.74V128.996C1026.74 129.093 1026.81 129.182 1026.91 129.222C1026.95 129.237 1026.99 129.245 1027.03 129.245C1027.1 129.245 1027.17 129.224 1027.22 129.184L1029.38 127.588H1034.07C1034.58 127.588 1035 127.229 1035 126.788V123.241C1035 122.8 1034.58 122.441 1034.07 122.441ZM1028.35 124.866L1027.92 125.224L1028.02 125.729C1028.03 125.766 1028.01 125.803 1027.98 125.824C1027.96 125.837 1027.93 125.843 1027.91 125.843C1027.89 125.843 1027.87 125.839 1027.86 125.832L1027.33 125.593L1026.8 125.832C1026.76 125.849 1026.71 125.846 1026.68 125.824C1026.64 125.803 1026.62 125.766 1026.63 125.729L1026.73 125.224L1026.3 124.866C1026.27 124.84 1026.26 124.802 1026.27 124.767C1026.29 124.731 1026.32 124.706 1026.37 124.7L1026.96 124.627L1027.22 124.167C1027.24 124.134 1027.28 124.113 1027.33 124.113C1027.37 124.113 1027.41 124.134 1027.43 124.167L1027.69 124.627L1028.29 124.7C1028.33 124.706 1028.36 124.731 1028.38 124.767C1028.39 124.802 1028.38 124.84 1028.35 124.866ZM1031.07 124.866L1030.64 125.224L1030.75 125.729C1030.75 125.766 1030.73 125.803 1030.7 125.824C1030.68 125.837 1030.66 125.843 1030.63 125.843C1030.62 125.843 1030.6 125.839 1030.58 125.832L1030.05 125.593L1029.52 125.832C1029.48 125.849 1029.44 125.846 1029.4 125.824C1029.37 125.803 1029.35 125.766 1029.36 125.729L1029.46 125.224L1029.03 124.866C1029 124.84 1028.99 124.802 1029 124.767C1029.01 124.731 1029.05 124.706 1029.09 124.7L1029.68 124.627L1029.95 124.167C1029.97 124.134 1030.01 124.113 1030.05 124.113C1030.09 124.113 1030.13 124.134 1030.15 124.167L1030.42 124.627L1031.01 124.7C1031.05 124.706 1031.09 124.731 1031.1 124.767C1031.11 124.802 1031.1 124.84 1031.07 124.866ZM1033.8 124.866L1033.37 125.224L1033.47 125.729C1033.48 125.766 1033.46 125.803 1033.42 125.824C1033.4 125.837 1033.38 125.843 1033.36 125.843C1033.34 125.843 1033.32 125.839 1033.3 125.832L1032.77 125.593L1032.24 125.832C1032.21 125.849 1032.16 125.846 1032.12 125.824C1032.09 125.803 1032.07 125.766 1032.08 125.729L1032.18 125.224L1031.75 124.866C1031.72 124.84 1031.71 124.802 1031.72 124.767C1031.74 124.731 1031.77 124.706 1031.81 124.7L1032.41 124.627L1032.67 124.167C1032.69 124.134 1032.73 124.113 1032.77 124.113C1032.82 124.113 1032.86 124.134 1032.88 124.167L1033.14 124.627L1033.73 124.7C1033.78 124.706 1033.81 124.731 1033.83 124.767C1033.84 124.802 1033.83 124.84 1033.8 124.866Z" fill="#FF9D4D" fill-opacity="0.3"/>
<path d="M1021.33 124.89C1019.37 124.89 1018.28 125.762 1018.3 127.441C1018.33 129.74 1019.47 131.135 1021.33 131.111C1021.33 131.111 1024.36 131.216 1024.36 127.441C1024.36 125.762 1023.34 124.89 1021.33 124.89Z" fill="#FF9D4D" fill-opacity="0.3"/>
<path d="M1026.69 132.856L1023.66 131.823L1022.95 131.311C1022.77 131.176 1022.49 131.186 1022.32 131.334L1021.33 132.173L1020.34 131.334C1020.17 131.186 1019.89 131.176 1019.7 131.311L1018.99 131.823L1015.97 132.856C1014.99 133.189 1014.99 136.145 1014.91 136.416H1027.75C1027.67 136.145 1027.66 133.188 1026.69 132.856Z" fill="#FF9D4D" fill-opacity="0.3"/>
<path d="M442.853 185.004H431.595C430.873 185.004 430.286 185.507 430.286 186.125V191.098C430.286 191.715 430.873 192.218 431.595 192.218H432.583V194.192C432.583 194.329 432.676 194.452 432.822 194.509C432.876 194.53 432.933 194.541 432.991 194.541C433.087 194.541 433.182 194.512 433.257 194.456L436.283 192.218H442.853C443.575 192.218 444.162 191.715 444.162 191.098V186.125C444.162 185.507 443.575 185.004 442.853 185.004ZM434.839 188.403L434.238 188.905L434.38 189.613C434.39 189.665 434.366 189.716 434.316 189.747C434.289 189.764 434.256 189.773 434.223 189.773C434.198 189.773 434.172 189.767 434.149 189.757L433.406 189.423L432.663 189.757C432.609 189.781 432.544 189.777 432.495 189.747C432.446 189.716 432.422 189.665 432.432 189.613L432.574 188.905L431.972 188.403C431.929 188.367 431.913 188.313 431.932 188.264C431.951 188.214 432.001 188.179 432.061 188.171L432.891 188.068L433.263 187.423C433.29 187.377 433.345 187.347 433.406 187.347C433.466 187.347 433.522 187.377 433.548 187.423L433.92 188.068L434.751 188.171C434.811 188.179 434.861 188.214 434.879 188.264C434.898 188.313 434.882 188.367 434.839 188.403ZM438.658 188.403L438.056 188.905L438.198 189.613C438.208 189.665 438.184 189.716 438.135 189.747C438.107 189.764 438.075 189.773 438.041 189.773C438.016 189.773 437.991 189.767 437.967 189.757L437.224 189.423L436.481 189.757C436.427 189.781 436.362 189.777 436.313 189.747C436.264 189.716 436.24 189.665 436.25 189.613L436.392 188.905L435.791 188.403C435.748 188.367 435.732 188.313 435.751 188.264C435.769 188.214 435.819 188.179 435.879 188.171L436.71 188.068L437.081 187.423C437.108 187.377 437.164 187.347 437.224 187.347C437.285 187.347 437.34 187.377 437.367 187.423L437.738 188.068L438.569 188.171C438.629 188.179 438.679 188.214 438.698 188.264C438.717 188.313 438.701 188.367 438.658 188.403ZM442.476 188.403L441.875 188.905L442.016 189.613C442.027 189.665 442.002 189.716 441.953 189.747C441.925 189.764 441.893 189.773 441.86 189.773C441.834 189.773 441.809 189.767 441.785 189.757L441.042 189.423L440.299 189.757C440.246 189.781 440.181 189.777 440.132 189.747C440.082 189.716 440.058 189.665 440.068 189.613L440.21 188.905L439.609 188.403C439.566 188.367 439.55 188.313 439.569 188.264C439.587 188.214 439.637 188.179 439.697 188.171L440.528 188.068L440.9 187.423C440.926 187.377 440.982 187.347 441.042 187.347C441.103 187.347 441.158 187.377 441.185 187.423L441.557 188.068L442.388 188.171C442.448 188.179 442.497 188.214 442.516 188.264C442.535 188.313 442.519 188.367 442.476 188.403Z" fill="#FF9D4D" fill-opacity="0.3"/>
<path d="M425 188.437C422.247 188.437 420.723 189.659 420.751 192.012C420.791 195.235 422.391 197.191 425 197.157C425 197.157 429.248 197.304 429.248 192.012C429.248 189.659 427.813 188.437 425 188.437Z" fill="#FF9D4D" fill-opacity="0.3"/>
<path d="M432.513 199.603L428.269 198.155L427.275 197.438C427.013 197.248 426.625 197.262 426.382 197.469L425 198.645L423.614 197.469C423.371 197.262 422.983 197.249 422.721 197.438L421.727 198.155L417.483 199.603C416.116 200.069 416.117 204.212 416 204.593H433.998C433.881 204.213 433.881 200.069 432.513 199.603Z" fill="#FF9D4D" fill-opacity="0.3"/>
<path d="M792.147 46.5169H776.992C776.02 46.5169 775.23 47.1935 775.23 48.0252V54.7188C775.23 55.5505 776.02 56.2271 776.992 56.2271H778.323V58.8843C778.323 59.0679 778.448 59.2347 778.643 59.3112C778.716 59.3397 778.794 59.3537 778.871 59.3537C779 59.3537 779.128 59.3146 779.23 59.2394L783.302 56.2271H792.147C793.118 56.2271 793.909 55.5504 793.909 54.7187V48.0252C793.909 47.1934 793.118 46.5169 792.147 46.5169ZM781.359 51.0922L780.55 51.7675L780.741 52.7211C780.755 52.7899 780.722 52.8594 780.655 52.9004C780.618 52.9236 780.574 52.9354 780.53 52.9354C780.496 52.9354 780.461 52.9284 780.43 52.9144L779.43 52.4642L778.429 52.9144C778.357 52.9468 778.27 52.9414 778.204 52.9004C778.138 52.8594 778.105 52.7899 778.118 52.7211L778.31 51.7675L777.5 51.0922C777.442 51.0435 777.421 50.9706 777.446 50.9043C777.471 50.8379 777.538 50.7896 777.619 50.7795L778.737 50.6404L779.237 49.7729C779.274 49.7102 779.348 49.6706 779.43 49.6706C779.511 49.6706 779.586 49.7102 779.622 49.7729L780.122 50.6404L781.24 50.7795C781.321 50.7896 781.388 50.8379 781.413 50.9043C781.438 50.9706 781.417 51.0435 781.359 51.0922ZM786.499 51.0922L785.689 51.7675L785.881 52.7211C785.894 52.7899 785.861 52.8594 785.795 52.9004C785.758 52.9236 785.714 52.9354 785.67 52.9354C785.635 52.9354 785.601 52.9284 785.57 52.9144L784.569 52.4642L783.569 52.9144C783.497 52.9468 783.409 52.9414 783.344 52.9004C783.277 52.8594 783.244 52.7899 783.258 52.7211L783.449 51.7675L782.64 51.0922C782.582 51.0435 782.561 50.9706 782.586 50.9043C782.611 50.8379 782.678 50.7896 782.759 50.7795L783.877 50.6404L784.377 49.7729C784.413 49.7102 784.488 49.6706 784.569 49.6706C784.651 49.6706 784.725 49.7102 784.761 49.7729L785.262 50.6404L786.38 50.7795C786.461 50.7896 786.528 50.8379 786.553 50.9043C786.578 50.9706 786.557 51.0435 786.499 51.0922ZM791.639 51.0922L790.829 51.7675L791.02 52.7211C791.034 52.7899 791.001 52.8594 790.935 52.9004C790.898 52.9236 790.854 52.9354 790.809 52.9354C790.775 52.9354 790.741 52.9284 790.709 52.9144L789.709 52.4642L788.708 52.9144C788.637 52.9468 788.549 52.9414 788.483 52.9004C788.417 52.8594 788.384 52.7899 788.398 52.7211L788.589 51.7675L787.78 51.0922C787.721 51.0435 787.7 50.9706 787.725 50.9043C787.75 50.8379 787.818 50.7896 787.898 50.7795L789.017 50.6404L789.517 49.7729C789.553 49.7102 789.628 49.6706 789.709 49.6706C789.79 49.6706 789.865 49.7102 789.901 49.7729L790.401 50.6404L791.52 50.7795C791.601 50.7896 791.667 50.8379 791.693 50.9043C791.718 50.9706 791.697 51.0435 791.639 51.0922Z" fill="#FF9D4D" fill-opacity="0.3"/>
<path d="M768.115 51.1377C764.409 51.1377 762.358 52.7818 762.395 55.9498C762.449 60.2886 764.603 62.9208 768.115 62.8748C768.115 62.8748 773.833 63.0732 773.833 55.9498C773.833 52.7818 771.901 51.1377 768.115 51.1377Z" fill="#FF9D4D" fill-opacity="0.3"/>
<path d="M778.228 66.1681L772.515 64.2184L771.178 63.2533C770.824 62.9978 770.302 63.0167 769.975 63.2955L768.115 64.8788L766.249 63.2951C765.921 63.0166 765.4 62.9986 765.047 63.2533L763.709 64.2184L757.996 66.1683C756.157 66.7955 756.158 72.3724 756 72.8842H780.227C780.07 72.3735 780.069 66.7947 778.228 66.1681Z" fill="#FF9D4D" fill-opacity="0.3"/>
<path d="M313.375 145.298H327.625C328.278 145.298 328.836 145.528 329.299 145.977C329.762 146.425 330 146.966 330 147.598V155.648C330 156.281 329.762 156.821 329.299 157.27C328.836 157.718 328.278 157.948 327.625 157.948H326.438L320.5 163.699V157.948H313.375C312.722 157.948 312.164 157.718 311.701 157.27C311.237 156.821 311 156.281 311 155.648V147.598C311 146.966 311.237 146.425 311.701 145.977C312.164 145.528 312.722 145.298 313.375 145.298ZM326.438 147.598H313.375V148.748H326.438V147.598ZM327.625 151.048H313.375V152.198H327.625V151.048ZM324.062 154.498H313.375V155.648H324.062V154.498Z" fill="#FF9D4D" fill-opacity="0.3"/>
<path d="M112.25 127.866H137.75C138.919 127.866 139.917 128.278 140.746 129.08C141.575 129.883 142 130.85 142 131.982V146.388C142 147.52 141.575 148.487 140.746 149.289C139.917 150.092 138.919 150.504 137.75 150.504H135.625L125 160.793V150.504H112.25C111.081 150.504 110.082 150.092 109.254 149.289C108.425 148.487 108 147.52 108 146.388V131.982C108 130.85 108.425 129.883 109.254 129.08C110.082 128.278 111.081 127.866 112.25 127.866ZM135.625 131.982H112.25V134.04H135.625V131.982ZM137.75 138.156H112.25V140.214H137.75V138.156ZM131.375 144.33H112.25V146.388H131.375V144.33Z" fill="#FF9D4D" fill-opacity="0.3"/>
<path d="M819.25 131.74H844.75C845.919 131.74 846.917 132.152 847.746 132.954C848.575 133.757 849 134.724 849 135.856V150.261C849 151.393 848.575 152.361 847.746 153.163C846.917 153.966 845.919 154.377 844.75 154.377H842.625L832 164.667V154.377H819.25C818.081 154.377 817.082 153.966 816.254 153.163C815.425 152.361 815 151.393 815 150.261V135.856C815 134.724 815.425 133.757 816.254 132.954C817.082 132.152 818.081 131.74 819.25 131.74ZM842.625 135.856H819.25V137.914H842.625V135.856ZM844.75 142.03H819.25V144.088H844.75V142.03ZM838.375 148.203H819.25V150.261H838.375V148.203Z" fill="#FF9D4D" fill-opacity="0.3"/>
<path d="M1373.75 159.825H1390.25C1391.01 159.825 1391.65 160.091 1392.19 160.61C1392.73 161.13 1393 161.756 1393 162.488V171.809C1393 172.542 1392.73 173.168 1392.19 173.687C1391.65 174.206 1391.01 174.473 1390.25 174.473H1388.88L1382 181.131V174.473H1373.75C1372.99 174.473 1372.35 174.206 1371.81 173.687C1371.27 173.168 1371 172.542 1371 171.809V162.488C1371 161.756 1371.27 161.13 1371.81 160.61C1372.35 160.091 1372.99 159.825 1373.75 159.825ZM1388.88 162.488H1373.75V163.82H1388.88V162.488ZM1390.25 166.483H1373.75V167.814H1390.25V166.483ZM1386.12 170.478H1373.75V171.809H1386.12V170.478Z" fill="#FF9D4D" fill-opacity="0.3"/>
<path d="M65.3334 100.927C65.3334 107.206 59.9741 110.552 56.0511 113.547C54.6667 114.604 53.3334 115.599 52 115.599C50.6667 115.599 49.3334 114.604 47.949 113.547C44.0259 110.552 38.6667 107.206 38.6667 100.927C38.6667 94.6475 46.0003 90.1943 52 96.2312C57.9998 90.1943 65.3334 94.6475 65.3334 100.927Z" fill="#FF9D4D" fill-opacity="0.3"/>
<path d="M531.185 182.222C529.945 181.945 528.688 181.159 528.688 179.68C528.688 179.08 528.863 178.664 529.07 178.31C529.197 178.109 529.181 177.955 528.991 177.878C527.989 177.447 527.161 176.585 527.161 175.337C527.161 174.644 527.352 174.012 527.718 173.566C527.893 173.335 527.861 173.15 527.575 172.98C526.828 172.58 526.35 171.687 526.35 170.67C526.35 169.962 526.589 169.176 527.034 168.791C527.273 168.575 527.225 168.421 526.955 168.206C526.43 167.821 526.144 167.081 526.144 166.203C526.144 164.694 527.352 163.477 528.943 163.477H534.621C536.052 163.477 537.022 162.753 537.022 161.614C537.022 159.488 534.302 155.668 534.302 152.911C534.302 151.479 535.273 150.617 536.529 150.617C537.674 150.617 538.263 151.387 538.883 152.557C541.253 157.085 544.465 160.736 546.898 163.862C548.966 166.542 549.984 168.791 550.032 172.488C550.111 178.171 545.356 182.499 537.881 182.561L535.67 182.576C533.587 182.591 532.06 182.437 531.185 182.222ZM557.856 172.595C557.856 177.216 554.898 181.082 550.906 181.082H548.059C550.938 179.049 552.258 175.968 552.195 172.441C552.147 168.529 550.572 165.741 549.173 164.047H551.511C555.089 164.047 557.856 167.805 557.856 172.595Z" fill="#FF9D4D" fill-opacity="0.3"/>
<path d="M708.753 115.14H697.247C696.401 115.14 695.59 115.465 694.993 116.044C694.395 116.623 694.059 117.408 694.059 118.227V128.085C694.059 128.903 694.395 129.689 694.993 130.267C695.59 130.846 696.401 131.172 697.247 131.172H698.431L702.596 135.92C702.666 136 702.76 136.057 702.864 136.083C702.969 136.11 703.079 136.105 703.181 136.069C703.284 136.034 703.373 135.968 703.436 135.882C703.498 135.795 703.532 135.692 703.531 135.586V131.172H708.753C709.599 131.172 710.41 130.846 711.007 130.267C711.605 129.689 711.941 128.903 711.941 128.085V118.227C711.941 117.408 711.605 116.623 711.007 116.044C710.41 115.465 709.599 115.14 708.753 115.14ZM710.878 128.085C710.878 128.63 710.655 129.154 710.256 129.54C709.858 129.926 709.317 130.143 708.753 130.143H703C702.859 130.143 702.724 130.197 702.624 130.293C702.525 130.39 702.469 130.521 702.469 130.657V134.186L699.079 130.323C699.029 130.266 698.967 130.221 698.898 130.19C698.828 130.159 698.752 130.143 698.676 130.143H697.247C696.683 130.143 696.142 129.926 695.744 129.54C695.345 129.154 695.122 128.63 695.122 128.085V118.227C695.122 117.681 695.345 117.158 695.744 116.772C696.142 116.386 696.683 116.169 697.247 116.169H708.753C709.317 116.169 709.858 116.386 710.256 116.772C710.655 117.158 710.878 117.681 710.878 118.227V128.085Z" fill="#FF9D4D" fill-opacity="0.3"/>
<path d="M709.726 118.87C709.726 119.007 709.67 119.138 709.57 119.234C709.47 119.33 709.335 119.385 709.194 119.385H696.806C696.665 119.385 696.53 119.33 696.43 119.234C696.33 119.138 696.274 119.007 696.274 118.87C696.274 118.734 696.33 118.603 696.43 118.506C696.53 118.41 696.665 118.356 696.806 118.356H709.194C709.335 118.356 709.47 118.41 709.57 118.506C709.67 118.603 709.726 118.734 709.726 118.87Z" fill="#FF9D4D" fill-opacity="0.3"/>
<path d="M709.726 121.016C709.726 121.152 709.67 121.283 709.57 121.379C709.47 121.476 709.335 121.53 709.194 121.53H696.806C696.665 121.53 696.53 121.476 696.43 121.379C696.33 121.283 696.274 121.152 696.274 121.016C696.274 120.879 696.33 120.748 696.43 120.652C696.53 120.555 696.665 120.501 696.806 120.501H709.194C709.264 120.5 709.334 120.513 709.399 120.539C709.463 120.564 709.522 120.602 709.572 120.65C709.621 120.698 709.66 120.755 709.687 120.818C709.713 120.881 709.726 120.948 709.726 121.016Z" fill="#FF9D4D" fill-opacity="0.3"/>
<path d="M709.726 123.156C709.726 123.292 709.67 123.423 709.57 123.52C709.47 123.616 709.335 123.67 709.194 123.67H696.806C696.665 123.67 696.53 123.616 696.43 123.52C696.33 123.423 696.274 123.292 696.274 123.156C696.274 123.019 696.33 122.889 696.43 122.792C696.53 122.696 696.665 122.641 696.806 122.641H709.194C709.335 122.641 709.47 122.696 709.57 122.792C709.67 122.889 709.726 123.019 709.726 123.156Z" fill="#FF9D4D" fill-opacity="0.3"/>
<path d="M709.726 125.301C709.726 125.438 709.67 125.569 709.57 125.665C709.47 125.762 709.335 125.816 709.194 125.816H701.231C701.09 125.816 700.955 125.762 700.855 125.665C700.756 125.569 700.7 125.438 700.7 125.301C700.7 125.165 700.756 125.034 700.855 124.938C700.955 124.841 701.09 124.787 701.231 124.787H709.194C709.264 124.786 709.334 124.799 709.399 124.825C709.463 124.85 709.522 124.888 709.572 124.936C709.621 124.984 709.66 125.041 709.687 125.104C709.713 125.166 709.726 125.234 709.726 125.301Z" fill="#FF9D4D" fill-opacity="0.3"/>
<path d="M709.726 127.442C709.726 127.578 709.67 127.709 709.57 127.805C709.47 127.902 709.335 127.956 709.194 127.956H701.231C701.09 127.956 700.955 127.902 700.855 127.805C700.756 127.709 700.7 127.578 700.7 127.442C700.7 127.305 700.756 127.174 700.855 127.078C700.955 126.981 701.09 126.927 701.231 126.927H709.194C709.335 126.927 709.47 126.981 709.57 127.078C709.67 127.174 709.726 127.305 709.726 127.442Z" fill="#FF9D4D" fill-opacity="0.3"/>
<path d="M695.908 137.289C695.872 137.186 695.805 137.097 695.714 137.033C695.624 136.969 695.515 136.935 695.403 136.934H693.209L692.529 134.912C692.494 134.809 692.427 134.719 692.336 134.656C692.245 134.592 692.136 134.558 692.024 134.558C691.913 134.558 691.803 134.592 691.713 134.656C691.622 134.719 691.555 134.809 691.52 134.912L690.84 136.934H688.646C688.533 136.933 688.424 136.968 688.332 137.031C688.241 137.095 688.173 137.185 688.139 137.289C688.104 137.392 688.104 137.504 688.139 137.607C688.173 137.711 688.241 137.801 688.332 137.865L690.107 139.115L689.432 141.132C689.406 141.209 689.399 141.291 689.412 141.372C689.425 141.452 689.458 141.528 689.507 141.594C689.556 141.659 689.621 141.713 689.695 141.75C689.77 141.787 689.853 141.806 689.937 141.806C690.049 141.806 690.159 141.772 690.25 141.708L692.024 140.458L693.799 141.708C693.889 141.772 693.998 141.806 694.11 141.806C694.221 141.806 694.33 141.772 694.421 141.709C694.511 141.645 694.579 141.556 694.614 141.454C694.649 141.351 694.65 141.24 694.617 141.137L693.937 139.115L695.717 137.865C695.806 137.8 695.873 137.71 695.908 137.607C695.942 137.503 695.942 137.392 695.908 137.289ZM692.811 139.074L693.103 139.949L692.338 139.408C692.247 139.343 692.137 139.308 692.024 139.308C691.911 139.308 691.802 139.343 691.711 139.408L690.946 139.949L691.238 139.074C691.273 138.972 691.273 138.861 691.238 138.758C691.204 138.656 691.137 138.566 691.047 138.503L690.282 137.963H691.228C691.339 137.962 691.448 137.927 691.539 137.864C691.629 137.8 691.697 137.711 691.732 137.608L692.024 136.733L692.317 137.608C692.351 137.711 692.419 137.801 692.509 137.865C692.6 137.928 692.709 137.963 692.821 137.963H693.767L693.002 138.503C692.911 138.566 692.843 138.655 692.809 138.758C692.774 138.861 692.775 138.972 692.811 139.074Z" fill="#FF9D4D" fill-opacity="0.3"/>
<path d="M706.883 139.944C706.849 139.84 706.781 139.751 706.691 139.687C706.6 139.623 706.491 139.589 706.379 139.589H704.185L703.505 137.567C703.47 137.464 703.402 137.374 703.312 137.311C703.221 137.247 703.112 137.213 703 137.213C702.888 137.213 702.779 137.247 702.689 137.311C702.598 137.374 702.53 137.464 702.495 137.567L701.815 139.589H699.621C699.509 139.588 699.399 139.622 699.308 139.686C699.217 139.75 699.149 139.84 699.114 139.944C699.079 140.047 699.079 140.159 699.114 140.262C699.149 140.366 699.217 140.456 699.308 140.52L701.088 141.77L700.408 143.792C700.373 143.895 700.374 144.006 700.408 144.11C700.442 144.213 700.509 144.303 700.599 144.368C700.69 144.431 700.8 144.465 700.912 144.465C701.024 144.465 701.134 144.431 701.226 144.368L703 143.118L704.774 144.368C704.866 144.432 704.975 144.466 705.088 144.466C705.2 144.466 705.31 144.432 705.401 144.368C705.491 144.303 705.558 144.213 705.592 144.11C705.627 144.006 705.627 143.895 705.593 143.792L704.913 141.77L706.692 140.52C706.783 140.456 706.85 140.365 706.885 140.262C706.919 140.158 706.919 140.047 706.883 139.944ZM703.786 141.734L704.078 142.603L703.313 142.063C703.222 142 703.113 141.965 703 141.965C702.888 141.965 702.778 142 702.687 142.063L701.922 142.603L702.214 141.734C702.25 141.631 702.25 141.519 702.216 141.415C702.181 141.312 702.114 141.221 702.023 141.158L701.258 140.618H702.203C702.315 140.617 702.424 140.583 702.515 140.519C702.606 140.456 702.673 140.366 702.708 140.263L703 139.393L703.292 140.263C703.327 140.366 703.394 140.456 703.485 140.519C703.576 140.583 703.685 140.617 703.797 140.618H704.743L703.978 141.158C703.886 141.221 703.819 141.312 703.784 141.415C703.75 141.519 703.751 141.631 703.786 141.734Z" fill="#FF9D4D" fill-opacity="0.3"/>
<path d="M717.859 137.289C717.825 137.185 717.758 137.095 717.667 137.031C717.576 136.967 717.467 136.933 717.354 136.934H715.16L714.48 134.912C714.445 134.809 714.378 134.719 714.287 134.656C714.197 134.592 714.088 134.558 713.976 134.558C713.864 134.558 713.755 134.592 713.664 134.656C713.573 134.719 713.506 134.809 713.471 134.912L712.791 136.934H710.597C710.484 136.933 710.375 136.968 710.284 137.031C710.193 137.095 710.125 137.185 710.09 137.289C710.055 137.392 710.055 137.504 710.09 137.607C710.125 137.711 710.192 137.801 710.283 137.865L712.063 139.115L711.383 141.137C711.35 141.24 711.351 141.351 711.386 141.454C711.421 141.556 711.489 141.645 711.579 141.709C711.67 141.772 711.779 141.806 711.89 141.806C712.002 141.806 712.111 141.772 712.201 141.708L713.976 140.458L715.75 141.708C715.841 141.772 715.951 141.806 716.063 141.806C716.176 141.808 716.286 141.773 716.377 141.708C716.468 141.645 716.536 141.555 716.571 141.451C716.605 141.347 716.604 141.235 716.568 141.132L715.893 139.115L717.668 137.865C717.758 137.801 717.826 137.711 717.86 137.607C717.895 137.504 717.894 137.392 717.859 137.289ZM714.762 139.074L715.054 139.949L714.289 139.408C714.198 139.344 714.088 139.31 713.976 139.311C713.863 139.311 713.754 139.345 713.662 139.408L712.897 139.949L713.189 139.074C713.225 138.972 713.226 138.861 713.191 138.758C713.157 138.655 713.089 138.566 712.998 138.503L712.233 137.963H713.179C713.291 137.963 713.4 137.928 713.491 137.865C713.581 137.801 713.649 137.711 713.683 137.608L713.976 136.733L714.268 137.608C714.303 137.711 714.371 137.8 714.461 137.864C714.552 137.927 714.661 137.962 714.772 137.963H715.718L714.953 138.503C714.863 138.566 714.796 138.656 714.762 138.758C714.727 138.861 714.727 138.972 714.762 139.074Z" fill="#FF9D4D" fill-opacity="0.3"/>
<path d="M1378.75 8.61139H1367.25C1366.4 8.61139 1365.59 8.93662 1364.99 9.51553C1364.39 10.0944 1364.06 10.8796 1364.06 11.6983V21.5559C1364.06 22.3746 1364.39 23.1597 1364.99 23.7386C1365.59 24.3175 1366.4 24.6428 1367.25 24.6428H1368.43L1372.6 29.3915C1372.67 29.4709 1372.76 29.5277 1372.86 29.5544C1372.97 29.581 1373.08 29.5763 1373.18 29.5407C1373.28 29.5052 1373.37 29.4397 1373.44 29.353C1373.5 29.2664 1373.53 29.1629 1373.53 29.0571V24.6428H1378.75C1379.6 24.6428 1380.41 24.3175 1381.01 23.7386C1381.61 23.1597 1381.94 22.3746 1381.94 21.5559V11.6983C1381.94 10.8796 1381.61 10.0944 1381.01 9.51553C1380.41 8.93662 1379.6 8.61139 1378.75 8.61139ZM1380.88 21.5559C1380.88 22.1017 1380.65 22.6251 1380.26 23.011C1379.86 23.397 1379.32 23.6138 1378.75 23.6138H1373C1372.86 23.6138 1372.72 23.668 1372.62 23.7645C1372.52 23.861 1372.47 23.9918 1372.47 24.1283V27.6577L1369.08 23.7939C1369.03 23.7377 1368.97 23.6925 1368.9 23.6615C1368.83 23.6304 1368.75 23.6142 1368.68 23.6138H1367.25C1366.68 23.6138 1366.14 23.397 1365.74 23.011C1365.35 22.6251 1365.12 22.1017 1365.12 21.5559V11.6983C1365.12 11.1525 1365.35 10.6291 1365.74 10.2431C1366.14 9.85718 1366.68 9.64036 1367.25 9.64036H1378.75C1379.32 9.64036 1379.86 9.85718 1380.26 10.2431C1380.65 10.6291 1380.88 11.1525 1380.88 11.6983V21.5559Z" fill="#FF9D4D" fill-opacity="0.3"/>
<path d="M1379.73 12.3414C1379.73 12.4778 1379.67 12.6087 1379.57 12.7052C1379.47 12.8017 1379.34 12.8559 1379.19 12.8559H1366.81C1366.66 12.8559 1366.53 12.8017 1366.43 12.7052C1366.33 12.6087 1366.27 12.4778 1366.27 12.3414C1366.27 12.2049 1366.33 12.0741 1366.43 11.9776C1366.53 11.8811 1366.66 11.8269 1366.81 11.8269H1379.19C1379.34 11.8269 1379.47 11.8811 1379.57 11.9776C1379.67 12.0741 1379.73 12.2049 1379.73 12.3414Z" fill="#FF9D4D" fill-opacity="0.3"/>
<path d="M1379.73 14.4868C1379.73 14.6233 1379.67 14.7541 1379.57 14.8506C1379.47 14.9471 1379.34 15.0013 1379.19 15.0013H1366.81C1366.66 15.0013 1366.53 14.9471 1366.43 14.8506C1366.33 14.7541 1366.27 14.6233 1366.27 14.4868C1366.27 14.3504 1366.33 14.2195 1366.43 14.123C1366.53 14.0265 1366.66 13.9723 1366.81 13.9723H1379.19C1379.26 13.9716 1379.33 13.9845 1379.4 14.0101C1379.46 14.0357 1379.52 14.0736 1379.57 14.1215C1379.62 14.1694 1379.66 14.2264 1379.69 14.2891C1379.71 14.3518 1379.73 14.419 1379.73 14.4868Z" fill="#FF9D4D" fill-opacity="0.3"/>
<path d="M1379.73 16.6271C1379.73 16.7635 1379.67 16.8944 1379.57 16.9909C1379.47 17.0874 1379.34 17.1416 1379.19 17.1416H1366.81C1366.66 17.1416 1366.53 17.0874 1366.43 16.9909C1366.33 16.8944 1366.27 16.7635 1366.27 16.6271C1366.27 16.4906 1366.33 16.3598 1366.43 16.2633C1366.53 16.1668 1366.66 16.1126 1366.81 16.1126H1379.19C1379.34 16.1126 1379.47 16.1668 1379.57 16.2633C1379.67 16.3598 1379.73 16.4906 1379.73 16.6271Z" fill="#FF9D4D" fill-opacity="0.3"/>
<path d="M1379.73 18.7725C1379.73 18.909 1379.67 19.0398 1379.57 19.1363C1379.47 19.2328 1379.34 19.287 1379.19 19.287H1371.23C1371.09 19.287 1370.95 19.2328 1370.86 19.1363C1370.76 19.0398 1370.7 18.909 1370.7 18.7725C1370.7 18.6361 1370.76 18.5052 1370.86 18.4087C1370.95 18.3122 1371.09 18.258 1371.23 18.258H1379.19C1379.26 18.2573 1379.33 18.2702 1379.4 18.2958C1379.46 18.3214 1379.52 18.3593 1379.57 18.4072C1379.62 18.4551 1379.66 18.5121 1379.69 18.5748C1379.71 18.6375 1379.73 18.7048 1379.73 18.7725Z" fill="#FF9D4D" fill-opacity="0.3"/>
<path d="M1379.73 20.9127C1379.73 21.0492 1379.67 21.1801 1379.57 21.2765C1379.47 21.373 1379.34 21.4272 1379.19 21.4272H1371.23C1371.09 21.4272 1370.95 21.373 1370.86 21.2765C1370.76 21.1801 1370.7 21.0492 1370.7 20.9127C1370.7 20.7763 1370.76 20.6454 1370.86 20.5489C1370.95 20.4525 1371.09 20.3983 1371.23 20.3983H1379.19C1379.34 20.3983 1379.47 20.4525 1379.57 20.5489C1379.67 20.6454 1379.73 20.7763 1379.73 20.9127Z" fill="#FF9D4D" fill-opacity="0.3"/>
<path d="M1365.91 30.76C1365.87 30.6572 1365.8 30.5677 1365.71 30.5041C1365.62 30.4404 1365.51 30.4058 1365.4 30.405H1363.21L1362.53 28.3831C1362.49 28.2801 1362.43 28.1905 1362.34 28.127C1362.25 28.0634 1362.14 28.0292 1362.02 28.0292C1361.91 28.0292 1361.8 28.0634 1361.71 28.127C1361.62 28.1905 1361.55 28.2801 1361.52 28.3831L1360.84 30.405H1358.65C1358.53 30.4046 1358.42 30.4388 1358.33 30.5026C1358.24 30.5664 1358.17 30.6565 1358.14 30.76C1358.1 30.8636 1358.1 30.9751 1358.14 31.0787C1358.17 31.1822 1358.24 31.2724 1358.33 31.3362L1360.11 32.5864L1359.43 34.6032C1359.41 34.6804 1359.4 34.7625 1359.41 34.8427C1359.43 34.9229 1359.46 34.999 1359.51 35.0647C1359.56 35.1305 1359.62 35.184 1359.7 35.2209C1359.77 35.2578 1359.85 35.2771 1359.94 35.2772C1360.05 35.2772 1360.16 35.243 1360.25 35.1794L1362.02 33.9292L1363.8 35.1794C1363.89 35.2428 1364 35.2769 1364.11 35.277C1364.22 35.2771 1364.33 35.2431 1364.42 35.1799C1364.51 35.1167 1364.58 35.0274 1364.61 34.9248C1364.65 34.8222 1364.65 34.7115 1364.62 34.6084L1363.94 32.5864L1365.72 31.3362C1365.81 31.2715 1365.87 31.1811 1365.91 31.0778C1365.94 30.9745 1365.94 30.8634 1365.91 30.76ZM1362.81 32.5453L1363.1 33.4199L1362.34 32.8797C1362.25 32.8145 1362.14 32.7793 1362.02 32.7793C1361.91 32.7793 1361.8 32.8145 1361.71 32.8797L1360.95 33.4199L1361.24 32.5453C1361.27 32.4427 1361.27 32.3322 1361.24 32.2296C1361.2 32.127 1361.14 32.0376 1361.05 31.9742L1360.28 31.434H1361.23C1361.34 31.4332 1361.45 31.3986 1361.54 31.3349C1361.63 31.2712 1361.7 31.1817 1361.73 31.079L1362.02 30.2044L1362.32 31.079C1362.35 31.1821 1362.42 31.272 1362.51 31.3358C1362.6 31.3995 1362.71 31.4339 1362.82 31.434H1363.77L1363 31.9742C1362.91 32.0368 1362.84 32.1262 1362.81 32.229C1362.77 32.3319 1362.77 32.4428 1362.81 32.5453Z" fill="#FF9D4D" fill-opacity="0.3"/>
<path d="M1376.88 33.4147C1376.85 33.3116 1376.78 33.2217 1376.69 33.1579C1376.6 33.0942 1376.49 33.0598 1376.38 33.0597H1374.18L1373.5 31.0378C1373.47 30.9349 1373.4 30.8452 1373.31 30.7817C1373.22 30.7182 1373.11 30.684 1373 30.684C1372.89 30.684 1372.78 30.7182 1372.69 30.7817C1372.6 30.8452 1372.53 30.9349 1372.5 31.0378L1371.82 33.0597H1369.62C1369.51 33.0593 1369.4 33.0935 1369.31 33.1573C1369.22 33.2211 1369.15 33.3112 1369.11 33.4148C1369.08 33.5183 1369.08 33.6298 1369.11 33.7334C1369.15 33.8369 1369.22 33.9271 1369.31 33.9909L1371.09 35.2411L1370.41 37.2631C1370.37 37.3664 1370.37 37.4776 1370.41 37.5809C1370.44 37.6842 1370.51 37.7745 1370.6 37.8393C1370.69 37.9021 1370.8 37.9358 1370.91 37.9358C1371.02 37.9358 1371.13 37.9021 1371.23 37.8393L1373 36.5891L1374.77 37.8393C1374.87 37.9029 1374.98 37.9371 1375.09 37.9371C1375.2 37.9371 1375.31 37.9029 1375.4 37.8393C1375.49 37.7745 1375.56 37.6842 1375.59 37.5809C1375.63 37.4776 1375.63 37.3664 1375.59 37.2631L1374.91 35.2411L1376.69 33.9909C1376.78 33.9268 1376.85 33.8365 1376.88 33.733C1376.92 33.6294 1376.92 33.518 1376.88 33.4147ZM1373.79 35.2051L1374.08 36.0746L1373.31 35.5344C1373.22 35.4708 1373.11 35.4366 1373 35.4366C1372.89 35.4366 1372.78 35.4708 1372.69 35.5344L1371.92 36.0746L1372.21 35.2051C1372.25 35.1019 1372.25 34.9903 1372.22 34.8866C1372.18 34.7829 1372.11 34.6926 1372.02 34.6289L1371.26 34.0887H1372.2C1372.32 34.0886 1372.42 34.0542 1372.51 33.9905C1372.61 33.9267 1372.67 33.8369 1372.71 33.7337L1373 32.8642L1373.29 33.7337C1373.33 33.8369 1373.39 33.9267 1373.49 33.9905C1373.58 34.0542 1373.68 34.0886 1373.8 34.0887H1374.74L1373.98 34.6289C1373.89 34.6926 1373.82 34.7829 1373.78 34.8866C1373.75 34.9903 1373.75 35.1019 1373.79 35.2051Z" fill="#FF9D4D" fill-opacity="0.3"/>
<path d="M1387.86 30.76C1387.83 30.6565 1387.76 30.5662 1387.67 30.5023C1387.58 30.4385 1387.47 30.4044 1387.35 30.405H1385.16L1384.48 28.3831C1384.45 28.2801 1384.38 28.1905 1384.29 28.127C1384.2 28.0634 1384.09 28.0292 1383.98 28.0292C1383.86 28.0292 1383.75 28.0634 1383.66 28.127C1383.57 28.1905 1383.51 28.2801 1383.47 28.3831L1382.79 30.405H1380.6C1380.48 30.4046 1380.37 30.4388 1380.28 30.5026C1380.19 30.5664 1380.12 30.6565 1380.09 30.76C1380.06 30.8636 1380.06 30.9751 1380.09 31.0787C1380.12 31.1822 1380.19 31.2724 1380.28 31.3362L1382.06 32.5864L1381.38 34.6084C1381.35 34.7115 1381.35 34.8222 1381.39 34.9248C1381.42 35.0274 1381.49 35.1167 1381.58 35.1799C1381.67 35.2431 1381.78 35.2771 1381.89 35.277C1382 35.2769 1382.11 35.2428 1382.2 35.1794L1383.98 33.9292L1385.75 35.1794C1385.84 35.243 1385.95 35.2772 1386.06 35.2772C1386.18 35.2788 1386.29 35.2444 1386.38 35.1794C1386.47 35.116 1386.54 35.0257 1386.57 34.9219C1386.61 34.8182 1386.6 34.7064 1386.57 34.6032L1385.89 32.5864L1387.67 31.3362C1387.76 31.2721 1387.83 31.1818 1387.86 31.0782C1387.89 30.9747 1387.89 30.8633 1387.86 30.76ZM1384.76 32.5453L1385.05 33.4199L1384.29 32.8797C1384.2 32.8154 1384.09 32.7811 1383.98 32.7819C1383.86 32.7819 1383.75 32.8161 1383.66 32.8797L1382.9 33.4199L1383.19 32.5453C1383.23 32.4428 1383.23 32.3319 1383.19 32.229C1383.16 32.1262 1383.09 32.0368 1383 31.9742L1382.23 31.434H1383.18C1383.29 31.4339 1383.4 31.3995 1383.49 31.3358C1383.58 31.272 1383.65 31.1821 1383.68 31.079L1383.98 30.2044L1384.27 31.079C1384.3 31.1817 1384.37 31.2712 1384.46 31.3349C1384.55 31.3986 1384.66 31.4332 1384.77 31.434H1385.72L1384.95 31.9742C1384.86 32.0376 1384.8 32.127 1384.76 32.2296C1384.73 32.3322 1384.73 32.4427 1384.76 32.5453Z" fill="#FF9D4D" fill-opacity="0.3"/>
<path d="M619.979 104.501C619.854 104.134 619.503 103.873 619.088 103.873H606.715L602.891 92.4792C602.766 92.1124 602.415 91.8522 602.001 91.8522C601.898 91.8522 601.798 91.8691 601.704 91.8994L601.71 91.897C601.428 91.9914 601.211 92.2069 601.125 92.478L601.124 92.4841L601.109 92.4792L597.285 103.873H584.914C584.396 103.873 583.978 104.28 583.978 104.781C583.978 105.081 584.129 105.349 584.361 105.513L584.364 105.514L594.373 112.558L590.549 123.951C590.52 124.035 590.503 124.132 590.503 124.232C590.503 124.733 590.923 125.14 591.44 125.14C591.646 125.14 591.838 125.076 591.993 124.966L591.99 124.967L602 117.923L612.008 124.967C612.16 125.076 612.351 125.141 612.559 125.141C613.076 125.141 613.496 124.734 613.496 124.233C613.496 124.133 613.479 124.035 613.448 123.944L613.45 123.95L609.626 112.556L619.639 105.513C619.874 105.346 620.024 105.081 620.024 104.781C620.024 104.68 620.006 104.584 619.976 104.493L619.979 104.499V104.501ZM607.974 111.476C607.739 111.644 607.588 111.91 607.588 112.211C607.588 112.312 607.605 112.409 607.636 112.499L607.634 112.493L610.776 121.858L602.55 116.068C602.405 115.971 602.226 115.913 602.033 115.913C602.021 115.913 602.01 115.913 601.998 115.913L601.999 95.6957L605.141 105.062C605.266 105.429 605.618 105.69 606.033 105.69H616.201L607.974 111.476Z" fill="#FF9D4D" fill-opacity="0.3"/>
<path d="M131.888 9.45505C131.82 9.25331 131.626 9.10949 131.398 9.10949H124.593L122.49 2.84293C122.421 2.64119 122.228 2.49805 122.001 2.49805C121.944 2.49805 121.889 2.50737 121.837 2.52401L121.841 2.52268C121.685 2.57461 121.566 2.69313 121.519 2.84227L121.518 2.8456L121.51 2.84293L119.407 9.10949H112.603C112.318 9.10949 112.088 9.3332 112.088 9.60885C112.088 9.77397 112.171 9.92111 112.299 10.0117L112.3 10.0123L117.805 13.886L115.702 20.1525C115.686 20.1985 115.676 20.2517 115.676 20.307C115.676 20.5826 115.907 20.8064 116.192 20.8064C116.305 20.8064 116.411 20.7711 116.496 20.7105L116.495 20.7111L122 16.8368L127.504 20.7111C127.588 20.7711 127.693 20.807 127.807 20.807C128.092 20.807 128.323 20.5833 128.323 20.3077C128.323 20.2524 128.313 20.1985 128.296 20.1485L128.298 20.1519L126.194 13.8853L131.701 10.0117C131.831 9.91978 131.913 9.77397 131.913 9.60885C131.913 9.55359 131.903 9.50032 131.887 9.45039L131.888 9.45371V9.45505ZM125.286 13.2914C125.156 13.3833 125.073 13.5298 125.073 13.6956C125.073 13.7508 125.083 13.8041 125.1 13.854L125.099 13.8507L126.827 19.0014L122.303 15.8168C122.223 15.7636 122.124 15.7316 122.018 15.7316C122.012 15.7316 122.006 15.7316 121.999 15.7316L121.999 4.61198L123.728 9.76331C123.796 9.96505 123.99 10.1089 124.218 10.1089H129.811L125.286 13.2914Z" fill="#FF9D4D" fill-opacity="0.3"/>
<defs>
<clipPath id="clip0_692_1577">
<rect width="6" height="5.81066" fill="white" transform="matrix(-1 0 0 1 1426 25.1632)"/>
</clipPath>
</defs>
</svg>
