<svg width="1121" height="192" viewBox="0 0 1121 192" fill="none" xmlns="http://www.w3.org/2000/svg">
<path d="M972.416 148.84C972.416 166.423 942.834 170.716 906.367 170.716C869.9 170.716 855.239 166.423 855.239 148.84C855.239 131.257 865.467 109.891 902.004 109.891C938.541 109.891 972.416 131.267 972.416 148.84Z" fill="#B67A4F"/>
<path opacity="0.5" d="M972.416 148.84C972.416 166.423 942.834 170.716 906.367 170.716C869.9 170.716 855.239 166.423 855.239 148.84C855.239 131.257 865.467 109.891 902.004 109.891C938.541 109.891 972.416 131.267 972.416 148.84Z" fill="#B67A4F"/>
<path d="M977.179 124.212C978.53 148.38 971.845 161.429 956.604 162.24C941.363 163.051 927.923 144.177 926.582 120.009C925.241 95.841 940.592 77.3174 955.823 76.4667C971.055 75.6161 975.838 100.034 977.179 124.212Z" fill="#B67A4F"/>
<path opacity="0.5" d="M977.179 124.212C978.53 148.38 971.845 161.429 956.604 162.24C941.363 163.051 927.923 144.177 926.582 120.009C925.241 95.841 940.592 77.3174 955.823 76.4667C971.055 75.6161 975.838 100.034 977.179 124.212Z" fill="#B67A4F"/>
<path opacity="0.1" d="M902.754 111.973C902.754 111.973 888.574 110.172 887.323 115.175C886.072 120.179 910.71 117.427 915.654 122.431C920.597 127.434 899.582 130.006 904.155 132.998C907.748 135.35 920.027 124.682 935.698 128.685C951.37 132.688 953.612 120.869 951.86 109.891C950.109 98.9133 948.858 87.1146 944.105 88.0153C939.351 88.9159 923.94 110.512 902.754 111.973Z" fill="black"/>
<path opacity="0.1" d="M946.857 129.896C946.857 129.896 961.527 127.314 962.338 133.459C963.149 139.603 964.26 130.507 946.857 129.896Z" fill="black"/>
<path opacity="0.1" d="M970.544 155.835C974.667 151.002 976.909 143.506 977.309 133.469C975.428 152.583 964.3 164.972 920.017 166.963C875.734 168.955 865.847 155.705 861.093 157.296C859.092 157.957 859.092 159.788 859.753 161.68C866.517 168.685 881.288 170.686 906.387 170.686C937.41 170.716 963.439 167.594 970.544 155.835Z" fill="black"/>
<path d="M894.278 74.045C895.499 74.2573 896.637 74.8008 897.57 75.6161C898.801 76.8571 902.394 76.727 902.394 76.727L902.754 80.8L894.548 80.3196L894.278 74.045Z" fill="#B25B52"/>
<path d="M927.372 49.7069C926.302 49.6469 922.199 51.7884 919.727 62.6164C917.255 73.4444 917.805 77.0671 898.611 75.8362L899.232 81.2301C899.232 81.2301 915.864 83.0115 920.828 79.0285C925.791 75.0456 931.335 49.9371 927.372 49.7069Z" fill="#063592"/>
<path opacity="0.6" d="M921.848 63.0269L920.908 64.6781C920.908 64.6781 921.908 74.8756 919.977 79.5791C920.276 79.4202 920.56 79.2361 920.827 79.0287C922.158 77.9579 923.529 75.346 924.75 72.1136L921.848 63.0269Z" fill="black"/>
<path d="M949.248 29.8223C949.248 29.8223 949.389 32.9847 950.85 33.6251C952.311 34.2656 949.779 37.8883 950.489 40.0999C951.2 42.3115 952.831 44.303 951.08 47.2652C951.08 47.2652 951.46 44.7934 950.209 43.3223C950.209 43.3223 950.73 47.4653 949.389 47.5554C948.048 47.6455 947.787 46.4346 945.586 46.955C943.384 47.4753 945.326 43.5725 945.326 43.5725C944.553 44.2688 944.032 45.2012 943.844 46.2244C943.254 48.296 937.43 45.9042 935.058 46.7548C932.686 47.6055 932.056 43.2322 932.056 43.2322C932.056 43.2322 930.995 45.8341 931.856 46.7148C931.247 46.4834 930.722 46.0724 930.352 45.5362C929.982 45 929.784 44.364 929.784 43.7126C929.386 44.4368 929.288 45.289 929.514 46.0843C929.514 46.0843 927.713 45.9542 928.163 42.4717C928.613 38.9891 931.325 37.9884 932.036 35.2263C932.746 32.4643 941.423 27.0703 941.423 27.0703L949.248 29.8223Z" fill="#263238"/>
<path d="M944.525 40.4602L937.099 45.2938C937.099 50.5076 933.367 50.2274 933.367 50.2274C933.367 50.2274 933.307 52.0487 937.84 52.7192C939.852 53.0964 941.898 53.2607 943.945 53.2096C941.723 50.4976 943.434 44.0028 944.525 40.4602Z" fill="#B25B52"/>
<path d="M944.525 40.4602L937.099 45.2938C937.099 50.5076 933.367 50.2274 933.367 50.2274C933.367 50.2274 933.307 52.0487 937.84 52.7192C939.852 53.0964 941.898 53.2607 943.945 53.2096C941.723 50.4976 943.434 44.0028 944.525 40.4602Z" fill="white" fill-opacity="0.2"/>
<path opacity="0.1" d="M936.629 48.0858C937.002 47.1932 937.176 46.2303 937.14 45.2637L943.764 40.9506L944.175 41.6911C944.175 41.6911 941.673 48.4161 936.629 48.0858Z" fill="black"/>
<path d="M946.707 32.5144C945.956 38.5689 945.766 41.1508 942.504 44.0729C937.6 48.4762 930.335 46.2345 929.254 40.07C928.253 34.5259 929.684 25.5593 935.779 23.5178C937.122 23.0556 938.561 22.9457 939.959 23.1986C941.357 23.4515 942.667 24.0588 943.764 24.9623C944.86 25.8659 945.706 27.0356 946.221 28.3595C946.737 29.6835 946.904 31.1175 946.707 32.5244V32.5144Z" fill="#B25B52"/>
<path d="M946.707 32.5144C945.956 38.5689 945.766 41.1508 942.504 44.0729C937.6 48.4762 930.335 46.2345 929.254 40.07C928.253 34.5259 929.684 25.5593 935.779 23.5178C937.122 23.0556 938.561 22.9457 939.959 23.1986C941.357 23.4515 942.667 24.0588 943.764 24.9623C944.86 25.8659 945.706 27.0356 946.221 28.3595C946.737 29.6835 946.904 31.1175 946.707 32.5244V32.5144Z" fill="white" fill-opacity="0.2"/>
<path d="M933.327 36.0769C932.8 37.1647 932.127 38.1749 931.325 39.0791C931.564 39.2784 931.844 39.4221 932.145 39.5C932.446 39.5779 932.761 39.5879 933.067 39.5295L933.327 36.0769Z" fill="#9D2724"/>
<path d="M933.327 36.0769C932.8 37.1647 932.127 38.1749 931.325 39.0791C931.564 39.2784 931.844 39.4221 932.145 39.5C932.446 39.5779 932.761 39.5879 933.067 39.5295L933.327 36.0769Z" fill="white" fill-opacity="0.2"/>
<path d="M938.661 32.9246C938.697 32.9344 938.735 32.9344 938.771 32.9246C938.794 32.903 938.813 32.8767 938.826 32.8474C938.839 32.8181 938.846 32.7865 938.846 32.7544C938.846 32.7224 938.839 32.6907 938.826 32.6614C938.813 32.6321 938.794 32.6059 938.771 32.5843C938.495 32.2233 938.137 31.934 937.725 31.7406C937.314 31.5473 936.863 31.4557 936.409 31.4735C936.347 31.481 936.29 31.5124 936.251 31.561C936.212 31.6096 936.193 31.6715 936.199 31.7337C936.201 31.7653 936.21 31.796 936.225 31.8242C936.239 31.8524 936.259 31.8775 936.283 31.8979C936.307 31.9184 936.335 31.9339 936.366 31.9435C936.396 31.9531 936.427 31.9566 936.459 31.9539C936.834 31.9444 937.206 32.0248 937.544 32.1885C937.882 32.3521 938.175 32.5942 938.4 32.8946C938.435 32.9268 938.479 32.9471 938.526 32.9525C938.572 32.9579 938.62 32.9481 938.661 32.9246Z" fill="#2E353A"/>
<path d="M929.684 31.964C929.726 31.9623 929.765 31.9443 929.794 31.9139C930.089 31.6837 930.433 31.5257 930.8 31.4527C931.167 31.3797 931.545 31.3937 931.906 31.4936C931.935 31.5049 931.967 31.5101 931.998 31.5092C932.03 31.5082 932.061 31.501 932.09 31.488C932.119 31.475 932.145 31.4564 932.166 31.4333C932.188 31.4102 932.205 31.3831 932.216 31.3535C932.227 31.3233 932.232 31.2912 932.23 31.2591C932.228 31.227 932.22 31.1956 932.206 31.1667C932.192 31.1377 932.173 31.1119 932.149 31.0907C932.124 31.0695 932.096 31.0534 932.066 31.0433C931.631 30.9145 931.171 30.8919 930.725 30.9772C930.28 31.0625 929.861 31.2533 929.504 31.5336C929.461 31.5656 929.429 31.6111 929.415 31.6629C929.401 31.7147 929.404 31.7698 929.425 31.8194C929.446 31.869 929.483 31.9102 929.53 31.9364C929.577 31.9626 929.631 31.9723 929.684 31.964Z" fill="#2E353A"/>
<path d="M936.869 35.4865C936.869 35.9769 936.549 36.3572 936.229 36.3371C935.909 36.3171 935.668 35.9068 935.698 35.4064C935.728 34.9061 936.019 34.5358 936.339 34.5558C936.659 34.5758 936.899 34.9861 936.869 35.4865Z" fill="#2E353A"/>
<path d="M931.275 35.1363C931.275 35.6266 930.955 36.0069 930.635 35.9969C930.314 35.9869 930.074 35.5566 930.104 35.0562C930.134 34.5559 930.425 34.1856 930.745 34.2056C931.065 34.2256 931.315 34.6359 931.275 35.1363Z" fill="#2E353A"/>
<path d="M930.885 34.2353L929.725 33.8253C929.725 33.8253 930.275 34.7853 930.885 34.2353Z" fill="#2E353A"/>
<path d="M936.519 34.5857L935.359 34.1757C935.359 34.1757 935.869 35.1357 936.519 34.5857Z" fill="#2E353A"/>
<path d="M936.259 40.4401C936.39 40.291 936.507 40.1302 936.609 39.9598C936.62 39.9495 936.629 39.9371 936.635 39.9233C936.641 39.9096 936.644 39.8947 936.644 39.8797C936.644 39.8647 936.641 39.8499 936.635 39.8361C936.629 39.8224 936.62 39.81 936.609 39.7997C936.599 39.7888 936.586 39.7801 936.573 39.7741C936.559 39.7682 936.544 39.7651 936.529 39.7651C936.514 39.7651 936.499 39.7682 936.485 39.7741C936.472 39.7801 936.459 39.7888 936.449 39.7997C936.187 40.2285 935.83 40.5908 935.404 40.8582C934.979 41.1256 934.497 41.2908 933.997 41.3408C933.966 41.3431 933.937 41.3565 933.915 41.3786C933.893 41.4006 933.879 41.4298 933.877 41.4609C933.88 41.4936 933.894 41.5242 933.919 41.5465C933.943 41.5688 933.974 41.5811 934.007 41.581C934.879 41.5139 935.689 41.1036 936.259 40.4401Z" fill="#263238"/>
<path d="M935.668 23.9381C935.668 23.9381 932.416 27.5407 935.959 28.9417C939.501 30.3428 942.694 32.5144 943.214 35.5066C943.344 36.3336 943.753 37.091 944.374 37.6521C944.996 38.2132 945.791 38.5439 946.627 38.5889C946.627 38.5889 951.31 32.6445 948.288 26.4099C945.266 20.1753 936.899 21.7564 935.668 23.9381Z" fill="#263238"/>
<path d="M945.065 24.8687C945.065 24.8687 941.153 18.8142 934.598 21.7464C928.043 24.6786 927.753 29.6522 929.394 29.1619C931.035 28.6715 933.667 28.1611 935.548 24.7886C937.43 21.4162 945.065 24.8687 945.065 24.8687Z" fill="#263238"/>
<path d="M944.105 36.277C944.105 36.277 940.872 36.0869 942.413 40.34C942.55 38.845 943.14 37.4274 944.105 36.277Z" fill="#263238"/>
<path d="M947.847 37.418C947.437 38.5216 946.605 39.4176 945.536 39.9099C944.115 40.5603 943.164 39.3394 943.364 37.9084C943.544 36.5974 944.495 34.666 946.026 34.636C946.557 34.636 947.066 34.8469 947.441 35.2222C947.817 35.5976 948.028 36.1066 948.028 36.6375C948.023 36.9075 947.962 37.1735 947.847 37.418Z" fill="#B25B52"/>
<path d="M947.847 37.418C947.437 38.5216 946.605 39.4176 945.536 39.9099C944.115 40.5603 943.164 39.3394 943.364 37.9084C943.544 36.5974 944.495 34.666 946.026 34.636C946.557 34.636 947.066 34.8469 947.441 35.2222C947.817 35.5976 948.028 36.1066 948.028 36.6375C948.023 36.9075 947.962 37.1735 947.847 37.418Z" fill="white" fill-opacity="0.2"/>
<path d="M901.493 87.9952L918.776 85.6034C918.862 85.592 918.943 85.5603 919.014 85.5108C919.085 85.4614 919.143 85.3957 919.183 85.3192C919.223 85.2428 919.244 85.1578 919.245 85.0715C919.246 84.9851 919.225 84.8998 919.186 84.8229L908.498 63.9275C908.357 63.6453 908.129 63.4151 907.849 63.2695C907.569 63.124 907.25 63.0706 906.937 63.1169L889.655 65.5086C889.569 65.5185 889.488 65.5489 889.417 65.5972C889.346 65.6456 889.288 65.7105 889.247 65.7862C889.207 65.862 889.185 65.9465 889.185 66.0324C889.184 66.1182 889.205 66.2029 889.244 66.2792L899.982 87.1846C900.121 87.4579 900.34 87.682 900.611 87.8269C900.881 87.9718 901.189 88.0306 901.493 87.9952Z" fill="#263238"/>
<path opacity="0.5" d="M901.493 87.9952L918.776 85.6034C918.862 85.592 918.943 85.5603 919.014 85.5108C919.085 85.4614 919.143 85.3957 919.183 85.3192C919.223 85.2428 919.244 85.1578 919.245 85.0715C919.246 84.9851 919.225 84.8998 919.186 84.8229L908.498 63.9275C908.357 63.6453 908.129 63.4151 907.849 63.2695C907.569 63.124 907.25 63.0706 906.937 63.1169L889.655 65.5086C889.569 65.5185 889.488 65.5489 889.417 65.5972C889.346 65.6456 889.288 65.7105 889.247 65.7862C889.207 65.862 889.185 65.9465 889.185 66.0324C889.184 66.1182 889.205 66.2029 889.244 66.2792L899.982 87.1846C900.121 87.4579 900.34 87.682 900.611 87.8269C900.881 87.9718 901.189 88.0306 901.493 87.9952Z" fill="white"/>
<path d="M900.833 88.1153L918.125 85.7135C918.21 85.7022 918.29 85.6708 918.36 85.6218C918.43 85.5729 918.487 85.5079 918.526 85.4323C918.565 85.3567 918.586 85.2728 918.586 85.1876C918.586 85.1024 918.565 85.0185 918.526 84.9429L907.798 64.0375C907.651 63.7575 907.421 63.5295 907.14 63.3845C906.859 63.2395 906.54 63.1845 906.227 63.2269L888.944 65.6187C888.859 65.6315 888.779 65.6643 888.709 65.7143C888.64 65.7643 888.583 65.8302 888.544 65.9064C888.505 65.9827 888.484 66.0672 888.484 66.1528C888.484 66.2385 888.505 66.323 888.544 66.3993L899.272 87.2947C899.415 87.5757 899.643 87.8055 899.922 87.9524C900.202 88.0993 900.52 88.1562 900.833 88.1153Z" fill="#263238"/>
<path opacity="0.7" d="M900.833 88.1153L918.125 85.7135C918.21 85.7022 918.29 85.6708 918.36 85.6218C918.43 85.5729 918.487 85.5079 918.526 85.4323C918.565 85.3567 918.586 85.2728 918.586 85.1876C918.586 85.1024 918.565 85.0185 918.526 84.9429L907.798 64.0375C907.651 63.7575 907.421 63.5295 907.14 63.3845C906.859 63.2395 906.54 63.1845 906.227 63.2269L888.944 65.6187C888.859 65.6315 888.779 65.6643 888.709 65.7143C888.64 65.7643 888.583 65.8302 888.544 65.9064C888.505 65.9827 888.484 66.0672 888.484 66.1528C888.484 66.2385 888.505 66.323 888.544 66.3993L899.272 87.2947C899.415 87.5757 899.643 87.8055 899.922 87.9524C900.202 88.0993 900.52 88.1562 900.833 88.1153Z" fill="white"/>
<path opacity="0.7" d="M891.306 69.2213L893.307 68.9411C893.314 68.9355 893.319 68.9286 893.322 68.9208C893.326 68.913 893.328 68.9046 893.328 68.8961C893.328 68.8876 893.326 68.8792 893.322 68.8714C893.319 68.8637 893.314 68.8567 893.307 68.8511L892.076 66.4393C892.058 66.4089 892.031 66.3844 891.999 66.3685C891.967 66.3526 891.932 66.3459 891.896 66.3492L889.895 66.6194C889.888 66.6251 889.883 66.632 889.88 66.6398C889.876 66.6475 889.874 66.656 889.874 66.6645C889.874 66.673 889.876 66.6814 889.88 66.6892C889.883 66.6969 889.888 66.7039 889.895 66.7095L891.126 69.1013C891.139 69.1381 891.163 69.1697 891.196 69.1914C891.228 69.213 891.267 69.2236 891.306 69.2213Z" fill="#263238"/>
<path opacity="0.3" d="M891.306 69.2213L893.307 68.9411C893.314 68.9355 893.319 68.9286 893.322 68.9208C893.326 68.913 893.328 68.9046 893.328 68.8961C893.328 68.8876 893.326 68.8792 893.322 68.8714C893.319 68.8637 893.314 68.8567 893.307 68.8511L892.076 66.4393C892.058 66.4089 892.031 66.3844 891.999 66.3685C891.967 66.3526 891.932 66.3459 891.896 66.3492L889.895 66.6194C889.888 66.6251 889.883 66.632 889.88 66.6398C889.876 66.6475 889.874 66.656 889.874 66.6645C889.874 66.673 889.876 66.6814 889.88 66.6892C889.883 66.6969 889.888 66.7039 889.895 66.7095L891.126 69.1013C891.139 69.1381 891.163 69.1697 891.196 69.1914C891.228 69.213 891.267 69.2236 891.306 69.2213Z" fill="white"/>
<path d="M902.074 75.8563C902.364 76.6669 903.074 77.2673 903.585 77.1973C904.095 77.1272 904.315 76.3967 904.025 75.5861C903.735 74.7755 903.024 74.165 902.514 74.2351C902.004 74.3051 901.774 75.0357 902.074 75.8563Z" fill="white"/>
<path d="M884.571 153.574L881.288 167.033L876.575 165.362L877.966 151.692L884.571 153.574Z" fill="#B25B52"/>
<path d="M876.195 164.602L881.899 164.712C882.019 164.712 882.136 164.754 882.229 164.83C882.322 164.907 882.386 165.014 882.409 165.132L883.48 170.486C883.516 170.708 883.465 170.936 883.339 171.122C883.212 171.308 883.019 171.438 882.799 171.487H882.609C880.248 171.397 878.146 171.227 875.204 171.177C871.731 171.116 872.612 171.547 868.529 171.527C866.067 171.527 865.667 168.715 866.708 168.595C871.501 168.084 872.872 166.663 874.714 164.992C875.142 164.683 875.67 164.544 876.195 164.602Z" fill="#263238"/>
<path opacity="0.1" d="M877.155 159.618L877.966 151.692L884.571 153.574L882.669 161.359L877.155 159.618Z" fill="black"/>
<path d="M930.284 88.3455L922.749 85.4434C920.204 88.3493 918.044 91.5716 916.324 95.0304C913.862 100.234 925.711 100.234 925.711 100.234L929.444 93.2291L930.284 88.3455Z" fill="#407BFF"/>
<path opacity="0.3" d="M930.284 88.3455L922.749 85.4434C920.204 88.3493 918.044 91.5716 916.324 95.0304C913.862 100.234 925.711 100.234 925.711 100.234L929.444 93.2291L930.284 88.3455Z" fill="black"/>
<path opacity="0.2" d="M925.901 86.6642C923.77 98.4629 919.947 96.3514 919.947 96.3514L921.618 98.8132L926.161 99.3936L929.444 93.2291L930.284 88.3455L925.901 86.6642Z" fill="black"/>
<path d="M859.442 129.096L848.894 141.685L845.182 138.893L854.449 124.892L859.442 129.096Z" fill="#B25B52"/>
<path d="M847.063 135.38L851.587 138.903C851.685 138.973 851.757 139.075 851.79 139.191C851.822 139.308 851.814 139.432 851.767 139.543L849.615 144.547C849.571 144.653 849.507 144.749 849.426 144.83C849.345 144.911 849.248 144.975 849.142 145.019C849.036 145.063 848.923 145.085 848.808 145.085C848.693 145.084 848.58 145.062 848.474 145.017L848.304 144.927C846.413 143.516 844.782 142.185 842.39 140.464C839.568 138.462 840.038 139.293 836.686 136.961C834.684 135.55 835.935 133.018 836.866 133.509C841.089 135.81 843.13 135.23 845.622 134.92C846.143 134.892 846.655 135.056 847.063 135.38Z" fill="#263238"/>
<path opacity="0.1" d="M853.688 135.961L849.225 132.778L854.449 124.892L859.442 129.096L853.688 135.961Z" fill="black"/>
<path d="M945.586 93.4393C945.586 93.4393 948.318 109.241 942.864 119.458C937.41 129.676 925.311 131.527 894.218 98.5931C894.218 98.5931 883.29 103.677 856.97 133.359L851.116 128.825C851.116 128.825 874.023 91.6179 885.091 82.7914C896.159 73.9649 920.737 98.8032 923.85 97.4022C926.622 96.1713 927.933 87.5749 927.933 87.5749L945.586 93.4393Z" fill="#407BFF"/>
<path opacity="0.3" d="M945.586 93.4393C945.586 93.4393 948.318 109.241 942.864 119.458C937.41 129.676 925.311 131.527 894.218 98.5931C894.218 98.5931 883.29 103.677 856.97 133.359L851.116 128.825C851.116 128.825 874.023 91.6179 885.091 82.7914C896.159 73.9649 920.737 98.8032 923.85 97.4022C926.622 96.1713 927.933 87.5749 927.933 87.5749L945.586 93.4393Z" fill="black"/>
<path d="M858.842 133.319L856.42 135.46L849.515 129.726L850.696 126.644L858.842 133.319Z" fill="#407BFF"/>
<path d="M917.655 119.709C911.371 115.375 903.645 108.59 894.218 98.583C894.218 98.583 885.211 95.2506 882.079 101.675C878.947 108.1 876.905 154.534 876.905 154.534L884.391 156.696C884.391 156.696 897.781 114.785 897.701 112.023L917.655 119.709Z" fill="#407BFF"/>
<path opacity="0.4" d="M917.655 119.709C911.371 115.375 903.645 108.59 894.218 98.583C894.218 98.583 885.211 95.2506 882.079 101.675C878.947 108.1 876.905 154.534 876.905 154.534L884.391 156.696C884.391 156.696 897.781 114.785 897.701 112.023L917.655 119.709Z" fill="black"/>
<path opacity="0.2" d="M882.079 101.675C882.579 100.62 883.349 99.7154 884.311 99.0534C881.639 100.464 877.886 103.867 877.446 111.973C878.506 110.972 879.507 110.041 880.448 109.181C880.678 106.621 881.226 104.1 882.079 101.675Z" fill="black"/>
<path opacity="0.2" d="M894.218 98.583C893.169 98.2235 892.086 97.9753 890.986 97.8425C894.251 103.85 898.389 109.341 903.265 114.134L917.655 119.679C911.371 115.375 903.675 108.59 894.218 98.583Z" fill="black"/>
<path d="M885.722 155.845L884.771 158.888L876.075 156.306L875.964 153.013L885.722 155.845Z" fill="#407BFF"/>
<path d="M920.447 87.5449C920.447 87.5449 922.689 91.1776 946.376 94.7802C946.376 94.7802 945.326 87.4649 947.827 76.9971C950.329 66.5294 959.536 56.6821 950.529 54.1403C941.523 51.5984 925.911 46.3646 924.57 52.0287C923.229 57.6929 920.787 60.1647 920.888 64.678C920.988 69.1914 924.3 72.4738 920.447 87.5449Z" fill="#063592"/>
<path d="M891.366 75.8963C891.237 75.4228 891.294 74.9179 891.526 74.4853C891.876 73.7948 892.527 72.9041 893.397 72.9942C894.838 73.1343 895.219 74.165 895.579 75.496C895.939 76.827 897.08 79.1987 895.779 80.0193C894.478 80.8399 892.637 80.3796 891.366 75.8963Z" fill="#B25B52"/>
<path d="M891.366 75.8963C891.237 75.4228 891.294 74.9179 891.526 74.4853C891.876 73.7948 892.527 72.9041 893.397 72.9942C894.838 73.1343 895.219 74.165 895.579 75.496C895.939 76.827 897.08 79.1987 895.779 80.0193C894.478 80.8399 892.637 80.3796 891.366 75.8963Z" fill="white" fill-opacity="0.2"/>
<path d="M945.306 52.6692C945.306 52.6692 932.706 53.3897 933.447 49.8071C933.447 49.8071 935.899 48.6763 935.448 47.3453C934.998 46.0143 941.453 47.3953 943.995 47.0351C944.995 46.8849 944.375 48.2359 944.445 49.677C944.548 50.7184 944.839 51.7324 945.306 52.6692Z" fill="#063592"/>
<path opacity="0.6" d="M947.297 79.4589L938.08 79.3388L934.948 77.2073L931.405 75.6361L930.935 76.887C930.935 76.887 941.943 89.6865 946.196 88.5657C946.329 85.5063 946.697 82.4617 947.297 79.4589Z" fill="black"/>
<path opacity="0.6" d="M939.521 76.827C939.521 76.827 943.054 77.8978 943.654 75.3259C944.525 71.6331 947.107 61.3155 949.729 57.3726C952.531 53.0895 946.927 73.7047 946.927 73.7047L945.676 78.0479L943.674 80.7198L939.411 77.7176L939.521 76.827Z" fill="black"/>
<path opacity="0.6" d="M933.046 51.4283C933.046 51.4283 932.606 53.8401 942.053 53.62C942.073 53.62 931.035 56.2619 933.046 51.4283Z" fill="black"/>
<path d="M924.211 71.5524L924.341 70.5323L925.061 70.9623L924.211 71.5524Z" fill="#263238"/>
<path opacity="0.7" d="M924.211 71.5524L924.341 70.5323L925.061 70.9623L924.211 71.5524Z" fill="white"/>
<path d="M932.836 58.8838L932.716 58.2233L931.956 57.7729L931.325 57.9731L924.44 69.4516L924.29 70.5624L925.051 71.0227L925.961 70.3622L932.836 58.8838Z" fill="#263238"/>
<path opacity="0.6" d="M932.836 58.8838L932.716 58.2233L931.956 57.7729L931.325 57.9731L924.44 69.4516L924.29 70.5624L925.051 71.0227L925.961 70.3622L932.836 58.8838Z" fill="white"/>
<path opacity="0.5" d="M931.928 58.6723L932.683 59.1251L925.984 70.3006L925.228 69.8479L931.928 58.6723Z" fill="white"/>
<path d="M952.731 54.7508C955.943 55.6614 956.154 60.0146 953.221 70.7125C950.289 81.4104 948.138 88.2254 942.473 85.6536C936.809 83.0817 930.254 76.1966 930.254 76.1966L933.097 71.5732C933.097 71.5732 942.333 79.519 944.265 77.9979C946.196 76.4768 947.797 53.3698 952.731 54.7508Z" fill="#063592"/>
<path d="M934.307 73.3944L930.405 70.112C930.405 70.112 930.975 63.5472 928.853 63.4671C927.112 63.3971 925.721 65.4686 925.411 68.3307C925.101 71.1928 928.313 72.9541 928.313 72.9541L932.086 77.1072L934.307 73.3944Z" fill="#B25B52"/>
<path d="M934.307 73.3944L930.405 70.112C930.405 70.112 930.975 63.5472 928.853 63.4671C927.112 63.3971 925.721 65.4686 925.411 68.3307C925.101 71.1928 928.313 72.9541 928.313 72.9541L932.086 77.1072L934.307 73.3944Z" fill="white" fill-opacity="0.2"/>
<path d="M560.413 191.07C869.921 191.07 1120.83 185.918 1120.83 179.562C1120.83 173.206 869.921 168.053 560.413 168.053C250.905 168.053 0 173.206 0 179.562C0 185.918 250.905 191.07 560.413 191.07Z" fill="#F5F5F5"/>
<path d="M319.155 12.769C319.155 12.769 327.932 7.36506 332.505 15.1208C335.747 20.6248 333.956 26.1289 336.508 30.6522C340.511 37.6574 337.849 40.9698 331.844 42.2207C325.84 43.4717 316.203 43.3015 317.534 36.2964C318.895 29.1311 312.21 12.669 319.155 12.769Z" fill="#263238"/>
<path d="M328.742 28.4006C328.742 28.4006 329.473 38.6782 331.394 38.8584C329.982 39.5086 328.446 39.8453 326.891 39.8453C325.336 39.8453 323.8 39.5086 322.387 38.8584L322.077 34.1249L328.742 28.4006Z" fill="#EBB376"/>
<path d="M286.351 173.698H282.818L283.939 118.827H288.653L286.351 173.698Z" fill="#407BFF"/>
<path opacity="0.7" d="M286.351 173.698H282.818L283.939 118.827H288.653L286.351 173.698Z" fill="white"/>
<g opacity="0.4">
<path d="M315.332 173.698H311.8L312.921 118.827H317.634L315.332 173.698Z" fill="#263238"/>
</g>
<path d="M344.304 173.698H347.836L346.715 118.827H342.002L344.304 173.698Z" fill="#263238"/>
<g opacity="0.4">
<path d="M344.304 173.698H347.836L346.715 118.827H342.002L344.304 173.698Z" fill="white"/>
</g>
<path d="M344.544 118.827H286.561V123.961H344.544V118.827Z" fill="#263238"/>
<path opacity="0.5" d="M344.544 118.827H286.561V123.961H344.544V118.827Z" fill="white"/>
<path d="M315.322 173.698H318.855L317.734 118.827H313.021L315.322 173.698Z" fill="#263238"/>
<path opacity="0.7" d="M315.322 173.698H318.855L317.734 118.827H313.021L315.322 173.698Z" fill="white"/>
<path d="M348.066 53.8393H338.459C333.456 53.8393 328.062 56.4512 326.641 61.2848C322.638 74.9748 319.635 117.886 319.635 117.886H345.354C346.862 117.886 348.317 117.329 349.439 116.322C350.562 115.316 351.274 113.931 351.439 112.432L356.823 63.5965C356.96 62.3663 356.835 61.1211 356.457 59.9424C356.079 58.7638 355.456 57.6783 354.629 56.7571C353.803 55.8359 352.791 55.0998 351.66 54.597C350.529 54.0941 349.304 53.8359 348.066 53.8393Z" fill="#263238"/>
<path opacity="0.6" d="M348.066 53.8393H338.459C333.456 53.8393 328.062 56.4512 326.641 61.2848C322.638 74.9748 319.635 117.886 319.635 117.886H345.354C346.862 117.886 348.317 117.329 349.439 116.322C350.562 115.316 351.274 113.931 351.439 112.432L356.823 63.5965C356.96 62.3663 356.835 61.1211 356.457 59.9424C356.079 58.7638 355.456 57.6783 354.629 56.7571C353.803 55.8359 352.791 55.0998 351.66 54.597C350.529 54.0941 349.304 53.8359 348.066 53.8393Z" fill="#B67A4F"/>
<path d="M342.202 53.8394H332.595C327.591 53.8394 322.207 56.4513 320.786 61.2848C316.783 74.9749 313.781 117.887 313.781 117.887H338.6C340.354 117.887 342.046 117.24 343.352 116.069C344.658 114.898 345.485 113.286 345.675 111.542L350.919 63.5865C351.052 62.3608 350.926 61.1207 350.549 59.9468C350.172 58.7728 349.553 57.6912 348.731 56.7721C347.909 55.853 346.903 55.117 345.778 54.6117C344.654 54.1065 343.435 53.8434 342.202 53.8394Z" fill="#263238"/>
<path opacity="0.5" d="M342.202 53.8394H332.595C327.591 53.8394 322.207 56.4513 320.786 61.2848C316.783 74.9749 313.781 117.887 313.781 117.887H338.6C340.354 117.887 342.046 117.24 343.352 116.069C344.658 114.898 345.485 113.286 345.675 111.542L350.919 63.5865C351.052 62.3608 350.926 61.1207 350.549 59.9468C350.172 58.7728 349.553 57.6912 348.731 56.7721C347.909 55.853 346.903 55.117 345.778 54.6117C344.654 54.1065 343.435 53.8434 342.202 53.8394Z" fill="#B67A4F"/>
<path d="M322.768 118.827H285.18C283.516 118.827 281.92 118.166 280.743 116.989C279.566 115.813 278.905 114.217 278.905 112.553C278.905 110.888 279.566 109.292 280.743 108.116C281.92 106.939 283.516 106.278 285.18 106.278H322.768V118.827Z" fill="#263238"/>
<path opacity="0.5" d="M322.768 118.827H285.18C283.516 118.827 281.92 118.166 280.743 116.989C279.566 115.813 278.905 114.217 278.905 112.553C278.905 110.888 279.566 109.292 280.743 108.116C281.92 106.939 283.516 106.278 285.18 106.278H322.768V118.827Z" fill="#B67A4F"/>
<path d="M345.735 118.827H321.467C319.874 118.827 318.347 118.195 317.221 117.069C316.095 115.942 315.462 114.415 315.462 112.823V112.282C315.462 110.69 316.095 109.163 317.221 108.037C318.347 106.911 319.874 106.278 321.467 106.278H345.735C347.399 106.278 348.995 106.939 350.172 108.116C351.348 109.292 352.009 110.888 352.009 112.553C352.009 114.217 351.348 115.813 350.172 116.989C348.995 118.166 347.399 118.827 345.735 118.827Z" fill="#263238"/>
<path opacity="0.6" d="M345.735 118.827H321.467C319.874 118.827 318.347 118.195 317.221 117.069C316.095 115.942 315.462 114.415 315.462 112.823V112.282C315.462 110.69 316.095 109.163 317.221 108.037C318.347 106.911 319.874 106.278 321.467 106.278H345.735C347.399 106.278 348.995 106.939 350.172 108.116C351.348 109.292 352.009 110.888 352.009 112.553C352.009 114.217 351.348 115.813 350.172 116.989C348.995 118.166 347.399 118.827 345.735 118.827Z" fill="#B67A4F"/>
<path d="M310.499 52.5785C310.499 52.5785 311.339 61.7152 307.026 65.5881C303.103 69.1107 296.769 70.842 296.769 70.842L291.185 69.2107C290.929 69.1342 290.656 69.1342 290.4 69.2107C290.144 69.2871 289.916 69.4367 289.743 69.6411L287.252 72.6433C287.024 72.946 286.926 73.3267 286.978 73.7019C287.031 74.0771 287.23 74.4162 287.532 74.6447C287.682 74.7627 287.854 74.85 288.037 74.9015C288.221 74.953 288.413 74.9678 288.603 74.945L291.495 74.5947C292.657 74.8234 293.834 74.9672 295.017 75.025C295.912 74.843 296.791 74.5955 297.649 74.2845C297.649 74.2845 307.607 73.4239 311.85 69.1807C316.093 64.9376 317.164 56.1211 317.164 56.1211L310.499 52.5785Z" fill="#EBB376"/>
<path d="M281.167 149.86L281.818 169.835H286.291L288.382 149.5L281.167 149.86Z" fill="#EBB376"/>
<path d="M281.748 167.783H286.841C286.949 167.781 287.055 167.817 287.139 167.885C287.223 167.953 287.281 168.048 287.302 168.154L288.362 172.947C288.407 173.151 288.369 173.365 288.257 173.541C288.144 173.718 287.966 173.842 287.762 173.888H287.602C285.48 173.888 283.599 173.728 280.947 173.728C277.825 173.728 278.615 174.088 274.943 174.138C272.731 174.138 272.331 171.646 273.271 171.526C277.565 170.996 278.795 169.695 280.457 168.164C280.825 167.882 281.285 167.747 281.748 167.783Z" fill="#263238"/>
<path opacity="0.1" d="M286.741 165.452L287.242 160.558H281.517L281.678 165.452H286.741Z" fill="#263238"/>
<path d="M333.496 74.7949C333.496 74.7949 347.426 106.448 334.046 106.448H295.438C295.438 106.448 293.766 114.864 287.752 161.128H281.297C281.297 161.128 280.216 106.939 283.789 98.8626C286.581 92.5279 304.514 87.9946 313.001 86.3334C314.113 86.1164 315.13 85.5569 315.909 84.7332C316.688 83.9096 317.189 82.863 317.344 81.74L319.225 73.9642L333.496 74.7949Z" fill="#263238"/>
<path opacity="0.2" d="M333.496 74.7949C333.496 74.7949 347.426 106.448 334.046 106.448H295.438C295.438 106.448 293.766 114.864 287.752 161.128H281.297C281.297 161.128 280.216 106.939 283.789 98.8626C286.581 92.5279 304.514 87.9946 313.001 86.3334C314.113 86.1164 315.13 85.5569 315.909 84.7332C316.688 83.9096 317.189 82.863 317.344 81.74L319.225 73.9642L333.496 74.7949Z" fill="black"/>
<path d="M280.056 160.018L280.577 163.53H288.252L288.963 160.018H280.056Z" fill="#263238"/>
<path opacity="0.2" d="M280.056 160.018L280.577 163.53H288.252L288.963 160.018H280.056Z" fill="white"/>
<path d="M294.597 149.87L295.348 169.575L299.621 169.565L302.693 149.51L294.597 149.87Z" fill="#EBB376"/>
<path opacity="0.1" d="M300.251 165.452L301.002 160.558H294.997L295.187 165.452H300.251Z" fill="#263238"/>
<path d="M295.438 167.783H300.541C300.649 167.783 300.753 167.82 300.837 167.887C300.921 167.955 300.979 168.049 301.002 168.154L302.003 172.947C302.026 173.048 302.03 173.152 302.013 173.254C301.996 173.356 301.959 173.453 301.904 173.541C301.849 173.628 301.777 173.704 301.693 173.764C301.608 173.823 301.513 173.865 301.412 173.888H301.242C299.12 173.888 297.239 173.728 294.597 173.728C291.475 173.728 292.265 174.088 288.593 174.138C286.391 174.138 285.991 171.646 286.921 171.526C291.215 170.996 292.456 169.695 294.117 168.164C294.492 167.872 294.965 167.736 295.438 167.783Z" fill="#263238"/>
<path d="M340.541 75.3452C340.541 75.3452 341.542 75.3452 343.043 82.8207C344.954 92.3177 347.726 106.448 338.609 106.448H309.058C309.058 106.448 307.617 109.881 301.332 161.128H294.877C294.877 161.128 291.295 106.288 294.877 98.2121C297.629 91.9875 311.299 89.1354 318.825 88.1547C319.878 88.0496 320.859 87.5729 321.593 86.81C322.326 86.0472 322.764 85.048 322.828 83.9916C322.888 81.73 322.558 74.985 322.558 74.985L340.541 75.3452Z" fill="#263238"/>
<path d="M293.586 160.018L294.327 163.53H301.772L302.483 160.018H293.586Z" fill="#263238"/>
<path opacity="0.2" d="M293.586 160.018L294.327 163.53H301.772L302.483 160.018H293.586Z" fill="white"/>
<path d="M315.252 38.9083C311.65 38.3679 309.618 47.2344 309.428 55.6006L317.974 57.6021C317.974 57.6021 321.987 39.929 315.252 38.9083Z" fill="#407BFF"/>
<path opacity="0.1" d="M315.252 38.9083C311.65 38.3679 309.618 47.2344 309.428 55.6006L317.974 57.6021C317.974 57.6021 321.987 39.929 315.252 38.9083Z" fill="black"/>
<path d="M317.534 79.3181C317.32 74.8162 316.859 70.3295 316.153 65.8782C314.802 57.2719 312.48 47.5947 313.271 41.4702C313.366 40.6806 313.754 39.9554 314.358 39.4383C314.962 38.9212 315.738 38.6499 316.533 38.6782H339.91C340.27 38.6854 340.625 38.7657 340.952 38.9143C341.28 39.063 341.574 39.2767 341.817 39.5426C342.059 39.8085 342.245 40.1209 342.363 40.4609C342.481 40.8009 342.528 41.1614 342.502 41.5203C341.702 48.0851 339.67 64.4171 342.763 79.8385C342.753 79.8385 324.899 81.2596 317.534 79.3181Z" fill="#407BFF"/>
<path d="M337.809 50.3768C337.809 50.3768 339.36 61.0047 334.677 63.9969C329.993 66.9891 319.746 70.0914 319.746 70.0914L313.411 68.7504C313.252 68.715 313.086 68.7296 312.935 68.7923C312.785 68.855 312.657 68.9627 312.57 69.1007L310.028 73.2037C309.935 73.3584 309.894 73.5388 309.91 73.7187C309.926 73.8987 309.999 74.0688 310.118 74.2044C310.211 74.314 310.328 74.3996 310.46 74.4536C310.593 74.5077 310.737 74.5286 310.879 74.5146L314.712 74.1243C315.587 74.3368 316.477 74.484 317.374 74.5647C318.49 74.3961 319.591 74.1384 320.666 73.7941C320.666 73.7941 335.307 72.363 339.78 67.8998C344.254 63.4365 344.784 54.1496 344.784 54.1496L337.809 50.3768Z" fill="#EBB376"/>
<path d="M340.731 38.8784C336.188 38.338 337.389 48.4855 336.838 55.6007L345.324 56.6014C345.324 56.6014 347.486 39.679 340.731 38.8784Z" fill="#407BFF"/>
<path opacity="0.1" d="M340.731 38.8784C336.188 38.338 337.389 48.4855 336.838 55.6007L345.324 56.6014C345.324 56.6014 347.486 39.679 340.731 38.8784Z" fill="black"/>
<path d="M321.677 39.3387C321.677 39.3387 320.796 46.9143 330.814 40.1593C331.121 39.9514 331.345 39.6414 331.446 39.2843C331.547 38.9271 331.518 38.5458 331.364 38.2079C330.913 37.2695 330.664 36.2466 330.634 35.2057C330.627 35.054 330.58 34.9069 330.497 34.7793C330.415 34.6517 330.301 34.5481 330.166 34.479C330.031 34.4099 329.88 34.3778 329.728 34.3859C329.576 34.394 329.43 34.442 329.303 34.5251C327.305 35.8786 324.9 36.4975 322.498 36.2764C322.357 36.2643 322.215 36.2867 322.085 36.3416C321.954 36.3966 321.839 36.4825 321.75 36.5919C321.66 36.7013 321.598 36.8309 321.57 36.9694C321.542 37.108 321.547 37.2514 321.587 37.3873C321.781 38.0197 321.812 38.691 321.677 39.3387Z" fill="#407BFF"/>
<path opacity="0.1" d="M321.677 39.3387C321.677 39.3387 320.796 46.9143 330.814 40.1593C331.121 39.9514 331.345 39.6414 331.446 39.2843C331.547 38.9271 331.518 38.5458 331.364 38.2079C330.913 37.2695 330.664 36.2466 330.634 35.2057C330.627 35.054 330.58 34.9069 330.497 34.7793C330.415 34.6517 330.301 34.5481 330.166 34.479C330.031 34.4099 329.88 34.3778 329.728 34.3859C329.576 34.394 329.43 34.442 329.303 34.5251C327.305 35.8786 324.9 36.4975 322.498 36.2764C322.357 36.2643 322.215 36.2867 322.085 36.3416C321.954 36.3966 321.839 36.4825 321.75 36.5919C321.66 36.7013 321.598 36.8309 321.57 36.9694C321.542 37.108 321.547 37.2514 321.587 37.3873C321.781 38.0197 321.812 38.691 321.677 39.3387Z" fill="black"/>
<path opacity="0.1" d="M328.902 29.8817C328.812 28.9911 328.772 28.4006 328.772 28.4006L322.147 34.1249L322.307 36.6267C324.189 36.4766 326.991 35.2457 328.902 29.8817Z" fill="black"/>
<path d="M329.283 20.1445C329.813 25.9988 330.163 28.4707 327.691 31.8932C323.979 37.047 316.683 36.4265 314.402 30.8924C312.4 25.8888 311.82 17.1523 317.134 13.97C318.302 13.2575 319.634 12.8566 321.002 12.8055C322.37 12.7544 323.728 13.055 324.947 13.6783C326.165 14.3017 327.204 15.2271 327.963 16.3662C328.722 17.5052 329.176 18.8199 329.283 20.1846V20.1445Z" fill="#EBB376"/>
<path d="M316.954 25.6786C316.724 26.8291 316.341 27.9434 315.813 28.991C316.084 29.1172 316.379 29.1826 316.678 29.1826C316.977 29.1826 317.273 29.1172 317.544 28.991L316.954 25.6786Z" fill="#D58745"/>
<path d="M320.596 21.9959C320.633 21.9773 320.664 21.9498 320.686 21.9159C320.728 21.8729 320.751 21.8155 320.751 21.7558C320.751 21.696 320.728 21.6386 320.686 21.5956C320.346 21.3214 319.945 21.1328 319.516 21.0457C319.088 20.9586 318.645 20.9756 318.224 21.0953C318.167 21.1178 318.12 21.1614 318.094 21.2173C318.068 21.2732 318.065 21.337 318.084 21.3955C318.105 21.4522 318.147 21.4986 318.201 21.5248C318.255 21.551 318.317 21.5549 318.375 21.5356C318.719 21.4462 319.08 21.4395 319.428 21.5161C319.776 21.5926 320.101 21.7501 320.376 21.9759C320.409 21.9946 320.446 22.006 320.484 22.0095C320.522 22.0129 320.56 22.0083 320.596 21.9959Z" fill="#2E353A"/>
<path d="M312.47 23.2268C312.431 23.2355 312.39 23.2355 312.35 23.2268C312.302 23.1908 312.269 23.1378 312.258 23.0784C312.246 23.0191 312.258 22.9577 312.29 22.9066C312.528 22.5404 312.85 22.2367 313.23 22.0208C313.61 21.8049 314.035 21.6831 314.472 21.6656C314.526 21.6769 314.574 21.7064 314.609 21.7492C314.644 21.7921 314.663 21.8456 314.663 21.9008C314.663 21.9561 314.644 22.0096 314.609 22.0524C314.574 22.0953 314.526 22.1248 314.472 22.136C314.115 22.1521 313.766 22.2509 313.453 22.4246C313.141 22.5982 312.873 22.842 312.67 23.1367C312.649 23.1696 312.619 23.1956 312.584 23.2116C312.548 23.2277 312.509 23.2329 312.47 23.2268Z" fill="#2E353A"/>
<path d="M320.136 24.3076C320.216 24.7779 320.036 25.1983 319.725 25.2583C319.415 25.3184 319.105 24.9781 319.025 24.5078C318.945 24.0374 319.115 23.6171 319.425 23.557C319.735 23.497 320.046 23.8373 320.136 24.3076Z" fill="#2E353A"/>
<path d="M314.812 25.2683C314.902 25.7286 314.722 26.1589 314.412 26.209C314.101 26.259 313.791 25.9388 313.701 25.4584C313.611 24.9781 313.801 24.5677 314.111 24.5177C314.422 24.4677 314.732 24.7879 314.812 25.2683Z" fill="#2E353A"/>
<path d="M314.241 24.5577L313.061 24.4377C313.061 24.4377 313.801 25.1677 314.241 24.5577Z" fill="#2E353A"/>
<path d="M319.565 23.557L318.375 23.437C318.375 23.437 319.115 24.217 319.565 23.557Z" fill="#2E353A"/>
<path d="M331.354 24.5578C331.278 25.1161 331.092 25.6538 330.806 26.1398C330.521 26.6259 330.143 27.0507 329.693 27.3899C328.482 28.2906 327.341 27.3399 327.231 25.9188C327.121 24.4978 327.631 22.6264 329.062 22.2862C329.376 22.2202 329.7 22.233 330.007 22.3234C330.314 22.4139 330.593 22.5791 330.821 22.8043C331.048 23.0296 331.215 23.3077 331.309 23.6138C331.402 23.9198 331.417 24.2442 331.354 24.5578Z" fill="#EBB376"/>
<path d="M319.165 31.3928C318.995 31.4448 318.821 31.4816 318.645 31.5029C318.632 31.5058 318.618 31.506 318.605 31.5035C318.592 31.501 318.579 31.4959 318.568 31.4884C318.557 31.4809 318.547 31.4713 318.54 31.46C318.532 31.4487 318.527 31.4361 318.525 31.4228C318.524 31.3941 318.534 31.3663 318.553 31.3442C318.571 31.3222 318.597 31.3075 318.625 31.3027C319.065 31.2449 319.486 31.0843 319.852 30.834C320.219 30.5836 320.522 30.2506 320.736 29.8616C320.748 29.8355 320.768 29.8147 320.794 29.8035C320.821 29.7923 320.85 29.7916 320.877 29.8016C320.893 29.8213 320.902 29.8461 320.902 29.8717C320.902 29.8972 320.893 29.922 320.877 29.9417C320.515 30.6284 319.902 31.1484 319.165 31.3928Z" fill="#263238"/>
<path d="M321.307 16.0315C321.307 16.0315 319.705 18.5333 320.936 20.2846C322.167 22.0359 313.751 18.3732 311.59 22.206C311.59 22.206 308.837 10.3673 321.307 11.9485V16.0315Z" fill="#263238"/>
<path d="M320.896 15.281C320.896 15.281 319.966 20.0345 323.058 21.4956C326.15 22.9567 326.06 26.8796 328.832 26.2191C332.835 25.2183 329.973 13.1194 323.488 11.8085C318.715 10.8277 320.896 15.281 320.896 15.281Z" fill="#263238"/>
<path d="M233.492 174.528H230.039L228.528 83.201H235.003L233.492 174.528Z" fill="#C1702C"/>
<path opacity="0.7" d="M233.492 174.528H230.039L228.528 83.201H235.003L233.492 174.528Z" fill="white"/>
<path d="M271.58 174.528H268.128L266.616 83.201H273.091L271.58 174.528Z" fill="#C1702C"/>
<path opacity="0.4" d="M271.58 174.528H268.128L266.616 83.201H273.091L271.58 174.528Z" fill="white"/>
<path d="M296.879 81.6699H231.761V88.8151H296.879V81.6699Z" fill="#C1702C"/>
<path opacity="0.3" d="M296.879 81.6699H231.761V88.8151H296.879V81.6699Z" fill="white"/>
<path d="M335.067 81.6699H296.879V88.8151H335.067V81.6699Z" fill="#B67A4F"/>
<path opacity="0.5" d="M335.067 81.6699H296.879V88.8151H335.067V81.6699Z" fill="white"/>
<path d="M336.698 174.528H333.245L331.734 83.201H338.209L336.698 174.528Z" fill="#B67A4F"/>
<path opacity="0.4" d="M336.698 174.528H333.245L331.734 83.201H338.209L336.698 174.528Z" fill="white"/>
<path d="M339.51 77.0765H290.144C288.679 77.0765 287.492 78.2639 287.492 79.7285V80.5491C287.492 82.0137 288.679 83.201 290.144 83.201H339.51C340.975 83.201 342.162 82.0137 342.162 80.5491V79.7285C342.162 78.2639 340.975 77.0765 339.51 77.0765Z" fill="#C1702C"/>
<path opacity="0.6" d="M339.51 77.0765H290.144C288.679 77.0765 287.492 78.2639 287.492 79.7285V80.5491C287.492 82.0137 288.679 83.201 290.144 83.201H339.51C340.975 83.201 342.162 82.0137 342.162 80.5491V79.7285C342.162 78.2639 340.975 77.0765 339.51 77.0765Z" fill="#B67A4F"/>
<path d="M293.356 77.0765H225.816C224.352 77.0765 223.164 78.2639 223.164 79.7285V80.5491C223.164 82.0137 224.352 83.201 225.816 83.201H293.356C294.821 83.201 296.008 82.0137 296.008 80.5491V79.7285C296.008 78.2639 294.821 77.0765 293.356 77.0765Z" fill="#C1702C"/>
<path opacity="0.5" d="M293.356 77.0765H225.816C224.352 77.0765 223.164 78.2639 223.164 79.7285V80.5491C223.164 82.0137 224.352 83.201 225.816 83.201H293.356C294.821 83.201 296.008 82.0137 296.008 80.5491V79.7285C296.008 78.2639 294.821 77.0765 293.356 77.0765Z" fill="#B67A4F"/>
<path d="M298.61 174.528H295.157L293.646 83.201H300.121L298.61 174.528Z" fill="#C1702C"/>
<path opacity="0.7" d="M298.61 174.528H295.157L293.646 83.201H300.121L298.61 174.528Z" fill="white"/>
<path d="M291.435 77.0765C291.169 77.0765 290.915 76.971 290.727 76.7834C290.539 76.5957 290.434 76.3412 290.434 76.0757C290.434 75.8103 290.539 75.5558 290.727 75.3681C290.915 75.1804 291.169 75.075 291.435 75.075H319.155C319.421 75.075 319.675 75.1804 319.863 75.3681C320.05 75.5558 320.156 75.8103 320.156 76.0757C320.156 76.3412 320.05 76.5957 319.863 76.7834C319.675 76.971 319.421 77.0765 319.155 77.0765H291.435Z" fill="#407BFF"/>
<path opacity="0.2" d="M291.435 77.0765C291.169 77.0765 290.915 76.971 290.727 76.7834C290.539 76.5957 290.434 76.3412 290.434 76.0757C290.434 75.8103 290.539 75.5558 290.727 75.3681C290.915 75.1804 291.169 75.075 291.435 75.075H319.155C319.421 75.075 319.675 75.1804 319.863 75.3681C320.05 75.5558 320.156 75.8103 320.156 76.0757C320.156 76.3412 320.05 76.5957 319.863 76.7834C319.675 76.971 319.421 77.0765 319.155 77.0765H291.435Z" fill="black"/>
<path d="M293.787 75.3152L290.104 49.0559C290.027 48.5763 289.785 48.1387 289.419 47.8189C289.054 47.4991 288.588 47.3171 288.102 47.3046H284.57V77.0665H292.285C292.507 77.0732 292.726 77.0303 292.929 76.9409C293.131 76.8515 293.311 76.7179 293.455 76.55C293.599 76.382 293.703 76.1839 293.761 75.9702C293.818 75.7565 293.827 75.5327 293.787 75.3152Z" fill="#407BFF"/>
<path d="M290.764 77.0664H259.421C258.936 77.052 258.471 76.8694 258.106 76.5499C257.741 76.2304 257.498 75.7939 257.42 75.3152L253.737 49.0558C253.696 48.8383 253.705 48.6145 253.763 48.4008C253.82 48.1871 253.924 47.989 254.068 47.821C254.212 47.6531 254.392 47.5195 254.595 47.4301C254.797 47.3407 255.017 47.2978 255.238 47.3045H286.581C287.067 47.3171 287.532 47.499 287.898 47.8188C288.264 48.1387 288.506 48.5762 288.583 49.0558L292.275 75.3152C292.314 75.5333 292.304 75.7573 292.245 75.9709C292.186 76.1845 292.081 76.3823 291.936 76.5501C291.791 76.7178 291.611 76.8511 291.408 76.9405C291.206 77.0298 290.986 77.0728 290.764 77.0664Z" fill="#263238"/>
<path opacity="0.7" d="M290.764 77.0664H259.421C258.936 77.052 258.471 76.8694 258.106 76.5499C257.741 76.2304 257.498 75.7939 257.42 75.3152L253.737 49.0558C253.696 48.8383 253.705 48.6145 253.763 48.4008C253.82 48.1871 253.924 47.989 254.068 47.821C254.212 47.6531 254.392 47.5195 254.595 47.4301C254.797 47.3407 255.017 47.2978 255.238 47.3045H286.581C287.067 47.3171 287.532 47.499 287.898 47.8188C288.264 48.1387 288.506 48.5762 288.583 49.0558L292.275 75.3152C292.314 75.5333 292.304 75.7573 292.245 75.9709C292.186 76.1845 292.081 76.3823 291.936 76.5501C291.791 76.7178 291.611 76.8511 291.408 76.9405C291.206 77.0298 290.986 77.0728 290.764 77.0664Z" fill="white"/>
<path opacity="0.7" d="M274.532 61.465C274.568 61.6635 274.559 61.8675 274.506 62.0622C274.453 62.2569 274.358 62.4375 274.226 62.5907C274.095 62.7439 273.932 62.8661 273.747 62.9483C273.563 63.0306 273.363 63.0708 273.161 63.0661C272.717 63.0553 272.29 62.8892 271.956 62.5967C271.621 62.3042 271.4 61.9038 271.33 61.465C271.294 61.266 271.303 61.0615 271.356 60.8665C271.41 60.6715 271.506 60.491 271.639 60.3382C271.771 60.1855 271.936 60.0645 272.122 59.9841C272.308 59.9037 272.509 59.8661 272.711 59.8738C273.152 59.8865 273.575 60.0522 273.907 60.3425C274.239 60.6328 274.46 61.0296 274.532 61.465Z" fill="white"/>
<path d="M125.786 69.7407C122.024 91.7069 148.253 80.1884 158.711 80.4486C159.395 80.4636 160.072 80.5956 160.712 80.8389L163.934 94.7792L160.802 109.21L153.487 120.768H107.913L74.9989 98.5019L66.6427 72.3727L68.9944 30.0515L69.9952 23.2565C69.9952 23.2565 70.9959 31.6226 94.0129 29.5311C117.03 27.4395 135.043 20.0341 140.247 27.4395C146.582 36.3261 128.278 55.21 125.786 69.7407Z" fill="#B67A4F"/>
<path d="M125.786 69.7407C122.024 91.7069 148.253 80.1884 158.711 80.4486C159.395 80.4636 160.072 80.5956 160.712 80.8389L163.934 94.7792L160.802 109.21L153.487 120.768H107.913L74.9989 98.5019L66.6427 72.3727L68.9944 30.0515L69.9952 23.2565C69.9952 23.2565 70.9959 31.6226 94.0129 29.5311C117.03 27.4395 135.043 20.0341 140.247 27.4395C146.582 36.3261 128.278 55.21 125.786 69.7407Z" fill="black" fill-opacity="0.2"/>
<path opacity="0.2" d="M159.971 105.687V113.913L146.842 119.207L120.983 117.836L114.178 109.21L117.06 104.706H133.712L159.971 105.687Z" fill="black"/>
<path d="M118.131 132.587H110.225V168.574H118.131V132.587Z" fill="#263238"/>
<path opacity="0.5" d="M118.131 132.587H110.225V168.574H118.131V132.587Z" fill="white"/>
<path d="M120.182 165.301H108.183L83.6853 169.935V174.018H88.729L108.183 170.345H120.182L139.637 174.018H144.68V169.935L120.182 165.301Z" fill="#263238"/>
<path opacity="0.3" d="M120.182 165.301H108.183L83.6853 169.935V174.018H88.729L108.183 170.345H120.182L139.637 174.018H144.68V169.935L120.182 165.301Z" fill="white"/>
<path d="M139.636 175.799H144.64C144.967 175.799 145.28 175.669 145.511 175.438C145.741 175.207 145.871 174.894 145.871 174.568C145.871 174.241 145.741 173.928 145.511 173.698C145.28 173.467 144.967 173.337 144.64 173.337H139.636C139.31 173.337 138.997 173.467 138.766 173.698C138.535 173.928 138.406 174.241 138.406 174.568C138.406 174.894 138.535 175.207 138.766 175.438C138.997 175.669 139.31 175.799 139.636 175.799Z" fill="#111111"/>
<path d="M83.6851 175.799H88.6888C89.0153 175.799 89.3284 175.669 89.5592 175.438C89.79 175.207 89.9197 174.894 89.9197 174.568C89.9197 174.241 89.79 173.928 89.5592 173.698C89.3284 173.467 89.0153 173.337 88.6888 173.337H83.6851C83.3587 173.337 83.0456 173.467 82.8147 173.698C82.5839 173.928 82.4542 174.241 82.4542 174.568C82.4542 174.894 82.5839 175.207 82.8147 175.438C83.0456 175.669 83.3587 175.799 83.6851 175.799Z" fill="#111111"/>
<path opacity="0.2" d="M118.131 132.587H110.225V140.733H118.131V132.587Z" fill="black"/>
<path d="M156.919 110.791H109.614V100.593H156.919C158.271 100.593 159.568 101.13 160.524 102.085C161.481 103.04 162.02 104.335 162.023 105.687C162.023 107.041 161.485 108.339 160.528 109.296C159.571 110.253 158.273 110.791 156.919 110.791Z" fill="#B67A4F"/>
<path d="M156.919 110.791H109.614V100.593H156.919C158.271 100.593 159.568 101.13 160.524 102.085C161.481 103.04 162.02 104.335 162.023 105.687C162.023 107.041 161.485 108.339 160.528 109.296C159.571 110.253 158.273 110.791 156.919 110.791Z" fill="black" fill-opacity="0.2"/>
<path opacity="0.1" d="M156.919 110.791H109.614V100.593H156.919C158.271 100.593 159.568 101.13 160.524 102.085C161.481 103.04 162.02 104.335 162.023 105.687C162.023 107.041 161.485 108.339 160.528 109.296C159.571 110.253 158.273 110.791 156.919 110.791Z" fill="black"/>
<path d="M117.28 37.0465C117.28 37.0465 123.284 54.059 128.288 54.4193C133.292 54.7796 139.296 45.6929 139.296 45.6929L141.768 39.2681L146.772 38.8478V46.9138L141.658 49.4757C141.658 49.4757 133.842 62.3151 127.778 61.9949C121.713 61.6747 115.589 52.2877 114.348 47.5042C113.657 44.8522 114.108 39.3982 117.28 37.0465Z" fill="#FFC3BD"/>
<path d="M147.822 51.0369L149.614 36.2059L142.749 35.7356L142.539 50.6766L147.822 51.0369Z" fill="#3EBAA8"/>
<path opacity="0.5" d="M147.822 51.0369L149.614 36.2059L142.749 35.7356L142.539 50.6766L147.822 51.0369Z" fill="white"/>
<path d="M149.732 34.0773L142.872 33.6157L142.729 35.7525L149.588 36.2141L149.732 34.0773Z" fill="#3EBAA8"/>
<path d="M142.912 33.1771L149.006 33.6037C149.11 33.611 149.206 33.659 149.274 33.7374C149.342 33.8157 149.376 33.9178 149.369 34.0213L149.294 35.1021L142.419 34.6209L142.493 33.5501C142.496 33.4979 142.509 33.4467 142.531 33.3995C142.553 33.3523 142.585 33.3101 142.624 33.2754C142.663 33.2406 142.708 33.214 142.758 33.1971C142.807 33.1802 142.86 33.1734 142.912 33.1771Z" fill="#263238"/>
<path d="M115.689 52.0076C115.689 52.0076 109.194 41.2797 113.347 36.196C117.5 31.1122 123.835 47.8546 123.835 47.8546L115.689 52.0076Z" fill="#407BFF"/>
<path opacity="0.3" d="M115.689 52.0076C115.689 52.0076 109.194 41.2797 113.347 36.196C117.5 31.1122 123.835 47.8546 123.835 47.8546L115.689 52.0076Z" fill="white"/>
<path d="M114.428 51.247L115.659 53.0584L124.765 48.3549L123.915 46.4535L114.428 51.247Z" fill="#407BFF"/>
<path opacity="0.1" d="M114.428 51.247L115.659 53.0584L124.765 48.3549L123.915 46.4535L114.428 51.247Z" fill="white"/>
<path d="M83.1448 93.0077C83.1448 93.0077 75.0088 64.5267 84.5558 36.1959C84.5558 36.1959 96.9349 30.4316 114.578 34.6647C115.059 34.7781 115.512 34.9865 115.911 35.2778C116.31 35.569 116.647 35.9372 116.902 36.3606C117.156 36.784 117.323 37.254 117.394 37.743C117.464 38.2321 117.435 38.7302 117.31 39.2081C115.549 46.0831 112.817 62.4652 119.411 83.1705C108.284 89.3035 95.8465 92.677 83.1448 93.0077Z" fill="#407BFF"/>
<path opacity="0.5" d="M83.1448 93.0077C83.1448 93.0077 75.0088 64.5267 84.5558 36.1959C84.5558 36.1959 96.9349 30.4316 114.578 34.6647C115.059 34.7781 115.512 34.9865 115.911 35.2778C116.31 35.569 116.647 35.9372 116.902 36.3606C117.156 36.784 117.323 37.254 117.394 37.743C117.464 38.2321 117.435 38.7302 117.31 39.2081C115.549 46.0831 112.817 62.4652 119.411 83.1705C108.284 89.3035 95.8465 92.677 83.1448 93.0077Z" fill="white"/>
<path d="M98.6362 33.2438L104.641 38.4176L108.103 35.3453C106.792 34.3446 107.102 32.163 107.883 29.7812L99.4068 23.0863C99.8171 26.2286 100.097 30.5418 98.6362 33.2438Z" fill="#FFC3BD"/>
<path d="M142.158 100.103L153.176 104.586L151.936 109.25L140.167 106.828L142.158 100.103Z" fill="#FFC3BD"/>
<path d="M104.521 84.1913C104.521 84.1913 157.27 65.9178 161.623 82.7102C165.976 99.5025 125.996 111.081 105.051 110.381C84.1056 109.68 104.521 84.1913 104.521 84.1913Z" fill="#263238"/>
<path opacity="0.3" d="M104.521 84.1913C104.521 84.1913 157.27 65.9178 161.623 82.7102C165.976 99.5025 125.996 111.081 105.051 110.381C84.1056 109.68 104.521 84.1913 104.521 84.1913Z" fill="black"/>
<path opacity="0.7" d="M143.74 85.8825L118.111 102.215L122.194 108.919C122.194 108.919 119.722 109.74 116.299 101.544L132.141 91.0764C132.141 91.0764 127.137 90.576 127.307 89.8054C127.518 88.5345 138.406 86.1027 143.369 85.0619C143.472 85.0396 143.58 85.0534 143.674 85.1008C143.768 85.1482 143.843 85.2265 143.886 85.3225C143.929 85.4186 143.939 85.5265 143.912 85.6285C143.885 85.7304 143.824 85.82 143.74 85.8825Z" fill="black"/>
<path opacity="0.7" d="M117.21 101.494L121.643 109.02C116.187 110.018 110.646 110.473 105.101 110.381C103.271 110.369 101.458 110.03 99.7471 109.38L98.1859 106.378L101.548 99.3025L117.21 101.494Z" fill="black"/>
<path d="M117.66 102.645L112.677 106.828L114.968 110.381L122.554 109.19L117.66 102.645Z" fill="#FFC3BD"/>
<path d="M123.885 109.32L118.681 101.114L116.329 102.795L120.833 109.88L123.885 109.32Z" fill="#263238"/>
<path opacity="0.3" d="M123.885 109.32L118.681 101.114L116.329 102.795L120.833 109.88L123.885 109.32Z" fill="white"/>
<path d="M85.9769 101.674C83.1448 96.8907 77.6708 82.38 90.8305 79.8781C103.99 77.3763 147.242 101.684 147.242 101.684L145.241 108.009L104.29 101.254C104.29 101.254 115.679 111.561 103.22 110.261C93.3323 109.25 88.7389 106.348 85.9769 101.674Z" fill="#263238"/>
<path d="M146.181 100.103L143.619 108.369L146.181 108.719L148.483 101.584L146.181 100.103Z" fill="#263238"/>
<path opacity="0.3" d="M146.181 100.103L143.619 108.369L146.181 108.719L148.483 101.584L146.181 100.103Z" fill="white"/>
<path d="M116.429 110.2L114.638 104.726C114.603 104.627 114.535 104.543 114.446 104.487C114.357 104.43 114.252 104.406 114.148 104.416L109.384 104.887C109.283 104.895 109.184 104.924 109.094 104.971C109.004 105.018 108.924 105.083 108.859 105.161C108.794 105.239 108.745 105.329 108.715 105.427C108.685 105.524 108.674 105.626 108.684 105.727C108.68 105.78 108.68 105.834 108.684 105.887C109.364 107.839 110.055 109.56 110.855 112.012C111.856 114.904 111.215 114.283 112.286 117.706C112.937 119.768 115.389 119.377 115.218 118.467C114.408 114.324 115.479 113.513 116.389 111.511C116.567 111.095 116.581 110.627 116.429 110.2Z" fill="#263238"/>
<path d="M152.196 104.286L150.344 109.9C150.313 110.004 150.316 110.115 150.354 110.216C150.392 110.318 150.462 110.404 150.554 110.461L154.788 112.983C154.877 113.037 154.976 113.073 155.079 113.089C155.183 113.105 155.288 113.1 155.389 113.075C155.491 113.05 155.586 113.005 155.67 112.943C155.754 112.88 155.825 112.802 155.878 112.712L155.948 112.562C156.579 110.561 157.059 108.689 157.9 106.168C158.901 103.165 158.981 104.066 160.192 100.593C160.912 98.4919 158.64 97.321 158.19 98.1716C156.329 102.095 154.958 102.105 152.966 103.175C152.583 103.439 152.309 103.834 152.196 104.286Z" fill="#263238"/>
<path d="M144.97 85.6324H121.233C120.702 85.6324 120.193 85.4215 119.818 85.0462C119.442 84.6708 119.231 84.1617 119.231 83.6309H147.022C147.022 83.898 146.969 84.1624 146.865 84.4086C146.761 84.6547 146.609 84.8776 146.418 85.0642C146.227 85.2507 146 85.3971 145.752 85.4947C145.503 85.5922 145.237 85.6391 144.97 85.6324Z" fill="#263238"/>
<path opacity="0.2" d="M144.97 85.6324H121.233C120.702 85.6324 120.193 85.4215 119.818 85.0462C119.442 84.6708 119.231 84.1617 119.231 83.6309H147.022C147.022 83.898 146.969 84.1624 146.865 84.4086C146.761 84.6547 146.609 84.8776 146.418 85.0642C146.227 85.2507 146 85.3971 145.752 85.4947C145.503 85.5922 145.237 85.6391 144.97 85.6324Z" fill="white"/>
<path d="M127.497 85.6324H110.255C109.724 85.6324 109.215 85.4215 108.84 85.0462C108.464 84.6708 108.253 84.1617 108.253 83.6309H129.549C129.549 83.898 129.496 84.1624 129.392 84.4086C129.288 84.6547 129.136 84.8776 128.945 85.0642C128.754 85.2507 128.527 85.3971 128.279 85.4947C128.03 85.5922 127.764 85.6391 127.497 85.6324Z" fill="#263238"/>
<path opacity="0.5" d="M127.497 85.6324H110.255C109.724 85.6324 109.215 85.4215 108.84 85.0462C108.464 84.6708 108.253 84.1617 108.253 83.6309H129.549C129.549 83.898 129.496 84.1624 129.392 84.4086C129.288 84.6547 129.136 84.8776 128.945 85.0642C128.754 85.2507 128.527 85.3971 128.279 85.4947C128.03 85.5922 127.764 85.6391 127.497 85.6324Z" fill="white"/>
<path d="M145.131 85.0119H129.519C129.442 85.0115 129.367 84.9928 129.299 84.9573C129.231 84.9218 129.173 84.8706 129.129 84.8079C129.085 84.7452 129.056 84.6728 129.046 84.5969C129.035 84.521 129.043 84.4437 129.069 84.3714L136.014 64.5168C136.109 64.2504 136.284 64.0199 136.515 63.8568C136.746 63.6938 137.022 63.6062 137.305 63.6061H152.926C153.003 63.6065 153.078 63.6253 153.146 63.6608C153.214 63.6963 153.273 63.7475 153.317 63.8102C153.361 63.8729 153.389 63.9452 153.4 64.0211C153.41 64.0971 153.402 64.1744 153.377 64.2466L146.432 84.1013C146.335 84.3685 146.158 84.5993 145.925 84.7623C145.692 84.9253 145.415 85.0124 145.131 85.0119Z" fill="#263238"/>
<path opacity="0.5" d="M145.131 85.0119H129.519C129.442 85.0115 129.367 84.9928 129.299 84.9573C129.231 84.9218 129.173 84.8706 129.129 84.8079C129.085 84.7452 129.056 84.6728 129.046 84.5969C129.035 84.521 129.043 84.4437 129.069 84.3714L136.014 64.5168C136.109 64.2504 136.284 64.0199 136.515 63.8568C136.746 63.6938 137.022 63.6062 137.305 63.6061H152.926C153.003 63.6065 153.078 63.6253 153.146 63.6608C153.214 63.6963 153.273 63.7475 153.317 63.8102C153.361 63.8729 153.389 63.9452 153.4 64.0211C153.41 64.0971 153.402 64.1744 153.377 64.2466L146.432 84.1013C146.335 84.3685 146.158 84.5993 145.925 84.7623C145.692 84.9253 145.415 85.0124 145.131 85.0119Z" fill="white"/>
<path d="M145.751 85.0119H130.119C130.043 85.0115 129.967 84.9928 129.899 84.9573C129.832 84.9218 129.773 84.8706 129.729 84.8079C129.685 84.7452 129.656 84.6728 129.646 84.5969C129.636 84.521 129.644 84.4437 129.669 84.3714L136.614 64.5168C136.709 64.2504 136.884 64.0199 137.115 63.8568C137.346 63.6938 137.622 63.6062 137.905 63.6061H153.537C153.613 63.6065 153.689 63.6253 153.757 63.6608C153.825 63.6963 153.883 63.7475 153.927 63.8102C153.971 63.8729 154 63.9452 154.01 64.0211C154.02 64.0971 154.013 64.1744 153.987 64.2466L147.042 84.1013C146.947 84.3677 146.772 84.5982 146.541 84.7612C146.31 84.9243 146.034 85.0118 145.751 85.0119Z" fill="#263238"/>
<path opacity="0.7" d="M145.751 85.0119H130.119C130.043 85.0115 129.967 84.9928 129.899 84.9573C129.832 84.9218 129.773 84.8706 129.729 84.8079C129.685 84.7452 129.656 84.6728 129.646 84.5969C129.636 84.521 129.644 84.4437 129.669 84.3714L136.614 64.5168C136.709 64.2504 136.884 64.0199 137.115 63.8568C137.346 63.6938 137.622 63.6062 137.905 63.6061H153.537C153.613 63.6065 153.689 63.6253 153.757 63.6608C153.825 63.6963 153.883 63.7475 153.927 63.8102C153.971 63.8729 154 63.9452 154.01 64.0211C154.02 64.0971 154.013 64.1744 153.987 64.2466L147.042 84.1013C146.947 84.3677 146.772 84.5982 146.541 84.7612C146.31 84.9243 146.034 85.0118 145.751 85.0119Z" fill="white"/>
<path d="M143.129 74.314C142.959 75.0746 142.439 75.685 141.948 75.685C141.458 75.685 141.198 75.0746 141.358 74.314C141.518 73.5534 142.048 72.933 142.539 72.933C143.029 72.933 143.319 73.5534 143.129 74.314Z" fill="white"/>
<path d="M90.9506 44.7423C90.9506 44.7423 94.7634 63.5161 97.3353 66.6284C99.9072 69.7407 111.105 78.1169 111.105 78.1169L117.77 76.7259L122.544 80.7288L119.422 83.1906L115.729 81.7996C113.714 82.1562 111.671 82.3337 109.624 82.33C106.182 82.33 92.2015 74.1039 89.4294 69.4805C86.6574 64.8571 82.7745 47.4643 82.7745 47.4643L90.9506 44.7423Z" fill="#FFC3BD"/>
<path d="M96.4247 33.3739L98.8064 31.9929L104.611 38.4177C104.611 38.4177 101.418 37.1167 100.518 37.6471C99.617 38.1775 100.278 40.179 99.3368 40.199C97.2453 40.229 96.4247 33.3739 96.4247 33.3739Z" fill="#407BFF"/>
<path d="M104.611 38.4175L107.613 32.4131L110.095 33.7441C110.095 33.7441 112.396 39.5584 110.635 40.1688C109.564 40.5391 109.154 37.8271 108.093 37.4268C107.273 37.1466 104.611 38.4175 104.611 38.4175Z" fill="#407BFF"/>
<g opacity="0.2">
<path d="M96.4247 33.3739L98.8064 31.9929L104.611 38.4177C104.611 38.4177 101.418 37.1167 100.518 37.6471C99.617 38.1775 100.278 40.179 99.3368 40.199C97.2453 40.229 96.4247 33.3739 96.4247 33.3739Z" fill="white"/>
<path d="M104.611 38.4175L107.613 32.4131L110.095 33.7441C110.095 33.7441 112.396 39.5584 110.635 40.1688C109.564 40.5391 109.154 37.8271 108.093 37.4268C107.273 37.1466 104.611 38.4175 104.611 38.4175Z" fill="white"/>
</g>
<path d="M83.1448 54.0791C83.1448 54.0791 78.7315 40.7193 84.5558 36.1959C90.3801 31.6726 93.0921 51.6073 93.0921 51.6073L83.1448 54.0791Z" fill="#407BFF"/>
<path opacity="0.3" d="M83.1448 54.0791C83.1448 54.0791 78.7315 40.7193 84.5558 36.1959C90.3801 31.6726 93.0921 51.6073 93.0921 51.6073L83.1448 54.0791Z" fill="white"/>
<path d="M81.9639 52.9383L82.8545 55.23L93.9927 52.3579L93.5424 50.0662L81.9639 52.9383Z" fill="#407BFF"/>
<path opacity="0.1" d="M81.9639 52.9383L82.8545 55.23L93.9927 52.3579L93.5424 50.0662L81.9639 52.9383Z" fill="white"/>
<path opacity="0.1" d="M99.5268 24.1971C99.5268 23.8168 99.4368 23.4466 99.3867 23.0863L107.863 29.7812C107.556 30.7177 107.348 31.6836 107.243 32.6634C102.099 32.7034 100.177 27.0392 99.5268 24.1971Z" fill="black"/>
<path d="M100.988 13.319C99.2167 19.3234 98.336 21.8153 100.207 25.8482C103.009 31.9828 110.745 32.8534 114.218 27.5095C117.36 22.6959 119.782 13.7293 114.868 9.31605C113.795 8.33846 112.489 7.65195 111.075 7.32191C109.661 6.99186 108.186 7.02926 106.79 7.43054C105.395 7.83182 104.125 8.58362 103.103 9.61435C102.08 10.6451 101.338 11.9205 100.948 13.319H100.988Z" fill="#FFC3BD"/>
<path d="M107.723 19.3234C107.553 19.7938 107.663 20.2741 107.983 20.3842C108.303 20.4943 108.684 20.2041 108.854 19.7337C109.024 19.2634 108.914 18.733 108.604 18.663C108.293 18.5929 107.903 18.8331 107.723 19.3234Z" fill="#263238"/>
<path d="M113.107 21.2749C112.927 21.7553 113.047 22.2757 113.347 22.3457C113.647 22.4158 114.058 22.1656 114.228 21.6852C114.398 21.2049 114.288 20.6845 113.978 20.6144C113.667 20.5444 113.287 20.8346 113.107 21.2749Z" fill="#263238"/>
<path d="M111.306 21.415C111.606 22.6157 112.067 23.7703 112.677 24.8476C112.399 25.0005 112.09 25.0896 111.773 25.1086C111.457 25.1277 111.14 25.0761 110.845 24.9577L111.306 21.415Z" fill="#ED893E"/>
<path d="M107.513 16.6716C107.557 16.7175 107.615 16.7482 107.678 16.759C107.741 16.7698 107.806 16.7602 107.863 16.7316C108.328 16.5776 108.819 16.5212 109.306 16.5659C109.794 16.6107 110.266 16.7557 110.695 16.9918C110.729 17.0109 110.767 17.023 110.805 17.0273C110.844 17.0316 110.883 17.028 110.921 17.0168C110.958 17.0056 110.993 16.987 111.023 16.9621C111.053 16.9371 111.077 16.9064 111.095 16.8717C111.115 16.8383 111.127 16.8013 111.133 16.763C111.138 16.7246 111.135 16.6857 111.125 16.6484C111.114 16.6111 111.097 16.5762 111.073 16.5458C111.049 16.5154 111.019 16.4901 110.985 16.4714C110.473 16.1905 109.907 16.0196 109.325 15.9696C108.742 15.9196 108.156 15.9917 107.603 16.1812C107.531 16.2158 107.476 16.2773 107.45 16.3524C107.424 16.4274 107.428 16.5098 107.463 16.5815C107.471 16.6156 107.488 16.6467 107.513 16.6716Z" fill="#263238"/>
<path d="M116.279 20.2441C116.326 20.2686 116.377 20.2815 116.429 20.2815C116.482 20.2815 116.533 20.2686 116.58 20.2441C116.649 20.2095 116.702 20.1503 116.73 20.0781C116.758 20.0059 116.758 19.9259 116.73 19.8538C116.551 19.4124 116.27 19.0197 115.91 18.7082C115.55 18.3967 115.121 18.1754 114.658 18.0625C114.585 18.0624 114.515 18.0878 114.459 18.1343C114.403 18.1807 114.366 18.2453 114.352 18.3168C114.339 18.3883 114.352 18.462 114.388 18.5253C114.423 18.5886 114.48 18.6373 114.548 18.6629C114.913 18.7535 115.251 18.9296 115.535 19.1766C115.819 19.4237 116.039 19.7347 116.179 20.084C116.2 20.1444 116.234 20.1992 116.279 20.2441Z" fill="#263238"/>
<path d="M99.8171 16.8316C100.129 16.8214 100.435 16.7406 100.712 16.5953C100.989 16.4501 101.229 16.2441 101.415 15.9929C101.6 15.7417 101.727 15.4516 101.785 15.1446C101.843 14.8375 101.83 14.5213 101.749 14.2197C101.749 14.2197 105.461 14.1197 105.621 11.3977C105.621 11.3977 108.864 14.2698 110.005 12.0281C110.005 12.0281 114.008 15.5807 114.508 13.229C114.508 13.229 118.631 18.3528 118.421 15.2305C118.421 15.2305 123.074 14.7601 118.891 10.7372C118.891 10.7372 122.714 7.3947 116.539 6.0337C116.539 6.0337 117.08 2.03075 112.737 3.81206C112.737 3.81206 111.736 -0.501123 107.973 2.01073C107.973 2.01073 105.972 -0.991485 103.71 3.01147C103.71 3.01147 100.428 1.14009 99.3868 5.37321C99.3868 5.37321 93.4524 6.09373 95.8942 9.99661C95.8942 9.99661 97.7256 23.0963 99.3868 23.0963C100.518 23.0863 99.8171 16.8316 99.8171 16.8316Z" fill="#263238"/>
<path d="M97.7756 17.4221C97.8148 18.627 98.3293 19.7675 99.2066 20.5944C100.367 21.6852 101.698 20.8146 101.979 19.3335C102.259 17.8524 101.979 15.8109 100.468 15.3305C100.213 15.2386 99.9424 15.1993 99.6722 15.2149C99.4019 15.2305 99.1377 15.3008 98.8954 15.4215C98.6531 15.5421 98.4378 15.7107 98.2625 15.917C98.0873 16.1232 97.9557 16.3629 97.8757 16.6215C97.7883 16.8788 97.7543 17.1512 97.7756 17.4221Z" fill="#FFC3BD"/>
<path d="M109.044 26.5688C109.253 26.6323 109.467 26.6758 109.684 26.6989C109.717 26.7049 109.752 26.6978 109.78 26.6791C109.808 26.6605 109.827 26.6317 109.834 26.5989C109.836 26.5818 109.834 26.5646 109.828 26.5482C109.823 26.5319 109.815 26.5168 109.804 26.5038C109.792 26.4908 109.779 26.4801 109.763 26.4724C109.748 26.4647 109.731 26.46 109.714 26.4587C109.164 26.4002 108.636 26.213 108.172 25.9122C107.707 25.6114 107.321 25.2056 107.042 24.7275C107.035 24.7113 107.024 24.6968 107.011 24.6849C106.998 24.6731 106.982 24.664 106.965 24.6584C106.948 24.6528 106.931 24.6507 106.913 24.6522C106.895 24.6538 106.878 24.6589 106.862 24.6674C106.832 24.6825 106.809 24.7087 106.798 24.7404C106.787 24.7721 106.788 24.8069 106.802 24.8375C107.041 25.2615 107.362 25.6333 107.747 25.9307C108.132 26.2281 108.573 26.4451 109.044 26.5688Z" fill="#263238"/>
<path d="M66.0722 23.8369C66.0722 23.8369 44.7665 133.328 115.228 135.339C179.496 137.16 165.125 84.6517 160.952 80.999C156.779 77.3463 172.441 114.694 146.582 115.224C115.399 115.855 109.744 86.2028 99.2967 85.9627C88.849 85.7225 73.0774 99.5427 71.4762 74.4642C69.875 49.3857 78.1311 6.82435 66.0722 23.8369Z" fill="#B67A4F"/>
<path opacity="0.5" d="M66.0722 23.8369C66.0722 23.8369 44.7665 133.328 115.228 135.339C179.496 137.16 165.125 84.6517 160.952 80.999C156.779 77.3463 172.441 114.694 146.582 115.224C115.399 115.855 109.744 86.2028 99.2967 85.9627C88.849 85.7225 73.0774 99.5427 71.4762 74.4642C69.875 49.3857 78.1311 6.82435 66.0722 23.8369Z" fill="#B67A4F"/>
<path d="M1021.82 49.745L1006.52 45.0215C1006.3 44.9412 1006.12 44.7856 1006 44.582C1005.88 44.3784 1005.84 44.1398 1005.88 43.9081C1005.92 43.6763 1006.04 43.4663 1006.22 43.3149C1006.4 43.1635 1006.63 43.0803 1006.86 43.0801L1024.5 44.0107C1020.33 36.7754 1017.87 32.2521 1015.07 26.5879C1014.98 26.3736 1014.96 26.1333 1015.03 25.9089C1015.09 25.6845 1015.24 25.4901 1015.43 25.3593C1015.62 25.2286 1015.86 25.1697 1016.09 25.1931C1016.32 25.2164 1016.54 25.3205 1016.7 25.4871C1020.46 29.7202 1023.62 33.1528 1028.66 38.5667C1029.86 31.5616 1031.26 25.1068 1033 18.632C1033.08 18.4034 1033.23 18.2093 1033.44 18.0854C1033.65 17.9615 1033.89 17.9161 1034.13 17.9574C1034.36 17.9987 1034.58 18.124 1034.73 18.3104C1034.88 18.4968 1034.96 18.7318 1034.96 18.9723C1034.49 24.1889 1034.32 29.4279 1034.45 34.6639L1034.93 34.834C1039.16 30.0038 1043.6 25.3637 1048.25 20.9137C1048.43 20.7671 1048.67 20.6919 1048.9 20.7016C1049.14 20.7113 1049.37 20.8052 1049.54 20.9666C1049.72 21.1279 1049.83 21.3461 1049.86 21.5822C1049.88 21.8182 1049.83 22.0566 1049.7 22.2547C1045.2 27.9572 1041.05 33.9221 1037.26 40.1179C1043.3 37.8362 1049.38 35.6246 1055.49 33.483C1055.72 33.417 1055.97 33.4359 1056.19 33.5363C1056.4 33.6368 1056.58 33.812 1056.68 34.0302C1056.78 34.2484 1056.79 34.495 1056.73 34.7251C1056.66 34.9553 1056.51 35.1537 1056.31 35.2843C1049.98 38.877 1043.72 42.5497 1037.46 46.3525L1053.58 51.4863C1053.8 51.567 1053.99 51.7243 1054.11 51.93C1054.22 52.1358 1054.27 52.3767 1054.22 52.6097C1054.18 52.8428 1054.05 53.053 1053.87 53.2028C1053.69 53.3526 1053.46 53.4323 1053.22 53.4277L1036.66 52.427C1039.93 56.2598 1042.21 58.8917 1044.85 61.8639C1045 62.0464 1045.08 62.2758 1045.08 62.5117C1045.08 62.7476 1044.99 62.9747 1044.84 63.153C1044.68 63.3314 1044.47 63.4495 1044.24 63.4864C1044 63.5234 1043.76 63.4768 1043.56 63.355C1040.23 61.1434 1037.31 59.1819 1033.03 56.3499C1033.47 59.7524 1033.84 62.3543 1034.3 64.9762C1034.32 65.2116 1034.26 65.4483 1034.13 65.6442C1034 65.8401 1033.8 65.9825 1033.57 66.0462C1033.34 66.1098 1033.1 66.0905 1032.88 65.9917C1032.67 65.8929 1032.49 65.721 1032.39 65.5066C1031.28 62.6745 1030.27 59.8624 1028.99 56.1197C1024.18 79.1366 1025.42 101.483 1030.08 124.38L1024.31 123.379C1020.91 100.889 1021.83 77.9569 1027.01 55.8095C1024.12 58.8117 1022.01 61.0433 1020 63.305C1019.83 63.4712 1019.61 63.5718 1019.37 63.5885C1019.14 63.6052 1018.9 63.537 1018.71 63.3962C1018.52 63.2554 1018.38 63.0511 1018.33 62.8199C1018.28 62.5887 1018.31 62.3456 1018.41 62.1341C1019.77 59.8725 1021.25 57.5807 1023.23 54.6086C1018.07 55.7394 1014.55 56.52 1010.66 57.4006C1010.42 57.4427 1010.18 57.4005 1009.98 57.2814C1009.77 57.1623 1009.62 56.9741 1009.54 56.7504C1009.46 56.5268 1009.46 56.2822 1009.54 56.0603C1009.63 55.8385 1009.79 55.6538 1010 55.5393C1013.59 53.6679 1016.92 52.0667 1021.82 49.745Z" fill="#75A558"/>
<path d="M1013.68 57.7008L1025.43 51.4763C1025.72 51.3274 1025.95 51.0747 1026.07 50.767C1026.19 50.4593 1026.19 50.1186 1026.07 49.8108C1025.95 49.5031 1025.72 49.2502 1025.43 49.1012C1025.14 48.9523 1024.8 48.9178 1024.48 49.0045L1009.98 52.6171C1012.34 45.8121 1013.84 41.2287 1015.29 36.185C1015.38 35.8743 1015.35 35.5415 1015.22 35.249C1015.08 34.9565 1014.84 34.7241 1014.54 34.5954C1014.25 34.4667 1013.91 34.4504 1013.6 34.5496C1013.3 34.6487 1013.04 34.8565 1012.87 35.1342C1010.49 39.1372 1008.22 42.7398 1004.86 48.0538C1002.8 42.6097 1000.8 37.546 998.479 32.6024C998.336 32.3073 998.089 32.0756 997.785 31.9516C997.481 31.8276 997.143 31.82 996.834 31.9304C996.525 32.0408 996.268 32.2614 996.111 32.5497C995.955 32.8381 995.911 33.174 995.987 33.493C996.988 37.4159 997.818 41.3688 998.459 45.2417L998.019 45.5019C994.216 42.5397 990.326 39.7009 986.35 36.9856C986.073 36.7939 985.734 36.7144 985.401 36.7629C985.067 36.8115 984.765 36.9846 984.554 37.2473C984.344 37.5101 984.24 37.8429 984.265 38.1787C984.29 38.5146 984.442 38.8284 984.689 39.0571C988.879 42.8933 992.881 46.9163 996.698 51.126C991.554 50.2387 986.4 49.3914 981.236 48.5841C980.91 48.5388 980.578 48.6161 980.306 48.8011C980.033 48.9861 979.839 49.2656 979.76 49.5856C979.682 49.9055 979.725 50.2433 979.881 50.5334C980.037 50.8235 980.295 51.0453 980.606 51.156C986.31 53.1575 991.974 55.159 997.618 57.2906L985.119 64.0555C984.813 64.2015 984.573 64.4592 984.45 64.7758C984.328 65.0923 984.33 65.4439 984.458 65.7585C984.586 66.0731 984.829 66.3269 985.138 66.4679C985.447 66.609 985.798 66.6267 986.12 66.5174L999.58 63.1049C997.628 66.5174 996.137 69.1093 994.576 71.6912C994.405 71.9696 994.343 72.3012 994.401 72.6227C994.458 72.9442 994.633 73.2332 994.89 73.4347C995.147 73.6362 995.469 73.7361 995.795 73.7154C996.121 73.6947 996.428 73.5548 996.658 73.3224L1003.83 66.2572C1003.95 68.2586 1004.05 70.0399 1004.11 71.6812C1004.13 72.0098 1004.26 72.322 1004.49 72.5573C1004.72 72.7927 1005.03 72.9347 1005.36 72.9558C1005.69 72.9769 1006.01 72.8758 1006.27 72.6718C1006.53 72.4678 1006.7 72.1756 1006.76 71.8513C1007.09 69.8498 1007.41 67.7683 1007.76 65.2764C1016.76 87.0024 1019.76 109.169 1019.42 132.536L1024.9 130.434C1024.04 107.704 1018.86 85.3462 1009.63 64.5559C1011.71 66.017 1013.45 67.2579 1015.04 68.4288C1015.31 68.6623 1015.65 68.7809 1016.01 68.7584C1016.36 68.7359 1016.69 68.5741 1016.92 68.3087C1017.16 68.0433 1017.27 67.6959 1017.25 67.3431C1017.23 66.9903 1017.07 66.6608 1016.8 66.4273C1015.72 65.2764 1014.53 64.0555 1013.16 62.6545C1017.16 62.7646 1020.22 62.8546 1023.17 62.9547C1023.49 62.962 1023.81 62.8509 1024.05 62.6421C1024.3 62.4333 1024.47 62.1413 1024.51 61.8208C1024.56 61.5003 1024.49 61.1733 1024.31 60.9012C1024.14 60.6291 1023.87 60.4305 1023.56 60.3428C1020.73 59.5522 1017.69 58.7416 1013.68 57.7008Z" fill="#75A558" fill-opacity="0.83"/>
<path d="M1034.43 70.3302L1025.66 65.6767C1025.46 65.5679 1025.3 65.3896 1025.22 65.1752C1025.14 64.9607 1025.15 64.7247 1025.23 64.5113C1025.31 64.298 1025.47 64.1218 1025.67 64.0158C1025.87 63.9098 1026.11 63.8813 1026.33 63.9354L1037.13 66.6274C1035.37 61.5637 1034.28 58.2012 1033.19 54.4385C1033.13 54.2192 1033.15 53.985 1033.25 53.7793C1033.35 53.5736 1033.52 53.4103 1033.73 53.3198C1033.94 53.2294 1034.17 53.2178 1034.39 53.2874C1034.6 53.3569 1034.79 53.5028 1034.91 53.6979C1036.69 56.6401 1038.36 59.3421 1040.85 63.295C1042.36 59.242 1043.92 55.4892 1045.63 51.7965C1045.73 51.5874 1045.91 51.4232 1046.12 51.3352C1046.34 51.2473 1046.58 51.2419 1046.8 51.3202C1047.02 51.3984 1047.2 51.5548 1047.31 51.7591C1047.42 51.9634 1047.45 52.2013 1047.39 52.427C1046.62 55.4292 1045.99 58.4314 1045.51 61.3435L1045.79 61.5037C1048.68 59.2553 1051.63 57.1037 1054.66 55.0489C1054.86 54.895 1055.11 54.8254 1055.35 54.8554C1055.6 54.8854 1055.83 55.0126 1055.98 55.209C1056.14 55.4054 1056.2 55.6549 1056.17 55.9027C1056.14 56.1504 1056.02 56.3761 1055.82 56.53C1052.67 59.3921 1049.66 62.3943 1046.81 65.5366C1050.66 64.8695 1054.51 64.2323 1058.38 63.6252C1058.62 63.5855 1058.86 63.6358 1059.06 63.7659C1059.25 63.896 1059.4 64.0964 1059.45 64.3269C1059.51 64.5573 1059.48 64.8008 1059.36 65.0085C1059.25 65.2161 1059.06 65.3726 1058.83 65.4466C1054.58 66.921 1050.34 68.4488 1046.11 70.0299L1055.42 75.0336C1055.63 75.1414 1055.78 75.3208 1055.86 75.5374C1055.94 75.7541 1055.94 75.9929 1055.86 76.2083C1055.77 76.4237 1055.61 76.6005 1055.41 76.705C1055.2 76.8095 1054.96 76.8344 1054.74 76.7749L1044.73 74.233C1046.19 76.8049 1047.3 78.7264 1048.47 80.6778C1048.58 80.8746 1048.63 81.1081 1048.59 81.3342C1048.54 81.5604 1048.42 81.7634 1048.24 81.9051C1048.06 82.0468 1047.83 82.1172 1047.6 82.1031C1047.37 82.089 1047.16 81.9914 1046.99 81.8286L1041.61 76.5347C1041.51 78.1259 1041.44 79.4869 1041.39 80.7578C1041.39 80.9941 1041.29 81.2203 1041.13 81.3913C1040.97 81.5623 1040.75 81.6656 1040.51 81.6808C1040.27 81.6959 1040.04 81.6217 1039.86 81.4729C1039.67 81.3242 1039.55 81.1118 1039.52 80.8779C1039.27 79.3668 1039.02 77.7456 1038.74 75.8142C1032.15 91.6559 1030.01 107.838 1030.23 124.85L1026.23 123.319C1026.86 106.746 1030.63 90.4445 1037.36 75.2838C1035.75 76.4247 1034.36 77.3854 1033.17 78.286C1032.99 78.4352 1032.75 78.5069 1032.51 78.4864C1032.27 78.4659 1032.05 78.3547 1031.89 78.1757C1031.73 77.9966 1031.64 77.7632 1031.65 77.5233C1031.66 77.2833 1031.75 77.055 1031.92 76.885C1032.77 75.9843 1033.69 75.0236 1034.79 73.8828L1027.23 74.1029C1027 74.1153 1026.77 74.0403 1026.59 73.8927C1026.4 73.7451 1026.29 73.5353 1026.25 73.3043C1026.22 73.0733 1026.27 72.8376 1026.4 72.643C1026.53 72.4484 1026.72 72.3089 1026.95 72.2516C1029.13 71.7112 1031.39 71.1108 1034.43 70.3302Z" fill="#75A558"/>
<path d="M1009.72 174.937H1039.56C1040.56 174.939 1041.53 174.557 1042.27 173.868C1043 173.18 1043.44 172.238 1043.5 171.234L1046.66 119.756C1046.8 117.485 1002.47 117.485 1002.63 119.756L1005.8 171.234C1005.87 172.233 1006.3 173.171 1007.03 173.858C1007.76 174.546 1008.72 174.931 1009.72 174.937Z" fill="#FFA861"/>
<path d="M1009.72 174.937H1039.56C1040.56 174.939 1041.53 174.557 1042.27 173.868C1043 173.18 1043.44 172.238 1043.5 171.234L1046.66 119.756C1046.8 117.485 1002.47 117.485 1002.63 119.756L1005.8 171.234C1005.87 172.233 1006.3 173.171 1007.03 173.858C1007.76 174.546 1008.72 174.931 1009.72 174.937Z" fill="black" fill-opacity="0.2"/>
<path d="M1007.91 55.9996C1007.52 55.6796 1007.22 55.2672 1007.03 54.8003C1006.84 54.3334 1006.78 53.827 1006.84 53.3276L1007.51 47.6234L1005.97 50.2754C1005.76 50.6479 1005.47 50.9707 1005.13 51.2222C1004.78 51.4737 1004.38 51.6479 1003.96 51.7332C1003.54 51.8186 1003.11 51.813 1002.69 51.7169C1002.27 51.6208 1001.88 51.4364 1001.54 51.176L998.539 48.9144L1001.27 53.3276C1001.65 53.939 1001.8 54.6679 1001.69 55.3809C1001.58 56.094 1001.22 56.7434 1000.67 57.2105L997.138 60.2127L1000.6 59.4221C1001.33 59.25 1002.11 59.3604 1002.76 59.7312C1003.42 60.102 1003.91 60.7061 1004.14 61.4236L1005.33 65.0663L1006.09 61.1934C1006.17 60.7806 1006.34 60.3889 1006.58 60.0437C1006.82 59.6986 1007.13 59.4076 1007.49 59.1897C1007.85 58.9718 1008.25 58.8318 1008.66 58.7787C1009.08 58.7257 1009.5 58.7608 1009.91 58.8817L1012.24 59.5622L1007.91 55.9996Z" fill="#E6E6E6"/>
<path d="M1027.82 46.1724C1028.11 45.9397 1028.33 45.6387 1028.46 45.2974C1028.6 44.9561 1028.65 44.5857 1028.6 44.2209L1028.11 40.0479L1029.23 41.9893C1029.39 42.2612 1029.6 42.4967 1029.85 42.6802C1030.11 42.8638 1030.4 42.991 1030.7 43.0535C1031.01 43.1161 1031.33 43.1124 1031.63 43.0427C1031.94 42.9731 1032.22 42.8391 1032.47 42.6498L1034.66 40.9985L1032.65 44.2209C1032.38 44.6678 1032.27 45.199 1032.35 45.7184C1032.43 46.2379 1032.7 46.7113 1033.09 47.053L1035.68 49.2747L1033.14 48.6942C1032.61 48.5721 1032.05 48.6543 1031.57 48.9246C1031.09 49.1949 1030.73 49.6338 1030.56 50.1553L1029.69 52.8173L1029.13 49.9852C1029.07 49.6851 1028.95 49.4007 1028.77 49.1501C1028.6 48.8994 1028.37 48.6879 1028.11 48.529C1027.85 48.37 1027.56 48.2671 1027.26 48.2266C1026.95 48.1861 1026.64 48.2091 1026.35 48.2939L1024.65 48.7943L1027.82 46.1724Z" fill="#F5F5F5"/>
<path d="M1039.61 70.06C1039.81 69.889 1039.97 69.6707 1040.07 69.4246C1040.16 69.1785 1040.2 68.9121 1040.17 68.6489L1039.82 65.6467L1040.62 67.0378C1040.73 67.2317 1040.88 67.3995 1041.07 67.5302C1041.25 67.6609 1041.46 67.7515 1041.67 67.796C1041.89 67.8405 1042.12 67.8378 1042.34 67.7882C1042.56 67.7385 1042.76 67.6431 1042.94 67.5081L1044.51 66.3172L1043.08 68.6289C1042.89 68.9461 1042.82 69.3201 1042.87 69.6859C1042.93 70.0516 1043.11 70.3858 1043.39 70.6304L1045.24 72.2216L1043.43 71.8013C1043.05 71.7095 1042.66 71.761 1042.31 71.9459C1041.97 72.1307 1041.71 72.4358 1041.58 72.802L1040.95 74.7134L1040.55 72.7119C1040.51 72.4958 1040.42 72.291 1040.29 72.1105C1040.17 71.9301 1040.01 71.778 1039.82 71.664C1039.63 71.55 1039.42 71.4766 1039.2 71.4486C1038.98 71.4205 1038.76 71.4384 1038.55 71.501L1037.33 71.8613L1039.61 70.06Z" fill="#E6E6E6"/>
</svg>
