<svg width="121" height="110" viewBox="0 0 121 110" fill="none" xmlns="http://www.w3.org/2000/svg">
<g clip-path="url(#clip0_254_178)">
<path d="M53.4278 78.8146C52.5391 89.0774 43.9541 97.1101 33.4593 97.1101C22.3784 97.1101 13.3963 88.1324 13.3963 77.0568C13.3963 65.9812 22.3027 57.0981 33.327 57.0225V44.1135C15.1927 44.1891 0.5 58.9125 0.5 77.0568C0.5 95.2012 15.2494 110 33.4593 110C51.6692 110 65.4732 96.184 66.3809 78.7957H53.4278V78.8146Z" fill="#FF9D4D"/>
<path d="M67.5911 31.0721C68.5555 20.8282 77.1972 12.8333 87.692 12.9089C98.773 12.9845 107.679 22.0189 107.604 33.0945C107.528 44.1134 98.546 52.9965 87.5407 52.9965L87.4461 65.9055C105.58 65.9622 120.387 51.3522 120.5 33.189C120.632 14.9879 105.977 0.132275 87.7676 -2.78548e-05C70.1439 -0.13233 55.6592 13.5893 54.6381 30.9776L67.5911 31.0721Z" fill="#FF9D4D"/>
<path d="M71.3541 45.2476H52.5201V64.0723H71.3541V45.2476Z" fill="#FF9D4D"/>
</g>
<defs>
<clipPath id="clip0_254_178">
<rect width="120" height="110" fill="white" transform="translate(0.5)"/>
</clipPath>
</defs>
</svg>
