<svg width="70" height="70" viewBox="0 0 70 70" fill="none" xmlns="http://www.w3.org/2000/svg">
<path d="M34.0566 6.84963C32.6621 7.27346 31.582 8.709 31.582 10.1309C31.582 11.3067 32.5254 12.7695 33.5781 13.207L34.0429 13.3985V14.5469V15.709L33.2637 15.791C29.4492 16.1875 26.7695 16.8438 23.6113 18.1289C22.8047 18.4571 22.1074 18.7305 22.0801 18.7305C22.039 18.7305 22.0117 17.2539 22.0117 15.4629C22.0117 12.2227 22.0117 12.1817 21.7109 11.9766C21.4648 11.7988 20.959 11.7578 18.9765 11.7578H16.543L16.3652 11.3067C15.6269 9.57033 13.4941 8.8047 11.7851 9.65236C9.59764 10.7461 9.2285 13.5625 11.0605 15.2168C11.5527 15.668 12.6738 16.1328 13.2617 16.1328C13.3847 16.1328 13.8086 16.0371 14.2051 15.9141C15.0254 15.668 15.8867 14.9571 16.2832 14.1914L16.543 13.6719H18.3203H20.0976V16.7071V19.7559L18.9765 20.3711C14.2187 22.9961 8.58592 27.6446 4.38865 32.4024C3.06248 33.9063 2.80272 34.3164 2.95311 34.7539C3.18553 35.5196 8.20311 40.7012 10.8691 42.9434C13.4531 45.1172 16.5566 47.291 18.9492 48.6309L20.0976 49.2735V52.5274V55.7813H18.3203H16.543L16.3652 55.3301C15.4219 53.1016 12.2363 52.6231 10.6777 54.4961C8.84569 56.711 10.3906 60.0332 13.2617 60.0469C14.5469 60.0606 15.6816 59.3633 16.2832 58.2149L16.543 57.709L18.9902 57.668C21.164 57.627 21.4648 57.5996 21.7246 57.3672C21.998 57.1211 22.0117 56.9844 22.0117 53.7031C22.0117 51.8438 22.0664 50.3125 22.1211 50.3125C22.1758 50.3125 22.709 50.5176 23.3105 50.7774C26.0996 51.9395 29.3262 52.8008 31.9238 53.0606C34.3027 53.293 34.0429 53.0606 34.0429 54.961V56.6016L33.5781 56.793C32.539 57.2305 31.582 58.6797 31.582 59.8008C31.582 61.0313 32.2929 62.2207 33.3867 62.8223C35.2871 63.875 37.6797 62.8633 38.2676 60.7715C38.4726 60.0469 38.459 59.6504 38.2129 58.8301C37.9804 58.0371 37.1465 57.0938 36.4219 56.793L35.957 56.6016V54.961C35.957 53.0742 35.7793 53.2656 37.666 53.1153C40.1133 52.9238 43.6269 52.0352 46.2793 50.9414C47.1133 50.5996 47.8242 50.3125 47.8926 50.3125C47.9472 50.3125 47.9883 51.8438 47.9883 53.7031C47.9883 56.9844 48.0019 57.1211 48.2754 57.3672C48.5351 57.5996 48.8359 57.627 51.0097 57.668L53.457 57.709L53.7168 58.2149C54.3183 59.3633 55.4531 60.0606 56.7383 60.0469C59.6094 60.0332 61.1543 56.711 59.3222 54.4961C57.7636 52.6231 54.5781 53.1016 53.6347 55.3438L53.457 55.7813H51.6797H49.9023V52.5274V49.2871L51.0781 48.6172C53.5801 47.209 56.5332 45.1172 59.1308 42.9434C61.5918 40.8789 66.459 35.9024 66.9785 34.8906C67.2109 34.4395 67.0605 34.0977 66.1855 33.086C63.5879 30.0645 60.8262 27.3985 57.7226 24.9102C55.9453 23.4883 52.4179 21.0957 50.9004 20.2891L49.9023 19.7559V16.7071V13.6719H51.6797H53.457L53.7168 14.1914C54.1133 14.9571 54.9746 15.668 55.7949 15.9141C56.6836 16.1875 56.7929 16.1875 57.6816 15.9141C60.6211 15.0391 60.9629 11.0195 58.2148 9.65236C56.5058 8.8047 54.373 9.57033 53.6347 11.3067L53.457 11.7578H51.0234C49.041 11.7578 48.5351 11.7988 48.289 11.9766C47.9883 12.1817 47.9883 12.2227 47.9883 15.4766C47.9883 18.5528 47.9746 18.7578 47.7558 18.6621C47.6191 18.6211 46.8398 18.3067 46.0058 17.9785C43.2168 16.8574 40.0586 16.1192 36.75 15.7774L35.957 15.709V14.5606V13.4121L36.4629 13.166C37.5566 12.6465 38.4179 11.3067 38.4179 10.1309C38.4179 9.54298 38.1308 8.709 37.7344 8.13478C37.0097 7.08205 35.2734 6.48049 34.0566 6.84963ZM37.8847 17.8418C44.2285 18.5801 51.2285 21.9571 57.6953 27.4258C60.5664 29.8321 64.8047 34.084 64.8047 34.5352C64.8047 34.7949 60.6758 38.9922 58.789 40.6465C53.1426 45.5957 47.1543 49.0274 41.6445 50.4629C37.5293 51.5293 34.0156 51.6524 30.0097 50.8457C24.3359 49.711 18.4023 46.6211 12.3457 41.6446C10.664 40.25 5.19529 34.836 5.19529 34.5625C5.19529 34.2891 7.83397 31.4453 9.73436 29.6817C15.4082 24.4453 21.2051 20.8223 26.8379 18.9903C30.584 17.7871 34.1797 17.4043 37.8847 17.8418Z" fill="#FF9D4D"/>
<path d="M32.7031 21.2598C29.4902 21.834 26.2773 23.7891 24.3086 26.373C23.4336 27.5352 22.3672 29.709 21.9843 31.1035C21.7383 32.0059 21.6836 32.5937 21.6836 34.4531C21.6699 36.4082 21.7109 36.8594 21.9843 37.8711C24.1718 45.8965 32.5664 50.0117 40.291 46.8535C43.8593 45.3906 46.9355 41.8496 47.9883 37.9395C48.4394 36.2988 48.5078 33.5645 48.1523 31.8281C47.2226 27.3711 44.0781 23.625 39.8535 21.998C39.2519 21.7656 38.3633 21.4922 37.8711 21.3828C36.5312 21.082 34.0429 21.0273 32.7031 21.2598ZM37.0508 23.1875C41.6855 24.0625 45.3359 27.6172 46.2656 32.1562C47.5097 38.2129 43.8457 44.0645 37.8027 45.6777C36.9551 45.9102 36.3125 45.9785 35 45.9785C33.6875 45.9785 33.0449 45.9102 32.1972 45.6777C27.8633 44.5156 24.6093 41.1387 23.7343 36.8867C23.4336 35.4102 23.4472 33.291 23.789 31.8828C25.2246 25.9219 31.1035 22.0527 37.0508 23.1875Z" fill="#FF9D4D"/>
<path d="M32.9629 27.1523C30.3379 27.8633 28.1094 30.2285 27.5351 32.9355C27.166 34.6992 27.3574 36.1211 28.1914 37.8574C30.9121 43.5176 39.0879 43.5176 41.8086 37.8574C42.6426 36.1211 42.834 34.6992 42.4648 32.9355C41.8769 30.2012 39.6484 27.8359 36.9824 27.1387C35.9707 26.8789 33.9473 26.8789 32.9629 27.1523ZM36.0937 31.0352C36.668 31.6094 36.2441 32.6758 35.4375 32.6758C34.918 32.6758 33.9062 33.209 33.5918 33.6602C33.4414 33.8516 33.2773 34.3437 33.209 34.7539C33.0312 35.8613 32.2793 36.2988 31.6094 35.6836C31.0488 35.1641 31.2676 33.6738 32.0742 32.5254C33.0176 31.1582 35.3555 30.2969 36.0937 31.0352Z" fill="#FF9D4D"/>
</svg>
