<svg width="61" height="60" viewBox="0 0 61 60" fill="none" xmlns="http://www.w3.org/2000/svg">
<g clip-path="url(#clip0_517_877)">
<path d="M59.3048 14.7908H35.2211V6.24505C35.2211 5.58493 34.6859 5.04985 34.0259 5.04985H26.9742C26.3142 5.04985 25.779 5.58493 25.779 6.24505V14.7908H1.6952C1.0352 14.7908 0.5 15.3259 0.5 15.986V53.755C0.5 54.4151 1.0352 54.9502 1.6952 54.9502H59.3048C59.9648 54.9502 60.5 54.4151 60.5 53.755V15.986C60.5 15.3259 59.9648 14.7908 59.3048 14.7908ZM28.1694 7.44024H32.8307V19.3327H28.1694V7.44024ZM58.1096 52.5598H2.89039V17.1813H25.7789V19.3328H22.9402C22.2802 19.3328 21.745 19.8679 21.745 20.528C21.745 21.1881 22.2802 21.7232 22.9402 21.7232H26.9741H34.0258H38.0597C38.7197 21.7232 39.2548 21.1881 39.2548 20.528C39.2548 19.8679 38.7197 19.3328 38.0597 19.3328H35.221V17.1813H58.1095L58.1096 52.5598Z" fill="#FF9D4D"/>
<path d="M52.6515 38.9468H36.9457C36.2857 38.9468 35.7505 39.4819 35.7505 40.142C35.7505 40.8021 36.2857 41.3372 36.9457 41.3372H52.6515C53.3115 41.3372 53.8467 40.8021 53.8467 40.142C53.8467 39.4819 53.3115 38.9468 52.6515 38.9468Z" fill="#FF9D4D"/>
<path d="M52.716 31.2723H51.7748C51.1148 31.2723 50.5796 31.8074 50.5796 32.4675C50.5796 33.1276 51.1148 33.6627 51.7748 33.6627H52.716C53.376 33.6627 53.9112 33.1276 53.9112 32.4675C53.9112 31.8074 53.376 31.2723 52.716 31.2723Z" fill="#FF9D4D"/>
<path d="M47.233 31.2723H36.9457C36.2856 31.2723 35.7505 31.8074 35.7505 32.4675C35.7505 33.1276 36.2857 33.6627 36.9457 33.6627H47.233C47.893 33.6627 48.4282 33.1276 48.4282 32.4675C48.4282 31.8074 47.893 31.2723 47.233 31.2723Z" fill="#FF9D4D"/>
<path d="M30.6193 24.1136H8.62732C7.96732 24.1136 7.43213 24.6486 7.43213 25.3088V47.3007C7.43213 47.9609 7.96732 48.4959 8.62732 48.4959H30.6193C31.2793 48.4959 31.8145 47.9609 31.8145 47.3007V25.3088C31.8145 24.6486 31.2793 24.1136 30.6193 24.1136ZM29.4241 46.1055H9.82252V26.5039H29.4241V46.1055Z" fill="#FF9D4D"/>
<path d="M23.1522 36.0688C23.751 35.3063 24.1093 34.3466 24.1093 33.3041C24.1093 30.8305 22.0969 28.8179 19.6231 28.8179C17.1494 28.8179 15.137 30.8304 15.137 33.3041C15.137 34.3466 15.4954 35.3063 16.094 36.0688C13.2922 37.1706 11.3491 39.5405 11.3491 42.2808C11.349 42.9409 11.8842 43.476 12.5442 43.476H26.7017C27.3617 43.476 27.8969 42.9409 27.8969 42.2808C27.8972 39.5405 25.954 37.1706 23.1522 36.0688ZM19.6233 31.2083C20.7788 31.2083 21.7189 32.1485 21.7189 33.304C21.7189 34.4596 20.7787 35.3997 19.6233 35.3997C18.4678 35.3997 17.5276 34.4595 17.5276 33.304C17.5276 32.1485 18.4678 31.2083 19.6233 31.2083ZM13.9523 41.0857C14.641 39.1942 16.9226 37.8015 19.6233 37.8015C22.324 37.8015 24.6055 39.1942 25.2941 41.0857H13.9523Z" fill="#FF9D4D"/>
<path d="M30.4999 8.47874C29.8399 8.47874 29.3047 9.01382 29.3047 9.67394V9.92742C29.3047 10.5875 29.8399 11.1226 30.4999 11.1226C31.1599 11.1226 31.6951 10.5875 31.6951 9.92742V9.67394C31.6951 9.01394 31.1599 8.47874 30.4999 8.47874Z" fill="#FF9D4D"/>
</g>
<defs>
<clipPath id="clip0_517_877">
<rect width="60" height="60" fill="white" transform="translate(0.5)"/>
</clipPath>
</defs>
</svg>
