<svg width="61" height="60" viewBox="0 0 61 60" fill="none" xmlns="http://www.w3.org/2000/svg">
<path d="M3.60559 0.164062C2.35168 0.5625 1.4259 1.37109 0.87512 2.55469L0.558714 3.22266L0.523558 24.0117C0.488401 46.9453 0.453245 45.5859 1.21496 46.7812C1.64856 47.4492 2.08215 47.8359 2.89075 48.2578L3.4884 48.5742L13.3907 48.6328L23.2931 48.6914L23.3282 53.4609L23.3517 58.2422H21.4884C19.8478 58.2422 19.6017 58.2656 19.3556 58.4648C18.9806 58.7695 18.9806 59.4727 19.3556 59.7773C19.6134 59.9883 20.047 60 30.5001 60C40.9532 60 41.3868 59.9883 41.6447 59.7773C42.0197 59.4727 42.0197 58.7695 41.6447 58.4648C41.3986 58.2656 41.1525 58.2422 39.5118 58.2422H37.6486V56.543C37.6486 54.9961 37.6251 54.8203 37.4142 54.6094C37.1212 54.3164 36.5822 54.3047 36.2306 54.5977C35.9611 54.8086 35.9493 54.9023 35.9142 56.5312L35.879 58.2422H30.4884H25.1095V53.4375V48.6328H30.5001H35.8907V49.9688C35.8907 51.1289 35.9259 51.3398 36.1368 51.6094C36.4064 51.9609 36.9806 52.0195 37.3673 51.75C37.5548 51.6094 37.6017 51.3867 37.6486 50.1328L37.7072 48.6914L47.6095 48.6328L57.5118 48.5742L58.0392 48.293C58.8478 47.8711 59.3868 47.4023 59.7853 46.7812C60.547 45.5859 60.5118 46.9453 60.4767 24.0117L60.4415 3.22266L60.1251 2.55469C59.6915 1.61719 58.8947 0.808594 58.004 0.398438L57.2775 0.0585938L30.6759 0.0351562C9.41809 0.0234375 3.98059 0.046875 3.60559 0.164062ZM57.2892 1.98047C57.8751 2.25 58.4376 2.91797 58.6134 3.5625C58.7189 3.91406 58.7423 8.63672 58.7189 20.918L58.6837 37.793H30.5001H2.31653L2.28137 20.918C2.25793 8.63672 2.28137 3.91406 2.38684 3.5625C2.56262 2.91797 3.12512 2.25 3.71106 1.98047C4.17981 1.76953 5.16418 1.75781 30.5001 1.75781C55.8361 1.75781 56.8204 1.76953 57.2892 1.98047ZM58.7189 42.3867C58.6837 45.0938 58.672 45.1875 58.4025 45.668C58.2384 45.9492 57.9103 46.3125 57.6525 46.4883L57.1837 46.8164H30.5001H3.81653L3.34778 46.4883C3.08996 46.3125 2.76184 45.9492 2.59778 45.668C2.32825 45.1875 2.31653 45.0938 2.28137 42.3867L2.24621 39.6094H30.5001H58.754L58.7189 42.3867Z" fill="#FF9D4D"/>
<path d="M17.0819 5.87107C15.2772 6.14061 13.3202 6.84373 11.8085 7.79295C10.5311 8.57811 10.3319 8.96482 10.8475 9.56248C11.2225 9.99607 11.6913 9.98436 12.3475 9.52732C16.2616 6.84373 21.8632 6.84373 25.9061 9.53904C27.0077 10.2656 28.0038 11.2031 28.8007 12.2461L29.4804 13.125L29.1639 13.8281C27.453 17.625 27.4179 21.8554 29.0468 25.4297L29.4804 26.3672L29.0585 26.9883C28.4374 27.8906 26.8319 29.4023 25.7889 30.0937C23.5155 31.5703 20.5858 32.2851 17.996 32.0039C16.3319 31.8281 15.1366 31.4765 13.6835 30.7617C9.66395 28.7812 7.09754 24.9023 6.86317 20.4492C6.72254 17.6836 7.42567 15.1172 8.9491 12.8672C9.46473 12.1172 9.53504 11.6133 9.17176 11.25C8.91395 10.9922 8.46863 10.9453 8.11707 11.1328C7.80067 11.2969 6.72254 13.0547 6.21863 14.2148C3.11317 21.3867 6.54676 29.8125 13.7772 32.7656C19.5429 35.1094 25.9647 33.4804 30.0077 28.6523L30.4999 28.0664L31.1093 28.7695C32.5389 30.4219 33.8163 31.4062 35.7147 32.3437C39.371 34.1601 43.4257 34.3125 47.1757 32.7773C54.3593 29.8476 57.7811 21.7148 54.8866 14.4844C54.1366 12.5976 53.0702 11.0742 51.4296 9.52732C48.9335 7.17186 45.91 5.91795 42.453 5.77732C39.3124 5.66014 36.5702 6.44529 33.91 8.22654C33.0546 8.81248 31.3905 10.3594 30.8163 11.1328L30.4999 11.5429L30.1952 11.1328C29.6327 10.3828 27.8632 8.74217 27.0311 8.19139C24.1014 6.23436 20.4569 5.37889 17.0819 5.87107ZM44.9725 7.89842C50.1522 9.24607 53.8554 13.7929 54.1366 19.1719C54.3944 24.0586 51.7343 28.5703 47.3163 30.7617C43.3905 32.7187 38.8905 32.4492 35.1639 30.0586C33.9804 29.2969 32.2108 27.4804 31.4608 26.25C29.6561 23.3086 29.1405 19.8047 30.0429 16.5117C30.3944 15.1992 31.4257 13.207 32.3046 12.1054C34.0038 10.0078 36.453 8.43748 38.996 7.85154C40.3788 7.52342 40.496 7.5117 42.2186 7.55857C43.4491 7.58201 44.0585 7.66404 44.9725 7.89842Z" fill="#FF9D4D"/>
<path d="M33.9219 15.2695C33.6758 15.539 33.6641 15.6211 33.6641 18.7031C33.6758 22.0898 33.7109 22.3711 34.2969 23.1445C35.0703 24.1523 36.6172 24.75 37.8359 24.5039C38.1992 24.4336 38.7383 24.2578 39.0195 24.1172C39.6875 23.7773 40.4961 22.8984 40.6719 22.289C40.7656 21.9844 40.8125 20.7656 40.8125 18.6445C40.8125 15.6211 40.8008 15.457 40.5781 15.2344C40.2852 14.9414 39.7461 14.9297 39.3945 15.2226C39.1133 15.4453 39.1133 15.457 39.0547 18.6914L38.9961 21.9375L38.6211 22.2656C38.2578 22.5937 37.6016 22.8515 37.1328 22.8515C36.7227 22.8515 35.8672 22.3594 35.6445 21.9844C35.4453 21.6562 35.4219 21.3633 35.4219 18.5976V15.5742L35.1289 15.2929C34.7656 14.9179 34.2617 14.9062 33.9219 15.2695Z" fill="#FF9D4D"/>
<path d="M43.2383 15.1289C42.9454 15.3047 42.793 15.7617 42.9102 16.1016C42.9688 16.2422 43.4727 17.0156 44.0352 17.8125C44.5977 18.6094 45.0782 19.3242 45.1133 19.418C45.1485 19.5 44.6094 20.3789 43.9063 21.3516C43.2149 22.3359 42.5938 23.2852 42.5235 23.4609C42.2891 24.0938 42.8868 24.7148 43.5782 24.5391C43.7891 24.4805 44.2227 23.9648 45.0664 22.7812C45.711 21.8555 46.2852 21.0938 46.3204 21.1055C46.3555 21.1055 46.8829 21.832 47.4922 22.7109C48.1133 23.5898 48.7579 24.3867 48.9336 24.4922C49.2149 24.6445 49.2852 24.6445 49.5664 24.4922C50.0118 24.2461 50.1993 23.8359 50.0586 23.4609C49.9883 23.2969 49.4024 22.3945 48.7461 21.457C48.0899 20.5312 47.5157 19.6992 47.4688 19.6289C47.4102 19.5469 47.8086 18.8789 48.4297 18C49.0039 17.1797 49.5313 16.418 49.6016 16.2891C50.0118 15.5273 49.2032 14.707 48.4414 15.1055C48.3243 15.1758 47.8321 15.8086 47.3282 16.5117C46.8243 17.2266 46.3789 17.8359 46.3321 17.8711C46.2852 17.8945 45.8516 17.3555 45.3829 16.6758C44.9141 15.9961 44.4336 15.3398 44.3047 15.2109C44.0704 14.9766 43.5664 14.9414 43.2383 15.1289Z" fill="#FF9D4D"/>
<path d="M13.6719 15.293L13.3789 15.586L13.4141 18.8438L13.4492 22.0899L13.7891 22.711C14.4453 23.8828 15.6055 24.5391 17.0234 24.5391C17.7617 24.5508 18.0195 24.4922 18.582 24.211C19.4141 23.8125 20.0117 23.2266 20.3516 22.5117C20.5742 22.0078 20.5977 21.7383 20.6328 18.7852L20.668 15.586L20.375 15.293C20 14.918 19.4961 14.9063 19.1562 15.2695C18.9219 15.5156 18.9102 15.6563 18.875 18.6563L18.8398 21.7735L18.5469 22.1016C17.7383 22.9805 16.5312 23.0508 15.6875 22.2656L15.207 21.8086L15.1719 18.668C15.1367 15.6563 15.125 15.5156 14.8906 15.2695C14.5508 14.9063 14.0469 14.918 13.6719 15.293Z" fill="#FF9D4D"/>
<path d="M23.3398 15.2226L23.0586 15.4453V19.7461V24.0469L23.3867 24.3281C23.7852 24.668 24.043 24.6797 24.4531 24.3633L24.7578 24.1289V19.793C24.7578 15.6211 24.7461 15.457 24.5234 15.2344C24.2305 14.9414 23.6914 14.9297 23.3398 15.2226Z" fill="#FF9D4D"/>
<path d="M28.1214 42.6328C27.8401 42.9492 27.8636 43.6289 28.1683 43.8984C28.3909 44.0977 28.6136 44.1211 30.5003 44.1211C32.387 44.1211 32.6097 44.0977 32.8323 43.8984C33.1487 43.6055 33.1722 42.8906 32.8675 42.6211C32.68 42.4453 32.3401 42.4219 30.4769 42.4219C28.5316 42.4219 28.2855 42.4453 28.1214 42.6328Z" fill="#FF9D4D"/>
</svg>
