<svg width="61" height="54" viewBox="0 0 61 54" fill="none" xmlns="http://www.w3.org/2000/svg">
<g clip-path="url(#clip0_517_866)">
<path d="M46.9711 0L14.0289 0C6.56889 0 0.5 5.462 0.5 12.176L0.5 41.824C0.5 48.538 6.56889 54 14.0289 54H46.9711C54.4311 54 60.5 48.538 60.5 41.824V12.176C60.5 5.462 54.4311 0 46.9711 0ZM58.2778 41.824C58.2778 47.435 53.2056 52 46.9711 52H14.0289C7.79444 52 2.72222 47.435 2.72222 41.824L2.72222 12.176C2.72222 6.565 7.79444 2 14.0289 2L46.9711 2C53.2056 2 58.2778 6.565 58.2778 12.176V41.824Z" fill="#FF9D4D"/>
<path d="M22.5442 12L13.3887 40H16.8553L19.7887 30.96H29.0331L32.0998 40H35.6998L26.2331 12H22.5442ZM20.6331 28L24.3664 16.64L28.2331 28H20.6331Z" fill="#FF9D4D"/>
<path d="M41.4543 11.6C40.9654 11.6 40.5354 11.767 40.1654 12.1C39.7943 12.434 39.6099 12.814 39.6099 13.241C39.6099 13.668 39.7943 14.048 40.1654 14.381C40.5354 14.715 40.9654 14.881 41.4543 14.881C41.9432 14.881 42.3654 14.721 42.721 14.402C43.0765 14.082 43.2543 13.695 43.2543 13.242C43.2543 12.789 43.0776 12.4 42.7221 12.08C42.3665 11.76 41.9443 11.6 41.4543 11.6Z" fill="#FF9D4D"/>
<path d="M42.9876 19.96H39.7876V40H42.9876V19.96Z" fill="#FF9D4D"/>
</g>
<defs>
<clipPath id="clip0_517_866">
<rect width="60" height="54" fill="white" transform="translate(0.5)"/>
</clipPath>
</defs>
</svg>
