<svg width="61" height="54" viewBox="0 0 61 54" fill="none" xmlns="http://www.w3.org/2000/svg">
<g clip-path="url(#clip0_517_872)">
<path d="M46.9711 0H14.0289C6.56889 0 0.5 5.462 0.5 12.176V41.824C0.5 48.538 6.56889 54 14.0289 54H46.9711C54.4311 54 60.5 48.538 60.5 41.824V12.176C60.5 5.462 54.4311 0 46.9711 0ZM58.2778 41.824C58.2778 47.435 53.2056 52 46.9711 52H14.0289C7.79444 52 2.72222 47.435 2.72222 41.824V12.176C2.72222 6.565 7.79444 2 14.0289 2H46.9711C53.2056 2 58.2778 6.565 58.2778 12.176V41.824Z" fill="#FF9D4D"/>
<path d="M22.6335 12H11.9224V40H15.1224V30.8H22.9446C24.4557 30.8 25.759 30.554 26.8557 30.06C27.9513 29.567 28.7668 28.995 29.3001 28.34C29.8335 27.687 30.2557 26.847 30.5668 25.82C30.8779 24.794 31.0624 23.94 31.1224 23.259C31.1812 22.579 31.2113 21.773 31.2113 20.839C31.2113 18.199 30.5068 16.066 29.1001 14.44C27.6924 12.813 25.5368 12 22.6335 12ZM27.989 22.6C27.9735 23 27.8701 23.6 27.6779 24.401C27.4857 25.201 27.2179 25.814 26.8779 26.241C26.5368 26.668 25.9957 27.067 25.2557 27.441C24.5146 27.813 23.6113 28 22.5446 28H15.1224V14.8H22.3668C26.129 14.8 28.0113 16.827 28.0113 20.88C28.0113 21.627 28.0035 22.2 27.989 22.6Z" fill="#FF9D4D"/>
<path d="M46.3 29.44C45.1289 29.013 43.9511 28.627 42.7667 28.28C41.5811 27.933 40.5145 27.507 39.5667 27C38.6178 26.494 38.1445 25.8 38.1445 24.92C38.1445 24.12 38.5223 23.46 39.2778 22.941C40.0334 22.42 41.1811 22.161 42.7223 22.161C44.2623 22.161 45.5067 22.495 46.4556 23.161L47.4778 20.64L46.9445 20.36C46.5889 20.173 45.9956 19.98 45.1667 19.78C44.3367 19.58 43.4478 19.48 42.5 19.48C39.8034 19.48 37.8556 20.059 36.6556 21.219C35.4556 22.379 34.8556 23.633 34.8556 24.98C34.8556 26.327 35.4034 27.466 36.5 28.4C37.3889 29.2 38.4189 29.787 39.5889 30.16C40.7589 30.534 41.9223 30.887 43.0778 31.22C44.2334 31.554 45.2111 32.007 46.0111 32.58C46.8111 33.153 47.2111 33.927 47.2111 34.9C47.2111 35.873 46.7445 36.62 45.8111 37.139C44.8778 37.66 43.7734 37.919 42.5 37.919C41.2267 37.919 40.1 37.646 39.1223 37.099C38.1445 36.553 37.5956 35.786 37.4778 34.799L34.3667 34.919C34.4256 36.519 35.1811 37.866 36.6334 38.959C38.0845 40.052 40.0923 40.599 42.6556 40.599C45.2178 40.599 47.1667 40.045 48.5 38.94C49.8334 37.834 50.5 36.534 50.5 35.04C50.5 33.547 50.0923 32.347 49.2778 31.44C48.4634 30.533 47.47 29.867 46.3 29.44Z" fill="#FF9D4D"/>
</g>
<defs>
<clipPath id="clip0_517_872">
<rect width="60" height="54" fill="white" transform="translate(0.5)"/>
</clipPath>
</defs>
</svg>
