<svg width="66" height="65" viewBox="0 0 66 65" fill="none" xmlns="http://www.w3.org/2000/svg">
<g clip-path="url(#clip0_517_899)">
<path d="M43.2144 9.41675H22.7856C20.3724 9.41675 18.4092 11.3765 18.4092 13.7858V28.4195C18.4092 30.8295 20.3724 32.7902 22.7856 32.7902H28.3414L31.8501 38.87C32.087 39.2806 32.5248 39.5336 32.9989 39.5336C33.4728 39.5336 33.9108 39.2807 34.1478 38.8704L37.6584 32.7903H43.2146C45.6288 32.7903 47.593 30.8295 47.593 28.4196V13.7858C47.5929 11.3768 45.6287 9.41675 43.2144 9.41675ZM44.9398 28.4195C44.9398 29.3668 44.1658 30.1371 43.2144 30.1371H36.8925C36.4188 30.1371 35.9806 30.39 35.7437 30.8004L32.9993 35.5535L30.2564 30.8006C30.0196 30.3899 29.5816 30.137 29.1075 30.137H22.7856C21.8353 30.137 21.0622 29.3664 21.0622 28.4193V13.7858C21.0622 12.8397 21.8353 12.0698 22.7855 12.0698H43.2143C44.1657 12.0698 44.9397 12.8397 44.9397 13.7858V28.4195H44.9398Z" fill="#FF9D4D"/>
<path d="M37.6551 19.9554L30.9042 16.0663C30.4938 15.83 29.9884 15.8302 29.5782 16.0672C29.168 16.3042 28.9155 16.7419 28.9155 17.2157V24.9919C28.9155 25.4654 29.1682 25.9031 29.5781 26.1403C29.7834 26.2591 30.0127 26.3184 30.2421 26.3184C30.4704 26.3184 30.6991 26.2595 30.904 26.1414L37.6549 22.2544C38.0661 22.0177 38.3195 21.5795 38.3195 21.1049C38.3193 20.6307 38.0662 20.1922 37.6551 19.9554ZM31.5685 22.6973V19.5107L34.3348 21.1043L31.5685 22.6973Z" fill="#FF9D4D"/>
<path d="M64.1735 40.1955H60.4592H44.6293H40.915H25.085H21.3707H5.5408H1.82653C1.09389 40.1955 0.5 40.7895 0.5 41.5221V54.2567C0.5 54.9892 1.09389 55.5833 1.82653 55.5833H5.5408C6.27345 55.5833 6.86733 54.9892 6.86733 54.2567V50.2331H20.0442V54.2567C20.0442 54.9892 20.6381 55.5833 21.3707 55.5833H25.085C25.8176 55.5833 26.4115 54.9892 26.4115 54.2567V50.2331H39.5885V54.2567C39.5885 54.9892 40.1824 55.5833 40.915 55.5833H44.6293C45.3619 55.5833 45.9558 54.9892 45.9558 54.2567V50.2331H59.1327V54.2567C59.1327 54.9892 59.7266 55.5833 60.4592 55.5833H64.1735C64.9061 55.5833 65.5 54.9892 65.5 54.2567V41.5221C65.5 40.7894 64.9061 40.1955 64.1735 40.1955ZM4.21427 48.9065V52.9302H3.15307V42.8486H4.21427V48.9065ZM20.0442 47.58H6.86733V42.8486H20.0442V47.58ZM23.7584 52.9302H22.6972V48.9065V42.8486H23.7584V52.9302ZM39.5885 47.58H26.4116V42.8486H39.5885V47.58ZM43.3028 48.9065V52.9302H42.2416V42.8486H43.3028V48.9065ZM59.1327 47.58H45.9558V42.8486H59.1327V47.58ZM62.8469 52.9302H61.7857V48.9065V42.8486H62.8469V52.9302Z" fill="#FF9D4D"/>
<path d="M23.9354 18.9033C23.2028 18.9033 22.6089 19.4973 22.6089 20.2299V27.3749C22.6089 28.1077 23.2029 28.7014 23.9354 28.7014C24.6681 28.7014 25.262 28.1074 25.262 27.3749V20.2299C25.262 19.4972 24.6681 18.9033 23.9354 18.9033Z" fill="#FF9D4D"/>
<path d="M23.9354 12.7324C23.2028 12.7324 22.6089 13.3264 22.6089 14.0589V16.232C22.6089 16.9646 23.2028 17.5585 23.9354 17.5585C24.6681 17.5585 25.262 16.9645 25.262 16.232V14.0589C25.262 13.3264 24.6681 12.7324 23.9354 12.7324Z" fill="#FF9D4D"/>
</g>
<defs>
<clipPath id="clip0_517_899">
<rect width="65" height="65" fill="white" transform="translate(0.5)"/>
</clipPath>
</defs>
</svg>
