<svg width="70" height="70" viewBox="0 0 70 70" fill="none" xmlns="http://www.w3.org/2000/svg">
<g clip-path="url(#clip0_634_964)">
<path d="M30.9668 2.61133L27.002 5.07227L24.2676 4.99023C22.7637 4.94922 20.6445 4.88086 19.5508 4.83984L17.5684 4.77148L15.3262 8.92773L13.084 13.084L8.94141 15.3262L4.79883 17.5684L4.88086 20.8633L4.96289 24.1719L3.60938 24.2266C2.57031 24.2676 2.11914 24.3496 1.68164 24.582C0.998047 24.9375 0.369141 25.6758 0.150391 26.373C-0.0683594 27.1113 -0.0683594 42.8887 0.150391 43.627C0.369141 44.3242 0.998047 45.0625 1.68164 45.418C2.11914 45.6504 2.57031 45.7324 3.60938 45.7734L4.96289 45.8281L4.88086 49.1367L4.79883 52.4316L8.94141 54.6602L13.084 56.9023L15.3262 61.0586L17.5684 65.2285L19.5508 65.1602C20.6445 65.1191 22.7637 65.0508 24.2676 65.0098L27.002 64.9277L30.9941 67.4023L35 69.877L39.0332 67.3887L43.0664 64.9141L45.9102 64.9961C47.4688 65.0508 49.5742 65.1191 50.5859 65.1602L52.4316 65.2422L54.6738 61.0723L56.916 56.916L61.0586 54.6738L65.2012 52.4453L65.1191 49.1367L65.0371 45.8281L66.3906 45.7734C68.3047 45.6914 69.0977 45.2402 69.7129 43.8867C69.9863 43.2852 70 43.0254 70 35.082C70 29.3398 69.959 26.7422 69.8496 26.373C69.6309 25.6758 69.002 24.9375 68.3184 24.582C67.8809 24.3496 67.4297 24.2676 66.3906 24.2266L65.0371 24.1719L65.1191 20.8633L65.2012 17.5684L61.0586 15.3262L56.916 13.084L54.6738 8.92773L52.4316 4.75781L50.5859 4.83984C49.5742 4.88086 47.4688 4.96289 45.8965 5.00391L43.0664 5.08594L39.0469 2.61133C36.832 1.24414 35.0137 0.136719 34.9863 0.136719C34.959 0.150391 33.1543 1.25781 30.9668 2.61133ZM38.7734 4.86719L42.4512 7.13672L46.2109 7.04102C48.2754 7 50.2441 6.93164 50.5859 6.89062L51.2012 6.82227L53.293 10.7188L55.3848 14.6016L58.6934 16.3789C60.5117 17.3633 62.2617 18.3066 62.5898 18.4844C63.1504 18.7852 63.1777 18.8262 63.1094 19.2773C63.0684 19.5371 63.0273 20.7539 63.0273 21.9707V24.1992H60.6484H58.2559L57.5586 22.8594C54.7148 17.4453 49.4512 12.9062 43.6133 10.8828C40.5508 9.80273 38.3496 9.43359 35.0137 9.43359C31.7324 9.43359 29.4355 9.81641 26.3867 10.8828C24.9922 11.3613 22.1074 12.7285 21.957 12.9746C21.9023 13.043 22.0938 13.4668 22.3535 13.918L22.8457 14.7383L24.4043 13.9453C26.168 13.0566 28.2598 12.332 30.2832 11.8945C32.3887 11.4297 36.5449 11.3613 38.7598 11.7305C44.8574 12.7832 50.1074 15.9277 53.7988 20.7812C54.4688 21.6699 55.918 23.9531 55.918 24.1309C55.918 24.1719 46.5117 24.1992 35 24.1992C23.502 24.1992 14.082 24.1582 14.082 24.1172C14.082 23.9258 15.5039 21.6973 16.2148 20.7539C17.4316 19.168 19.6191 17.0352 21.1777 15.9004C21.2324 15.8594 20.7812 15.1895 20.2617 14.5195L20.0156 14.1914L18.9219 15.0527C16.2832 17.1445 13.7266 20.2754 12.25 23.2012L11.7578 24.1992H9.36523H6.97266V21.9707C6.97266 20.7539 6.93164 19.5371 6.89062 19.2773L6.80859 18.7988L10.7051 16.6934L14.6016 14.6016L16.6934 10.7188L18.7988 6.82227L19.4824 6.89062C19.8652 6.93164 21.834 7 23.8574 7.04102L27.5488 7.13672L31.2266 4.86719C33.25 3.62305 34.959 2.59766 35.0137 2.59766C35.0547 2.59766 36.7637 3.62305 38.7734 4.86719ZM67.6895 26.6465C67.9355 26.9473 67.9492 27.2891 67.9492 35C67.9492 42.7109 67.9355 43.0527 67.6895 43.3535L67.4297 43.6816L52.7051 43.7227L37.9941 43.75L38.0352 44.748L38.0762 45.7324L47.0039 45.7734C51.8984 45.7871 55.918 45.8281 55.918 45.8691C55.918 46.0742 54.4277 48.3984 53.6211 49.4238C50.2305 53.8125 45.2539 56.916 39.7168 58.1055C37.5977 58.5703 33.4277 58.6387 31.2402 58.2695C25.2246 57.2305 20.0566 54.168 16.3926 49.4512C15.5586 48.3711 14.082 46.1016 14.082 45.8828C14.082 45.8418 18.1016 45.7871 23.0098 45.7734L31.9238 45.7324L31.9648 44.748L32.0059 43.75L17.2949 43.7227L2.57031 43.6816L2.31055 43.3535C2.06445 43.0527 2.05078 42.7109 2.05078 35.041C2.05078 29.6543 2.0918 26.9609 2.20117 26.7832C2.2832 26.6328 2.47461 26.4551 2.63867 26.3867C2.81641 26.3184 16.7754 26.2773 35.1777 26.291L67.4297 26.3184L67.6895 26.6465ZM12.4414 47.127C15.9141 53.7715 22.5176 58.625 30.2148 60.1836C31.6094 60.457 32.1699 60.498 35.0684 60.498C38.1035 60.4844 38.4727 60.457 40.0723 60.1289C44.6113 59.1445 48.7676 57.0664 52.0898 54.0996C54.2363 52.1719 56.2871 49.5742 57.5586 47.127L58.2559 45.8008H60.6484H63.0273V48.0156C63.0273 49.2461 63.0684 50.4629 63.1094 50.7227L63.1777 51.2012L59.2949 53.3066L55.3984 55.4121L53.293 59.2949L51.2012 63.1777L50.5859 63.1094C50.2441 63.0684 48.2754 63 46.2109 62.959L42.4512 62.8633L38.7734 65.1328C36.7637 66.377 35.0547 67.4023 35.0137 67.4023C34.959 67.4023 33.25 66.377 31.2266 65.1328L27.5488 62.8633L23.8574 62.959C21.834 63 19.8652 63.0684 19.4824 63.1094L18.7988 63.1777L16.6934 59.2812L14.5879 55.3848L10.7051 53.293L6.80859 51.2012L6.89062 50.7227C6.93164 50.4629 6.97266 49.2461 6.97266 48.0156V45.8008H9.35156H11.7441L12.4414 47.127Z" fill="#FF9D4D"/>
<path d="M41.1523 16.543V17.6367H42.1777H43.2031V16.543V15.4492H42.1777H41.1523V16.543Z" fill="#FF9D4D"/>
<path d="M45.2539 18.5938V19.6875H46.2793H47.3047V18.5938V17.5H46.2793H45.2539V18.5938Z" fill="#FF9D4D"/>
<path d="M7.90234 29.8867C7.83398 29.9414 7.79297 32.2793 7.79297 35.0957V40.1953H9.95312C12.373 40.1953 12.8789 40.0996 13.6855 39.4707C15.1484 38.3633 15.3262 36.0391 14.0684 34.6445C13.8223 34.3848 13.8223 34.3301 14.0273 33.7148C14.4785 32.4023 13.9316 30.9531 12.7422 30.2559C12.127 29.8867 12.0039 29.873 10.0488 29.832C8.92773 29.8047 7.95703 29.832 7.90234 29.8867ZM11.8125 32.1426C12.2363 32.4844 12.2773 32.9766 11.8945 33.3594C11.6758 33.5781 11.4434 33.6328 10.7324 33.6328H9.84375V32.8398C9.84375 32.4023 9.88477 31.9922 9.93945 31.9512C9.98047 31.8965 10.3496 31.8555 10.7324 31.8555C11.252 31.8555 11.5527 31.9375 11.8125 32.1426ZM12.209 35.8477C12.6465 36.0801 12.8379 36.3809 12.8516 36.873C12.8516 37.8437 12.4004 38.1445 10.8691 38.1445H9.84375V36.9141V35.6836H10.8828C11.4434 35.6836 12.0449 35.752 12.209 35.8477Z" fill="#FF9D4D"/>
<path d="M19.0039 35V40.1953H20.0293H21.041L21.082 38.5273L21.123 36.873L22.5586 38.5957C23.3516 39.5391 24.0488 40.3184 24.1035 40.3184C24.2539 40.332 25.5664 39.1973 25.5664 39.0605C25.5664 38.9922 25.0469 38.3359 24.4043 37.584C23.7617 36.832 23.2422 36.1621 23.2422 36.1074C23.2422 36.0391 23.3789 35.957 23.5566 35.9023C24.0488 35.7793 24.8418 35.041 25.1426 34.4121C25.7441 33.1543 25.4023 31.4863 24.3633 30.625C23.5977 29.9961 22.7637 29.8047 20.7539 29.8047H19.0039V35ZM22.8184 32.0605C23.2559 32.2793 23.3789 32.5117 23.3789 33.0859C23.3789 33.7695 22.7363 34.1797 21.6562 34.1797H21.0547V33.0176V31.8555H21.7383C22.1211 31.8555 22.6133 31.9512 22.8184 32.0605Z" fill="#FF9D4D"/>
<path d="M31.541 34.002C30.666 36.3125 29.8184 38.5274 29.668 38.9239L29.4082 39.6211L30.3105 39.9766C30.8164 40.168 31.2539 40.2911 31.2949 40.25C31.3359 40.209 31.5684 39.7032 31.7871 39.129L32.2109 38.0762L34.002 38.0352L35.793 37.9942L36.2441 39.17C36.7227 40.4688 36.6133 40.4141 37.8711 39.9219C38.1992 39.7989 38.4863 39.6348 38.5137 39.5665C38.5273 39.4981 37.7207 37.2832 36.7363 34.6582L34.918 29.8731L34.0293 29.8321L33.1406 29.7911L31.541 34.002ZM34.4941 34.5215C34.6855 35.0411 34.877 35.5879 34.9316 35.711C35.0137 35.9297 34.9316 35.9571 34.0566 35.9571C33.5234 35.9571 33.0859 35.9161 33.0859 35.8477C33.0859 35.5879 33.9746 33.3731 34.0566 33.4688C34.0977 33.5235 34.3027 33.9883 34.4941 34.5215Z" fill="#FF9D4D"/>
<path d="M42.6562 35V40.1953H43.6816H44.707L44.7344 37.0508L44.7754 33.9199L46.6895 36.9824L48.6035 40.0586H49.6016H50.5859V34.9316V29.8047H49.5605H48.5352L48.5078 32.8809L48.4668 35.957L46.5527 32.8809L44.6387 29.8184L43.6543 29.8047H42.6562V35Z" fill="#FF9D4D"/>
<path d="M54.5508 34.8496V39.9219H56.5059C58.6934 39.9219 59.1719 39.8262 60.1152 39.1973C62.4258 37.6523 62.8496 33.3594 60.8945 31.1855C59.8828 30.0645 59.377 29.9004 56.7793 29.832L54.5508 29.7773V34.8496ZM59.0215 32.2109C60.4434 33.2363 60.4297 36.4766 59.0215 37.4883C58.6934 37.7207 58.3516 37.8164 57.5996 37.8574L56.6016 37.8984V34.8633V31.8281L57.6133 31.8828C58.3652 31.9102 58.7344 32.0059 59.0215 32.2109Z" fill="#FF9D4D"/>
<path d="M33.9336 44.7344L33.9746 45.7324H35H36.0254L36.0664 44.7344L36.1074 43.75H35H33.8926L33.9336 44.7344Z" fill="#FF9D4D"/>
</g>
<defs>
<clipPath id="clip0_634_964">
<rect width="70" height="70" fill="white"/>
</clipPath>
</defs>
</svg>
