<svg width="70" height="70" viewBox="0 0 70 70" fill="none" xmlns="http://www.w3.org/2000/svg">
<path d="M34.5352 1.03906C34.3711 1.20312 34.3164 1.55859 34.3164 2.59766C34.3164 4.01953 34.4531 4.375 35 4.375C35.5469 4.375 35.6836 4.01953 35.6836 2.59766C35.6836 1.17578 35.5469 0.820312 35 0.820312C34.8633 0.820312 34.6445 0.916016 34.5352 1.03906Z" fill="#FF9D4D"/>
<path d="M22.7773 4.86719C22.6543 4.97656 22.5586 5.19531 22.5586 5.33203C22.5586 5.66016 24.4316 7.65625 24.7324 7.65625C25.1152 7.65625 25.4707 7.16406 25.375 6.80859C25.252 6.35742 23.584 4.64844 23.2559 4.64844C23.1055 4.64844 22.8867 4.74414 22.7773 4.86719Z" fill="#FF9D4D"/>
<path d="M45.5817 5.56445C45.1032 6.08398 44.6657 6.63086 44.6247 6.80859C44.529 7.16406 44.8844 7.65625 45.2672 7.65625C45.568 7.65625 47.4411 5.66016 47.4411 5.33203C47.4411 5.00391 47.0856 4.64844 46.7438 4.64844C46.5797 4.64844 46.1012 5.03125 45.5817 5.56445Z" fill="#FF9D4D"/>
<path d="M32.8125 6.43945C28.5469 6.98632 24.6777 9.54296 22.9961 12.9199C21.4648 16.0098 21.4238 20.3848 22.9004 23.7344C23.0918 24.1582 23.2285 24.5273 23.2148 24.5547C23.1875 24.5683 22.8457 24.8281 22.4492 25.1289C22.0391 25.4297 21.4785 25.9902 21.1777 26.3867C20.3848 27.4394 20.2207 28.1777 20.2617 30.4336C20.3027 32.3203 20.3027 32.334 19.8926 33.0723C19.6328 33.5508 19.168 34.0703 18.5664 34.5488C16.8301 35.957 16.3379 36.9004 16.3379 38.8965C16.3379 40.168 16.3652 40.332 16.7891 41.1797C17.1309 41.8906 17.5 42.3281 18.457 43.2031C20.1934 44.7891 20.3027 45.0488 20.3027 47.7148C20.3027 49.7246 20.3164 49.875 20.6582 50.5996C21.1094 51.5566 21.8203 52.3496 22.7363 52.9238C23.1328 53.1699 23.4746 53.3887 23.4883 53.4023C23.5156 53.4297 22.3672 55.9316 20.9316 58.9668C19.4961 62.0156 18.3203 64.6133 18.3203 64.7637C18.3203 65.1055 18.5801 65.3516 18.9219 65.3516C19.0859 65.3516 20.4668 64.9551 22.0117 64.4766C23.543 63.9844 24.8145 63.6016 24.8281 63.6152C24.8281 63.6289 25.4844 64.8594 26.2637 66.3496C27.7539 69.1933 28.0137 69.4805 28.5469 69.0019C28.6836 68.8789 29.709 66.1992 30.8301 63.0273C32.7031 57.7637 32.9082 57.2851 33.1543 57.3535C34.2891 57.6953 35.1367 57.7363 36.1211 57.5312C36.668 57.4082 37.1328 57.3262 37.1602 57.3398C37.1738 57.3672 38.1172 59.9512 39.2383 63.1094C40.373 66.2539 41.3984 68.9199 41.5215 69.0156C42.0957 69.4394 42.2598 69.248 43.8184 66.2812C44.666 64.6816 45.2949 63.6426 45.4043 63.6562C45.5137 63.6699 46.8398 64.0664 48.3711 64.5449C51.3516 65.4746 51.5703 65.4883 51.6523 64.75C51.6797 64.5039 50.9004 62.6992 49.1504 59.0215C47.7422 56.082 46.5664 53.5937 46.5391 53.5117C46.498 53.4297 46.6621 53.2793 46.9082 53.1836C47.6191 52.8828 48.9043 51.5293 49.3281 50.6269C49.6836 49.875 49.6973 49.7383 49.6973 47.7148C49.7109 45.0078 49.793 44.8027 51.5156 43.2305C52.5 42.3281 52.8691 41.8906 53.2109 41.1797C53.6348 40.332 53.6621 40.168 53.6621 38.8965C53.6621 36.9004 53.1699 35.957 51.4336 34.5488C50.832 34.0703 50.3672 33.5508 50.1074 33.0723C49.6973 32.334 49.6973 32.3203 49.7383 30.4336C49.7656 29.0391 49.7109 28.3281 49.5605 27.8086C49.3008 26.8926 48.3301 25.6211 47.4551 25.0332L46.7715 24.5683L46.9766 24.0762C47.9746 21.7383 48.1934 20.6719 48.1797 18.1836C48.166 15.873 47.9062 14.6836 47.0449 12.9199C45.9512 10.7187 44.2695 9.09179 41.7676 7.86132C39.0195 6.5078 35.998 6.02929 32.8125 6.43945ZM38.6094 8.12109C41.9727 8.98241 44.543 10.9238 45.8555 13.5898C46.6074 15.0937 46.8125 16.1738 46.8125 18.3887C46.7988 21.5742 46.1289 23.3379 43.6133 26.9336C41.8906 29.3945 41.084 30.9941 40.7832 32.498L40.5645 33.6328H35.0137H29.4629L29.2305 32.4433C28.9297 30.8711 28.2598 29.5449 26.4688 27.0019C24.2539 23.8437 23.5293 22.1758 23.2422 19.5918C22.9551 16.9121 23.5293 14.3555 24.8691 12.3867C25.4023 11.5937 26.8789 10.2266 27.8223 9.63866C29.3945 8.66796 31.0898 8.09374 33.4277 7.73827C34.5078 7.57421 37.2832 7.77929 38.6094 8.12109ZM25.334 27.7539C26.0449 28.7793 26.8242 29.9824 27.0703 30.4473L27.5078 31.2812L26.7969 32.1426C23.2012 36.6133 23.5977 42.7519 27.7266 46.6484C31.8691 50.5449 38.2129 50.5449 42.3008 46.6348C46.416 42.6973 46.7852 36.5996 43.2031 32.1562L42.5059 31.2949L42.998 30.3926C43.6953 29.1348 45.9785 25.8535 46.1699 25.8535C46.498 25.8262 47.8242 27.207 48.1113 27.8769C48.3574 28.4785 48.3984 28.7656 48.3574 30.5156C48.3301 32.293 48.3574 32.5391 48.6445 33.25C48.959 34.0293 49.5879 34.7539 51.0234 36.0391C52.2129 37.1055 52.623 38.5547 52.1719 40.1133C51.9395 40.9199 51.6387 41.2754 49.9297 42.8203C49.4375 43.2578 49.0684 43.7637 48.7676 44.3926C48.3301 45.3223 48.3301 45.3359 48.3574 47.2637C48.3984 49.4512 48.2754 50.0117 47.5234 50.9141C47.2637 51.2285 46.7305 51.666 46.334 51.8848C45.6094 52.2949 45.5684 52.2949 43.4082 52.2949C41.3027 52.2949 41.1934 52.3086 40.4551 52.6641C39.6484 53.0742 39.0195 53.6211 37.9805 54.8516C37.1055 55.8769 36.3398 56.2461 35 56.2461C33.6328 56.2461 32.8945 55.8906 31.9512 54.7832C30.8848 53.5254 30.3652 53.0742 29.5312 52.6641C28.8066 52.3086 28.6973 52.2949 26.5918 52.2949C24.4316 52.2949 24.3906 52.2949 23.666 51.8848C23.2695 51.666 22.7363 51.2422 22.4766 50.9414C21.752 50.0937 21.6016 49.4375 21.6426 47.2363C21.6699 45.3496 21.6699 45.3086 21.2461 44.4199C20.959 43.832 20.5625 43.2851 20.0977 42.8476C18.2656 41.1523 18.0605 40.9199 17.8281 40.1133C17.3223 38.3769 17.8555 36.8867 19.4277 35.6152C20.5352 34.7129 21.1367 33.8789 21.4922 32.7578C21.7246 32.0469 21.7383 31.6914 21.6699 30.2695C21.5742 28.7519 21.6016 28.5742 21.875 27.918C22.2031 27.166 23.5293 25.7851 23.8711 25.8672C23.9668 25.8945 24.623 26.7422 25.334 27.7539ZM28.4785 39.9492C28.8887 40.6601 29.6816 41.207 30.502 41.3574C30.9941 41.4531 31.0078 41.4668 31.0625 42.1641C31.1309 43.0391 31.5273 43.6543 32.293 44.0371C32.7852 44.2969 33.0449 44.3105 35.2051 44.2695C37.3652 44.2285 37.6113 44.2012 37.9668 43.9414C38.5547 43.5039 38.9512 42.834 39.0469 42.1094C39.1289 41.4668 39.1289 41.4668 39.8262 41.2891C40.6738 41.0703 41.6035 40.1953 41.8223 39.4297C41.9043 39.1289 41.9727 37.6523 41.9727 36.0664C41.9727 34.3574 42.0273 33.209 42.1094 33.1543C42.1777 33.1133 42.4922 33.4551 42.793 33.9199C45.8008 38.582 44.0371 44.8437 39.0332 47.2363C37.4746 47.9746 36.627 48.1797 35 48.1797C33.373 48.1797 32.5254 47.9746 30.9668 47.2363C28.6973 46.1562 26.9609 44.1601 26.168 41.7539C25.8262 40.7012 25.7715 40.332 25.7715 38.9648C25.7715 36.791 26.3047 35.1094 27.5078 33.4961L27.959 32.8808L28.0273 36.0937C28.0957 39.3066 28.0957 39.3066 28.4785 39.9492ZM40.6055 35.957V36.9141L35.041 36.8867L29.4629 36.8457L29.4219 36.1074C29.3945 35.7109 29.4082 35.2871 29.4492 35.1914C29.5039 35.0273 30.502 35 35.0684 35H40.6055V35.957ZM40.6055 38.5547C40.6055 39.0195 40.2227 39.6348 39.7852 39.8535C39.457 40.0176 38.6641 40.0586 35.0684 40.0586C30.2285 40.0586 30.0098 40.0176 29.6133 39.1699C29.1621 38.2129 28.7793 38.2812 35 38.2812C40.5645 38.2812 40.6055 38.2812 40.6055 38.5547ZM37.6934 41.9316C37.543 42.834 37.2969 42.9297 34.9863 42.9297C33.127 42.9297 32.9219 42.9023 32.6758 42.6562C32.5117 42.4922 32.4023 42.2051 32.4023 41.9043V41.4258H35.082H37.7754L37.6934 41.9316ZM28.916 53.9219C29.3945 54.1406 29.9277 54.5918 30.6523 55.3984L31.6914 56.5469L29.9141 61.5644C28.9297 64.3262 28.0684 66.582 28.0137 66.582C27.959 66.582 27.4395 65.6797 26.8652 64.5586C26.291 63.4512 25.7031 62.4258 25.5527 62.2891C25.3066 62.0293 25.2656 62.0293 22.873 62.7812C21.5332 63.1914 20.4121 63.5195 20.3848 63.4922C20.3574 63.4648 21.3555 61.2637 22.627 58.5976L24.9102 53.7441L25.6211 53.6894C27.6172 53.5527 28.2188 53.5937 28.916 53.9219ZM45.1445 53.8398C45.2539 53.9629 49.7793 63.4785 49.7246 63.5058C49.7109 63.5195 48.6035 63.1914 47.2637 62.7676C45.3906 62.1933 44.7754 62.043 44.5977 62.1523C44.4746 62.2344 43.8457 63.2871 43.2031 64.5039C42.5742 65.7207 42.0273 66.6914 42 66.6641C41.9863 66.6367 41.1387 64.3398 40.1406 61.5644L38.3359 56.5058L39.4297 55.3301C40.9609 53.6894 41.2891 53.5527 43.4082 53.6621C44.3105 53.7031 45.0898 53.7851 45.1445 53.8398Z" fill="#FF9D4D"/>
<path d="M32.9763 9.32422C32.9079 9.41992 32.7575 9.88477 32.6755 10.3496C32.5114 11.1699 32.4977 11.1973 31.8552 11.457L31.1989 11.7305L30.5016 11.2656C30.1325 11.0059 29.6677 10.8008 29.5036 10.8008C29.0934 10.8008 26.6599 13.207 26.6599 13.6035C26.6599 13.7539 26.8786 14.2051 27.1384 14.5879L27.6169 15.2988L27.3571 15.9551C27.111 16.5977 27.0974 16.6113 26.2497 16.7754C25.7712 16.8711 25.3063 17.0215 25.2106 17.1035C24.9782 17.2949 24.9372 20.7129 25.1559 21.0547C25.2243 21.1641 25.6891 21.3555 26.195 21.4648C27.0974 21.6699 27.111 21.6699 27.3571 22.3262L27.6169 22.9824L27.1247 23.7207C26.7692 24.2539 26.6462 24.5547 26.7009 24.7734C26.8102 25.1973 29.1481 27.4805 29.4763 27.4805C29.6266 27.4805 30.0641 27.2617 30.447 27.002L31.1579 26.5234L31.8141 26.7832C32.4704 27.0293 32.4704 27.043 32.6755 27.9453C32.7849 28.4512 32.9763 28.916 33.0856 28.9844C33.195 29.0527 34.0974 29.1211 35.0817 29.1211C37.1599 29.1211 37.1462 29.1211 37.3786 27.918C37.529 27.166 37.5563 27.125 38.1852 26.8242L38.8278 26.5234L39.5388 27.002C39.9352 27.2617 40.3864 27.4805 40.5368 27.4805C40.9333 27.4805 43.3395 25.0332 43.3395 24.6367C43.3395 24.459 43.1345 24.0215 42.8747 23.6387L42.4099 22.9551L42.6833 22.2988C42.9567 21.6563 42.9841 21.6426 43.777 21.4922C44.2282 21.4102 44.6794 21.2734 44.7888 21.1777C44.9391 21.0547 44.9802 20.5898 44.9802 19.1406C44.9802 16.9805 44.9938 17.0078 43.7907 16.7617C43.0798 16.625 42.9704 16.5566 42.7653 16.1328C42.4372 15.4629 42.4645 15.2441 42.9294 14.5605C43.1618 14.2324 43.3395 13.8223 43.3395 13.6445C43.3395 13.2344 40.9333 10.8008 40.5368 10.8008C40.3864 10.8008 39.9352 11.0195 39.5524 11.2793L38.8415 11.7578L38.1852 11.457C37.57 11.1563 37.529 11.1152 37.3786 10.3633C37.1462 9.14649 37.1599 9.16016 34.9997 9.16016C33.6599 9.16016 33.072 9.21485 32.9763 9.32422ZM36.1618 11.1973C36.2165 11.5664 36.3259 11.9629 36.4079 12.0723C36.613 12.332 38.5134 13.125 38.9372 13.125C39.1149 13.125 39.5251 12.9473 39.8395 12.7285L40.4274 12.3184L41.1247 13.0293L41.8356 13.7402L41.4255 14.3555C41.1931 14.6973 41.0153 15.0801 41.0153 15.2031C41.0153 15.5996 41.8356 17.5547 42.0681 17.7324C42.1911 17.8281 42.5876 17.9512 42.9567 17.9922L43.6266 18.0879L43.5856 19.127L43.5446 20.166L42.861 20.2754C42.4919 20.3301 42.1091 20.4531 42.027 20.5488C41.7946 20.7813 41.0153 22.709 41.0153 23.0371C41.0153 23.1875 41.1931 23.584 41.4255 23.9258L41.8356 24.541L41.1931 25.1836C40.8376 25.5527 40.4821 25.8398 40.4138 25.8398C40.3454 25.8398 39.9899 25.6484 39.6345 25.4297L38.9919 25.0059L37.7477 25.5117C37.0641 25.7852 36.4489 26.1133 36.3806 26.2363C36.3122 26.3594 36.2165 26.7422 36.1618 27.0977L36.0661 27.7539H35.0681C33.9606 27.7539 34.0153 27.7949 33.8239 26.7559C33.7145 26.1543 33.5368 26.0176 32.1423 25.4297C31.0485 24.9785 31.1169 24.9785 29.9821 25.6484L29.5446 25.9082L28.9157 25.293C28.5739 24.9648 28.3005 24.6367 28.3005 24.5547C28.3005 24.4863 28.4919 24.1309 28.7243 23.7617L29.1481 23.1055L28.7106 21.9707C28.1501 20.5762 27.9997 20.3984 27.2888 20.3027C26.4001 20.166 26.3727 20.1113 26.4138 19.0723L26.4548 18.1289L27.1931 17.9648C27.6032 17.8828 28.0134 17.6914 28.1091 17.5684C28.2048 17.4453 28.4782 16.8574 28.7106 16.2559L29.1481 15.1758L28.861 14.7383C28.1911 13.6719 28.1774 13.7266 28.9294 12.9883L29.5993 12.3047L30.2145 12.7148C30.5563 12.9336 30.9665 13.125 31.1169 13.125C31.4313 13.125 33.2907 12.4004 33.5778 12.168C33.6599 12.0859 33.7829 11.7988 33.8239 11.5117C34.0153 10.4863 33.9743 10.5273 35.0681 10.5273H36.0661L36.1618 11.1973Z" fill="#FF9D4D"/>
<path d="M33.7283 13.8223C31.0622 14.4512 29.1482 17.3359 29.6404 19.9883C30.2009 23.0098 33.0173 25.0195 35.9158 24.4863C40.3728 23.666 41.9997 18.2519 38.7322 15.1621C37.406 13.9043 35.5193 13.3984 33.7283 13.8223ZM36.7361 15.4219C37.5974 15.873 38.2536 16.5019 38.6638 17.2812C38.9783 17.8828 39.0329 18.1426 39.0329 19.1406C39.0329 20.084 38.9783 20.4121 38.7185 20.8769C38.24 21.7793 37.6384 22.3808 36.8044 22.791C36.1482 23.1055 35.8611 23.1738 34.9997 23.1601C33.3454 23.1465 32.1286 22.3808 31.3493 20.8769C30.8435 19.8926 30.8161 18.4297 31.3083 17.4316C31.7458 16.5293 32.6618 15.668 33.5368 15.3125C34.4665 14.9433 35.9021 14.998 36.7361 15.4219Z" fill="#FF9D4D"/>
<path d="M17.5408 16.0918C16.4744 16.1465 16.16 16.3789 16.3377 16.9668C16.4881 17.418 17.035 17.5273 18.5662 17.4316C19.7557 17.3496 19.9881 17.2949 20.1112 17.0625C20.4256 16.4746 19.8651 15.9687 18.9627 16.0234C18.7166 16.0371 18.0741 16.0781 17.5408 16.0918Z" fill="#FF9D4D"/>
<path d="M50.2166 16.1191C49.8611 16.2832 49.6971 16.7207 49.8885 17.0625C50.0115 17.2812 50.2576 17.3359 51.4471 17.4179C52.9783 17.5273 53.5115 17.4179 53.6619 16.9668C53.8123 16.4609 53.5115 16.1328 52.8689 16.1328C52.5545 16.1328 51.8982 16.1054 51.406 16.0644C50.9139 16.0234 50.3806 16.0508 50.2166 16.1191Z" fill="#FF9D4D"/>
</svg>
