<svg width="70" height="70" viewBox="0 0 70 70" fill="none" xmlns="http://www.w3.org/2000/svg">
<path d="M26.8653 1.64067C21.834 2.43364 17.3633 4.42973 13.3848 7.62896C12.1953 8.58599 10.0352 10.8008 9.14651 11.9629C4.53909 17.9786 2.48831 25.7442 3.63674 32.8536C4.30667 37.0782 5.7012 40.879 9.89846 50.0665C12.7149 56.2325 13.7403 58.8301 14.5606 61.7833C15.1074 63.793 15.4492 65.7481 15.4492 66.9922C15.4492 68.1407 15.6543 68.5508 16.2422 68.6055C17.0625 68.6875 17.1309 68.5098 17.0489 66.5821C16.8438 62.1934 15.5723 58.4883 10.3907 47.168C6.86331 39.4571 5.4551 35.1641 5.04495 30.8028C4.60745 26.0176 5.94729 20.1934 8.50393 15.8594C9.72073 13.7813 10.8418 12.3594 12.7012 10.5274C16.4336 6.83599 20.6446 4.5938 25.9629 3.45903C27.9317 3.0352 32.1563 2.87114 34.2754 3.14458C40.209 3.86919 45.5 6.41216 49.6426 10.5274C54.0449 14.9024 56.5059 20.1524 57.2168 26.6329C57.3399 27.6583 57.5176 28.8614 57.627 29.2852C57.7364 29.7227 59.4727 33.4278 61.4824 37.543C64.3535 43.4356 65.0918 45.0625 64.9824 45.2403C64.8594 45.4317 64.4492 45.4727 62.0567 45.5274C58.9668 45.6094 58.7754 45.6504 57.9961 46.5391C57.7637 46.8125 57.5039 47.25 57.4356 47.5372C57.3399 47.8516 57.2852 49.7793 57.2852 52.377V56.711L56.9024 57.4356C56.6289 57.9688 56.3418 58.2833 55.8496 58.584L55.1934 58.9942L51.7617 59.0625C48.1114 59.1446 47.8242 59.1993 47.127 59.8555C46.252 60.6758 46.211 60.8946 46.211 64.668C46.211 66.7735 46.2656 68.209 46.3477 68.3731C46.5528 68.7559 47.3594 68.7286 47.6328 68.3321C47.8106 68.0723 47.8516 67.4844 47.8516 64.7364V61.4278L48.2071 61.0997C48.5489 60.7715 48.5899 60.7715 51.9942 60.7032C55.3438 60.6348 55.4531 60.6211 56.1914 60.2793C57.1485 59.8282 57.9961 58.9805 58.4746 57.9961L58.8574 57.2168L58.9258 52.5411C58.9942 47.8926 58.9942 47.8516 59.3086 47.5508C59.6094 47.25 59.7324 47.2364 62.4805 47.168C65.0918 47.0997 65.3653 47.0723 65.7071 46.8125C66.3907 46.3067 66.6367 45.8555 66.6367 45.0762C66.6504 44.42 66.3907 43.8321 62.9864 36.8731C59.3086 29.3536 58.9395 28.4649 58.9258 27.084C58.9121 25.1973 57.9824 21.1504 56.9707 18.6622C53.252 9.46099 45.0078 3.02153 35.1231 1.58598C33.1133 1.2852 28.875 1.31255 26.8653 1.64067Z" fill="#FF9D4D"/>
<path d="M28.4102 9.93945C28.2871 10.0762 28 11.1016 27.7676 12.2363C27.5215 13.3574 27.3027 14.3828 27.2617 14.5059C27.2207 14.6426 26.8242 14.8613 26.2773 15.0391C25.7715 15.2031 24.9512 15.5586 24.4453 15.8047C23.9395 16.0645 23.4473 16.2695 23.3652 16.2695C23.2832 16.2695 22.4355 15.791 21.4785 15.1895C19.332 13.8496 19.1816 13.7812 18.8945 13.8633C18.7578 13.918 17.8008 14.8066 16.7617 15.8594C15.2168 17.4043 14.875 17.8145 14.9297 18.0742C14.957 18.252 15.5313 19.25 16.2012 20.2891L17.4043 22.1758L16.8984 23.2285C16.625 23.8027 16.2559 24.6641 16.0918 25.1562L15.7773 26.0449L13.4805 26.5508C12.209 26.8379 11.0879 27.1387 10.9922 27.2207C10.8418 27.3438 10.8008 27.959 10.8008 30.1465C10.8008 32.6074 10.8281 32.9355 11.0469 33.1133C11.1699 33.2363 12.209 33.5234 13.3301 33.7559C14.4648 34.002 15.4766 34.2207 15.5996 34.2617C15.709 34.2891 15.9141 34.6719 16.0508 35.1094C16.1875 35.5332 16.543 36.4219 16.8438 37.0645L17.377 38.2266L16.1465 40.209C15.4629 41.2891 14.9023 42.3008 14.9023 42.4512C14.9023 42.8066 18.7031 46.6211 19.0586 46.6211C19.1953 46.6211 20.2207 46.0332 21.3281 45.3086L23.3516 44.0098L24.1992 44.4336C25.1016 44.8984 25.4434 44.8848 25.7715 44.3926C26.127 43.8457 25.8945 43.5312 24.6504 42.8613C24.0078 42.5195 23.4063 42.2461 23.3242 42.2461C23.2285 42.2461 22.2988 42.793 21.2461 43.4766C20.207 44.1465 19.2773 44.707 19.209 44.707C19.127 44.707 18.5391 44.1738 17.8828 43.5176L16.6934 42.3145L17.9238 40.373C18.5938 39.293 19.1406 38.3223 19.1406 38.2129C19.1406 38.0898 18.8945 37.5566 18.6074 37.0098C18.3066 36.4629 17.8418 35.3828 17.582 34.6035C17.3223 33.8242 17.0488 33.127 16.9668 33.0449C16.8848 32.9629 15.8184 32.6758 14.6016 32.4023L12.373 31.9102L12.332 30.1738C12.291 28.4648 12.3047 28.4375 12.6055 28.3691C12.7832 28.3281 13.7813 28.1094 14.834 27.8906C15.9961 27.6309 16.8438 27.3711 16.9805 27.2344C17.1035 27.1113 17.3359 26.5645 17.4863 26.0312C17.6367 25.5117 18.0742 24.4453 18.457 23.666C18.8262 22.9004 19.1406 22.1895 19.1406 22.0938C19.1406 21.998 18.6211 21.1094 17.9785 20.1113C17.3359 19.127 16.8164 18.2383 16.8164 18.1426C16.8164 17.9512 19.0176 15.7227 19.1953 15.7227C19.2637 15.7227 20.166 16.2422 21.1914 16.8848C22.2168 17.5273 23.1602 18.0469 23.2969 18.0469C23.4199 18.0469 24.1992 17.7188 25.0195 17.3086C25.8535 16.8984 26.9336 16.4609 27.4258 16.3242C28 16.1738 28.3828 15.9824 28.5059 15.8047C28.6016 15.6406 28.8887 14.5742 29.1348 13.4258L29.5859 11.3477H31.3359C33.0313 11.3477 33.0859 11.3613 33.1543 11.6484C33.1953 11.8262 33.3867 12.6738 33.5645 13.5352C34.1387 16.1191 34.0156 15.9277 35.3555 16.3379C35.998 16.5293 37.1191 16.9941 37.8438 17.377C38.5684 17.7461 39.2793 18.0469 39.4023 18.0469C39.5391 18.0469 40.4141 17.5547 41.3574 16.9531C42.2871 16.3516 43.1348 15.8184 43.2305 15.791C43.3262 15.75 43.9824 16.2969 44.6797 16.9941L45.9648 18.2793L44.9258 19.8789C43.2988 22.3809 43.3809 22.0254 44.1602 23.584C44.5293 24.3223 44.9941 25.457 45.1992 26.0996C45.3906 26.7422 45.6094 27.3301 45.6777 27.3984C45.7461 27.4805 46.7988 27.7539 48.0156 28.0273L50.2441 28.5195V30.2832V32.0469L48.1934 32.4844C47.0723 32.7305 46.0195 32.9902 45.8691 33.0586C45.6777 33.1406 45.4727 33.5645 45.1992 34.3984C44.9805 35.0684 44.502 36.2168 44.1328 36.9551C43.5723 38.1035 43.4902 38.3359 43.627 38.5957C43.709 38.7598 44.2832 39.6895 44.8848 40.6465L45.9785 42.4102L44.7617 43.627C44.0918 44.2969 43.5176 44.8438 43.4766 44.8438C43.4356 44.8438 42.5469 44.2969 41.5078 43.6133C40.4551 42.9434 39.498 42.3828 39.375 42.3828C39.0469 42.3828 37.0371 43.5039 36.8594 43.7773C36.668 44.0918 36.9004 44.7207 37.2695 44.8574C37.4746 44.9258 37.8301 44.8301 38.459 44.543L39.3613 44.1191L41.3848 45.4453C42.5059 46.1699 43.5039 46.7578 43.6133 46.7578C43.709 46.7578 44.6797 45.8828 45.7598 44.8164C47.2637 43.3262 47.7148 42.793 47.7148 42.5195C47.7148 42.3281 47.1816 41.3438 46.4844 40.2227L45.2539 38.2676L45.7188 37.3516C45.9648 36.8457 46.3477 35.9707 46.5391 35.4102L46.9082 34.3848L49.1231 33.9199C52.1309 33.291 51.9531 33.5234 51.9531 30.2285C51.9531 28.3691 51.9121 27.6035 51.7754 27.4258C51.6523 27.2617 50.9277 27.043 49.3555 26.7012C48.1113 26.4277 47.0313 26.1406 46.9492 26.0586C46.8535 25.9766 46.6621 25.5117 46.4981 25.0195C46.334 24.5273 46.0059 23.707 45.7461 23.2012L45.2676 22.2715L46.4981 20.3711C47.3047 19.1133 47.7148 18.3477 47.7148 18.0879C47.7148 17.7598 47.3731 17.3496 45.7598 15.75C44.6523 14.6562 43.6816 13.8086 43.5449 13.8086C43.4082 13.8086 42.4922 14.3281 41.5078 14.957C40.5234 15.5996 39.6211 16.1465 39.498 16.2012C39.3887 16.2422 38.7051 16.0098 37.9941 15.668C37.2969 15.3262 36.4219 14.9844 36.0801 14.9023L35.4512 14.7383L35 12.6055C34.5488 10.459 34.4121 9.99414 34.125 9.81641C34.043 9.76172 32.7715 9.70703 31.2949 9.70703C28.916 9.70703 28.5879 9.73438 28.4102 9.93945Z" fill="#FF9D4D"/>
<path d="M29.9275 19.5372C24.7322 20.2618 20.8768 24.4454 20.5623 29.668C20.4119 32.0743 21.2459 34.7403 22.7498 36.7364C23.4744 37.6934 24.4725 38.6231 24.8826 38.7325C25.2244 38.8145 25.8396 38.3497 25.8396 37.9942C25.8396 37.8575 25.3475 37.2012 24.7322 36.545C22.9685 34.6446 22.1482 32.6348 22.1482 30.2012C22.1482 26.2364 24.6639 22.7774 28.5057 21.5059C29.449 21.1915 29.8318 21.1368 31.3084 21.1368C32.7986 21.1368 33.1678 21.1915 34.1248 21.5059C36.9002 22.4219 39.0877 24.6231 40.0037 27.4258C40.3592 28.5059 40.4002 28.8204 40.3865 30.2833C40.3865 31.6778 40.3182 32.0879 40.0174 33.0313C39.5799 34.3575 38.6092 35.8751 37.5428 36.9141C36.7635 37.6797 36.6267 38.0215 36.9549 38.4727C37.7478 39.5528 40.4959 36.6133 41.4666 33.6602C43.449 27.6719 40.0174 21.3692 33.9471 19.8243C32.7713 19.5235 30.9803 19.3868 29.9275 19.5372Z" fill="#FF9D4D"/>
<path d="M27.6855 24.5274C26.2773 25.4707 25.2108 26.9336 24.8007 28.5059C24.5273 29.5313 24.5546 31.2539 24.8827 32.293C25.3476 33.8106 26.455 35.2461 27.7128 35.9981L28.164 36.2578V44.5567C28.164 53.375 28.1503 53.1836 28.8066 53.3887C29.039 53.4434 29.203 53.375 29.4628 53.1289L29.8046 52.7871V44.2285C29.8046 38.582 29.7499 35.5742 29.6679 35.3965C29.5858 35.2598 29.2304 34.9863 28.8749 34.8086C26.496 33.6055 25.4843 30.5293 26.6464 28.082C26.8515 27.6309 27.2069 27.0567 27.4257 26.8106L27.8222 26.332L27.8905 28.2188C27.9452 29.8731 27.9862 30.1192 28.2187 30.2969C28.4374 30.4473 29.1073 30.4883 31.3769 30.4883C34.0155 30.4883 34.289 30.461 34.4941 30.2422C34.6855 30.0371 34.7265 29.668 34.7265 28.1504L34.7401 26.3184L35.2323 26.8653C35.4921 27.166 35.8749 27.7539 36.08 28.1641C36.3808 28.8067 36.4355 29.0938 36.4355 30.2149C36.4355 31.3496 36.3808 31.6231 36.0526 32.334C35.6151 33.2637 34.6718 34.3027 33.7694 34.8223C33.4276 35.0137 33.1132 35.2461 33.0585 35.3281C33.0038 35.4102 32.9491 40.5235 32.9491 46.7031C32.9491 57.4082 32.9628 57.9414 33.1952 58.1465C33.4687 58.3926 33.8651 58.4473 34.1386 58.2695C34.5624 57.9961 34.5898 57.3125 34.5898 46.7852L34.6034 36.1621L35.1503 35.8203C36.5448 34.9727 37.789 32.9629 38.0487 31.1172C38.3222 29.2031 37.7206 27.2754 36.3808 25.8125C35.4374 24.7871 34.4667 24.1719 33.8788 24.2266C33.1952 24.2949 33.0858 24.6504 33.0858 26.8926V28.8477H31.3085H29.5312V26.6875C29.5312 24.7598 29.5038 24.4863 29.2851 24.2949C28.9023 23.9395 28.4374 24.0078 27.6855 24.5274Z" fill="#FF9D4D"/>
<path d="M28.6289 55.0021C28.2051 55.2345 28.1641 55.3712 28.1641 56.6837C28.1641 57.7091 28.2051 57.9688 28.4102 58.1466C28.7246 58.4337 29.1211 58.4474 29.4766 58.1876C29.832 57.9142 29.9414 55.8087 29.627 55.3165C29.3672 54.9337 28.9844 54.8106 28.6289 55.0021Z" fill="#FF9D4D"/>
</svg>
