<svg width="70" height="70" viewBox="0 0 70 70" fill="none" xmlns="http://www.w3.org/2000/svg">
<path d="M26.7972 3.82813C22.5452 4.97656 17.9651 7.35547 14.6702 10.1309C9.2288 14.7109 5.44169 20.8223 3.88309 27.5078C3.62333 28.6699 3.70536 28.9844 4.32059 28.9844C4.73075 28.9844 4.97684 28.5879 5.19559 27.6172C5.45536 26.4824 6.12528 24.418 6.65848 23.1055C10.3499 14.1504 18.389 7.20508 27.7132 4.93555C29.1624 4.58008 29.5315 4.29297 29.2854 3.75977C29.0804 3.3086 28.6565 3.32227 26.7972 3.82813Z" fill="#FF9D4D"/>
<path d="M41.4259 3.62304C41.3302 3.73242 41.2891 3.96484 41.3438 4.16992C41.4122 4.42968 41.5763 4.53906 42.1505 4.70312C44.8985 5.45507 45.6095 5.6875 46.8263 6.16601C56.0821 9.88476 62.9317 17.7324 65.461 27.4805C65.8302 28.9023 65.8302 28.916 66.2677 28.957C66.9923 29.0254 67.0606 28.6836 66.6641 27.1113C65.4337 22.3125 63.547 18.5391 60.4571 14.6699C56.1778 9.33789 49.9708 5.3457 43.3809 3.6914C42.0548 3.36328 41.6583 3.34961 41.4259 3.62304Z" fill="#FF9D4D"/>
<path d="M33.0176 16.0918C27.4805 17.2676 23.625 22.5039 24.1992 28.041C24.5957 31.9102 26.6191 35.0137 29.9824 36.9141C30.748 37.3379 30.7617 37.3652 30.7617 37.9395V38.5273L27.4531 39.9902C23.3652 41.7949 22.3945 42.2734 21.5605 42.8887C20.7402 43.4902 19.7422 44.8848 19.291 46.0605C18.9629 46.9219 18.9492 47.0996 18.8945 50.4082L18.8398 53.8672L19.1816 54.0176C19.4277 54.127 19.5918 54.127 19.8105 54.0176C20.084 53.8672 20.0977 53.7715 20.0977 51.2969C20.0977 47.4961 20.3711 46.2246 21.4648 44.8438C22.2441 43.8594 22.9961 43.4219 27.0566 41.6172L31.1035 39.8125L31.6504 40.3184C33.6602 42.1777 36.8867 42.1914 38.9785 40.3457L39.5801 39.8262L43.5312 41.5762C45.6914 42.5469 47.7695 43.5586 48.1387 43.8184C48.8906 44.3789 49.6152 45.3086 50.0664 46.293C50.3398 46.9082 50.3672 47.2363 50.4355 50.3262C50.5176 53.8398 50.5723 54.1406 51.1465 54.1406C51.2695 54.1406 51.4883 54.0449 51.5977 53.9219C51.9121 53.6211 51.9121 48.207 51.6113 46.9082C51.2832 45.5684 50.5449 44.2832 49.5332 43.3398C48.4941 42.3555 48.5078 42.3691 43.75 40.25L39.9902 38.5684L39.9492 37.9668L39.9082 37.3652L40.7969 36.8457C42.1094 36.0801 43.2305 35.123 44.0918 34.0156C49.2324 27.4531 45.6914 17.7461 37.5703 16.0781C36.2715 15.8047 34.2891 15.8184 33.0176 16.0918ZM37.7891 17.5C39.1426 17.8418 40.7832 18.7031 41.7129 19.5508L42.4512 20.2344L41.9727 20.6445C41.2344 21.2871 38.5957 23.0234 37.5293 23.5566C34.043 25.293 29.791 26.3867 26.4961 26.3867H25.4297L25.5117 25.7988C25.7852 23.8164 26.7012 21.8887 28.0684 20.4258C29.5176 18.8809 30.9531 17.9922 32.8535 17.5C34.2207 17.1445 36.3945 17.1445 37.7891 17.5ZM43.9688 22.2305C44.2422 22.7227 44.625 23.5977 44.8164 24.1719C45.1172 25.0879 45.1582 25.4707 45.1582 27.0703C45.1582 28.6699 45.1172 29.0527 44.8164 29.9688C44.3242 31.459 43.5859 32.7031 42.4922 33.8516C41.3164 35.0957 40.168 35.834 38.5137 36.4082C37.3105 36.8184 37.1602 36.8457 35.2734 36.832C33.4824 36.832 33.1816 36.791 32.2109 36.4629C29.5996 35.5742 27.6582 33.8516 26.4551 31.377C25.9629 30.3652 25.4297 28.5605 25.4297 27.9043C25.4297 27.8359 25.9629 27.7402 26.6328 27.6992C31.1719 27.3711 34.3984 26.5508 37.7891 24.8555C39.4297 24.0352 40.9609 23.0781 42.2598 22.0801C42.793 21.6699 43.2852 21.3281 43.3535 21.3281C43.4082 21.3281 43.6953 21.7383 43.9688 22.2305ZM33.1543 38.0762C33.6875 38.1855 34.6719 38.2812 35.3418 38.2812C36.0254 38.2812 36.9961 38.1855 37.5293 38.0762C38.7461 37.8164 38.6914 37.8027 38.6914 38.2402C38.6914 38.7871 38.1035 39.4434 37.1738 39.9082C36.4629 40.2637 36.1621 40.332 35.3418 40.332C34.5215 40.332 34.2207 40.2637 33.5234 39.9082C32.5391 39.4297 31.9922 38.8281 31.9922 38.2676C31.9922 37.8027 31.9238 37.8164 33.1543 38.0762Z" fill="#FF9D4D"/>
<path d="M3.82819 41.2344C3.6778 41.3985 3.69147 41.6309 3.88288 42.4922C6.02936 51.7344 12.3321 59.6504 20.9454 63.916C23.2149 65.0371 24.7051 65.6114 26.8653 66.1856C28.752 66.6778 29.0801 66.6914 29.2852 66.2403C29.5176 65.7207 29.1622 65.4473 27.9317 65.1602C25.2794 64.5313 21.4786 62.9317 19.0176 61.4004C14.1915 58.4063 10.0489 53.8672 7.54694 48.877C6.63092 47.0449 5.60553 44.2012 5.19538 42.3828C5.09967 41.9727 4.93561 41.4942 4.83991 41.3164C4.60748 40.961 4.07428 40.9199 3.82819 41.2344Z" fill="#FF9D4D"/>
<path d="M65.8438 41.125C65.8165 41.1797 65.6251 41.8496 65.4337 42.6152C65.2423 43.3672 64.8868 44.543 64.6544 45.1992C64.1075 46.7715 62.5899 49.916 61.6739 51.3926C58.2149 56.957 52.9649 61.3594 46.8262 63.834C45.6094 64.3125 44.8985 64.5449 42.1505 65.2969C41.5762 65.4609 41.4122 65.5703 41.3438 65.8301C41.2344 66.2676 41.4942 66.582 41.9317 66.582C42.6973 66.582 45.5137 65.7617 47.4415 64.9824C51.4337 63.3418 54.879 61.0859 57.9551 58.0645C61.8243 54.2637 64.5723 49.7793 66.1719 44.6387C66.9239 42.2188 67.0469 41.6445 66.8555 41.3027C66.7051 41.0156 65.9942 40.8926 65.8438 41.125Z" fill="#FF9D4D"/>
</svg>
