<svg width="72" height="73" viewBox="0 0 72 73" fill="none" xmlns="http://www.w3.org/2000/svg">
<path fill-rule="evenodd" clip-rule="evenodd" d="M54 18.5706V54.5706H18V18.5706H54ZM33.1523 27.5706H29.6463L22.9899 45.5706H26.153L27.4096 42.0518H35.3777L36.6074 45.5706H39.961L33.1523 27.5706ZM45.5757 27.5706H42.4254V45.5706H45.5757V27.5706ZM31.3727 30.5906L34.5106 39.5706H28.2846L31.3727 30.5906ZM57 45.5706H63V51.5706H57V45.5706ZM21 57.5706H27V63.5706H21V57.5706ZM33 57.5706H39V63.5706H33V57.5706ZM21 9.57062H27V15.5706H21V9.57062ZM45 57.5706H51V63.5706H45V57.5706ZM33 9.57062H39V15.5706H33V9.57062ZM45 9.57062H51V15.5706H45V9.57062ZM57 33.5706H63V39.5706H57V33.5706ZM9 45.5706H15V51.5706H9V45.5706ZM57 21.5706H63V27.5706H57V21.5706ZM9 33.5706H15V39.5706H9V33.5706ZM9 21.5706H15V27.5706H9V21.5706Z" fill="#FF9D4D"/>
</svg>
