<svg width="72" height="73" viewBox="0 0 72 73" fill="none" xmlns="http://www.w3.org/2000/svg">
<g clip-path="url(#clip0_392_485)">
<path d="M13.4688 13.9771C12.2972 15.1487 12.2972 17.0481 13.4688 18.2197C14.6403 19.3913 16.5398 19.3913 17.7114 18.2197C20.1131 15.818 22.9643 13.9129 26.1023 12.6131C29.2402 11.3133 32.6034 10.6443 36 10.6443C39.3966 10.6443 42.7596 11.3133 45.8976 12.6131C49.0356 13.9129 51.8868 15.818 54.2886 18.2197C55.4601 19.3913 57.3597 19.3913 58.5312 18.2197C59.7027 17.0481 59.7027 15.1487 58.5312 13.9771C55.5723 11.0182 52.0596 8.67116 48.1938 7.06985C44.328 5.46854 40.1844 4.64435 36 4.64435C31.8156 4.64435 27.6721 5.46854 23.8062 7.06985C19.9403 8.67116 16.4276 11.0182 13.4688 13.9771Z" fill="#FF9D4D"/>
<path d="M22.8797 27.7084C21.7081 26.5368 21.7081 24.6373 22.8797 23.4658C24.6027 21.7428 26.6481 20.376 28.8993 19.4436C31.1505 18.5111 33.5634 18.0311 36 18.0311C38.4366 18.0311 40.8496 18.5111 43.1007 19.4436C45.3519 20.376 47.3974 21.7428 49.1206 23.4658C50.292 24.6373 50.292 26.5368 49.1206 27.7084C47.9487 28.88 46.0494 28.88 44.8776 27.7084C43.7118 26.5426 42.3279 25.6178 40.8045 24.9868C39.2814 24.3559 37.6488 24.0311 36 24.0311C34.3512 24.0311 32.7186 24.3559 31.1955 24.9868C29.6722 25.6178 28.2882 26.5426 27.1223 27.7084C25.9507 28.88 24.0512 28.88 22.8797 27.7084Z" fill="#FF9D4D"/>
<path fill-rule="evenodd" clip-rule="evenodd" d="M36 30.5706C31.0293 30.5706 27 34.6002 27 39.5706C27 43.5048 29.5241 46.8492 33.0411 48.0729C33.0141 48.2349 33 48.4011 33 48.5706V51.5706C33 54.8844 30.3138 57.5706 27 57.5706H18C18 54.2571 15.3137 51.5706 12 51.5706H6C2.68629 51.5706 0 54.2571 0 57.5706V63.5706C0 66.8844 2.68629 69.5706 6 69.5706H12C15.3137 69.5706 18 66.8844 18 63.5706H27C30.5841 63.5706 33.8013 61.9995 36 59.5083C38.1987 61.9995 41.4159 63.5706 45 63.5706H54C54 66.8844 56.6862 69.5706 60 69.5706H66C69.3138 69.5706 72 66.8844 72 63.5706V57.5706C72 54.2571 69.3138 51.5706 66 51.5706H60C56.6862 51.5706 54 54.2571 54 57.5706H45C41.6862 57.5706 39 54.8844 39 51.5706V48.5706C39 48.4011 38.9859 48.2349 38.9589 48.0729C42.4758 46.8492 45 43.5048 45 39.5706C45 34.6002 40.9707 30.5706 36 30.5706ZM39 39.5706C39 41.2275 37.6569 42.5706 36 42.5706C34.3431 42.5706 33 41.2275 33 39.5706C33 39.4671 33.0051 39.3648 33.0156 39.264C33.1692 37.7511 34.4466 36.5706 36 36.5706C37.6569 36.5706 39 37.914 39 39.5706ZM60 63.5706H66V57.5706H60V63.5706ZM6 63.5706H12V57.5706H6V63.5706Z" fill="#FF9D4D"/>
</g>
<defs>
<clipPath id="clip0_392_485">
<rect width="72" height="72" fill="white" transform="translate(0 0.570618)"/>
</clipPath>
</defs>
</svg>
