<svg width="70" height="71" viewBox="0 0 70 71" fill="none" xmlns="http://www.w3.org/2000/svg">
<g clip-path="url(#clip0_385_428)">
<path d="M35.1088 19.0345C49.5203 7.8464 42.1239 0.570618 42.1239 0.570618C43.2246 12.1368 30.216 14.8677 26.7289 22.8157C24.3496 28.2392 28.3584 32.9878 35.104 38.9731C34.5077 37.6474 33.5878 36.3594 32.6568 35.0555C29.4808 30.6078 26.1724 25.9745 35.1088 19.0345Z" fill="#FF9D4D"/>
<path d="M37.4096 41.4265C37.4096 41.4265 41.7452 37.9285 38.3117 34.0411C26.6725 20.8528 51.0416 14.8677 51.0416 14.8677C36.1631 22.0355 38.3843 26.2899 42.1241 31.4585C46.1281 37.0008 37.4096 41.4265 37.4096 41.4265Z" fill="#FF9D4D"/>
<path d="M50.1747 51.8578C63.53 45.0333 57.3551 38.4752 53.0451 39.3587C51.9885 39.5748 51.5176 39.7623 51.5176 39.7623C51.5176 39.7623 51.9098 39.1581 52.6588 38.8965C61.1854 35.9488 67.7429 47.5907 49.9062 52.2017C49.9062 52.2017 50.113 52.0202 50.1747 51.8578Z" fill="#FF9D4D"/>
<path d="M22.3848 43.2201C14.0288 42.1229 26.9665 39.1011 26.9665 39.1011C26.9665 39.1011 21.9423 38.7679 15.7631 41.7051C8.45648 45.1808 33.8366 46.7615 46.9745 43.3636C48.3404 42.4464 50.2282 41.6515 50.2282 41.6515C50.2282 41.6515 44.852 42.5956 39.4978 43.0399C32.9465 43.5795 25.913 43.6847 22.3848 43.2201Z" fill="#FF9D4D"/>
<path d="M25.5639 49.7364C20.9042 49.2626 23.9552 47.0416 23.9552 47.0416C11.8977 50.9769 30.6639 55.4397 47.5122 50.5948C45.7213 49.974 44.5825 48.8384 44.5825 48.8384C36.3481 50.3977 31.5896 50.3478 25.5639 49.7364Z" fill="#FF9D4D"/>
<path d="M27.5941 56.7874C22.938 56.2611 25.6582 54.7056 25.6582 54.7056C14.7129 57.7129 32.3156 63.9261 46.2509 58.0531C43.9684 57.1803 42.3342 56.1727 42.3342 56.1727C36.1179 57.3295 33.2348 57.4203 27.5941 56.7874Z" fill="#FF9D4D"/>
<path d="M56.7409 60.3742C56.7409 60.3742 58.7538 62.0052 54.5239 63.267C46.4802 65.6632 21.0458 66.3868 13.9802 63.3626C11.4403 62.276 16.2033 60.7682 17.7016 60.4517C19.2641 60.1185 20.1571 60.1806 20.1571 60.1806C17.3324 58.2239 1.89982 64.0228 12.3181 65.6835C40.7302 70.2145 64.1106 63.643 56.7409 60.3742Z" fill="#FF9D4D"/>
<path d="M61.25 63.9379C60.7838 69.9028 41.0981 71.1576 28.2787 70.3506C19.9157 69.8232 18.2396 68.5052 18.2151 68.486C26.2191 69.7836 39.7138 70.0198 50.6555 67.9949C60.3537 66.1991 61.25 63.9379 61.25 63.9379Z" fill="#FF9D4D"/>
</g>
<defs>
<clipPath id="clip0_385_428">
<rect width="70" height="70" fill="white" transform="translate(0 0.570618)"/>
</clipPath>
</defs>
</svg>
