<svg width="380" height="230" viewBox="0 0 380 230" fill="none" xmlns="http://www.w3.org/2000/svg">
<path d="M365.517 26.8481C367.211 21.2228 364.025 15.289 358.399 13.5946C352.774 11.9002 346.84 15.0869 345.146 20.7123C343.451 26.3377 346.638 32.2715 352.264 33.9658C357.889 35.6602 363.823 32.4735 365.517 26.8481Z" fill="#FBC343"/>
<path d="M353.825 47.5661C353.763 47.5661 353.712 45.6014 353.712 43.1784C353.712 40.7548 353.763 38.7907 353.825 38.7907C353.886 38.7907 353.937 40.7548 353.937 43.1784C353.937 45.6014 353.886 47.5661 353.825 47.5661Z" fill="#FFA861"/>
<path d="M347.695 36.3168C347.748 36.348 346.748 38.1809 345.46 40.4103C344.172 42.6408 343.085 44.4228 343.031 44.3922C342.977 44.3616 343.978 42.5287 345.266 40.2987C346.554 38.0688 347.641 36.2856 347.695 36.3168Z" fill="#FFA861"/>
<path d="M341.403 32.3996C341.442 32.4482 340.329 33.3961 338.919 34.5174C337.508 35.6388 336.333 36.5087 336.295 36.4601C336.257 36.4116 337.369 35.4637 338.78 34.3423C340.19 33.221 341.365 32.3511 341.403 32.3996Z" fill="#FFA861"/>
<path d="M364.437 43.2431C364.405 43.2483 364.31 42.8333 364.156 42.1634C364.003 41.4935 363.786 40.5704 363.515 39.5595C363.243 38.5479 362.967 37.641 362.763 36.9844C362.56 36.3284 362.434 35.9214 362.465 35.9099C362.492 35.8995 362.671 36.2873 362.913 36.933C363.156 37.5786 363.457 38.4838 363.731 39.5005C364.004 40.5172 364.197 41.4513 364.311 42.1316C364.426 42.8131 364.466 43.2385 364.437 43.2431Z" fill="#FFA861"/>
<path d="M375.226 35.5868C375.186 35.6336 373.778 34.4695 372.082 32.9869C370.386 31.5043 369.045 30.265 369.085 30.2182C369.126 30.1714 370.533 31.3355 372.23 32.8181C373.925 34.3007 375.267 35.5405 375.226 35.5868Z" fill="#FFA861"/>
<path d="M379.359 25.0658C379.352 25.0976 378.865 25.012 378.076 24.8814C377.288 24.7502 376.198 24.5814 374.989 24.4421C373.779 24.304 372.679 24.2213 371.882 24.171C371.085 24.1202 370.59 24.093 370.59 24.0601C370.59 24.0312 371.086 24.0023 371.888 24.0127C372.69 24.0231 373.798 24.0809 375.014 24.2196C376.231 24.3595 377.323 24.5543 378.106 24.7259C378.889 24.897 379.366 25.0375 379.359 25.0658Z" fill="#FFA861"/>
<path d="M379.373 14.7194C379.387 14.7795 377.084 15.3922 374.229 16.0875C371.373 16.7829 369.048 17.2979 369.033 17.2383C369.018 17.1782 371.32 16.5661 374.176 15.8702C377.031 15.1743 379.358 14.6593 379.373 14.7194Z" fill="#FFA861"/>
<path d="M367.352 2.66435C367.403 2.69845 366.301 4.45618 364.891 6.58963C363.48 8.72365 362.295 10.4259 362.243 10.3918C362.192 10.3577 363.293 8.60053 364.704 6.46593C366.115 4.33307 367.3 2.63025 367.352 2.66435Z" fill="#FFA861"/>
<path d="M355.423 0.14653C355.454 0.148264 355.451 0.706046 355.438 1.60717C355.425 2.50771 355.408 3.75159 355.409 5.12553C355.411 6.49946 355.431 7.74334 355.446 8.64446C355.461 9.54501 355.466 10.1028 355.434 10.1045C355.404 10.1063 355.343 9.55079 355.288 8.65025C355.233 7.7497 355.187 6.50293 355.185 5.12553C355.184 3.7487 355.227 2.50193 355.28 1.60139C355.333 0.700267 355.393 0.144796 355.423 0.14653Z" fill="#FFA861"/>
<path d="M346.389 11.3975C346.336 11.4299 345.216 9.6924 343.886 7.51676C342.557 5.34112 341.522 3.55159 341.575 3.51922C341.627 3.48686 342.748 5.22436 344.078 7.4C345.407 9.57564 346.442 11.3652 346.389 11.3975Z" fill="#FFA861"/>
<path d="M340.992 15.9841C340.986 16.013 340.553 15.95 339.861 15.8043C339.169 15.6592 338.22 15.4269 337.185 15.1222C336.151 14.8165 335.227 14.4968 334.567 14.2431C333.907 13.9899 333.51 13.8078 333.52 13.7801C333.532 13.75 333.948 13.8795 334.62 14.094C335.291 14.3084 336.218 14.6032 337.249 14.9078C338.279 15.2113 339.217 15.4667 339.898 15.6506C340.578 15.8349 340.999 15.9528 340.992 15.9841Z" fill="#FFA861"/>
<path d="M338.635 24.1566C338.641 24.2184 337.12 24.415 335.24 24.5953C333.359 24.7762 331.83 24.8727 331.824 24.8115C331.818 24.7502 333.338 24.5537 335.219 24.3728C337.099 24.1918 338.628 24.0953 338.635 24.1566Z" fill="#FFA861"/>
<path d="M102.177 20.8908C102.574 18.0036 98.4998 15.6292 95.438 15.3824C93.978 15.2644 92.4613 15.4881 91.0787 15.0061C88.0823 13.9616 86.8852 10.0901 83.961 8.8566C81.775 7.93467 79.2583 8.75545 77.1388 9.82188C75.0198 10.8883 72.925 12.231 70.5575 12.3825C68.498 12.5143 66.2617 11.7507 64.4595 12.7564C63.1168 13.5061 62.4133 15.0535 61.1758 15.9661C59.9649 16.8592 58.3857 17.0482 56.8835 17.1303C55.3812 17.2118 53.8258 17.2274 52.4582 17.8534C51.0901 18.4799 49.9589 19.9261 50.2427 21.4035L102.177 20.8908Z" fill="#D8D4D4"/>
<path d="M36.6033 47.7979C36.8784 45.7997 34.0583 44.1558 31.9393 43.9853C30.929 43.9038 29.8793 44.0581 28.9221 43.7246C26.8482 43.0015 26.0193 40.3224 23.9957 39.4687C22.4825 38.8306 20.7409 39.3988 19.2739 40.1369C17.8069 40.875 16.3573 41.8039 14.7186 41.9091C13.2932 42.0004 11.7453 41.4715 10.498 42.168C9.56852 42.6871 9.08184 43.7576 8.22522 44.3893C7.3871 45.0072 6.29408 45.1384 5.25424 45.1951C4.2144 45.2517 3.13814 45.2621 2.19135 45.6956C1.24457 46.1291 0.461363 47.1302 0.657887 48.1528L36.6033 47.7979Z" fill="#D8D4D4"/>
<path d="M295.684 20.7047C295.959 18.7065 293.139 17.0626 291.02 16.8921C290.01 16.8106 288.96 16.965 288.003 16.6314C285.929 15.9083 285.1 13.2293 283.076 12.3755C281.563 11.7374 279.821 12.3056 278.354 13.0437C276.887 13.7818 275.438 14.7107 273.799 14.8159C272.374 14.9072 270.826 14.3784 269.579 15.0749C268.649 15.5939 268.162 16.6644 267.306 17.2962C266.468 17.9141 265.375 18.0453 264.335 18.1019C263.295 18.1586 262.219 18.169 261.272 18.6025C260.325 19.036 259.542 20.0371 259.738 21.0596L295.684 20.7047Z" fill="#D8D4D4"/>
<path d="M376.64 115.756C377.03 112.926 373.036 110.598 370.035 110.356C368.604 110.24 367.117 110.46 365.761 109.987C362.823 108.963 361.65 105.168 358.784 103.959C356.641 103.055 354.173 103.859 352.096 104.905C350.019 105.95 347.966 107.266 345.645 107.415C343.626 107.543 341.434 106.795 339.668 107.782C338.352 108.516 337.662 110.033 336.449 110.928C335.262 111.803 333.714 111.988 332.241 112.069C330.769 112.149 329.244 112.164 327.903 112.777C326.562 113.391 325.453 114.809 325.731 116.258L376.64 115.756Z" fill="#D8D4D4"/>
<path d="M189.174 228.956C189.09 228.956 189.023 219.315 189.023 207.425C189.023 195.531 189.091 185.892 189.174 185.892C189.256 185.892 189.324 195.531 189.324 207.425C189.324 219.314 189.257 228.956 189.174 228.956Z" fill="#263238"/>
<path d="M194.596 229.571C194.513 229.571 194.446 217.726 194.446 203.118C194.446 188.505 194.514 176.663 194.596 176.663C194.68 176.663 194.747 188.505 194.747 203.118C194.747 217.726 194.679 229.571 194.596 229.571Z" fill="#263238"/>
<path d="M209.488 135.392C209.488 135.392 209.301 135.369 208.938 135.308C208.568 135.244 208.031 135.152 207.329 135.032C205.909 134.781 203.829 134.414 201.152 133.942C199.799 133.788 198.295 133.618 196.65 133.431C195.826 133.338 194.968 133.24 194.076 133.139C193.629 133.088 193.175 133.036 192.711 132.984C192.245 132.96 191.771 132.936 191.289 132.911C189.358 132.812 187.294 132.706 185.105 132.594C184.832 132.58 184.556 132.566 184.278 132.552C184 132.554 183.721 132.556 183.439 132.559C182.876 132.564 182.304 132.57 181.726 132.576C180.569 132.587 179.381 132.598 178.165 132.611C168.448 132.842 156.857 134.145 144.404 137.461C143.626 137.666 142.833 137.836 142.053 138.073C141.276 138.318 140.493 138.564 139.707 138.811C138.133 139.306 136.541 139.807 134.933 140.313C134.121 140.543 133.343 140.889 132.542 141.179C131.745 141.481 130.944 141.786 130.139 142.092C129.334 142.397 128.526 142.705 127.713 143.013L126.492 143.477C126.086 143.638 125.692 143.83 125.289 144.006C123.688 144.725 122.072 145.45 120.443 146.181L119.218 146.73C118.806 146.907 118.401 147.1 118.006 147.316C117.208 147.733 116.406 148.151 115.601 148.571C113.997 149.418 112.362 150.238 110.749 151.125C109.17 152.072 107.58 153.027 105.981 153.986C97.6384 159.139 90.1034 165.016 83.5933 171.06L83.4748 171.17L83.3783 171.04C79.9096 166.385 75.9462 162.364 71.7302 159.076C67.5286 155.764 63.1143 153.143 58.7538 151.101C50.0067 147.019 41.5221 145.313 34.4836 144.862C27.4163 144.412 21.7766 145.212 17.9912 145.975C17.0381 146.149 16.208 146.367 15.4855 146.539C14.7613 146.703 14.1584 146.874 13.6735 147.016C13.1914 147.151 12.8238 147.254 12.5677 147.326C12.3186 147.395 12.1897 147.423 12.1897 147.423C12.1897 147.423 12.3134 147.378 12.5602 147.301C12.8145 147.224 13.1804 147.112 13.6596 146.966C14.1428 146.815 14.7445 146.636 15.4676 146.464C16.1884 146.284 17.0184 146.057 17.9716 145.876C21.7564 145.08 27.4064 144.249 34.4946 144.674C41.5544 145.101 50.0709 146.789 58.8578 150.868C63.238 152.91 67.6737 155.533 71.8972 158.854C76.1352 162.151 80.1212 166.186 83.6106 170.862L83.3962 170.843C89.9156 164.779 97.4656 158.887 105.825 153.724C107.428 152.762 109.022 151.806 110.604 150.856C112.22 149.968 113.859 149.147 115.467 148.298C116.273 147.878 117.076 147.459 117.876 147.042C118.273 146.825 118.679 146.632 119.092 146.455L120.319 145.905C121.951 145.173 123.571 144.448 125.177 143.729C125.579 143.553 125.975 143.36 126.382 143.2L127.606 142.735C128.42 142.427 129.231 142.119 130.037 141.814C130.844 141.508 131.646 141.203 132.445 140.901C133.248 140.611 134.028 140.265 134.842 140.035C136.454 139.53 138.049 139.029 139.626 138.535C140.414 138.287 141.199 138.042 141.978 137.798C142.759 137.561 143.554 137.392 144.334 137.187C156.814 133.88 168.428 132.597 178.16 132.394C179.378 132.386 180.567 132.378 181.726 132.371C182.305 132.367 182.877 132.363 183.441 132.359C183.723 132.358 184.004 132.356 184.282 132.355C184.56 132.371 184.836 132.386 185.11 132.401C187.301 132.522 189.367 132.635 191.3 132.742C191.783 132.768 192.258 132.795 192.724 132.821C193.187 132.876 193.643 132.929 194.09 132.983C194.983 133.089 195.841 133.19 196.665 133.288C198.311 133.485 199.815 133.664 201.168 133.826C203.843 134.323 205.922 134.709 207.34 134.973C208.04 135.107 208.575 135.209 208.944 135.279C209.305 135.348 209.488 135.392 209.488 135.392Z" fill="#263238"/>
<path d="M82.5806 156.326C82.5153 156.378 81.0344 154.579 79.2726 152.307C77.5103 150.034 76.1352 148.15 76.2005 148.098C76.2658 148.045 77.7467 149.844 79.5084 152.117C81.2702 154.388 82.6459 156.272 82.5806 156.326Z" fill="#263238"/>
<path d="M271.717 158.02C271.711 158.028 271.619 157.971 271.45 157.853C271.254 157.714 271.013 157.54 270.718 157.329C270.09 156.863 269.165 156.212 268.006 155.436C266.849 154.655 265.438 153.78 263.842 152.862C262.238 151.958 260.444 151.021 258.516 150.134C256.583 149.258 254.702 148.518 252.972 147.9C251.238 147.298 249.657 146.808 248.316 146.449C246.977 146.084 245.885 145.814 245.127 145.647C244.776 145.564 244.488 145.496 244.256 145.44C244.057 145.389 243.954 145.358 243.956 145.348C243.958 145.337 244.065 145.348 244.267 145.379C244.503 145.419 244.795 145.469 245.151 145.53C245.918 145.661 247.019 145.899 248.37 146.238C249.723 146.572 251.316 147.041 253.062 147.632C254.805 148.237 256.698 148.973 258.64 149.853C260.577 150.744 262.375 151.693 263.979 152.615C265.575 153.55 266.98 154.449 268.125 155.255C269.273 156.057 270.181 156.736 270.788 157.233C271.07 157.463 271.301 157.652 271.487 157.804C271.644 157.938 271.724 158.012 271.717 158.02Z" fill="#263238"/>
<path d="M84.7291 155.833C84.6459 155.833 84.5789 153.217 84.5789 149.991C84.5789 146.763 84.6465 144.148 84.7291 144.148C84.8124 144.148 84.8794 146.763 84.8794 149.991C84.8794 153.217 84.8124 155.833 84.7291 155.833Z" fill="#263238"/>
<path d="M132.944 67.252C132.809 67.3422 128.76 70.3114 128.445 71.5709C128.13 72.8304 128.31 74.2703 128.669 74.4951C129.03 74.7199 129.794 75.35 129.794 75.35L130.199 76.1147H131.819C131.819 76.1147 131.054 77.7794 132.179 78.0944C133.304 78.4094 134.654 78.0944 134.654 78.0944C134.654 78.0944 136.858 79.1007 137.353 78.6649C137.848 78.2291 138.793 77.3742 138.793 77.3742L139.738 75.2598L138.973 72.3802L140.748 69.6381L135.864 65.6533L132.944 67.252Z" fill="#AE7461"/>
<path d="M138.342 75.4899C138.396 75.5494 137.704 76.2621 136.72 76.984C135.737 77.7088 134.851 78.158 134.811 78.088C134.767 78.0146 135.573 77.4568 136.542 76.7418C137.512 76.0291 138.285 75.4263 138.342 75.4899Z" fill="#6F4439"/>
<path d="M245.378 41.1947L251.116 39.3889L254.122 44.4107L245.86 48.8192L245.378 41.1947Z" fill="#AE7461"/>
<path d="M252.52 36.1769C252.52 36.1769 254.807 33.0534 255.393 32.7655C255.98 32.4777 259.45 33.1019 259.709 33.5822C259.968 34.0626 259.709 35.0238 259.709 35.0238C259.709 35.0238 260.545 34.9278 260.785 35.5041C261.025 36.081 260.785 36.9457 260.785 36.9457C260.785 36.9457 261.265 37.2821 261.265 37.7624C261.265 38.2427 261.072 38.6514 261.072 38.6514C261.072 38.6514 261.649 39.252 261.457 39.8768C261.265 40.5016 257.805 43.0963 256.315 43.6732C254.826 44.25 253.721 44.9223 252.759 44.346C251.798 43.7691 251.077 39.5889 251.077 39.5889L252.52 36.1769Z" fill="#AE7461"/>
<path d="M261.192 38.2867C261.215 38.3641 259.838 38.9132 258.082 39.5028C257.64 39.6531 257.043 39.6415 256.729 39.2392C256.575 39.0439 256.547 38.7959 256.585 38.6C256.622 38.4 256.713 38.2329 256.823 38.1063C257.047 37.859 257.294 37.7624 257.455 37.7052C257.619 37.6514 257.715 37.6422 257.722 37.6613C257.729 37.6815 257.647 37.7283 257.503 37.8121C257.363 37.8971 257.153 38.0196 256.989 38.2404C256.833 38.4451 256.741 38.8225 256.946 39.0653C257.157 39.3167 257.588 39.3514 257.999 39.2132C259.728 38.6329 261.168 38.2052 261.192 38.2867Z" fill="#6F4439"/>
<path d="M256.226 35.1446C256.145 35.1302 256.133 34.8371 256.28 34.5192C256.425 34.2007 256.655 34.0186 256.718 34.0707C256.785 34.1233 256.681 34.3631 256.553 34.6446C256.423 34.925 256.308 35.1608 256.226 35.1446Z" fill="#6F4439"/>
<path d="M251.078 39.5884C251.078 39.5884 251.51 36.1764 251.751 35.744C251.991 35.3117 252.904 35.0232 252.904 35.0232L259.247 35.3596C259.247 35.3596 260.688 37.0896 258.478 37.3058C256.268 37.522 255.393 37.7144 255.393 37.7144C255.393 37.7144 256.075 38.3873 255.691 40.2612C255.307 42.1351 252.087 42.2796 252.087 42.2796L251.078 39.5884Z" fill="#AE7461"/>
<path d="M255.691 40.2612C255.666 40.2565 255.712 40.0103 255.737 39.5612C255.745 39.3369 255.747 39.0601 255.7 38.7468C255.654 38.4427 255.555 38.0618 255.322 37.7867L255.207 37.6509L255.371 37.6162C256.125 37.4567 257.018 37.3353 258.022 37.2197C258.516 37.1607 259.08 37.1474 259.422 36.818C259.735 36.4792 259.461 35.8689 259.133 35.4556L259.239 35.5088C258.752 35.4833 258.243 35.4567 257.724 35.4301C255.973 35.3307 254.326 35.2371 252.897 35.1556L252.944 35.1498C252.589 35.27 252.234 35.4255 251.991 35.6423C251.861 35.7509 251.817 35.8683 251.772 36.0388C251.728 36.1989 251.691 36.3596 251.658 36.5162C251.527 37.1434 251.434 37.6983 251.354 38.1549C251.281 38.5728 251.22 38.9242 251.168 39.2161C251.122 39.4612 251.092 39.5913 251.078 39.5895C251.063 39.5878 251.067 39.4537 251.087 39.2051C251.107 38.9566 251.144 38.593 251.2 38.1318C251.258 37.6705 251.33 37.1122 251.444 36.474C251.474 36.3145 251.506 36.1498 251.549 35.9787C251.581 35.8168 251.669 35.5914 251.825 35.4654C252.12 35.196 252.477 35.0388 252.864 34.8984L252.884 34.8909L252.911 34.892C254.34 34.9625 255.988 35.0435 257.74 35.1296C258.258 35.1579 258.768 35.1851 259.254 35.2117L259.323 35.2151L259.361 35.2648C259.554 35.5174 259.711 35.777 259.798 36.0816C259.889 36.3729 259.873 36.7642 259.63 37.011C259.135 37.4624 258.527 37.4185 258.049 37.4821C257.051 37.5803 256.151 37.6815 255.415 37.8127L255.464 37.6422C255.755 38.0121 255.815 38.3965 255.857 38.726C255.89 39.0577 255.873 39.3416 255.846 39.5699C255.816 39.7976 255.782 39.9722 255.75 40.0878C255.721 40.2039 255.701 40.2629 255.691 40.2612Z" fill="#6F4439"/>
<path d="M261.327 39.9988C261.367 40.0641 260.268 40.7935 258.721 41.3074C258.334 41.434 257.866 41.4744 257.514 41.2669C257.341 41.171 257.199 41.0259 257.125 40.856C257.049 40.686 257.048 40.5074 257.082 40.3646C257.156 40.0756 257.312 39.9057 257.413 39.7965C257.52 39.6895 257.593 39.6456 257.607 39.6589C257.658 39.6889 257.383 39.9392 257.292 40.4028C257.255 40.6299 257.369 40.8906 257.645 41.0218C257.912 41.164 258.267 41.1351 258.633 41.019C260.131 40.523 261.286 39.9201 261.327 39.9988Z" fill="#6F4439"/>
<path d="M260.542 36.7746C260.554 36.8584 260.186 36.9752 259.735 37.0994C259.284 37.2214 258.908 37.3075 258.875 37.2295C258.842 37.1544 259.183 36.937 259.656 36.8087C260.128 36.6792 260.532 36.6937 260.542 36.7746Z" fill="#6F4439"/>
<path d="M189.172 38.1052L178.981 39.4658L171.054 59.209C171.054 59.209 162.508 75.4899 160.305 81.3047C159.116 84.4427 159.457 87.0068 159.457 87.0068L199.817 73.8107L207.582 58.6743L212.096 45.4176L206.527 43.8714L205.031 41.6114L192.725 35.6995L189.172 38.1052Z" fill="#FF725E"/>
<path d="M228.622 45.6159L208.102 45.3702L206.527 59.2096C206.527 59.2096 228.078 56.8345 231.552 55.6438C235.025 54.4531 252.035 47.3915 252.035 47.3915L249.126 40.0155L228.622 45.6159Z" fill="#FF725E"/>
<path d="M246.958 47.5973C246.883 47.6291 246.291 46.3945 245.746 44.7991C245.198 43.2044 244.909 41.8663 244.987 41.8461C245.07 41.8235 245.487 43.1177 246.031 44.7015C246.572 46.2864 247.037 47.5644 246.958 47.5973Z" fill="#263238"/>
<path d="M247.124 41.5548C247.091 41.5328 247.319 41.3345 247.687 41.4952C247.855 41.5733 248.053 41.7386 248.104 42.0183C248.161 42.3027 247.97 42.6131 247.699 42.742C247.434 42.8825 247.07 42.8501 246.876 42.6339C246.683 42.4252 246.669 42.168 246.707 41.9871C246.798 41.5958 247.094 41.5316 247.091 41.5715C247.116 41.6097 246.93 41.7259 246.917 42.0172C246.911 42.1547 246.952 42.3299 247.071 42.4362C247.183 42.5455 247.383 42.5617 247.564 42.4726C247.743 42.3813 247.849 42.2114 247.829 42.0559C247.815 41.8969 247.7 41.7594 247.585 41.6819C247.344 41.5183 247.139 41.5975 247.124 41.5548Z" fill="#263238"/>
<path d="M188.877 77.5932C188.869 77.5863 188.925 77.499 189.039 77.3383C189.175 77.1522 189.342 76.9233 189.546 76.6459C189.772 76.3505 190.042 75.9841 190.337 75.5448C190.636 75.1089 190.99 74.6223 191.34 74.0564C192.074 72.9466 192.878 71.5808 193.725 70.0398C194.557 68.4901 195.426 66.7619 196.271 64.9151C197.955 61.217 199.299 57.7871 200.289 55.312C200.775 54.1075 201.175 53.1173 201.471 52.3844C201.606 52.0676 201.717 51.8064 201.808 51.5943C201.888 51.4145 201.934 51.3226 201.944 51.3261C201.954 51.3301 201.926 51.4295 201.864 51.6162C201.788 51.8341 201.694 52.1017 201.58 52.4266C201.307 53.1682 200.937 54.1699 200.487 55.3889C199.548 57.8842 198.234 61.3303 196.545 65.04C195.698 66.8925 194.817 68.6242 193.968 70.1727C193.104 71.7131 192.277 73.0743 191.518 74.1737C191.154 74.7344 190.787 75.2147 190.473 75.643C190.164 76.0742 189.88 76.432 189.638 76.7176C189.417 76.9817 189.234 77.1996 189.086 77.3765C188.957 77.525 188.886 77.5996 188.877 77.5932Z" fill="#263238"/>
<path d="M202.396 47.6037C202.381 47.6112 202.284 47.4476 202.119 47.1389C201.934 46.7806 201.704 46.3361 201.429 45.8026L201.571 45.8297C200.68 46.6528 199.423 47.7932 197.955 49.1088L197.856 49.1978L197.76 49.0961C197.068 48.3597 196.37 47.5083 195.676 46.602C193.976 44.3622 192.563 42.253 191.491 40.7635C190.979 40.0566 190.551 39.4658 190.216 39.0028C189.909 38.5924 189.745 38.3589 189.761 38.3456C189.777 38.3323 189.971 38.541 190.308 38.93C190.639 39.3242 191.109 39.9022 191.662 40.6375C192.781 42.0981 194.224 44.1905 195.915 46.4193C196.606 47.321 197.294 48.169 197.969 48.9019L197.774 48.8886C199.249 47.5921 200.527 46.4829 201.449 45.6968L201.544 45.6165L201.592 45.7245C201.837 46.2725 202.041 46.7291 202.206 47.0973C202.344 47.4187 202.411 47.5961 202.396 47.6037Z" fill="#263238"/>
<path d="M211.138 49.8758C211.148 49.8799 211.122 49.9689 211.062 50.1354C210.987 50.3336 210.897 50.5718 210.789 50.8579C210.547 51.4833 210.179 52.3809 209.712 53.4849C208.779 55.6935 207.429 58.7188 205.855 62.021C204.28 65.3238 202.787 68.2803 201.679 70.4062C201.125 71.4692 200.669 72.3252 200.346 72.9125C200.196 73.179 200.071 73.4009 199.967 73.5853C199.878 73.7379 199.826 73.8154 199.817 73.8107C199.808 73.8061 199.841 73.7188 199.913 73.5576C200.004 73.3657 200.112 73.1356 200.241 72.8588C200.557 72.2131 200.978 71.353 201.489 70.3097C202.547 68.1607 204.01 65.1914 205.583 61.8915C207.155 58.5922 208.535 55.5849 209.516 53.3994C209.992 52.3405 210.385 51.4671 210.68 50.8116C210.809 50.5348 210.917 50.3036 211.006 50.1117C211.084 49.9533 211.129 49.8718 211.138 49.8758Z" fill="#263238"/>
<g opacity="0.3">
<path d="M199.772 72.8351C199.445 72.5432 198.949 72.5807 198.514 72.6374C188.301 73.9772 182.577 76.1494 172.893 79.6579L199.251 74.0269C199.817 73.8107 200.1 73.1275 199.772 72.8351Z" fill="black"/>
</g>
<path d="M206.581 44.861C206.614 44.865 206.602 45.3384 206.417 46.0939C206.234 46.8465 205.848 47.8788 205.159 48.8973L205.039 49.0759L204.914 48.9001C204.804 48.7447 204.689 48.5793 204.579 48.4071C203.97 47.4655 203.551 46.5124 203.296 45.7407L203.516 45.7546C202.993 46.8083 202.634 47.473 202.59 47.4534C202.545 47.4331 202.825 46.7314 203.302 45.6459L203.417 45.3858L203.522 45.6598C203.808 46.4049 204.237 47.3245 204.832 48.2441C204.94 48.4123 205.052 48.5741 205.158 48.7273L204.913 48.7296C206.275 46.7505 206.489 44.8304 206.581 44.861Z" fill="#263238"/>
<g opacity="0.3">
<path d="M207.054 59.1471C208.73 58.2946 210.107 56.8686 210.901 55.1652C211.695 53.4612 211.901 51.4896 211.477 49.6585C209.743 52.6486 208.213 55.7559 206.898 58.9529" fill="black"/>
</g>
<g opacity="0.3">
<path d="M190.208 38.8075C192.101 43.1726 194.606 47.2719 197.628 50.9475C198.915 49.8677 200.079 48.6418 201.093 47.3014C201.527 47.6632 201.961 48.025 202.396 48.3869C202.171 47.6811 201.947 46.9759 201.723 46.2702C201.683 46.1436 201.62 45.9956 201.489 45.9731C201.389 45.9552 201.294 46.0222 201.214 46.0846C200.062 46.9846 198.91 47.8852 197.758 48.7851C194.919 45.6818 192.347 42.3351 190.078 38.793" fill="black"/>
</g>
<path d="M180.383 71.6472C180.373 71.6848 179.867 71.5946 179.067 71.3704C178.269 71.1467 177.18 70.7779 176.018 70.2698C174.857 69.7606 173.847 69.2109 173.141 68.7757C172.434 68.3404 172.024 68.03 172.045 67.9977C172.094 67.9196 173.835 68.9918 176.139 69.9941C178.438 71.0062 180.407 71.5588 180.383 71.6472Z" fill="#263238"/>
<path d="M185.465 69.3658C185.463 69.3866 185.266 69.3843 184.91 69.3629C184.555 69.3427 184.042 69.2959 183.411 69.2236C182.146 69.0809 180.407 68.8196 178.506 68.4202C176.606 68.0185 174.908 67.5543 173.694 67.1746C173.087 66.985 172.599 66.8208 172.266 66.696C171.932 66.5723 171.751 66.4948 171.757 66.4752C171.771 66.433 172.528 66.6445 173.753 66.9705C174.979 67.2971 176.676 67.726 178.569 68.126C180.46 68.5242 182.187 68.8173 183.439 69.0132C184.692 69.2092 185.47 69.3213 185.465 69.3658Z" fill="#263238"/>
<g opacity="0.3">
<path d="M172.235 66.6844C176.454 69.5733 181.876 70.6409 186.875 69.5676C182.016 69.1843 176.902 68.0277 172.235 66.626" fill="black"/>
</g>
<path d="M180.807 39.5901C178.055 38.7404 169.332 42.5293 169.332 42.5293C169.332 42.5293 154.52 48.5395 151.436 51.3249C148.351 54.1109 133.414 66.1093 133.414 66.1093L140.507 71.8201L157.972 59.8211L179.365 54.8473C179.365 54.8473 181.761 54.0219 184.527 49.644C187.293 45.2662 183.56 40.4398 180.807 39.5901Z" fill="#FF725E"/>
<path d="M183.493 51.9544C183.446 51.9237 184.013 51.174 184.626 49.8128C184.925 49.1313 185.225 48.2909 185.384 47.3239C185.549 46.3609 185.547 45.2673 185.285 44.1726C185.018 43.0813 184.505 42.1073 183.844 41.3981C183.185 40.6837 182.412 40.223 181.725 39.9612C180.325 39.4387 179.361 39.6907 179.365 39.6202C179.364 39.6097 179.42 39.593 179.529 39.5693C179.638 39.5415 179.801 39.5207 180.014 39.5045C180.439 39.4762 181.068 39.5178 181.797 39.7612C182.521 40.008 183.341 40.4681 184.046 41.2091C184.754 41.9455 185.299 42.964 185.577 44.1021C185.85 45.2425 185.842 46.38 185.657 47.3713C185.477 48.3661 185.148 49.2198 184.819 49.9024C184.485 50.5839 184.154 51.1012 183.909 51.4457C183.664 51.7902 183.508 51.9653 183.493 51.9544Z" fill="#263238"/>
<g opacity="0.3">
<path d="M171.962 56.8357C171.962 56.8357 175.237 57.5345 177.6 56.538C179.962 55.5415 181.771 54.2127 181.771 54.2127L171.962 56.8357Z" fill="black"/>
</g>
<path d="M140.653 68.4508C140.616 68.437 140.783 68.1959 141.17 68.2584C141.346 68.2919 141.572 68.4 141.689 68.6514C141.812 68.9057 141.708 69.2456 141.484 69.434C141.268 69.6317 140.918 69.6918 140.682 69.5369C140.448 69.3889 140.369 69.1508 140.359 68.9716C140.346 68.5809 140.607 68.4456 140.615 68.4844C140.649 68.5144 140.508 68.6716 140.57 68.9456C140.6 69.0751 140.682 69.2271 140.819 69.2959C140.95 69.3687 141.14 69.3346 141.286 69.208C141.43 69.0791 141.488 68.8965 141.433 68.7566C141.382 68.6121 141.242 68.5104 141.117 68.4647C140.853 68.3682 140.679 68.489 140.653 68.4508Z" fill="#263238"/>
<path d="M144.653 68.7231C144.598 68.7855 143.22 67.6722 141.576 66.2359C139.932 64.7995 138.644 63.5845 138.698 63.5215C138.752 63.4591 140.13 64.5724 141.774 66.0087C143.419 67.4451 144.708 68.6606 144.653 68.7231Z" fill="#263238"/>
<path d="M133.415 66.1093C133.418 66.1047 133.465 66.1347 133.551 66.1972C133.651 66.2723 133.776 66.3659 133.929 66.481C134.277 66.7515 134.755 67.1243 135.361 67.5954C136.617 68.5907 138.395 70.0005 140.578 71.7316L140.444 71.7264C144.298 69.093 149.416 65.5966 155.022 61.7661C156.05 61.0673 157.062 60.3795 158.024 59.7257L158.05 59.7084L158.081 59.7026C164.506 58.4992 170.096 57.0021 174.122 56.0085C176.134 55.5039 177.751 55.108 178.868 54.8467C179.409 54.7242 179.836 54.6271 180.153 54.5548C180.447 54.4918 180.602 54.4629 180.604 54.4722C180.606 54.4814 180.456 54.5282 180.166 54.6086C179.853 54.693 179.429 54.8068 178.894 54.9508C177.76 55.2508 176.157 55.675 174.171 56.2004C170.159 57.2455 164.574 58.7795 158.135 59.9957L158.192 59.9725C157.231 60.6269 156.219 61.3158 155.191 62.0152C149.569 65.8214 144.437 69.2959 140.571 71.9131L140.501 71.9605L140.437 71.9079C138.28 70.1444 136.523 68.708 135.283 67.6936C134.694 67.2023 134.227 66.8139 133.888 66.5318C133.743 66.4064 133.625 66.3052 133.531 66.2232C133.451 66.1526 133.412 66.1139 133.415 66.1093Z" fill="#263238"/>
<g opacity="0.3">
<path d="M171.256 41.7478C171.256 41.7478 174.003 43.1559 177.477 42.6501C180.951 42.1443 183.61 39.997 185.754 41.071C187.899 42.1449 192.573 48.4609 194.784 50.2296C196.995 51.9983 202.206 50.2296 202.206 50.2296H199.049L194.582 46.8366C194.582 46.8366 190.805 38.6503 187.962 38.3445C185.12 38.0387 178.611 38.3445 178.611 38.3445L171.256 41.7478Z" fill="black"/>
</g>
<path d="M201.62 48.6585C201.341 49.429 199.795 49.6585 198.769 49.2337C198.012 48.9198 197.093 47.9037 196.548 47.1459C194.246 43.9448 192.554 40.3392 189.485 37.8636C187.35 36.1411 184.218 35.5833 181.478 35.4562C178.738 35.3296 176.002 35.7764 173.259 35.7908C166.7 35.8255 166.023 34.6666 160.991 32.4967L157.293 34.8464L159.413 38.989C159.413 38.989 171.029 42.616 175.835 41.6594C180.732 40.6843 184.018 39.4329 186.46 40.3346C191.679 42.2623 194.094 48.9897 197.129 50.2643C200.026 51.4815 202.589 50.3273 202.589 50.3273L201.62 48.6585Z" fill="#455A64"/>
<path d="M200.851 49.6117L201.093 47.3014L201.973 46.7343L203.131 46.8378L203.758 47.8927C203.758 47.8927 203.671 50.433 201.668 50.6186L200.851 49.6117Z" fill="#455A64"/>
<path d="M202.307 50.4088C202.247 50.4666 201.911 50.2163 201.555 49.8498C201.382 49.6672 201.234 49.5244 201.11 49.4487C200.989 49.3712 200.889 49.3533 200.884 49.3094C200.875 49.273 200.992 49.2053 201.188 49.2504C201.381 49.2932 201.594 49.4521 201.771 49.64C202.127 50.007 202.366 50.351 202.307 50.4088Z" fill="#263238"/>
<path d="M203.484 49.3146C203.409 49.3608 203.016 48.8094 202.384 48.2892C201.758 47.7615 201.146 47.4736 201.177 47.3915C201.198 47.3164 201.904 47.4927 202.577 48.058C203.254 48.6181 203.554 49.2805 203.484 49.3146Z" fill="#263238"/>
<path d="M216.586 19.7099C217.446 19.2088 217.925 18.1291 217.72 17.1551C217.516 16.1812 216.642 15.3864 215.653 15.2737C215.875 14.3165 215.561 13.2524 214.853 12.5703C214.147 11.8877 213.072 11.6114 212.124 11.8681C211.326 10.682 209.648 10.1814 208.331 10.7363C207.458 10.312 206.32 10.5242 205.658 11.2346C204.997 11.9449 204.867 13.0957 205.353 13.9356L214.459 23.7526C215.502 24.1734 216.826 23.6878 217.349 22.6925C217.874 21.6966 217.524 20.3307 216.586 19.7099Z" fill="#263238"/>
<path d="M207.738 12.9229L207.251 12.7877C201.927 11.638 197.976 15.5182 196.973 20.8729L193.788 36.3486L201.025 44.5662L202.573 46.6898L205.331 40.7242C205.331 40.7242 210.585 41.3403 212.047 36.3214C212.753 33.8973 213.8 28.7882 214.694 24.1525C215.656 19.1683 212.628 14.2824 207.738 12.9229Z" fill="#AE7461"/>
<path d="M205.375 40.7288C205.375 40.7288 202.105 40.0288 199.312 36.9636C199.312 36.9636 199.467 41.3218 204.618 42.2646L205.375 40.7288Z" fill="#6F4439"/>
<path d="M211.894 28.2755C211.802 28.6593 211.401 28.8974 210.999 28.8084C210.597 28.7194 210.345 28.3373 210.437 27.9541C210.529 27.5703 210.93 27.3316 211.332 27.4206C211.734 27.5091 211.986 27.8917 211.894 28.2755Z" fill="#263238"/>
<path d="M212.928 26.3149C212.812 26.3837 212.38 25.8294 211.605 25.6161C210.835 25.3924 210.156 25.6328 210.098 25.5149C210.069 25.4612 210.206 25.3172 210.504 25.2057C210.798 25.0941 211.261 25.0352 211.743 25.171C212.224 25.3074 212.58 25.5976 212.763 25.8444C212.949 26.0929 212.983 26.2854 212.928 26.3149Z" fill="#263238"/>
<path d="M205.03 26.4184C204.938 26.8016 204.537 27.0403 204.135 26.9513C203.733 26.8629 203.482 26.4808 203.574 26.097C203.666 25.7138 204.067 25.475 204.468 25.5635C204.87 25.6513 205.122 26.0346 205.03 26.4184Z" fill="#263238"/>
<path d="M205.279 24.3456C205.164 24.4144 204.73 23.8601 203.956 23.6474C203.186 23.4237 202.507 23.6641 202.449 23.5456C202.42 23.4925 202.557 23.348 202.855 23.237C203.148 23.1254 203.612 23.0665 204.094 23.2023C204.575 23.3387 204.931 23.6289 205.114 23.8757C205.301 24.1236 205.335 24.3161 205.279 24.3456Z" fill="#263238"/>
<path d="M206.494 30.8662C206.502 30.8211 207.006 30.8714 207.814 30.9887C208.017 31.0234 208.215 31.0361 208.286 30.9101C208.372 30.78 208.349 30.5442 208.317 30.2876C208.264 29.7581 208.209 29.2026 208.151 28.62C207.934 26.2519 207.836 24.3271 207.932 24.319C208.027 24.3109 208.28 26.2241 208.496 28.5923C208.545 29.1749 208.592 29.7304 208.636 30.2616C208.648 30.5072 208.706 30.7974 208.523 31.0656C208.429 31.1985 208.254 31.2656 208.118 31.2644C207.98 31.2679 207.869 31.239 207.769 31.2176C206.972 31.0424 206.484 30.9107 206.494 30.8662Z" fill="#263238"/>
<path d="M206.322 21.3683C206.187 21.5573 205.442 21.2428 204.504 21.1001C203.568 20.9382 202.762 21.0006 202.694 20.7787C202.665 20.6735 202.848 20.5111 203.201 20.3891C203.55 20.2671 204.072 20.2041 204.635 20.2949C205.197 20.3868 205.672 20.6116 205.965 20.8382C206.261 21.0654 206.383 21.2775 206.322 21.3683Z" fill="#263238"/>
<path d="M213.265 23.9959C213.08 24.1341 212.597 23.8034 211.959 23.6167C211.326 23.4075 210.742 23.4058 210.668 23.1873C210.638 23.0826 210.773 22.9301 211.056 22.8301C211.336 22.7289 211.764 22.7023 212.201 22.8381C212.638 22.9746 212.975 23.2399 213.149 23.4821C213.324 23.7254 213.349 23.9271 213.265 23.9959Z" fill="#263238"/>
<path d="M196.421 25.9999C196.605 25.2138 196.106 24.4138 195.311 24.2722C194.347 24.1005 193.153 24.3433 192.676 26.3016C191.83 29.7754 195.492 29.909 195.522 29.8107C195.542 29.7442 196.079 27.4565 196.421 25.9999Z" fill="#AE7461"/>
<path d="M195.084 28.32C195.072 28.305 195.013 28.3478 194.9 28.3697C194.789 28.3911 194.61 28.3807 194.446 28.2686C194.111 28.0443 193.944 27.3865 194.08 26.7565C194.148 26.4386 194.288 26.1536 194.461 25.9317C194.629 25.7034 194.837 25.5658 195.029 25.5779C195.224 25.5802 195.328 25.7224 195.346 25.8305C195.369 25.9392 195.33 26.0028 195.347 26.0132C195.355 26.0241 195.436 25.9733 195.443 25.823C195.446 25.7507 195.425 25.6588 195.359 25.5721C195.292 25.4837 195.178 25.4195 195.046 25.4022C194.774 25.3554 194.473 25.5432 194.283 25.7866C194.078 26.0276 193.914 26.3461 193.838 26.7039C193.689 27.4096 193.888 28.1518 194.355 28.4194C194.584 28.5425 194.806 28.5188 194.931 28.4622C195.058 28.4027 195.095 28.3293 195.084 28.32Z" fill="#6F4439"/>
<path d="M213.823 16.1962C213.816 16.1008 213.798 16.0055 213.77 15.9147C213.562 15.2298 212.989 14.6922 212.316 14.4581C211.966 14.1373 211.61 13.857 211.263 13.6252C211.008 12.6732 210.308 11.8374 209.388 11.4744C208.346 11.0629 207.094 11.2825 206.23 11.9912C206.083 11.9721 205.935 11.9565 205.787 11.9426C205.222 11.2322 204.346 10.7721 203.438 10.7294C202.419 10.682 201.39 11.1588 200.767 11.9663C199.991 11.5132 198.946 11.5721 198.225 12.1091C197.504 12.6461 197.149 13.6304 197.362 14.5044C196.644 14.6859 195.944 15.1535 195.733 15.8633C195.534 16.532 195.968 17.3632 196.638 17.4603C196.057 19.077 195.61 21.0498 195.302 22.8052C194.945 24.834 196.139 25.5664 196.061 26.0479C195.376 30.2616 197.521 28.4911 200.348 20.4897C200.661 20.4325 200.943 20.2683 201.078 19.9822C201.185 19.7539 201.204 19.4597 201.413 19.3181C201.663 19.1493 201.99 19.3152 202.27 19.4256C203.242 19.8099 204.464 19.3868 204.989 18.4834C205.138 18.9366 205.739 19.0857 206.194 18.9441C206.65 18.8025 207.012 18.4638 207.41 18.2013C207.809 17.9389 208.32 17.747 208.756 17.9383C209.001 18.0453 209.197 18.2632 209.459 18.3112C209.923 18.3967 210.291 17.9285 210.484 17.4985C210.651 17.1262 210.833 16.7089 211.169 16.5106C211.464 16.4644 211.76 16.45 212.06 16.506C212.232 16.5742 212.402 16.6569 212.567 16.7303C212.637 16.7615 212.716 16.7823 212.794 16.8043C212.89 16.8673 212.986 16.9395 213.082 17.0251C214.398 18.184 214.851 21.707 214.851 21.707C215.513 19.7394 214.889 17.7736 213.823 16.1962Z" fill="#263238"/>
<path d="M211.347 15.4234C211.349 15.4246 211.343 15.4454 211.328 15.4864C211.312 15.5263 211.292 15.5881 211.255 15.6644C211.18 15.8147 211.05 16.0321 210.821 16.2586C210.592 16.4806 210.266 16.7193 209.832 16.8603C209.404 17.0066 208.858 17.0563 208.309 16.8707L208.389 16.8106C208.414 17.1349 208.287 17.48 208.055 17.7424C207.831 18.0117 207.536 18.2239 207.231 18.4256C207.077 18.5204 206.932 18.6418 206.736 18.7134C206.545 18.7817 206.336 18.7938 206.134 18.7643C205.732 18.7059 205.327 18.4643 205.135 18.0591L205.274 18.058C204.996 18.7181 204.417 19.2949 203.682 19.5406C203.289 19.6862 202.844 19.718 202.449 19.5972C202.051 19.4828 201.713 19.2626 201.402 19.0429L201.506 19.0279C201.202 19.4048 200.816 19.6909 200.396 19.8643C199.982 20.0394 199.486 20.0718 199.105 19.8579C198.341 19.4602 197.989 18.6343 198.058 17.9678L198.125 18.0256C197.661 18.1331 197.222 18.0343 196.894 17.8707C196.56 17.7083 196.326 17.4788 196.171 17.2736C196.016 17.065 195.943 16.8748 195.903 16.7459C195.87 16.6147 195.861 16.5442 195.865 16.5436C195.887 16.5343 195.907 16.8372 196.218 17.2366C196.376 17.4297 196.607 17.6447 196.931 17.7927C197.249 17.9424 197.667 18.0268 198.099 17.9198L198.173 17.9013L198.166 17.9782C198.111 18.6025 198.455 19.377 199.166 19.7377C199.512 19.9273 199.949 19.8966 200.341 19.7313C200.734 19.5666 201.103 19.2903 201.386 18.9354L201.431 18.8793L201.49 18.9204C201.796 19.1354 202.123 19.3446 202.491 19.4493C202.857 19.5597 203.256 19.5319 203.631 19.3943C204.325 19.1614 204.868 18.6221 205.134 17.9984L205.201 17.8418L205.273 17.9979C205.434 18.3435 205.794 18.5672 206.155 18.6204C206.336 18.6481 206.521 18.6377 206.687 18.5794C206.849 18.5239 206.998 18.4054 207.154 18.31C207.458 18.1129 207.743 17.9094 207.955 17.6597C208.173 17.4152 208.286 17.1124 208.269 16.8205L208.263 16.7303L208.348 16.7598C208.863 16.9413 209.386 16.9037 209.802 16.7708C210.224 16.643 210.545 16.4199 210.774 16.2112C211.233 15.776 211.325 15.4084 211.347 15.4234Z" fill="#455A64"/>
<path d="M204.784 31.5499C204.696 31.4973 204.601 31.443 204.498 31.4476C204.327 31.4552 204.209 31.6193 204.134 31.7731C203.883 32.2881 203.817 32.9106 204.044 33.4366C204.129 33.6337 204.277 33.788 204.476 33.9042C205.127 34.2811 205.968 34.0123 206.398 33.395L206.876 32.7094C206.425 32.4407 205.234 31.8187 204.784 31.5499Z" fill="#6F4439"/>
<path d="M206.909 32.6996C206.898 32.736 206.577 32.6592 206.117 32.4089C205.653 32.1829 205.049 31.7384 204.313 31.5401L204.476 31.4679C204.416 31.5765 204.354 31.691 204.297 31.8083C204.102 32.1991 203.995 32.5967 204.049 32.9511C204.091 33.3083 204.296 33.5678 204.531 33.7111C205.015 33.9874 205.409 34.0186 205.393 34.0741C205.391 34.0961 205.008 34.1568 204.424 33.8955C204.138 33.7614 203.838 33.4273 203.774 32.9944C203.692 32.5667 203.818 32.0904 204.026 31.676C204.087 31.5505 204.153 31.432 204.216 31.3211L204.274 31.2182L204.379 31.2482C205.222 31.4904 205.782 31.9684 206.219 32.2355C206.644 32.5279 206.921 32.6615 206.909 32.6996Z" fill="#263238"/>
<path d="M239.364 111.614L249.023 123.147L265.666 107.646C264.088 106.147 252.505 110.975 252.505 110.975L247.168 104.815L239.364 111.614Z" fill="#263238"/>
<path d="M246.687 115.046C246.447 115.435 246.561 116.004 246.939 116.259C247.317 116.515 247.897 116.404 248.144 116.019C248.391 115.636 248.274 114.948 247.87 114.736C247.466 114.524 246.792 114.693 246.645 115.125" fill="#E0E0E0"/>
<path d="M249.023 123.147L247.7 121.757L264.272 107.462C264.272 107.462 265.316 107.101 265.715 107.704L249.023 123.147Z" fill="#E0E0E0"/>
<path d="M252.695 110.639C252.768 110.723 252.396 111.138 252.24 111.772C252.067 112.402 252.188 112.946 252.084 112.983C251.994 113.036 251.663 112.438 251.866 111.674C252.062 110.908 252.644 110.547 252.695 110.639Z" fill="#E0E0E0"/>
<path d="M255.114 109.735C255.206 109.796 254.983 110.263 255.027 110.863C255.053 111.465 255.329 111.902 255.245 111.973C255.18 112.057 254.681 111.634 254.64 110.886C254.594 110.138 255.04 109.659 255.114 109.735Z" fill="#E0E0E0"/>
<path d="M258.051 110.901C257.993 110.987 257.501 110.686 257.296 110.046C257.085 109.408 257.305 108.876 257.403 108.911C257.511 108.935 257.486 109.404 257.663 109.926C257.828 110.453 258.124 110.817 258.051 110.901Z" fill="#E0E0E0"/>
<path d="M250.722 108.813C250.757 108.919 250.28 109.154 249.849 109.613C249.409 110.064 249.195 110.551 249.088 110.521C248.987 110.506 249.055 109.88 249.57 109.346C250.08 108.809 250.702 108.713 250.722 108.813Z" fill="#E0E0E0"/>
<path d="M248.487 107.208C248.519 107.241 248.245 107.59 247.649 107.981C247.353 108.174 246.974 108.371 246.528 108.525C246.305 108.602 246.065 108.668 245.813 108.717C245.69 108.739 245.553 108.774 245.379 108.755C245.21 108.754 244.958 108.586 244.939 108.357C244.905 108.15 245.004 107.954 245.122 107.84C245.241 107.722 245.363 107.654 245.474 107.592C245.701 107.464 245.933 107.364 246.158 107.287C246.611 107.136 247.039 107.078 247.397 107.076C248.116 107.074 248.53 107.255 248.517 107.296C248.505 107.357 248.08 107.278 247.413 107.349C247.08 107.385 246.689 107.465 246.279 107.622C246.075 107.701 245.867 107.8 245.663 107.92C245.444 108.038 245.293 108.177 245.32 108.297C245.332 108.342 245.341 108.356 245.426 108.374C245.508 108.386 245.623 108.366 245.744 108.345C245.98 108.304 246.207 108.249 246.419 108.186C246.843 108.06 247.212 107.9 247.512 107.745C248.112 107.433 248.447 107.163 248.487 107.208Z" fill="#E0E0E0"/>
<path d="M248.489 107.423C248.472 107.463 248.039 107.322 247.52 106.823C247.262 106.575 246.995 106.233 246.783 105.804C246.679 105.589 246.589 105.353 246.524 105.1C246.469 104.845 246.383 104.514 246.664 104.184C246.823 104.025 247.08 104.026 247.229 104.092C247.389 104.153 247.49 104.24 247.599 104.318C247.81 104.484 247.984 104.678 248.122 104.879C248.399 105.282 248.529 105.712 248.568 106.071C248.644 106.805 248.396 107.219 248.364 107.197C248.298 107.182 248.436 106.761 248.298 106.115C248.231 105.796 248.089 105.425 247.832 105.086C247.705 104.916 247.55 104.755 247.368 104.618C247.177 104.466 246.978 104.385 246.929 104.464C246.845 104.54 246.828 104.804 246.892 105.009C246.946 105.238 247.02 105.453 247.106 105.653C247.282 106.051 247.505 106.381 247.72 106.635C248.151 107.146 248.522 107.37 248.489 107.423Z" fill="#E0E0E0"/>
<path d="M141.857 137.822L127.409 142.013L134.888 163.492C136.896 162.652 137.147 150.105 137.147 150.105L144.935 147.703L141.857 137.822Z" fill="#263238"/>
<path d="M135.764 143.14C135.506 142.764 134.939 142.639 134.552 142.882C134.166 143.125 134.034 143.701 134.286 144.081C134.537 144.462 135.214 144.632 135.571 144.348C135.927 144.064 136.045 143.379 135.71 143.07" fill="#E0E0E0"/>
<path d="M127.409 142.013L129.215 141.362L135.619 162.291C135.619 162.291 135.529 163.392 134.817 163.514L127.409 142.013Z" fill="#E0E0E0"/>
<path d="M137.377 150.415C137.271 150.448 137.041 149.941 136.524 149.542C136.018 149.13 135.47 149.022 135.478 148.911C135.465 148.807 136.147 148.745 136.764 149.238C137.385 149.727 137.481 150.404 137.377 150.415Z" fill="#E0E0E0"/>
<path d="M137.23 152.993C137.137 153.052 136.8 152.66 136.232 152.459C135.67 152.24 135.159 152.317 135.128 152.211C135.077 152.118 135.666 151.832 136.367 152.096C137.07 152.354 137.329 152.956 137.23 152.993Z" fill="#E0E0E0"/>
<path d="M134.979 155.211C134.923 155.124 135.396 154.795 136.065 154.864C136.733 154.929 137.132 155.345 137.061 155.419C136.995 155.508 136.576 155.297 136.026 155.249C135.479 155.187 135.025 155.312 134.979 155.211Z" fill="#E0E0E0"/>
<path d="M139.842 149.345C139.731 149.334 139.708 148.803 139.462 148.223C139.227 147.64 138.867 147.248 138.938 147.162C138.993 147.074 139.538 147.39 139.819 148.075C140.105 148.759 139.942 149.367 139.842 149.345Z" fill="#E0E0E0"/>
<path d="M142.213 147.946C142.17 147.962 141.961 147.57 141.844 146.869C141.786 146.519 141.759 146.093 141.798 145.623C141.818 145.388 141.854 145.142 141.911 144.891C141.939 144.77 141.963 144.631 142.05 144.479C142.119 144.324 142.375 144.161 142.591 144.236C142.795 144.289 142.934 144.458 142.991 144.612C143.052 144.769 143.064 144.908 143.076 145.035C143.102 145.295 143.101 145.546 143.08 145.784C143.036 146.259 142.916 146.674 142.774 147.002C142.486 147.661 142.154 147.968 142.121 147.939C142.07 147.904 142.314 147.547 142.518 146.907C142.619 146.588 142.703 146.197 142.724 145.759C142.734 145.541 142.728 145.311 142.7 145.076C142.681 144.827 142.615 144.633 142.493 144.61C142.447 144.602 142.431 144.605 142.381 144.676C142.337 144.746 142.309 144.859 142.279 144.978C142.222 145.211 142.181 145.44 142.153 145.66C142.097 146.099 142.095 146.502 142.116 146.839C142.158 147.513 142.27 147.928 142.213 147.946Z" fill="#E0E0E0"/>
<path d="M142.015 147.862C141.986 147.83 142.289 147.491 142.955 147.216C143.286 147.081 143.706 146.974 144.184 146.952C144.423 146.943 144.675 146.956 144.932 146.999C145.188 147.051 145.526 147.106 145.714 147.496C145.797 147.706 145.692 147.94 145.571 148.05C145.45 148.171 145.331 148.229 145.215 148.298C144.978 148.425 144.73 148.506 144.491 148.551C144.01 148.643 143.565 148.588 143.22 148.479C142.517 148.253 142.239 147.859 142.272 147.838C142.312 147.785 142.642 148.08 143.289 148.215C143.608 148.281 144.005 148.301 144.418 148.203C144.624 148.155 144.834 148.078 145.033 147.967C145.25 147.854 145.404 147.704 145.351 147.626C145.316 147.519 145.08 147.397 144.868 147.373C144.637 147.329 144.409 147.31 144.192 147.309C143.757 147.31 143.365 147.38 143.046 147.474C142.404 147.665 142.05 147.913 142.015 147.862Z" fill="#E0E0E0"/>
<path d="M158.331 88.142C158.331 88.142 156.941 94.992 158.916 100.377C160.89 105.763 162.694 107.139 162.694 107.139L164.387 126.726L162.694 127.243L135.638 137.398L139.281 151.439C139.281 151.439 174.925 139.227 177.618 136.534C180.31 133.842 180.549 130.567 181.267 124.284C181.985 118.002 181.775 96.6266 181.775 96.6266L167.631 81.5099L158.721 85.3045" fill="#263238"/>
<path d="M159.96 93.7071C160.28 98.1554 165.062 106.217 176.749 102.925C188.436 99.6328 211.179 89.1818 211.179 89.1818L212.674 89.554L242.137 117.865L253.35 106.279L222.269 74.7881C219.704 72.1576 216.077 70.7866 212.425 71.1935C212.138 71.2253 211.874 71.2669 211.646 71.3201C209.506 71.8137 173.786 79.5504 173.786 79.5504L170.011 80.5024L159.241 85.0583L159.96 93.7071Z" fill="#263238"/>
<path d="M215.863 81.4977C215.899 81.5064 215.821 82.0006 215.585 82.7716C215.349 83.5421 214.935 84.5849 214.328 85.6582C213.718 86.731 213.036 87.6212 212.495 88.2188C211.955 88.8177 211.571 89.1379 211.545 89.1119C211.473 89.0471 212.875 87.6293 214.066 85.5097C215.274 83.4005 215.771 81.4694 215.863 81.4977Z" fill="#455A64"/>
<path d="M171.054 88.2876C171.085 88.3096 170.807 88.787 170.283 89.5101C169.76 90.2326 168.979 91.1921 168.025 92.1667C167.069 93.14 166.125 93.94 165.413 94.4776C164.701 95.0163 164.229 95.3035 164.207 95.2729C164.18 95.2365 164.607 94.8891 165.28 94.3122C165.952 93.736 166.864 92.9198 167.809 91.9563C168.753 90.9916 169.552 90.0644 170.115 89.3801C170.678 88.6951 171.017 88.2616 171.054 88.2876Z" fill="#455A64"/>
<path d="M163.275 105.74C167.548 107.404 172.414 107.496 176.748 105.995L163.275 105.74Z" fill="#263238"/>
<path d="M176.747 105.995C176.754 106.015 176.578 106.092 176.25 106.216C175.925 106.344 175.441 106.496 174.835 106.652C173.626 106.967 171.901 107.238 169.985 107.205C168.069 107.166 166.356 106.829 165.159 106.468C164.56 106.289 164.082 106.12 163.762 105.98C163.44 105.844 163.266 105.76 163.273 105.74C163.292 105.692 164.014 105.96 165.214 106.263C166.413 106.567 168.104 106.866 169.991 106.904C171.877 106.937 173.577 106.703 174.787 106.445C175.999 106.187 176.731 105.946 176.747 105.995Z" fill="#455A64"/>
<path d="M170.011 80.5035C170.011 80.5035 170.172 80.4527 170.491 80.3671C170.818 80.2816 171.291 80.1573 171.91 79.9949C172.536 79.8394 173.305 79.618 174.227 79.4122C175.15 79.2076 176.214 78.9718 177.414 78.7059C182.223 77.6493 189.186 76.1193 197.834 74.2194C202.166 73.2807 206.899 72.2131 212.033 71.1363C214.65 70.727 217.495 71.2877 219.91 72.7553C221.137 73.4599 222.181 74.4858 223.171 75.5147C224.182 76.5378 225.208 77.5759 226.247 78.6273C234.559 87.0432 243.743 96.3405 253.456 106.175L253.559 106.279L253.458 106.384C251.335 108.577 249.077 110.912 246.794 113.27C245.266 114.849 243.749 116.416 242.245 117.97L242.141 118.077L242.033 117.973C231.451 107.797 221.457 98.1872 212.581 89.6511L212.642 89.6847C212.128 89.5564 211.636 89.4332 211.147 89.3113L211.235 89.3032C203.21 92.9418 195.75 96.1116 189.043 98.7352C185.688 100.041 182.522 101.215 179.544 102.168C178.054 102.641 176.62 103.083 175.207 103.371C173.799 103.67 172.422 103.777 171.117 103.754C168.494 103.711 166.221 102.809 164.575 101.635C162.915 100.451 161.859 99.0184 161.2 97.7901C160.546 96.5497 160.236 95.5064 160.102 94.7955C160.014 94.4435 160.014 94.1643 159.984 93.9828C159.964 93.7995 159.959 93.7065 159.959 93.7065C159.959 93.7065 159.979 93.799 160.006 93.9805C160.043 94.1602 160.05 94.4371 160.143 94.7862C160.291 95.4914 160.612 96.5243 161.274 97.7497C161.94 98.9629 162.998 100.374 164.647 101.534C166.282 102.684 168.528 103.564 171.122 103.595C172.413 103.612 173.776 103.5 175.171 103.198C176.568 102.908 178 102.462 179.485 101.985C182.453 101.024 185.613 99.8421 188.962 98.5283C195.657 95.8902 203.11 92.7065 211.123 89.0593L211.166 89.0396L211.211 89.0512C211.701 89.1726 212.193 89.2951 212.707 89.4228L212.741 89.4315L212.767 89.4564C221.65 97.9855 231.651 107.589 242.241 117.756L242.029 117.76C243.532 116.207 245.049 114.639 246.576 113.061C248.859 110.702 251.118 108.368 253.241 106.175L253.242 106.384C243.536 96.5422 234.36 87.2368 226.054 78.8146C225.016 77.7614 223.992 76.7222 222.982 75.6974C221.983 74.6569 220.982 73.6703 219.776 72.9726C217.416 71.5305 214.624 70.9779 212.071 71.3715C206.963 72.4316 202.206 73.4917 197.878 74.4159C189.221 76.2777 182.251 77.777 177.437 78.8123C176.236 79.0683 175.169 79.2955 174.244 79.4932C173.321 79.6903 172.55 79.9024 171.922 80.0492C171.3 80.1995 170.825 80.3145 170.497 80.3937C170.177 80.4712 170.011 80.5035 170.011 80.5035Z" fill="#455A64"/>
<g opacity="0.3">
<path d="M165.971 102.423C165.971 102.423 169.69 105.654 174.412 105.277C179.133 104.899 181.804 103.866 181.804 103.866L181.801 101.315C181.801 101.315 172.639 105.425 165.971 102.423Z" fill="black"/>
</g>
</svg>
