<svg width="84" height="85" viewBox="0 0 84 85" fill="none" xmlns="http://www.w3.org/2000/svg">
<path d="M42 61.9037C62.2965 61.9037 78.75 53.248 78.75 42.5706C78.75 31.8932 62.2965 23.2375 42 23.2375C21.7035 23.2375 5.25 31.8932 5.25 42.5706C5.25 53.248 21.7035 61.9037 42 61.9037Z" fill="#FF9D4D"/>
<path d="M41.9999 60.4678C61.5034 60.4678 77.314 52.455 77.314 42.5706C77.314 32.6862 61.5034 24.6733 41.9999 24.6733C22.4965 24.6733 6.68579 32.6862 6.68579 42.5706C6.68579 52.455 22.4965 60.4678 41.9999 60.4678Z" fill="#FF9D4D"/>
<path d="M49.1532 48.3456L50.9041 39.3314C51.1535 38.5599 51.1946 37.7362 51.0231 36.9438C50.8516 36.1514 50.4736 35.4183 49.9276 34.819C48.4033 33.7367 46.5369 33.2467 44.6776 33.4409H41.6509L42.5198 28.9784C42.5357 28.8953 42.533 28.8097 42.5119 28.7278C42.4909 28.6459 42.452 28.5696 42.3981 28.5044C42.3442 28.4392 42.2766 28.3868 42.2001 28.3507C42.1236 28.3147 42.04 28.2959 41.9554 28.2959H37.7554C37.6221 28.2959 37.4929 28.3422 37.3899 28.4269C37.2869 28.5117 37.2166 28.6296 37.1911 28.7605L35.3299 38.3313C35.1867 37.308 34.752 36.3475 34.0778 35.5645C33.3272 34.8127 32.4216 34.2337 31.4241 33.8679C30.4267 33.502 29.3615 33.3581 28.3028 33.4461H20.2126C20.0792 33.4461 19.95 33.4924 19.847 33.5772C19.7441 33.662 19.6738 33.7799 19.6482 33.9108L15.8839 53.2833C15.8681 53.3664 15.8708 53.4519 15.8918 53.5338C15.9129 53.6158 15.9517 53.6921 16.0056 53.7572C16.0595 53.8224 16.1272 53.8749 16.2037 53.911C16.2802 53.947 16.3637 53.9657 16.4483 53.9658H20.6562C20.7896 53.9658 20.9188 53.9195 21.0217 53.8347C21.1247 53.75 21.195 53.632 21.2206 53.5011L22.1314 48.8155H25.2814C26.6722 48.8527 28.0605 48.6756 29.3974 48.2905C30.5247 47.9176 31.5556 47.2999 32.4162 46.4819C33.1215 45.8395 33.7235 45.0922 34.2012 44.2664L33.4478 48.1383C33.432 48.2214 33.4347 48.3069 33.4557 48.3889C33.4767 48.4708 33.5156 48.5471 33.5695 48.6122C33.6234 48.6774 33.691 48.7299 33.7676 48.766C33.8441 48.802 33.9276 48.8207 34.0122 48.8208H38.2122C38.3456 48.8208 38.4748 48.7745 38.5777 48.6897C38.6807 48.605 38.751 48.487 38.7766 48.3561L40.8424 37.7223H43.7142C44.9374 37.7223 45.2892 37.9664 45.3942 38.0714C45.4992 38.1764 45.6567 38.5045 45.4598 39.565L43.7929 48.1356C43.7771 48.2187 43.7798 48.3043 43.8008 48.3862C43.8219 48.4682 43.8607 48.5444 43.9146 48.6096C43.9685 48.6748 44.0362 48.7273 44.1127 48.7633C44.1892 48.7994 44.2727 48.8181 44.3573 48.8181H48.6098C48.7407 48.813 48.8658 48.7634 48.9646 48.6775C49.0635 48.5916 49.13 48.4745 49.1532 48.3456ZM29.7413 40.9064C29.6129 42.0084 29.0898 43.0267 28.2687 43.7729C27.2373 44.4145 26.0278 44.7097 24.8168 44.6155H22.9478L24.2997 37.6566H26.7173C28.4944 37.6566 29.2084 38.0373 29.4972 38.3549C29.7175 38.7382 29.8532 39.1642 29.8953 39.6042C29.9374 40.0443 29.8849 40.4883 29.7413 40.9064Z" fill="white"/>
<path d="M67.0582 35.5671C66.3076 34.8153 65.402 34.2363 64.4046 33.8705C63.4072 33.5046 62.342 33.3607 61.2832 33.4487H53.1694C53.036 33.4487 52.9068 33.495 52.8038 33.5798C52.7008 33.6645 52.6306 33.7825 52.605 33.9133L48.8407 53.2858C48.8249 53.3689 48.8276 53.4545 48.8486 53.5364C48.8697 53.6184 48.9085 53.6946 48.9624 53.7598C49.0163 53.825 49.0839 53.8775 49.1605 53.9135C49.237 53.9496 49.3205 53.9683 49.4051 53.9683H53.6261C53.7595 53.9684 53.8887 53.9221 53.9917 53.8373C54.0946 53.7525 54.1649 53.6346 54.1905 53.5037L55.1014 48.8181H58.2514C59.6422 48.8552 61.0304 48.6782 62.3674 48.2931C63.4946 47.9201 64.5255 47.3025 65.3861 46.4845C66.86 45.1562 67.853 43.3777 68.2106 41.4261C68.493 40.4277 68.5359 39.3767 68.3356 38.3587C68.1354 37.3406 67.6977 36.3842 67.0582 35.5671ZM62.6824 40.9063C62.554 42.0084 62.0308 43.0267 61.2097 43.7728C60.1758 44.4151 58.9633 44.7095 57.75 44.6128H55.8862L57.2381 37.654H59.6557C61.4329 37.654 62.1469 38.0346 62.4356 38.3522C62.6567 38.7357 62.7931 39.162 62.8356 39.6026C62.8782 40.0431 62.8259 40.4877 62.6824 40.9063Z" fill="white"/>
<path d="M26.7172 37.0791C27.2836 37.0078 27.8584 37.0495 28.4086 37.2018C28.9587 37.3541 29.4732 37.614 29.9223 37.9664C30.2121 38.4125 30.3969 38.9186 30.4628 39.4465C30.5287 39.9744 30.4741 40.5103 30.3029 41.014C30.1529 42.2543 29.5533 43.3965 28.6177 44.2244C27.4893 44.9512 26.1554 45.292 24.8167 45.1956H22.2494L23.8244 37.087L26.7172 37.0791ZM16.4351 53.3962H20.6561L21.6562 48.2459H25.2708C26.6013 48.2822 27.9294 48.1131 29.2083 47.7445C30.2579 47.3979 31.2173 46.8223 32.0171 46.0593C33.4013 44.814 34.3337 43.1449 34.6683 41.3133C34.9332 40.4024 34.9797 39.442 34.8042 38.5098C34.6286 37.5776 34.2358 36.6998 33.6577 35.9478C32.9606 35.2583 32.1215 34.7291 31.1989 34.3973C30.2763 34.0654 29.2924 33.9388 28.3158 34.0263H20.2124L16.4351 53.3962Z" fill="white"/>
<path d="M37.7659 28.8734H41.9659L40.95 34.0236H44.6802C46.3934 33.8443 48.1145 34.2797 49.5364 35.2521C50.007 35.787 50.3287 36.4363 50.4692 37.1347C50.6097 37.8332 50.5642 38.5563 50.337 39.2316L48.5862 48.2459H44.3363L46.0032 39.6752C46.1192 39.3481 46.1606 38.9991 46.1243 38.6539C46.088 38.3087 45.9748 37.976 45.7932 37.6802C45.1853 37.2448 44.4344 37.0571 43.6932 37.1552H40.3463L38.1885 48.2537H33.9885L37.7659 28.8734Z" fill="white"/>
<path d="M59.6583 37.0791C60.2247 37.0078 60.7996 37.0495 61.3498 37.2018C61.8999 37.3541 62.4144 37.614 62.8635 37.9664C63.1532 38.4125 63.3381 38.9186 63.404 39.4465C63.4699 39.9744 63.4152 40.5103 63.2441 41.014C63.094 42.2543 62.4945 43.3965 61.5588 44.2244C60.4282 44.9529 59.0914 45.2938 57.75 45.1956H55.1827L56.7577 37.087L59.6583 37.0791ZM49.3762 53.3962H53.5972L54.5973 48.2459H58.212C59.5424 48.2822 60.8706 48.1131 62.1495 47.7445C63.1991 47.3979 64.1585 46.8223 64.9582 46.0593C66.3425 44.814 67.2749 43.1449 67.6095 41.3133C67.8744 40.4024 67.9209 39.442 67.7453 38.5098C67.5697 37.5776 67.177 36.6998 66.5989 35.9478C65.9018 35.2583 65.0627 34.7291 64.14 34.3973C63.2174 34.0654 62.2335 33.9388 61.257 34.0263H53.1405L49.3762 53.3962Z" fill="white"/>
</svg>
