<svg width="72" height="73" viewBox="0 0 72 73" fill="none" xmlns="http://www.w3.org/2000/svg">
<path fill-rule="evenodd" clip-rule="evenodd" d="M29.2869 5.07062C24.3434 5.07062 20.3361 8.95081 20.3361 13.7373V19.7373H35.8279V21.404H13.4508C8.50741 21.404 4.5 25.2842 4.5 30.0706V43.0706C4.5 47.8571 8.50741 51.7372 13.4508 51.7372H18.6147V44.404C18.6147 39.6176 22.6222 35.7372 27.5656 35.7372H44.0901C48.2731 35.7372 51.6638 32.454 51.6638 28.404V13.7373C51.6638 8.95081 47.6566 5.07062 42.7131 5.07062H29.2869ZM27.2214 15.7373C28.9325 15.7373 30.3196 14.3941 30.3196 12.7373C30.3196 11.0804 28.9325 9.73728 27.2214 9.73728C25.51 9.73728 24.1229 11.0804 24.1229 12.7373C24.1229 14.3941 25.51 15.7373 27.2214 15.7373Z" fill="#FF9D4D"/>
<path fill-rule="evenodd" clip-rule="evenodd" d="M42.7126 68.0706C47.6561 68.0706 51.6636 64.1905 51.6636 59.4041V53.404H36.1717V51.7374H58.5488C63.4923 51.7374 67.4995 47.8571 67.4995 43.0706V30.0706C67.4995 25.2842 63.4923 21.404 58.5488 21.404H53.3848V28.7372C53.3848 33.5239 49.3774 37.404 44.4341 37.404H27.9094C23.7265 37.404 20.3357 40.6872 20.3357 44.7372V59.4041C20.3357 64.1905 24.3432 68.0706 29.2864 68.0706H42.7126ZM44.7784 57.404C43.067 57.404 41.6799 58.7471 41.6799 60.404C41.6799 62.0609 43.067 63.4039 44.7784 63.4039C46.4895 63.4039 47.8766 62.0609 47.8766 60.404C47.8766 58.7471 46.4895 57.404 44.7784 57.404Z" fill="#FF9D4D"/>
</svg>
