<svg width="72" height="73" viewBox="0 0 72 73" fill="none" xmlns="http://www.w3.org/2000/svg">
<path d="M42.0275 36.5164C42.0275 33.289 39.329 30.6722 35.9999 30.6722C32.6713 30.6722 29.9724 33.289 29.9724 36.5164C29.9724 39.7442 32.6713 42.3608 35.9999 42.3608C39.329 42.3608 42.0275 39.7442 42.0275 36.5164Z" fill="#FF9D4D"/>
<path fill-rule="evenodd" clip-rule="evenodd" d="M55.5759 25.6664C56.8487 20.6514 58.4487 11.3514 52.8084 8.19848C47.1944 5.05925 39.8889 11.0746 36.0313 14.6853C32.1849 11.1106 24.6742 5.12095 19.0387 8.28393C13.4269 11.4337 15.1574 20.5794 16.4585 25.6259C11.2237 27.0675 2.25 30.1725 2.25 36.5164C2.25 42.8423 11.2144 46.2204 16.4182 47.6606C15.1123 52.7351 13.4684 61.7501 19.0874 64.8929C24.7439 68.0553 32.2313 62.2082 36.1247 58.5581C40.007 62.19 47.2424 68.0753 52.8575 64.9238C58.4901 61.7623 57.0231 52.587 55.7219 47.5112C60.7664 46.0679 69.75 42.7633 69.75 36.5164C69.75 30.2335 60.7282 27.1033 55.5759 25.6664ZM54.9365 44.8214C54.0821 42.1992 52.929 39.4108 51.5185 36.5303C52.8649 33.7178 53.9732 30.9654 54.8037 28.3601C58.5808 29.4219 66.8666 31.8485 66.8666 36.5164C66.8666 41.2281 58.9154 43.6777 54.9365 44.8214ZM51.4125 62.5041C47.223 64.8554 40.9997 59.2272 38.1325 56.5526C40.0347 54.5355 41.9355 52.1906 43.7906 49.5866C47.054 49.3061 50.1367 48.8471 52.9326 48.2204C53.8484 51.8108 55.6204 60.1423 51.4125 62.5041ZM20.5281 62.4706C16.3382 60.1281 18.2533 52.0835 19.214 48.3455C21.9788 48.9386 25.0394 49.3652 28.3104 49.6224C30.1777 52.1703 32.1336 54.5123 34.1046 56.5634C31.6694 58.8474 24.7376 64.8239 20.5281 62.4706ZM5.13335 36.5164C5.13335 31.7871 13.3697 29.378 17.2328 28.319C18.0776 30.9827 19.1856 33.768 20.5228 36.5846C19.1683 39.443 18.0445 42.2723 17.1919 44.9676C13.5083 43.9452 5.13335 41.2486 5.13335 36.5164ZM20.4833 10.7036C24.6904 8.34248 31.2181 14.0927 34.0108 16.6809C32.0499 18.7226 30.112 21.047 28.2607 23.5802C25.0861 23.8655 22.0472 24.3236 19.2535 24.9374C18.2053 20.8672 16.2808 13.0621 20.4833 10.7036ZM45.8534 26.6191C48.0071 26.8826 50.0706 27.2331 52.0081 27.662C51.4264 29.4696 50.7015 31.3598 49.8476 33.2975C48.6099 31.0205 47.2813 28.7892 45.8534 26.6191ZM36.0322 18.6788C37.3621 20.0758 38.6941 21.6358 40.0046 23.3282C37.3466 23.2063 34.6844 23.2058 32.0265 23.3264C33.338 21.6497 34.6815 20.092 36.0322 18.6788ZM22.1771 33.2955C21.3374 31.3646 20.619 29.466 20.0322 27.6325C21.9582 27.2147 24.012 26.8731 26.1518 26.6139C24.7199 28.7793 23.3935 31.0097 22.1771 33.2955ZM26.2132 46.6184C24.0028 46.3793 21.9178 46.055 19.9925 45.6487C20.5885 43.783 21.3228 41.8435 22.1804 39.8709C23.4135 42.1805 24.7601 44.4326 26.2132 46.6184ZM36.1121 54.5515C34.7454 53.1216 33.3821 51.5401 32.0508 49.8391C34.7238 49.9408 37.402 49.941 40.0748 49.8254C38.7603 51.5574 37.433 53.1412 36.1121 54.5515ZM49.8751 39.7706C50.7773 41.7645 51.5378 43.6934 52.1419 45.5276C50.1847 45.9608 48.0717 46.3095 45.8453 46.5685C47.2837 44.3572 48.6335 42.0912 49.8751 39.7706ZM42.1814 46.9073C38.0927 47.1906 33.9786 47.1875 29.8885 46.9305C27.5645 43.639 25.4956 40.1774 23.7098 36.5837C25.4871 32.9974 27.5409 29.5425 29.8539 26.2562C33.9469 25.9562 38.0651 25.9553 42.158 26.258C44.4512 29.5441 46.5019 32.99 48.3203 36.5438C46.5235 40.1283 44.4589 43.5902 42.1814 46.9073ZM51.3682 10.6205C55.5763 12.9738 53.7032 21.3319 52.7839 24.9665C49.9835 24.3398 46.9424 23.8736 43.7587 23.5838C41.9038 21.0232 39.982 18.6948 38.0529 16.6795C40.8814 14.0355 47.2007 8.29012 51.3682 10.6205Z" fill="#FF9D4D"/>
</svg>
