<svg width="72" height="73" viewBox="0 0 72 73" fill="none" xmlns="http://www.w3.org/2000/svg">
<path d="M45.9666 31.7196C46.1388 33.4077 46.2375 35.0415 46.2375 36.5706C46.2375 39.4329 45.8916 42.6651 45.3624 45.933C42.0945 46.4622 38.8623 46.8081 36 46.8081C33.1506 46.8081 29.9193 46.4631 26.6373 45.9321C26.1084 42.6642 25.7625 39.4326 25.7625 36.5706C25.7625 35.0421 25.8611 33.408 26.0336 31.7196C29.4782 32.271 32.9145 32.6331 36 32.6331C39.0858 32.6331 42.522 32.271 45.9666 31.7196Z" fill="#FF9D4D"/>
<path d="M50.6257 30.8688C50.8387 32.8443 50.9626 34.7676 50.9626 36.5706C50.9626 39.2013 50.6992 42.0873 50.2798 45.0165C56.2276 43.7754 61.7251 42.1899 64.6702 41.2872C65.6218 40.9956 65.9959 40.8795 66.4975 40.6788C66.7483 40.5786 66.9781 40.4766 67.2778 40.3335C67.4245 39.0996 67.5001 37.8438 67.5001 36.5706C67.5001 33.2046 66.9721 29.9621 65.9947 26.921L65.74 27.0012C62.6605 27.938 56.8957 29.5941 50.6257 30.8688Z" fill="#FF9D4D"/>
<path d="M64.2052 22.529C61.1095 23.4672 55.7371 24.9918 49.9798 26.1787C48.6535 18.1184 46.3291 10.0791 45.2107 6.43854C53.5267 8.97741 60.382 14.8646 64.2052 22.529Z" fill="#FF9D4D"/>
<path d="M45.3351 27.0375C42.0759 27.564 38.8539 27.9081 36 27.9081C33.1461 27.9081 29.9243 27.564 26.6653 27.0375C27.9141 19.4108 30.1434 11.6198 31.2834 7.90061C31.575 6.9488 31.6911 6.57494 31.8918 6.07316C31.992 5.82248 32.094 5.59256 32.2371 5.29304C33.471 5.14616 34.7268 5.07062 36 5.07062C37.3302 5.07062 38.6409 5.15306 39.9279 5.31311C39.9552 5.41754 39.9804 5.51099 40.0053 5.5994C40.0791 5.86061 40.1946 6.22772 40.3884 6.84374L40.4088 6.90845C41.3805 9.99731 43.9557 18.6126 45.3351 27.0375Z" fill="#FF9D4D"/>
<path d="M22.0202 26.1786C23.3404 18.1538 25.6497 10.1579 26.7659 6.51606L26.7896 6.43854C18.4734 8.97738 11.6182 14.8646 7.79517 22.529C10.8907 23.4672 16.263 24.9917 22.0202 26.1786Z" fill="#FF9D4D"/>
<path d="M6.00552 26.921C5.02794 29.962 4.5 33.2046 4.5 36.5706C4.5 37.8873 4.58079 39.1851 4.73769 40.4595L5.23413 40.6251L5.23809 40.6263L5.24295 40.6281L5.24637 40.629C5.40615 40.6821 10.0891 42.2286 16.2563 43.7631C17.9966 44.196 19.8392 44.6238 21.7202 45.0159C21.3007 42.087 21.0375 39.2013 21.0375 36.5706C21.0375 34.767 21.1612 32.8437 21.3742 30.8688C15.1028 29.5937 9.33654 27.937 6.25791 27.0003L6.23649 26.9937L6.00552 26.921Z" fill="#FF9D4D"/>
<path d="M36.0001 51.5331C38.6308 51.5331 41.5168 51.2697 44.446 50.8503C43.2049 56.7981 41.6194 62.2956 40.7167 65.2404C40.4251 66.1923 40.309 66.5661 40.1083 67.068C40.0081 67.3188 39.9061 67.5486 39.763 67.8483C38.5291 67.995 37.2733 68.0706 36.0001 68.0706C34.7269 68.0706 33.4711 67.995 32.2372 67.8483C32.0941 67.5486 31.9921 67.3188 31.8919 67.068C31.6912 66.5664 31.5751 66.1923 31.2835 65.2407C30.3808 62.2959 28.7955 56.7987 27.5544 50.8515C30.4738 51.2694 33.3604 51.5331 36.0001 51.5331Z" fill="#FF9D4D"/>
<path d="M15.1155 48.3483C11.2156 47.3778 7.89406 46.4031 5.86792 45.7812C8.91775 55.7712 16.7995 63.6528 26.7895 66.7026L26.7658 66.6252C25.7912 63.4452 23.9069 56.9457 22.5657 50.0058C19.9575 49.5015 17.4217 48.9219 15.1155 48.3483Z" fill="#FF9D4D"/>
<path d="M66.0547 45.8049C62.8747 46.7796 56.3746 48.6639 49.4344 50.0049C48.0934 56.9451 46.2091 63.4449 45.2344 66.6252L45.2107 66.7026C55.2007 63.6528 63.0823 55.7712 66.1321 45.7812L66.0547 45.8049Z" fill="#FF9D4D"/>
<path d="M4.83081 40.5396C4.93986 40.5537 5.02875 40.5687 5.05824 40.5753C5.08407 40.5816 5.12454 40.5924 5.13921 40.5963L5.17164 40.6056L5.1891 40.611L5.20746 40.6167L5.22285 40.6215C5.21421 40.6188 5.03919 40.575 4.83081 40.5396Z" fill="#FF9D4D"/>
</svg>
