<svg width="90" height="24" viewBox="0 0 90 24" fill="none" xmlns="http://www.w3.org/2000/svg">
<path d="M29.0609 9.42257C29.0609 7.80807 27.491 6.09337 24.7742 6.09337C21.7233 6.09337 18.3719 8.33139 17.8597 12.7963C17.3363 17.3058 20.1422 19.31 22.9704 19.31C25.7985 19.31 27.2794 18.2077 28.7937 16.7379C27.491 15.1011 25.8097 15.8583 25.4868 16.0253C25.1305 16.2035 24.674 16.4484 23.7387 16.4484C22.6475 16.4484 21.534 15.9585 21.534 13.9209C28.5265 13.2306 29.0609 11.0371 29.0609 9.42257ZM25.5981 9.6898C25.5536 10.1908 25.3532 11.0482 21.8124 11.527C22.5584 8.87698 23.9836 8.67656 24.6405 8.67656C25.2529 8.67656 25.6426 9.15534 25.5981 9.6898ZM13.7511 10.124C13.7511 10.124 12.2479 14.8451 12.1254 15.2348C12.0809 14.8339 10.9786 6.3606 10.9786 6.3606C8.41765 6.3606 7.04811 8.18665 6.32437 10.1129C6.32437 10.1129 4.49832 14.845 4.34244 15.2459C4.3313 14.8785 4.06408 10.1686 4.06408 10.1686C3.90819 7.80807 1.74811 6.37173 0 6.37173L2.11555 19.2098C4.79895 19.1986 6.24643 17.3837 7.00357 15.4574C7.00357 15.4574 8.61807 11.282 8.68487 11.0927C8.69601 11.2709 9.84286 19.2098 9.84286 19.2098C12.5374 19.2098 13.9849 17.5062 14.7643 15.6467L18.5389 6.37173C15.8777 6.37173 14.4748 8.18665 13.7511 10.124ZM38.9483 6.0711C37.2893 6.0711 36.02 6.97299 34.9511 8.29799V8.28686L35.9086 0.570679C33.704 0.570679 31.9113 2.4858 31.5662 5.33623L29.896 19.1095C31.1653 19.1095 32.5126 18.7421 33.2363 17.8068C33.8821 18.6419 34.8508 19.31 36.2872 19.31C40.0061 19.31 42.5559 14.9898 42.5559 10.9369C42.5336 7.24022 40.741 6.0711 38.9483 6.0711ZM38.6032 12.6961C38.2134 14.9564 36.9553 16.4929 35.7416 16.4929C34.5168 16.4929 33.9935 15.9474 33.9935 15.9474C34.2273 13.9654 34.3721 12.7518 34.8174 11.7051C35.2628 10.6585 36.3206 8.98833 37.4229 8.98833C38.5029 8.98833 38.9929 10.4247 38.6032 12.6961ZM51.842 6.37173H49.2477L49.2588 6.23812C49.437 4.54568 49.8378 3.65492 51.1628 3.51017C52.0647 3.4211 52.4655 2.95345 52.5658 2.44127C52.6437 2.04043 52.8887 0.64862 52.8887 0.64862C47.6777 0.615217 46.041 2.86438 45.6179 6.29379L45.6067 6.37173H45.5511C44.7048 6.37173 43.7695 7.32929 43.6137 8.54295L43.558 8.98833H45.295L43.8363 21.0358L43.391 23.1959C43.4466 23.1959 43.5134 23.207 43.5691 23.207C46.0076 23.118 47.5664 21.1917 47.9116 18.3969L49.0473 8.98833H49.8601C50.6618 8.98833 51.5971 8.18665 51.7641 6.85051L51.842 6.37173ZM65.337 6.14904C62.3418 6.14904 59.5137 8.35366 58.6452 11.8165C57.7767 15.2793 59.0905 19.3768 63.4998 19.3768C67.8979 19.3768 70.4366 15.1123 70.4366 11.5604C70.4366 8.03076 68.0426 6.14904 65.337 6.14904ZM66.5506 12.5848C66.3948 14.1547 65.7044 16.5375 63.8116 16.5375C61.9076 16.5375 62.1748 13.7539 62.3641 12.4289C62.5645 11.0148 63.355 8.99946 65.0586 8.99946C66.584 8.99946 66.7288 10.8144 66.5506 12.5848ZM85.2342 10.124C85.2342 10.124 83.7311 14.8451 83.6086 15.2348C83.5641 14.8339 82.4618 6.3606 82.4618 6.3606C79.9008 6.3606 78.5313 8.18665 77.8076 10.1129C77.8076 10.1129 75.9815 14.845 75.8256 15.2459C75.8145 14.8785 75.5473 10.1686 75.5473 10.1686C75.3914 7.80807 73.2313 6.37173 71.4832 6.37173L73.5876 19.2098C76.271 19.1986 77.7185 17.3837 78.4756 15.4574C78.4756 15.4574 80.0901 11.282 80.1458 11.0927C80.1569 11.2709 81.3038 19.2098 81.3038 19.2098C83.9983 19.2098 85.4458 17.5062 86.2252 15.6467L89.9998 6.37173C87.3498 6.37173 85.9469 8.18665 85.2342 10.124ZM54.2916 0.64862L52.1092 18.2522L51.6639 20.4234C51.7195 20.4234 51.7863 20.4345 51.842 20.4345C54.1914 20.4011 55.8616 18.3413 56.1733 15.7469L57.4315 5.64799C57.8101 2.56375 55.9729 0.64862 54.2916 0.64862Z" fill="#FF9D4D"/>
</svg>
