<svg width="70" height="71" viewBox="0 0 70 71" fill="none" xmlns="http://www.w3.org/2000/svg">
<g clip-path="url(#clip0_385_345)">
<path fill-rule="evenodd" clip-rule="evenodd" d="M0 35.5695C0 49.4234 8.05023 61.396 19.7253 67.0683L3.0298 21.3262C1.08942 25.6773 0 30.4944 0 35.5695ZM58.6273 33.8041C58.6273 29.4771 57.0719 26.4824 55.7419 24.1526C53.9677 21.2672 52.303 18.8259 52.303 15.9427C52.303 12.7248 54.7421 9.72997 58.181 9.72997C58.3363 9.72997 58.4829 9.74962 58.6338 9.75837C52.408 4.05319 44.1106 0.570618 34.9993 0.570618C22.7708 0.570618 12.0146 6.84456 5.75594 16.3452C6.57847 16.3714 7.35286 16.3867 8.00913 16.3867C11.6689 16.3867 17.3369 15.9427 17.3369 15.9427C19.2226 15.8311 19.4457 18.6049 17.56 18.8259C17.56 18.8259 15.6634 19.049 13.5546 19.1605L26.2994 57.0711L33.9602 34.0995L28.5088 19.1605C26.6232 19.049 24.8359 18.8259 24.8359 18.8259C22.9502 18.7143 23.1712 15.8311 25.0591 15.9427C25.0591 15.9427 30.8386 16.3867 34.2775 16.3867C37.9373 16.3867 43.6052 15.9427 43.6052 15.9427C45.4931 15.8311 45.7141 18.6049 43.8284 18.8259C43.8284 18.8259 41.9296 19.049 39.8229 19.1605L52.4715 56.7824L55.965 45.1182C57.4744 40.275 58.6273 36.7989 58.6273 33.8041ZM65.7124 18.7784C65.8633 19.8941 65.9486 21.0885 65.9486 22.377C65.9486 25.9274 65.2836 29.9197 63.2864 34.9139L52.5957 65.822C63.0019 59.7559 70 48.4812 70 35.5702C70 29.4844 68.4446 23.7639 65.7124 18.7784ZM35.614 38.6312L25.1115 69.1457C28.2485 70.0688 31.5648 70.5719 34.9993 70.5719C39.0748 70.5719 42.984 69.8676 46.6219 68.5878C46.53 68.4369 46.4425 68.2794 46.3725 68.1066L35.614 38.6312Z" fill="#FF9D4D"/>
</g>
<defs>
<clipPath id="clip0_385_345">
<rect width="70" height="70" fill="white" transform="translate(0 0.570618)"/>
</clipPath>
</defs>
</svg>
