<svg width="70" height="70" viewBox="0 0 70 70" fill="none" xmlns="http://www.w3.org/2000/svg">
<path d="M33.0176 0.23243C31.9648 0.45118 30.2832 1.18946 29.5859 1.70899C29.1758 2.02345 29.0801 2.03712 28.5469 1.91407C27.6582 1.70899 25.8125 1.75001 24.7051 1.9961C22.2988 2.5293 19.7148 4.38868 18.6621 6.34375C18.457 6.72657 18.293 6.83594 17.6914 6.95899C16.9941 7.12305 14.7656 8.1211 14.7656 8.27149C14.7656 8.3125 15.0117 8.70899 15.2988 9.14649L15.8457 9.93946L16.6387 9.55664C17.4726 9.14649 18.8262 8.75 19.414 8.75C19.7012 8.75 19.8242 8.61329 20.166 7.88868C20.6719 6.8086 22.1758 5.27735 23.3242 4.68946C24.9648 3.82813 26.7695 3.60938 28.6562 4.04688L29.6269 4.2793L30.3652 3.69141C31.623 2.69337 33.4277 2.05079 35.0137 2.05079C35.8887 2.05079 37.6113 2.46095 38.3769 2.85743C38.6777 3.00782 39.2383 3.39063 39.6484 3.70509L40.373 4.2793L41.3437 4.04688C44.0644 3.41798 46.5391 4.11524 48.4668 6.07032C49.1094 6.69922 49.5742 7.3418 49.834 7.88868C50.1758 8.61329 50.2988 8.75 50.5859 8.75C51.2012 8.75 52.541 9.14649 53.457 9.61133C55.6992 10.7324 57.4219 13.4805 57.4219 15.9551C57.4219 16.666 57.4219 16.666 58.1465 17.1309C59.1308 17.7598 60.3203 19.0996 60.8262 20.125C61.7422 21.9707 61.8516 23.8984 61.168 25.9629L60.8262 27.0156L61.3047 27.7539C62.125 28.9981 62.4121 30.0508 62.4121 31.7871C62.4121 33.0039 62.3574 33.4688 62.0976 34.207C61.7695 35.1367 60.7715 36.6816 60.0469 37.3652C59.6777 37.7207 59.6504 37.8027 59.7598 38.2539C59.9512 39.0605 59.8965 40.7559 59.6777 41.6309C59.1582 43.627 57.6133 45.5137 55.7812 46.375C55.2207 46.6484 54.6601 46.8945 54.5371 46.9355C54.4004 46.9766 54.1953 47.4004 54.0039 48.0156C53.6348 49.2598 53.4844 49.5332 52.6641 50.627L51.9941 51.4883L52.6777 52.2266L53.3613 52.9648L54.0176 52.2266C54.3867 51.8164 54.9199 51.0234 55.207 50.4902L55.7266 49.4922L58.3516 54.291C59.8008 56.9297 60.9766 59.1172 60.9492 59.1309C60.9219 59.1582 59.1308 59.2539 56.9433 59.3359C54.7695 59.4316 52.9785 59.5137 52.9648 59.5137C52.5683 60.2383 48.4531 66.0078 48.3848 65.9258C48.2754 65.8164 43.8867 57.8594 43.8867 57.7637C43.8867 57.7363 44.2695 57.4492 44.748 57.1074C45.2129 56.7656 45.8144 56.2734 46.0605 56C46.4707 55.5762 46.6211 55.5078 47.1543 55.5078C47.9473 55.5078 49.3418 55.207 50.3125 54.8379C51.5293 54.373 51.5156 54.4277 50.9414 53.4023L50.4355 52.5L49.9023 52.7734C49.0683 53.1973 47.6191 53.4844 46.5117 53.4434L45.5137 53.3887L44.9941 54.0586C43.668 55.7402 41.3027 56.875 39.1836 56.875C38.2949 56.875 36.8047 56.5059 35.8613 56.0684L35 55.6582L34.1387 56.0684C33.1953 56.5059 31.7051 56.875 30.8164 56.875C28.6973 56.875 26.291 55.7266 25.0195 54.0586L24.4726 53.375L23.666 53.4297C20.289 53.6758 17.1992 51.5566 16.0644 48.2207L15.6543 47.0176L14.875 46.7031C12.5918 45.7734 10.9238 43.9004 10.3223 41.6309C10.1172 40.8105 10.0762 38.9785 10.2402 38.2129C10.3223 37.8438 10.2402 37.707 9.55663 36.9277C7.46483 34.5898 6.9453 31.4863 8.1621 28.7246C8.33983 28.3145 8.64061 27.7676 8.83202 27.5078L9.18749 27.0566L8.83202 25.9766C8.14842 23.8984 8.2578 21.9844 9.17381 20.125C9.666 19.1133 10.8691 17.7598 11.8398 17.1445L12.5371 16.6934L12.6191 15.627C12.7148 14.0957 13.207 12.8789 14.2734 11.416C14.4648 11.1563 14.4238 11.1016 13.7129 10.4727L12.9473 9.78907L12.5644 10.2676C11.8262 11.1289 10.9375 13.1113 10.6914 14.3965C10.4726 15.5996 10.459 15.5996 9.7617 16.1465C8.39452 17.1992 7.12303 19.1816 6.61717 21.0547C6.28905 22.2852 6.27538 24.5137 6.6035 25.7852L6.86327 26.7695L6.42577 27.6172C4.8535 30.7344 5.23631 34.6856 7.39647 37.543L8.02538 38.377L8.10741 40.0723C8.18944 41.9453 8.50389 43.1074 9.31053 44.5293C9.85741 45.4863 11.3066 47.0313 12.1816 47.6055C12.5508 47.8379 12.8515 48.043 12.8515 48.0566C12.8515 48.0703 11.2519 50.9824 9.29686 54.5508C7.34178 58.1055 5.76952 61.0449 5.78319 61.0723C5.81053 61.0996 7.08202 61.1543 8.58592 61.209L11.3476 61.291V60.252V59.1992H10.2539C9.65233 59.1992 9.16014 59.1719 9.16014 59.1309C9.16014 59.0078 14.2734 49.7656 14.3418 49.7656C14.3828 49.7656 14.6426 50.1758 14.9023 50.6816C15.4902 51.8301 17.0898 53.4707 18.3203 54.1816C19.4687 54.8516 21.0957 55.3574 22.4082 55.4668C23.4062 55.5488 23.4746 55.5625 24.1308 56.1777C24.5137 56.5332 25.1289 57.0254 25.498 57.2852C25.8808 57.5313 26.1953 57.75 26.2226 57.7637C26.2637 57.8047 21.9023 65.7754 21.7519 65.9395C21.6973 65.9941 20.6445 64.5723 19.4004 62.7813L17.1582 59.5137L15.3945 59.418C14.4238 59.377 13.6035 59.3496 13.5898 59.377C13.5625 59.4043 13.5078 59.8555 13.4531 60.3887L13.3574 61.3594L14.7109 61.4551L16.0644 61.5508L18.9355 65.707C20.5215 67.9902 21.8476 69.8633 21.8887 69.8633C21.9433 69.8633 23.3789 67.3203 25.0879 64.2168L28.1777 58.5566L29.0937 58.7344C30.789 59.0625 32.6894 58.8848 34.3027 58.2422L35.041 57.9551L35.6699 58.2285C36.5176 58.584 38.2402 58.9258 39.1973 58.9258C39.6348 58.9121 40.4277 58.8301 40.9473 58.7344C41.6582 58.5977 41.9316 58.584 42.0137 58.707C42.0683 58.7891 43.4629 61.332 45.1308 64.3672C46.7988 67.3887 48.1933 69.8633 48.2344 69.8633C48.3027 69.8633 53.2519 62.8086 54.0176 61.6328C54.0586 61.5645 56.3965 61.4277 59.1992 61.3047C62.0156 61.1953 64.3262 61.0859 64.3535 61.0586C64.3808 61.0449 62.7949 58.1055 60.8262 54.5371L57.2715 48.0566L57.7226 47.7285C57.9687 47.5371 58.666 46.8945 59.2676 46.293C61.0586 44.4883 61.9336 42.3145 61.9336 39.7031V38.4316L62.5898 37.5703C64.7637 34.6856 65.1465 30.7481 63.5742 27.6172L63.1367 26.7695L63.3965 25.7852C63.7246 24.5137 63.7109 22.2852 63.3828 21.0547C62.8769 19.209 61.5918 17.1992 60.2246 16.1055C59.5547 15.5723 59.541 15.5449 59.3086 14.3828C58.748 11.5391 56.8613 9.03711 54.3183 7.76563C53.6348 7.41016 52.7461 7.05469 52.3359 6.97266C51.6797 6.82227 51.5703 6.74024 51.2012 6.13868C50.6406 5.20899 49.1504 3.7461 48.0976 3.1172C46.3066 2.03712 43.4492 1.50391 41.5762 1.9004C40.9062 2.03712 40.8379 2.03712 40.4277 1.72266C39.6894 1.16212 37.9941 0.437508 36.8867 0.218758C35.5879 -0.0546799 34.2754 -0.041008 33.0176 0.23243Z" fill="#FF9D4D"/>
<path d="M32.8809 8.62695C26.5098 9.37891 20.7129 13.1523 17.377 18.7168C16.9941 19.3457 16.6797 19.9336 16.6797 20.0156C16.6797 20.1113 17.0625 20.3711 17.541 20.6035L18.4023 21.0273L18.8398 20.2617C20.5352 17.1582 23.6934 14.1367 26.9199 12.5098C28.1914 11.8809 29.9961 11.2656 31.623 10.9102C33.4824 10.5273 36.9414 10.4863 38.7598 10.8418C41.5352 11.3887 44.1602 12.4961 46.2793 14.0137C48.3984 15.5176 50.9141 18.3203 51.8984 20.2617C52.0762 20.6309 52.2949 20.918 52.3633 20.918C52.4453 20.918 52.8828 20.7266 53.334 20.5078L54.1543 20.084L53.7168 19.3047C51.625 15.5723 48.4258 12.5234 44.584 10.5957C43.2305 9.92578 40.6875 9.0918 39.1016 8.81836C37.5156 8.54492 34.3711 8.44922 32.8809 8.62695Z" fill="#FF9D4D"/>
<path d="M10.8008 29.3809V35H12.9199C14.0684 35 15.3398 34.9316 15.7227 34.8496C18.252 34.3027 19.2637 31.0078 17.4863 29.1074C17.1172 28.7109 17.1035 28.6699 17.2949 28.3008C18.0059 26.9199 17.418 25.0469 16.0098 24.2266C15.4082 23.8711 15.2852 23.8574 13.0977 23.8164L10.8008 23.7617V29.3809ZM15.1895 26.2363C15.627 26.6738 15.668 26.8789 15.4355 27.3848C15.2168 27.8496 14.7656 28.0273 13.7402 28.0273H12.8516V26.9336V25.8398H13.8223C14.7109 25.8398 14.8203 25.8672 15.1895 26.2363ZM15.8867 30.4746C16.2422 30.7891 16.3379 30.9805 16.3379 31.4043C16.3379 32.5391 15.5859 33.0039 13.8359 32.9219L12.9199 32.8809L12.8789 31.4727L12.8379 30.0781H14.1367C15.3809 30.0781 15.4629 30.0918 15.8867 30.4746Z" fill="#FF9D4D"/>
<path d="M19.9336 23.8711C19.8652 23.9258 19.8242 26.4277 19.8242 29.4219V34.8633H20.8496H21.875V33.2227C21.875 32.3203 21.916 31.582 21.9844 31.5957C22.0391 31.5957 22.4082 31.9785 22.8047 32.4434C23.1875 32.9082 23.8711 33.6875 24.3086 34.1797L25.1152 35.0547L25.8809 34.3984L26.6465 33.7285L25.498 32.416L24.3496 31.1035L25.1289 30.748C26.5508 30.1055 27.2754 29.0117 27.2754 27.4805C27.2754 26.6191 27.2207 26.3594 26.9063 25.8398C26.4277 25.0195 25.9082 24.5547 25.0879 24.1855C24.5 23.9121 24.1172 23.8711 22.2168 23.8164C21.0137 23.7891 19.9883 23.8027 19.9336 23.8711ZM24.4316 26.168C24.9102 26.4004 25.293 27.002 25.293 27.4805C25.293 27.959 24.9102 28.5605 24.4316 28.8066C24.1445 28.957 23.6523 29.0391 22.9688 29.0391L21.9434 29.0527L21.9023 27.6309C21.8887 26.8379 21.9023 26.1133 21.9434 26.0039C22.0391 25.7305 23.8301 25.8398 24.4316 26.168Z" fill="#FF9D4D"/>
<path d="M32.8125 23.9121C32.5254 23.9941 32.2656 24.5684 30.5977 28.9844C29.5586 31.7324 28.6699 34.0977 28.6289 34.2617C28.5606 34.5215 28.6699 34.5898 29.4903 34.9043L30.4199 35.2461L30.5703 34.8906C30.6524 34.6855 30.8848 34.0703 31.1035 33.5234L31.4727 32.5254L33.4551 32.5664L35.4375 32.6074L35.9297 33.9336L36.4219 35.2461L37.2969 34.9316C37.7754 34.7539 38.1992 34.5762 38.2403 34.5352C38.2949 34.4941 37.4336 32.0742 36.3535 29.1621L34.3711 23.8574L33.7696 23.8301C33.4278 23.8164 33.0039 23.8574 32.8125 23.9121ZM34.043 28.8613C34.3438 29.6406 34.5899 30.3242 34.5899 30.3789C34.5899 30.4473 34.0567 30.4883 33.4141 30.4883C32.5254 30.4883 32.252 30.4473 32.3067 30.3105C32.334 30.2285 32.5938 29.5176 32.8809 28.7383C33.168 27.9727 33.4278 27.3711 33.4551 27.3984C33.4824 27.4258 33.7559 28.082 34.043 28.8613Z" fill="#FF9D4D"/>
<path d="M39.8125 29.2852L39.8535 34.7949L40.8516 34.8359L41.8359 34.877V31.2402C41.8359 29.2441 41.8906 27.6309 41.959 27.6719C42.0137 27.7129 43.1758 29.3809 44.5156 31.3633L46.9629 34.9863L47.9609 35H48.9453V29.5312V24.0625H47.9199H46.8945L46.8672 27.5762L46.8262 31.1035L44.3652 27.4531L41.9043 23.8027L40.8379 23.7891H39.7852L39.8125 29.2852Z" fill="#FF9D4D"/>
<path d="M50.9961 29.3945V34.8906L53.3613 34.8359C55.5215 34.7949 55.7676 34.7676 56.3828 34.4668C58.3379 33.4961 59.459 30.9531 59.0762 28.3555C58.7891 26.4004 57.832 24.9648 56.3418 24.2812C55.7949 24.0352 55.4121 23.9941 53.3613 23.9531L50.9961 23.8984V29.3945ZM55.7129 26.291C56.1094 26.5098 56.3691 26.8105 56.6563 27.3848C57.0117 28.0684 57.0664 28.3281 57.0664 29.2988C57.0664 30.6113 56.875 31.2812 56.2871 31.9512C55.7129 32.6074 55.166 32.8125 54.0039 32.8125H53.0469V29.3945V25.9766H54.1133C54.9473 25.9766 55.2754 26.0449 55.7129 26.291Z" fill="#FF9D4D"/>
<path d="M17.8008 39.0605L16.9531 39.5391L17.2402 40.0449C19.5234 43.832 22.1621 46.3066 25.9082 48.1387C27.7539 49.041 29.0801 49.4922 31.0898 49.9297C32.9902 50.3398 37.2559 50.3672 39.3066 49.9844C45.1582 48.8906 50.1621 45.4863 53.1836 40.5508C53.8398 39.4707 53.8535 39.5254 52.623 38.8965L51.9941 38.5684L51.2285 39.7578C48.8359 43.4766 45.7051 45.8965 41.4395 47.3047C39.1152 48.0703 37.3379 48.3164 34.6582 48.2207C30.8164 48.084 27.7812 47.1406 24.6777 45.1035C23.1602 44.1055 20.7539 41.6719 19.7012 40.0723C19.25 39.375 18.8672 38.7461 18.8672 38.6777C18.8672 38.4863 18.7305 38.541 17.8008 39.0605Z" fill="#FF9D4D"/>
</svg>
