<svg width="70" height="70" viewBox="0 0 70 70" fill="none" xmlns="http://www.w3.org/2000/svg">
<g clip-path="url(#clip0_453_1087)">
<path d="M47.0586 27.4531C46.3477 25.1836 47.6055 22.75 49.875 22.0391C52.1445 21.3281 54.5781 22.5859 55.2891 24.8555C56 27.125 54.7422 29.5586 52.4727 30.2695C50.2031 31.0078 47.7969 29.75 47.0586 27.4531ZM3.00781 30.2695C5.27734 30.9805 7.71094 29.7227 8.42188 27.4531C9.13281 25.1836 7.875 22.75 5.60547 22.0391C3.33594 21.3281 0.902344 22.5859 0.191406 24.8555C-0.519531 27.125 0.738281 29.5586 3.00781 30.2695ZM69.8086 34.5078C69.918 34.8633 69.9727 35.2461 69.9727 35.6289L68.8789 46.293C68.6602 48.3164 67.5938 49.6563 65.625 50.2578L54.25 53.8672C54.25 53.8672 51.5703 62.3438 51.543 62.3438C51.1875 63.5742 50.0664 64.4766 48.6992 64.4766C47.0586 64.4766 45.7188 63.1367 45.7188 61.4961C45.7188 60.9766 46.1016 60.0469 46.1016 60.0469C46.1563 59.8555 48.4805 53.4297 49.4375 50.7774L39.7578 53.8399C39.7578 53.8399 37.0781 62.3164 37.0508 62.3164C36.6953 63.5469 35.5742 64.4492 34.207 64.4492C32.5664 64.4492 31.2266 63.1094 31.2266 61.4688C31.2266 60.9492 31.6094 60.0195 31.6094 60.0195C31.6641 59.7734 35.3281 49.6289 35.3281 49.6289C35.6562 49 36.2031 48.5625 36.9688 48.3164L45.2813 45.6914C45.2813 45.6914 45.5273 39.4844 45.5273 39.375H39.4844L33.8516 41.1524C32.6484 41.5352 31.3359 40.8516 30.9531 39.6484C30.9258 39.5664 30.8984 39.457 30.8984 39.375H24.5273C24.5 39.457 24.5 39.5664 24.4727 39.6484C24.0898 40.8516 22.8047 41.5352 21.5742 41.1524L9.89844 37.4609L10.1445 45.6914L18.457 48.3164C19.2227 48.5625 19.7695 49 20.0977 49.6289C20.0977 49.6289 23.7617 59.7734 23.8164 60.0195C23.8164 60.0195 24.1992 60.9492 24.1992 61.4688C24.1992 63.1094 22.8594 64.4492 21.2188 64.4492C19.8789 64.4492 18.7578 63.5469 18.375 62.3164C18.375 62.2891 15.668 53.8399 15.668 53.8399L4.32031 50.2578C2.35156 49.6289 1.25781 48.3164 1.06641 46.293L-0.0273438 35.6289C-0.0273438 35.2461 0.0273438 34.8633 0.136719 34.5078C0.519531 33.25 1.3125 32.3477 2.48828 31.7734C3.66406 31.1992 4.86719 31.1172 6.125 31.5L22.9688 36.832C23.5703 37.0234 24.0078 37.4609 24.2812 38.0078H31.2266C31.5 37.4609 31.9648 37.0234 32.5391 36.832L49.3828 31.4453C50.6406 31.0625 51.8438 31.1445 53.0195 31.7188C54.0859 32.2656 54.8242 33.0859 55.2617 34.1797L63.8477 31.4727C65.1055 31.0899 66.3086 31.1719 67.4844 31.7461C68.6328 32.3477 69.3984 33.25 69.8086 34.5078ZM60.0742 37.4883L55.1797 39.0469L48.8633 40.9609L49.1914 42L55.0977 40.2227L54.4688 46.2656C54.4141 46.7305 54.332 47.1406 54.1953 47.5234L59.8828 45.7188L60.0742 37.4883ZM66.9375 30.3242C69.207 29.6133 70.4648 27.1797 69.7539 24.9102C69.043 22.6406 66.6094 21.3828 64.3398 22.0938C62.0703 22.8047 60.8125 25.2383 61.5234 27.5078C62.2344 29.7774 64.668 31.0352 66.9375 30.3242Z" fill="#FF9D4D"/>
</g>
<defs>
<clipPath id="clip0_453_1087">
<rect width="70" height="70" fill="white"/>
</clipPath>
</defs>
</svg>
