<svg width="70" height="70" viewBox="0 0 70 70" fill="none" xmlns="http://www.w3.org/2000/svg">
<path d="M35.0692 26.8964C39.2216 26.8964 42.5701 23.5476 42.5701 19.3955C42.5701 15.2433 39.2481 11.8945 35.0692 11.8945C30.9167 11.8945 27.5682 15.2433 27.5682 19.3955C27.5947 23.5747 30.9435 26.8964 35.0692 26.8964ZM17.6561 48.6227H4.18111C-0.185411 48.6227 -0.426583 41.9521 4.2615 41.9521H15.9414L22.6387 32.0936C24.6211 29.388 26.8715 28.102 30.0592 28.102H40.0517C43.2397 28.102 45.4899 29.2808 47.4723 32.0936L54.1964 41.9521H65.9569C70.6718 41.9521 70.377 48.6227 66.1177 48.6227H52.6427C51.5711 48.6227 50.2851 48.2475 49.5351 47.0958L44.3915 39.7556L44.3647 58.1331H25.9339L25.9071 39.7556L20.7635 47.0958C20.0134 48.2207 18.7277 48.6227 17.6561 48.6227Z" fill="#FF9D4D"/>
<path d="M8.4648 37.4727C12.8349 37.4727 16.4062 33.9248 16.4062 29.5312C16.4062 25.1376 12.8584 21.5898 8.4648 21.5898C4.07121 21.5898 0.546875 25.1611 0.546875 29.5547C0.546875 33.9248 4.09473 37.4727 8.4648 37.4727ZM8.02621 30.2047C6.56961 29.6956 5.66098 28.9595 5.66098 27.6516C5.66098 26.4455 6.45969 25.4978 7.92449 25.2003V23.8924H9.02098V25.1376C9.92934 25.1376 10.5872 25.3255 11.0729 25.5842L10.6263 27.1504C10.2659 27.0017 9.67859 26.7509 8.87195 26.7509C8.06531 26.7509 7.62672 27.1504 7.62672 27.5496C7.62672 28.0979 8.13586 28.3092 9.23234 28.7558C10.7283 29.304 11.4253 30.0636 11.4253 31.3088C11.4253 32.5541 10.6657 33.5018 9.06008 33.8619V35.1072H7.96359V33.901C7.01586 33.901 6.06047 33.6503 5.59836 33.3919L5.99785 31.7863C6.50699 32.037 7.3057 32.3345 8.15172 32.3345C9.06008 32.3345 9.5066 31.935 9.5066 31.3868C9.5066 30.8385 9.07566 30.6121 8.02621 30.2047Z" fill="#FF9D4D"/>
<path d="M66.5069 24.7286L67.2049 23.6212L65.5531 22.5799L64.8671 23.6679C64.0779 23.2827 63.2177 23.0213 62.3121 22.9089V21.8701H63.5138V19.9175H59.2329V21.8701H60.3594V22.9015C56.3096 23.3713 53.1555 26.8215 53.1555 30.9953C53.1555 35.4887 56.811 39.1442 61.3044 39.1442C65.7978 39.1442 69.4532 35.4892 69.4532 30.9958C69.4532 28.4785 68.3058 26.2246 66.5069 24.7286ZM61.3042 37.1935C57.8867 37.1935 55.1064 34.4132 55.1064 30.9958C55.1064 27.5784 57.8867 24.7981 61.3042 24.7981C64.7216 24.7981 67.5019 27.5784 67.5019 30.9958C67.5019 34.4132 64.7216 37.1935 61.3042 37.1935ZM66.3677 30.9583H61.3356V25.9263C64.1091 25.9394 66.3379 28.1887 66.3677 30.9583Z" fill="#FF9D4D"/>
</svg>
