<svg width="70" height="70" viewBox="0 0 70 70" fill="none" xmlns="http://www.w3.org/2000/svg">
<g clip-path="url(#clip0_453_1042)">
<path d="M29.7363 0.0957069C28.5332 0.246098 25.5527 0.875004 24.3496 1.23047C16.6387 3.52735 9.83008 8.69532 5.53711 15.5176C3.04883 19.4688 1.29883 24.4453 0.669922 29.3945C0.451172 31.0625 0.451172 35.3828 0.669922 37.0508C1.92773 46.8535 7.01367 55.2344 15.0938 60.8125C16.1191 61.5234 16.4063 61.6602 16.8848 61.6602C17.8691 61.6602 18.416 60.8945 18.1563 59.9238C18.0605 59.5684 17.7871 59.3086 16.707 58.5977C9.61133 53.8398 4.67578 45.9785 3.51367 37.584L3.33594 36.2715L4.77148 37.7207C5.57813 38.5137 6.74023 39.5117 7.35547 39.9219C8.02539 40.3594 8.68164 40.9336 8.94141 41.2891C9.36524 41.877 11.2656 43.6953 13.6035 45.7461C15.2168 47.1543 15.4355 47.3047 15.9551 47.3047C16.748 47.3047 17.0352 46.9902 17.623 45.4863C18.3477 43.5996 18.6211 42.5059 18.6484 41.3438C18.6621 40.4277 18.6348 40.3184 18.1563 39.6348C17.8691 39.2246 16.9941 38.0898 16.1875 37.1191C14.752 35.3555 14.2598 34.6309 14.4102 34.4941C14.4512 34.4531 15.1074 34.4805 15.8594 34.5762C17.9512 34.8086 18.4434 34.7813 19.291 34.3574C20.1387 33.9336 22.2168 31.9238 22.5859 31.1719C22.709 30.9121 22.9824 30.3242 23.1875 29.8867C23.6523 28.8613 25.1836 27.2344 26.4688 26.3867C27.918 25.4434 29.9277 24.5957 30.9531 24.5137C32.4844 24.377 33.2637 23.666 34.3164 21.4238C35.3691 19.168 35.7793 16.6387 35.2871 15.2578C34.959 14.3281 33.7559 13.3164 31.2676 11.8945C30.0234 11.1836 28.793 10.4316 28.5469 10.2266L28.0957 9.85743L28.1094 6.94532C28.1094 5.34571 28.1504 3.81446 28.2051 3.54102L28.3008 3.0625L29.5723 2.88477C39.0606 1.57227 48.7266 4.83985 55.4941 11.6348C58.9121 15.0664 61.3731 19.1133 62.9043 23.8164C63.6836 26.1953 63.916 26.5234 64.7637 26.5234C65.3789 26.5234 65.8574 26.1953 66.0352 25.6211C66.1719 25.2246 66.1309 24.9648 65.8301 23.8984C64.0527 17.8145 60.375 12.0996 55.6035 7.98438C50.7637 3.82813 44.7754 1.09375 38.5547 0.205082C37.2285 0.0273476 30.9668 -0.0683556 29.7363 0.0957069ZM25.3613 7.06836C25.3613 10.1992 25.375 10.3496 25.6758 10.9785C26.1406 11.9082 27.084 12.6602 29.6133 14.0957C32.252 15.5996 32.8125 16.0781 32.8125 16.8027C32.8125 17.8965 32.1016 20.0293 31.3633 21.2051C31.0898 21.6289 30.9531 21.7383 30.6113 21.7383C29.9824 21.7383 28.2734 22.3535 26.5918 23.1738C23.8438 24.5273 21.834 26.4414 20.6855 28.834C20.043 30.1738 19.373 31.0078 18.457 31.6504L17.9102 32.0332L16.2012 31.8555C12.5098 31.4727 11.2246 32.0605 11.375 34.0566C11.457 35.123 12.168 36.5449 13.3438 37.9395C13.8359 38.541 14.6563 39.5391 15.1348 40.168L16.0234 41.3027L15.8047 42.1641C15.3945 43.832 15.5176 43.8047 14.1367 42.5605C12.8652 41.4121 11.6211 40.1816 10.459 38.9375C10.0898 38.5273 9.21484 37.8164 8.53125 37.3652C6.75391 36.1758 4.82617 33.9473 3.69141 31.7871C3.28125 31.0215 3.26758 30.9121 3.34961 30.0098C3.89648 24.377 6.33008 18.5254 10.0762 13.877C12.8789 10.4043 16.9668 7.23243 21.0547 5.38672C22.4082 4.77149 24.9375 3.82813 25.2246 3.82813C25.3066 3.82813 25.3613 5.00391 25.3613 7.06836Z" fill="#FF9D4D"/>
<path d="M45.9648 13.877C44.2422 14.3692 43.6133 15.0801 43.6133 16.5567C43.6133 17.2949 43.8867 18.0879 44.2832 18.5254C44.5156 18.7578 44.543 19.0996 44.5977 21.0684C44.6523 23.3106 44.6523 23.3516 45.0488 24.0078C45.8691 25.3203 47.6738 26.3867 48.7402 26.1953C49.4102 26.0586 49.957 25.4434 50.3809 24.336C50.5859 23.8028 50.8594 23.3106 51.0098 23.2422C51.1465 23.1602 52.0762 22.9141 53.0605 22.6953C55.0156 22.2442 55.4941 22.0254 56.2598 21.1778C57.2031 20.125 57.5312 18.7852 57.0527 17.8692C56.7383 17.2403 55.5352 15.4356 55.1934 15.0664C54.4004 14.2051 52.623 13.8086 49.082 13.7266C47.2363 13.6856 46.5254 13.7129 45.9648 13.877ZM52.3223 16.6797C53.1699 16.8438 53.1836 16.8438 53.7715 17.7598C54.0996 18.252 54.4141 18.7305 54.4551 18.8262C54.5098 18.9082 54.4141 19.1407 54.25 19.3321C54.0039 19.6055 53.5801 19.7559 52.1582 20.0977C51.1875 20.3301 50.1211 20.6446 49.8066 20.7949C49.123 21.1231 48.3301 21.9981 48.125 22.6407C47.9473 23.1602 47.8379 23.2149 47.5781 22.9004C47.4551 22.75 47.3867 22.0117 47.3457 20.5352C47.291 18.2793 47.127 17.4864 46.6211 17.0215C46.2656 16.7071 46.2793 16.584 46.6621 16.4883C47.1816 16.3789 51.4336 16.5157 52.3223 16.6797Z" fill="#FF9D4D"/>
<path d="M59.2265 28.6563C58.748 29.1485 57.3808 32.8536 57.3672 33.7422C57.3535 34.2344 57.4219 34.3985 57.7363 34.6719C58.2422 35.1094 59.0488 35.1231 59.5273 34.6856C59.9375 34.3301 61.3867 30.3516 61.3867 29.5997C61.3867 28.9434 60.9082 28.4375 60.1972 28.3418C59.6914 28.2735 59.5683 28.3145 59.2265 28.6563Z" fill="#FF9D4D"/>
<path d="M48.9453 29.0254C48.7813 29.2032 48.4942 29.6953 48.3164 30.1328C47.3594 32.4981 44.461 35.8477 40.4688 39.1836C39.0195 40.4004 35.5059 43.0664 35.4375 42.9981C35.4102 42.9707 35.4512 42.834 35.5332 42.6836C35.752 42.2598 35.711 41.836 35.3555 41.1524C34.7676 39.9766 33.6875 39.6211 32.416 40.1953C31.541 40.5918 31.1582 40.5371 29.9688 39.8535C27.9453 38.6778 26.7422 38.7051 24.4727 39.9766C23.4336 40.5508 23.0781 40.8242 22.7227 41.3575C22.0254 42.3828 21.8067 43.2989 21.8067 45.1582V46.7852L22.2578 47.1817C22.8594 47.7285 23.5293 47.7285 24.0762 47.1817C24.459 46.7989 24.4727 46.7305 24.4727 45.5C24.4863 44.666 24.5684 43.9961 24.7188 43.5449C24.9238 42.9434 25.0469 42.8203 25.8399 42.3555C27.2207 41.5625 27.3027 41.5625 28.9024 42.3965C30.1055 43.0117 30.4063 43.1211 31.2676 43.1758C31.8008 43.2032 32.4297 43.1758 32.6621 43.0938C33.0176 42.9707 33.168 42.9844 33.5645 43.2305C33.8652 43.4082 34.1934 43.4903 34.4531 43.4492C34.6856 43.4082 34.8633 43.4082 34.8633 43.4356C34.8633 43.4629 34.1387 43.9551 33.25 44.543C32.1563 45.2539 29.9551 46.4024 26.4141 48.1114C23.4336 49.5469 20.9453 50.8321 20.6445 51.0918C19.6328 51.9668 19.0723 53.7168 19.4004 55.0157C19.5918 55.7813 22.5586 61.9473 23.0508 62.5762C23.4883 63.1504 24.6094 63.8067 25.4981 63.9844C26.5235 64.2032 27.3711 63.9707 29.627 62.8907C30.7207 62.3711 31.6367 61.9473 31.6641 61.9746C31.6914 61.9883 32.4981 63.6563 33.4824 65.6797C34.4531 67.7032 35.3692 69.4668 35.4922 69.6035C35.6152 69.7403 35.9297 69.8907 36.1758 69.9453C36.5723 70.0137 37.0508 69.836 39.4434 68.6875C40.9883 67.9492 42.3828 67.211 42.5332 67.0332C43.0938 66.4453 42.957 65.9668 41.1797 62.3164C40.2774 60.4571 39.4981 58.8028 39.4434 58.666C39.375 58.4199 39.5254 58.3379 40.9063 57.9141C44.625 56.752 48.3301 55.8907 51.8164 55.3438C54.3457 54.9473 58.3926 54.9199 59.8828 55.2891C61.6875 55.7403 62.002 55.7266 62.4805 55.2617C62.7676 54.961 62.8906 54.7149 62.8906 54.3867C62.8906 54.086 62.3027 52.7051 61.0996 50.2168L59.2949 46.4981L59.7598 45.9785C60.8809 44.7344 61.3184 43.4903 61.2227 41.7813C61.1406 40.3184 60.6074 39.17 59.541 38.1582C58.4473 37.1192 57.5313 36.7364 55.8633 36.6543L54.5234 36.5723L52.7598 32.8809C51.7754 30.8438 50.8594 29.0801 50.709 28.9434C50.2715 28.5879 49.3281 28.6289 48.9453 29.0254ZM54.4961 42.8067C57.0117 48.0157 59.0625 52.2813 59.0625 52.2813C59.0625 52.2949 57.9141 52.2949 56.5059 52.3086C51.9121 52.3223 46.1973 53.375 40.0449 55.3164C38.9785 55.6446 38.0899 55.9043 38.0762 55.8907C37.9668 55.7266 34.043 47.4824 34.043 47.4141C34.043 47.3594 34.6172 46.9356 35.3145 46.4571C41.2754 42.4649 46.1699 38.1309 48.918 34.4121C49.4102 33.7559 49.834 33.25 49.8613 33.2774C49.9024 33.3047 51.9805 37.5977 54.4961 42.8067ZM56.9844 39.6348C57.9688 40.1407 58.5156 41.0567 58.5156 42.1778C58.5156 42.752 58.2149 43.75 58.0508 43.75C57.9824 43.75 55.918 39.5528 55.918 39.4297C55.918 39.2793 56.5332 39.4024 56.9844 39.6348ZM33.6192 52.8965C34.6719 55.1114 35.5332 56.9434 35.5059 56.9571C35.3965 57.0801 27.0293 61.0996 26.6192 61.2364C26.209 61.3731 26.0449 61.3731 25.6348 61.168C25.211 60.9766 25.0469 60.7305 24.377 59.3496C22.4902 55.4258 22.0117 54.3867 22.0117 54.127C22.0117 53.6485 22.3945 53.0879 22.8867 52.8555C23.461 52.5821 29.5586 49.6563 30.6934 49.0957C31.1445 48.877 31.5547 48.7403 31.5957 48.7949C31.6504 48.836 32.5527 50.6817 33.6192 52.8965ZM38.2813 62.5899C39.0469 64.1895 39.6485 65.5293 39.6211 65.5567C39.5527 65.625 37.1738 66.7188 37.0918 66.7188C36.9688 66.7188 34.166 60.7989 34.2481 60.7168C34.4531 60.5254 36.7227 59.5137 36.8047 59.5957C36.8457 59.6367 37.5156 60.9903 38.2813 62.5899Z" fill="#FF9D4D"/>
<path d="M67.2656 35.1367C66.418 35.3965 62.9043 37.1875 62.6992 37.4746C62.166 38.2402 62.6172 39.416 63.5058 39.5937C63.9023 39.6621 64.3125 39.5254 66.1172 38.6777C68.291 37.6523 68.8242 37.2832 68.9336 36.7363C69.0156 36.3398 68.8242 35.6152 68.5781 35.4238C68.2773 35.1641 67.6348 35.041 67.2656 35.1367Z" fill="#FF9D4D"/>
<path d="M63.2735 44.1465C62.6856 44.666 62.6446 45.4863 63.1641 46.0059C63.5606 46.4023 67.5801 47.8516 68.2637 47.8516C68.8653 47.8516 69.2754 47.5371 69.4668 46.9082C69.5899 46.4844 69.5762 46.3203 69.3985 45.9648C69.2754 45.7324 69.0567 45.4727 68.9063 45.3906C68.3457 45.0898 64.3672 43.75 64.0391 43.75C63.8614 43.75 63.5196 43.9277 63.2735 44.1465Z" fill="#FF9D4D"/>
</g>
<defs>
<clipPath id="clip0_453_1042">
<rect width="70" height="70" fill="white"/>
</clipPath>
</defs>
</svg>
