<svg width="70" height="70" viewBox="0 0 70 70" fill="none" xmlns="http://www.w3.org/2000/svg">
<path d="M47.1953 1.09375C38.0078 2.25586 30.7344 9.99414 30.2559 19.1133C30.1738 20.7402 30.1875 20.7949 30.4883 21.123L30.8027 21.4648H34.6035C36.6953 21.4648 38.5 21.4238 38.623 21.3828C38.9785 21.2461 39.2383 20.5762 39.2383 19.7832C39.2383 18.3066 40.0312 15.9961 41.0293 14.5332C45.2129 8.43555 54.291 8.54492 58.3105 14.752C59.3086 16.2969 60.0195 18.5391 60.0195 20.1797C60.0195 20.6445 60.1016 20.877 60.3613 21.123L60.6894 21.4648H64.5312H68.373L68.7285 21.1094C69.084 20.7539 69.084 20.7402 69.0019 19.3184C68.4551 10.459 62.1797 3.19922 53.4844 1.36719C51.9531 1.03906 48.7266 0.902342 47.1953 1.09375ZM48.5078 5.61914L48.4668 7.86133L48.125 7.90234C47.4004 7.9707 46.2383 8.24414 45.2812 8.57226C44.7207 8.76367 44.2559 8.88672 44.2285 8.85937C44.1191 8.76367 42.1094 5.20898 42.082 5.07226C42.0273 4.85351 43.6406 4.15625 45.1445 3.75976C46.5254 3.39062 48.2617 3.14453 48.4394 3.28125C48.4941 3.33594 48.5215 4.375 48.5078 5.61914ZM52.9512 3.51367C54.1953 3.74609 55.3848 4.11523 56.4922 4.60742L57.2578 4.94922L56.2324 6.74023C55.6582 7.73828 55.125 8.62695 55.0293 8.72266C54.8926 8.88672 54.6875 8.8457 53.8672 8.55859C53.3203 8.35351 52.4043 8.12109 51.8301 8.01172L50.791 7.84766L50.75 5.50976L50.7227 3.17187L51.2969 3.24023C51.625 3.26758 52.3633 3.39062 52.9512 3.51367ZM41.248 8.10742L42.3691 10.0488L41.8633 10.4453C41.1934 10.9922 40.0586 12.127 39.6211 12.7012L39.2656 13.166L37.3105 12.0312C36.2305 11.4023 35.3144 10.8828 35.2871 10.8555C35.2324 10.8008 35.916 9.89844 36.8867 8.79101C37.625 7.92969 39.7168 6.15234 39.9902 6.15234C40.0586 6.15234 40.6328 7.02734 41.248 8.10742ZM59.9375 6.58984C61.2773 7.61523 63.8476 10.3633 63.8476 10.7734C63.8476 10.8555 62.9863 11.4023 61.9336 12.0176L60.0195 13.1113L58.4609 11.5391L56.8887 9.98047L57.9824 8.06641C58.5977 7.01367 59.1445 6.15234 59.2266 6.15234C59.3086 6.15234 59.623 6.34375 59.9375 6.58984ZM65.9121 14.8613C66.2539 15.8594 66.5547 17.2539 66.7734 18.7715L66.8418 19.2773L64.5039 19.25L62.1523 19.209L61.9883 18.1699C61.8789 17.5957 61.6465 16.6797 61.4414 16.1328C61.209 15.4902 61.1406 15.0937 61.2227 15.0117C61.291 14.9434 62.1797 14.3965 63.1777 13.8223L65.0098 12.7559L65.2695 13.248C65.4199 13.5215 65.707 14.2461 65.9121 14.8613ZM36.1484 13.8906C37.1328 14.4648 37.9805 14.9707 38.0351 15.0117C38.0898 15.0664 37.9805 15.5312 37.8027 16.0371C37.6113 16.543 37.3652 17.4727 37.2422 18.1152L37.0098 19.2773H34.6855H32.375L32.4707 18.4844C32.6894 16.543 33.8379 12.8516 34.207 12.8516C34.2891 12.8516 35.1641 13.3164 36.1484 13.8906Z" fill="#FF9D4D"/>
<path d="M54.8926 13.6855C54.7422 13.7676 53.8809 14.5742 52.9785 15.4629L51.3379 17.0762L50.791 16.8848C48.4395 16.0508 45.9375 17.8418 45.9375 20.3574C45.9375 22.5039 47.4961 24.0488 49.6426 24.0625C52.1582 24.0625 53.9492 21.5605 53.1152 19.209L52.9238 18.6621L54.5371 17.0215C55.4258 16.1191 56.2324 15.2441 56.3145 15.0801C56.7383 14.2598 55.6855 13.248 54.8926 13.6855ZM50.3945 19.127C51.2559 19.6465 51.3516 20.877 50.5723 21.5195C49.875 22.1074 48.7129 21.9297 48.3164 21.1777C47.5781 19.7559 49.041 18.3066 50.3945 19.127Z" fill="#FF9D4D"/>
<path d="M15.4356 15.8594C10.336 16.4473 5.79689 19.4004 3.17189 23.8574C0.423846 28.5195 0.246111 34.4531 2.72072 39.3477C4.90822 43.668 9.00978 46.8262 13.8496 47.9063L14.2188 47.9883V50.3125C14.2188 52.4727 14.2051 52.6231 13.959 52.7051C13.5625 52.8281 12.7559 53.7852 12.6055 54.3047C12.5371 54.5781 12.5235 57.2852 12.5781 60.9766C12.6738 67.8125 12.6602 67.6758 13.5352 68.4141C14.2324 68.9883 14.7656 69.0703 17.5137 69.0156C20.4805 68.9609 20.9043 68.8242 21.5469 67.7305L21.916 67.1016L21.8203 60.7305C21.7246 53.6484 21.752 53.8398 20.7676 52.9922L20.2344 52.541V50.2715V48.002L20.8223 47.8516C24.1035 47.0039 26.5918 45.5957 28.7793 43.3262C30.2695 41.7949 30.9805 40.7695 31.8692 38.9102C33.9746 34.4941 33.9336 29.1895 31.7461 24.8145C29.4902 20.2891 25.1836 17.0078 20.2754 16.0781C18.8535 15.8047 16.7207 15.709 15.4356 15.8594ZM20.0293 18.2793C22.8184 18.8125 25.3067 20.2207 27.4121 22.4356C30.2012 25.3887 31.5137 29.1758 31.1582 33.332C30.9395 35.957 29.832 38.6777 28.0957 40.8379C26.127 43.2988 23.2149 45.0898 20.084 45.7598C18.3067 46.1426 15.5039 46.0742 13.7813 45.6231C11.2246 44.9531 9.1465 43.7637 7.3008 41.918C5.4551 40.0723 4.27931 38.0078 3.59572 35.4375C3.28127 34.2891 3.24025 33.8379 3.24025 31.9922C3.24025 30.1328 3.28127 29.709 3.59572 28.5059C4.29299 25.8945 5.97463 23.1602 7.88869 21.5059C11.3067 18.5391 15.5586 17.418 20.0293 18.2793ZM18.0469 50.3809V52.5H17.2266H16.4063V50.3809V48.2617H17.2266H18.0469V50.3809ZM19.5918 58.4063C19.6465 60.4434 19.6875 63.1367 19.6875 64.3945V66.6777L19.0586 66.7734C17.8828 66.9238 15.0664 66.8691 14.9434 66.6914C14.834 66.5137 14.6426 55.166 14.7383 54.8516C14.7793 54.7285 15.3809 54.6875 17.1445 54.6875H19.5098L19.5918 58.4063Z" fill="#FF9D4D"/>
<path d="M15.1074 20.5625C11.0195 21.3691 7.68359 24.1719 6.30273 27.9727C5.72852 29.5723 5.55078 30.7617 5.63281 32.6211C5.76953 35.6563 6.86328 38.0762 9.07813 40.2637C10.5137 41.6719 11.7031 42.4102 13.6719 43.0938C14.916 43.5176 15.0527 43.5313 17.0898 43.5449C18.8945 43.5449 19.373 43.5039 20.2891 43.2305C25.6484 41.6855 29.1758 36.7227 28.8066 31.2539C28.4648 26.2637 25.1016 22.1621 20.207 20.7813C18.9082 20.4121 16.4336 20.3027 15.1074 20.5625ZM20.0293 23.0234C21.5332 23.502 22.7227 24.2266 23.8574 25.3613C28.7793 30.2969 26.8652 38.5684 20.248 40.9336C19.1543 41.3301 18.9355 41.3574 17.2266 41.3574C15.6543 41.3574 15.2441 41.3164 14.4238 41.043C11.8262 40.168 9.87109 38.4863 8.73633 36.1484C7.30078 33.1953 7.51953 29.5996 9.29688 26.8789C10.5957 24.8965 12.9609 23.2559 15.2441 22.7637C16.6387 22.4629 18.6348 22.5723 20.0293 23.0234Z" fill="#FF9D4D"/>
<path d="M20.3027 27.8223C19.8652 28.2461 19.8516 28.8887 20.2754 29.3125C20.4531 29.4902 20.6719 29.6543 20.7813 29.6953C20.9043 29.7363 20.4805 30.3516 19.5098 31.5684L18.0469 33.3867L17.0898 31.377C16.5566 30.2695 16.1328 29.3125 16.1328 29.2578C16.1328 29.2031 15.9824 28.998 15.791 28.793C15.3125 28.2734 14.6699 28.3008 14.123 28.875C13.3848 29.668 10.0762 33.8242 9.87109 34.2207C9.7207 34.5352 9.70703 34.6855 9.84375 35.0137C10.0488 35.4922 10.3496 35.6836 10.9238 35.6836C11.3613 35.6836 11.8809 35.1504 13.8086 32.7168C14.2871 32.1016 14.7383 31.6367 14.7793 31.6914C14.834 31.7461 15.3125 32.7441 15.8457 33.9062C16.3926 35.0684 16.9258 36.1211 17.0488 36.2578C17.1855 36.4082 17.459 36.5039 17.7734 36.5039C18.375 36.5039 18.4707 36.4082 20.8086 33.4688C22.4492 31.418 22.5313 31.3359 22.75 31.5684C23.2285 32.0879 24.3496 31.9238 24.541 31.2949C24.6641 30.9258 24.5 28.6562 24.3223 28.1914C24.0898 27.5762 23.8301 27.4941 22.1758 27.4805C20.7129 27.4805 20.6172 27.4941 20.3027 27.8223Z" fill="#FF9D4D"/>
<path d="M59.7324 28.834L59.4043 29.0938L59.3633 48.5625C59.3496 62.2754 59.377 68.127 59.4863 68.373C59.7324 69.002 60.0332 69.043 64.3399 69.043H68.3731L68.7012 68.7012L69.043 68.373V48.8086V29.2441L68.7012 28.916L68.3731 28.5742H64.2168C60.3203 28.5742 60.0332 28.5879 59.7324 28.834ZM66.8555 48.8086V66.8555H64.1895H61.5235V48.8086V30.7617H64.1895H66.8555V48.8086Z" fill="#FF9D4D"/>
<path d="M36.9277 39.1836C36.6406 39.5527 36.6406 39.5937 36.6406 53.9629V68.373L36.9824 68.7012L37.3105 69.043H41.3438C45.6094 69.043 45.9238 69.002 46.1973 68.4004C46.3066 68.168 46.3477 63.9707 46.3477 53.8125C46.3477 39.5937 46.3477 39.5527 46.0605 39.1836L45.7871 38.8281H41.4941H37.2012L36.9277 39.1836ZM44.1602 53.9355V66.8555H41.4941H38.8281V53.9355V41.0156H41.4941H44.1602V53.9355Z" fill="#FF9D4D"/>
<path d="M48.7266 44.1602C47.9473 44.4746 47.9883 43.8867 47.9883 56.6426V68.373L48.3301 68.7012L48.6582 69.043H52.6914C56.957 69.043 57.2715 69.002 57.5449 68.4004C57.6543 68.168 57.6953 64.6816 57.6953 56.4648V44.8574L57.3672 44.4746L57.0391 44.0918L53.0195 44.0645C50.8184 44.0508 48.877 44.0918 48.7266 44.1602ZM55.4805 56.5605L55.5078 66.8555H52.8418H50.1758V56.5332V46.2109L52.8145 46.2383L55.4395 46.2793L55.4805 56.5605Z" fill="#FF9D4D"/>
<path d="M25.5801 52.3086C25.293 52.6641 25.293 52.7871 25.293 60.5254V68.373L25.6348 68.7012L25.9629 69.043H30.0781H34.207L34.6035 68.6465L35 68.2363L34.9727 60.3613L34.9316 52.4727L34.6035 52.2129C34.3027 51.9668 34.0156 51.9531 30.0781 51.9531H25.8535L25.5801 52.3086ZM32.8125 60.498V66.8555H30.1465H27.4805V60.498V54.1406H30.1465H32.8125V60.498Z" fill="#FF9D4D"/>
</svg>
