<svg width="70" height="70" viewBox="0 0 70 70" fill="none" xmlns="http://www.w3.org/2000/svg">
<g clip-path="url(#clip0_453_1064)">
<path d="M52.5293 34.3391C55.0509 34.3391 57.0952 36.3833 57.0952 38.905C57.0952 41.4266 55.0509 43.4708 52.5293 43.4708C50.0077 43.4708 47.9634 41.4266 47.9634 38.905C47.9634 36.3833 50.0077 34.3391 52.5293 34.3391ZM42.3375 50.2655C42.3375 52.7871 44.3817 54.8313 46.9033 54.8313C49.425 54.8313 51.4692 52.7871 51.4692 50.2655C51.4692 47.7438 49.425 45.6996 46.9033 45.6996C44.3817 45.6996 42.3375 47.7438 42.3375 50.2655ZM39.6198 55.6738H34.4832H29.3467C26.2213 55.6738 24.2643 58.2556 24.2643 61.4898V69.4531H27.7704V62.414C27.7704 62.0878 28.0422 61.8704 28.3139 61.8704C28.6402 61.8704 28.8575 62.0878 28.8575 62.414V69.4261H40.1363V62.414C40.1363 62.0878 40.4081 61.8704 40.6799 61.8704C41.0061 61.8704 41.2235 62.1422 41.2235 62.414V69.4261H44.7295V61.5172C44.7836 58.2559 42.7996 55.6738 39.6198 55.6738ZM36.3311 38.905C36.3311 41.4266 38.3754 43.4708 40.897 43.4708C43.4186 43.4708 45.4629 41.4266 45.4629 38.905C45.4629 36.3833 43.4186 34.3391 40.897 34.3391C38.3754 34.3391 36.3311 36.3833 36.3311 38.905ZM54.3231 50.2655C54.3231 52.7931 56.3615 54.8313 58.8889 54.8313C61.4163 54.8313 63.4548 52.7929 63.4548 50.2655C63.4548 47.7381 61.4163 45.6996 58.8889 45.6996C56.3615 45.6996 54.3231 47.7378 54.3231 50.2655ZM53.8609 55.6738C50.7356 55.6738 48.7786 58.2556 48.7786 61.4898V69.4531H52.2846V62.414C52.2846 62.0878 52.5564 61.8704 52.8282 61.8704C53.1544 61.8704 53.3718 62.0878 53.3718 62.414V69.4261H64.6505V62.414C64.6505 62.0878 64.9223 61.8704 65.1941 61.8704C65.5203 61.8704 65.7377 62.1422 65.7377 62.414V69.4261H69.2437V61.5172C69.2981 58.2285 67.3141 55.6467 64.1613 55.6467H59.0248H53.8609V55.6738ZM6.46247 50.2655C6.46247 52.7871 8.50668 54.8313 11.0283 54.8313C13.55 54.8313 15.5942 52.7871 15.5942 50.2655C15.5942 47.7438 13.55 45.6996 11.0283 45.6996C8.50668 45.6996 6.46247 47.7438 6.46247 50.2655ZM4.23395 69.4261V62.414C4.23395 62.0878 4.50575 61.8704 4.77754 61.8704C5.10375 61.8704 5.32114 62.0878 5.32114 62.414V69.4261H16.5999V62.414C16.5999 62.0878 16.8717 61.8704 17.1435 61.8704C17.4697 61.8704 17.6871 62.1422 17.6871 62.414V69.4261H21.1931V61.5172C21.2475 58.2285 19.2634 55.6467 16.1107 55.6467H10.9742H5.83739C2.712 55.6467 0.755005 58.2285 0.755005 61.4627V69.4258L4.23395 69.4261ZM29.9171 50.2655C29.9171 52.7931 31.9556 54.8313 34.483 54.8313C37.0104 54.8313 39.0488 52.7929 39.0488 50.2655C39.0488 47.7381 37.0104 45.6996 34.483 45.6996C31.9556 45.6996 29.9171 47.7378 29.9171 50.2655ZM12.3058 38.905C12.3058 41.4266 14.35 43.4708 16.8717 43.4708C19.3933 43.4708 21.4375 41.4266 21.4375 38.905C21.4375 36.3833 19.3933 34.3391 16.8717 34.3391C14.35 34.3391 12.3058 36.3833 12.3058 38.905ZM24.6447 38.905C24.6447 41.4266 26.6889 43.4708 29.2106 43.4708C31.7322 43.4708 33.7764 41.4266 33.7764 38.905C33.7764 36.3833 31.7322 34.3391 29.2106 34.3391C26.6889 34.3391 24.6447 36.3833 24.6447 38.905ZM18.5025 50.2655C18.5025 52.7871 20.5467 54.8313 23.0683 54.8313C25.59 54.8313 27.6342 52.7871 27.6342 50.2655C27.6342 47.7438 25.59 45.6996 23.0683 45.6996C20.5467 45.6996 18.5025 47.7438 18.5025 50.2655ZM42.8584 10.0209L42.0367 10.8426C42.6659 12.1177 43.0202 13.5516 43.0202 15.067C43.0202 20.3479 38.724 24.6441 33.4431 24.6441C28.1622 24.6441 23.8662 20.3479 23.8662 15.067C23.8662 9.78605 28.1625 5.4898 33.4434 5.4898C34.9588 5.4898 36.3927 5.84418 37.6677 6.47363L38.4894 5.65195V4.66594V4.35477C36.9576 3.63043 35.2472 3.22438 33.4434 3.22438C26.9134 3.22438 21.6008 8.53699 21.6008 15.067C21.6008 21.5969 26.9134 26.9095 33.4434 26.9095C39.9733 26.9095 45.2859 21.5969 45.2859 15.067C45.2859 13.2631 44.8799 11.5527 44.1556 10.0209H43.8444H42.8584ZM38.2619 14.6174L40.1516 12.7277C40.4078 13.4608 40.5489 14.2475 40.5489 15.0667C40.5489 18.9848 37.3615 22.1722 33.4434 22.1722C29.5253 22.1722 26.3378 18.985 26.3378 15.067C26.3378 11.1489 29.5253 7.96141 33.4434 7.96141C34.2629 7.96141 35.0495 8.1025 35.7823 8.35871L33.8926 10.2484C33.7447 10.2348 33.5948 10.2268 33.4434 10.2268C30.7746 10.2268 28.6032 12.3979 28.6032 15.067C28.6032 17.736 30.7743 19.9071 33.4434 19.9071C36.1124 19.9071 38.2835 17.736 38.2835 15.067C38.2835 14.9155 38.2756 14.7656 38.2619 14.6174ZM42.0052 7.96141L35.6795 14.2868C35.7648 14.5313 35.8116 14.7935 35.8116 15.067C35.8116 16.3751 34.7512 17.4355 33.4431 17.4355C32.135 17.4355 31.0746 16.3751 31.0746 15.067C31.0746 13.7588 32.135 12.6984 33.4431 12.6984C33.7165 12.6984 33.9788 12.7452 34.2232 12.8305L40.5486 6.50508V4.66621L44.668 0.546875V3.84234H47.9634L43.8444 7.96141H42.0052Z" fill="#FF9D4D"/>
</g>
<defs>
<clipPath id="clip0_453_1064">
<rect width="70" height="70" fill="white"/>
</clipPath>
</defs>
</svg>
