<svg width="24" height="25" viewBox="0 0 24 25" fill="none" xmlns="http://www.w3.org/2000/svg">
<path d="M24 11.169V5.89835C24 4.91386 23.165 3.7973 22.1279 3.42512L14.6262 0.687745C12.9427 0.075439 11.0437 0.075439 9.36024 0.687745L1.85859 3.42512C0.835019 3.7973 0 4.91386 0 5.89835V11.169C0 17.0399 4.78116 22.5387 11.3131 24.1475C11.7575 24.2555 12.2424 24.2555 12.6868 24.1475C19.2188 22.5387 24 17.0399 24 11.169ZM13.0101 13.27V16.4276C13.0101 16.9199 12.5522 17.3281 12 17.3281C11.4478 17.3281 10.9899 16.9199 10.9899 16.4276V13.27C9.6296 12.8858 8.63302 11.7573 8.63302 10.4246C8.63302 8.76779 10.1414 7.42312 12 7.42312C13.8586 7.42312 15.367 8.76779 15.367 10.4246C15.367 11.7693 14.3703 12.8858 13.0101 13.27Z" fill="#FF9D4D"/>
</svg>
