<svg width="24" height="25" viewBox="0 0 24 25" fill="none" xmlns="http://www.w3.org/2000/svg">
<path d="M11.3684 0.228516C8.68834 0.228516 6.11803 1.23994 4.22292 3.04029C2.32782 4.84064 1.26316 7.28244 1.26316 9.82852V12.1085C0.882105 12.4239 0.573352 12.8104 0.356061 13.2439C0.138769 13.6774 0.017575 14.1487 0 14.6285C0.0287714 15.3243 0.278132 15.9957 0.715406 16.5545C1.15268 17.1134 1.75747 17.5338 2.45053 17.7605C4.09263 21.4925 7.38947 24.2285 11.3684 24.2285H15.1579V21.8285H11.3684C8.51368 21.8285 5.92421 19.7885 4.62316 16.5605L4.35789 15.9005L3.61263 15.8285C3.30912 15.7878 3.03157 15.6436 2.8317 15.4228C2.63184 15.202 2.5233 14.9197 2.52632 14.6285C2.52765 14.4191 2.58664 14.2137 2.69744 14.0326C2.80824 13.8516 2.96698 13.7012 3.15789 13.5965L3.78947 13.2485V11.0285C3.78947 10.7103 3.92256 10.405 4.15944 10.18C4.39633 9.95494 4.71762 9.82852 5.05263 9.82852H17.6842C18.0192 9.82852 18.3405 9.95494 18.5774 10.18C18.8143 10.405 18.9474 10.7103 18.9474 11.0285V17.0285H13.7811C13.6664 16.723 13.467 16.4527 13.2039 16.246C12.9408 16.0393 12.6238 15.904 12.2864 15.8543C11.949 15.8047 11.6038 15.8426 11.2872 15.964C10.9706 16.0853 10.6945 16.2857 10.4879 16.544C10.2813 16.8022 10.152 17.1086 10.1137 17.4309C10.0753 17.7532 10.1293 18.0793 10.27 18.3748C10.4107 18.6703 10.6328 18.9243 10.9128 19.1097C11.1929 19.2952 11.5205 19.4053 11.8611 19.4285H21.4737C22.1437 19.4285 22.7863 19.1757 23.2601 18.7256C23.7338 18.2755 24 17.665 24 17.0285V14.6285C24 13.992 23.7338 13.3815 23.2601 12.9315C22.7863 12.4814 22.1437 12.2285 21.4737 12.2285V9.82852C21.4737 7.28244 20.409 4.84064 18.5139 3.04029C16.6188 1.23994 14.0485 0.228516 11.3684 0.228516Z" fill="#FF9D4D"/>
</svg>
