<svg width="24" height="25" viewBox="0 0 24 25" fill="none" xmlns="http://www.w3.org/2000/svg">
<g clip-path="url(#clip0_408_1433)">
<path d="M12 24.2285C18.6274 24.2285 24 18.8559 24 12.2285C24 5.6011 18.6274 0.228516 12 0.228516C5.37258 0.228516 0 5.6011 0 12.2285C0 18.8559 5.37258 24.2285 12 24.2285Z" fill="#FF9D4D"/>
<path d="M23.5407 15.5269L20.2423 12.2285L7.58402 12.9171L5.06885 13.8547L15.1286 23.8155C19.1845 22.7231 22.3906 19.5588 23.5407 15.5269Z" fill="#F9B54C"/>
<path d="M12 7.83667C8.47788 7.83667 5.40288 9.60315 3.75757 12.2286C5.40288 14.854 8.47788 16.6205 12 16.6205C15.5221 16.6205 18.5971 14.854 20.2424 12.2286C18.5971 9.6032 15.5221 7.83667 12 7.83667Z" fill="#484545"/>
<path d="M12.0001 7.83667C11.991 7.83667 11.9821 7.83709 11.9731 7.83709V16.6201C11.9822 16.6201 11.9911 16.6205 12.0001 16.6205C15.5221 16.6205 18.5971 14.854 20.2425 12.2286C18.5971 9.6032 15.5221 7.83667 12.0001 7.83667Z" fill="#484545"/>
<path d="M12 8.85645C9.1685 8.85645 6.6965 10.2127 5.37378 12.2284C6.69654 14.2441 9.16854 15.6004 12 15.6004C14.8315 15.6004 17.3036 14.2441 18.6263 12.2284C17.3036 10.2127 14.8316 8.85645 12 8.85645Z" fill="#E6F3FF"/>
<path d="M12.0001 8.85645C11.991 8.85645 11.9821 8.85687 11.9731 8.85687V15.6C11.9822 15.6 11.9911 15.6004 12.0001 15.6004C14.8316 15.6004 17.3036 14.2441 18.6263 12.2284C17.3036 10.2127 14.8316 8.85645 12.0001 8.85645Z" fill="#CFDBE6"/>
<path d="M11.9999 15.2991C13.6958 15.2991 15.0706 13.9243 15.0706 12.2284C15.0706 10.5325 13.6958 9.15771 11.9999 9.15771C10.304 9.15771 8.9292 10.5325 8.9292 12.2284C8.9292 13.9243 10.304 15.2991 11.9999 15.2991Z" fill="#FFDEC3"/>
<path d="M11.9999 9.15771C11.9909 9.15771 11.9819 9.15828 11.9729 9.15837V15.2984C11.9819 15.2985 11.9909 15.2991 11.9999 15.2991C13.6958 15.2991 15.0706 13.9243 15.0706 12.2284C15.0706 10.5325 13.6958 9.15771 11.9999 9.15771Z" fill="#FFDEC3"/>
<path d="M12.0001 13.2387C12.558 13.2387 13.0102 12.7865 13.0102 12.2286C13.0102 11.6707 12.558 11.2185 12.0001 11.2185C11.4422 11.2185 10.99 11.6707 10.99 12.2286C10.99 12.7865 11.4422 13.2387 12.0001 13.2387Z" fill="#484545"/>
<path d="M11.9999 11.2185C11.9908 11.2185 11.9819 11.2196 11.9729 11.2199V13.2373C11.9819 13.2376 11.9908 13.2387 11.9999 13.2387C12.5578 13.2387 13.01 12.7865 13.01 12.2286C13.01 11.6707 12.5578 11.2185 11.9999 11.2185Z" fill="#484545"/>
<path d="M11.4344 11.7841C11.6799 11.7841 11.8788 11.5851 11.8788 11.3397C11.8788 11.0942 11.6799 10.8953 11.4344 10.8953C11.189 10.8953 10.99 11.0942 10.99 11.3397C10.99 11.5851 11.189 11.7841 11.4344 11.7841Z" fill="white"/>
</g>
<defs>
<clipPath id="clip0_408_1433">
<rect width="24" height="24" fill="white" transform="translate(0 0.228516)"/>
</clipPath>
</defs>
</svg>
