<svg width="73" height="73" viewBox="0 0 73 73" fill="none" xmlns="http://www.w3.org/2000/svg">
<path opacity="0.968" fill-rule="evenodd" clip-rule="evenodd" d="M33.8203 2.25585C35.6022 2.23243 37.3835 2.25587 39.1641 2.32617C39.5446 4.305 39.8728 6.29718 40.1484 8.30273C42.2062 8.69857 44.1281 9.44857 45.9141 10.5527C47.3868 9.52525 48.84 8.47056 50.2734 7.38867C50.4921 7.20736 50.7264 7.1136 50.9766 7.10742C52.2482 8.33205 53.467 9.59767 54.6328 10.9043C53.463 12.5434 52.2911 14.1841 51.1172 15.8262C52.2188 17.5367 52.9923 19.3883 53.4375 21.3809C55.4504 21.8532 57.4895 22.2283 59.5547 22.5059C59.5547 24.334 59.5547 26.1621 59.5547 27.9902C57.4957 28.2201 55.4566 28.5482 53.4375 28.9746C53.0107 30.9992 52.2373 32.8743 51.1172 34.5996C52.3418 36.2292 53.5136 37.8932 54.6328 39.5918C53.5139 40.8515 52.342 42.0703 51.1172 43.248C50.9297 43.3418 50.7421 43.3418 50.5547 43.248C48.9968 42.0824 47.4265 40.9339 45.8438 39.8027C44.1391 40.9242 42.2875 41.7211 40.2891 42.1934C39.8841 44.1539 39.5092 46.1227 39.1641 48.0996C37.3828 48.2871 35.6016 48.2871 33.8203 48.0996C33.4752 46.1227 33.1003 44.1539 32.6953 42.1934C30.6969 41.7211 28.8453 40.9242 27.1406 39.8027C25.5579 40.9339 23.9875 42.0824 22.4297 43.248C22.2422 43.3418 22.0546 43.3418 21.8672 43.248C20.6423 42.0703 19.4705 40.8515 18.3516 39.5918C19.4708 37.8932 20.6426 36.2292 21.8672 34.5996C20.7471 32.8743 19.9737 30.9992 19.5469 28.9746C17.5281 28.5484 15.489 28.2201 13.4297 27.9902C13.4297 26.1621 13.4297 24.334 13.4297 22.5059C15.4949 22.2283 17.534 21.8532 19.5469 21.3809C19.9921 19.3883 20.7655 17.5367 21.8672 15.8262C20.6933 14.1841 19.5214 12.5434 18.3516 10.9043C19.5173 9.59767 20.7361 8.33205 22.0078 7.10742C22.258 7.1136 22.4923 7.20736 22.7109 7.38867C24.1443 8.47056 25.5975 9.52525 27.0703 10.5527C28.8548 9.44944 30.7768 8.69945 32.8359 8.30273C33.1193 6.27473 33.4474 4.25911 33.8203 2.25585ZM34.9453 12.5215C40.5181 12.2254 44.7604 14.4285 47.6719 19.1309C50.0039 24.0773 49.582 28.7649 46.4062 33.1934C42.4017 37.6507 37.5501 38.9399 31.8516 37.0605C26.0305 34.3504 23.3821 29.7801 23.9062 23.3496C25.2037 17.2941 28.8834 13.6848 34.9453 12.5215Z" fill="#FF9D4D"/>
<path opacity="0.961" fill-rule="evenodd" clip-rule="evenodd" d="M34.9453 14.0684C39.871 13.6838 43.6445 15.5589 46.2656 19.6934C47.8223 22.8922 48.0099 26.1735 46.8281 29.5371C46.4597 30.4391 45.9675 31.2593 45.3515 31.9981C44.6384 30.2598 43.5603 28.7129 42.1172 27.3574C41.141 26.6114 40.0628 26.0489 38.8828 25.6699C41.0345 23.8704 41.4329 21.7375 40.0781 19.2715C37.6875 16.834 35.2969 16.834 32.9062 19.2715C31.5484 21.7271 31.9467 23.8365 34.1015 25.5996C30.9506 26.735 28.8412 28.8912 27.7734 32.0684C26.511 30.6208 25.7376 28.9333 25.4531 27.0059C24.8675 21.3181 27.141 17.2635 32.2734 14.8418C33.1633 14.5146 34.054 14.2568 34.9453 14.0684Z" fill="#FF9D4D"/>
<path opacity="0.94" fill-rule="evenodd" clip-rule="evenodd" d="M35.9297 19.2715C38.668 19.4077 39.582 20.7672 38.6719 23.3496C37.681 24.5205 36.4857 24.7782 35.086 24.123C33.8981 23.0844 33.6402 21.8423 34.3125 20.3965C34.7555 19.8606 35.2945 19.4857 35.9297 19.2715Z" fill="#FF9D4D"/>
<path opacity="0.965" fill-rule="evenodd" clip-rule="evenodd" d="M36.0703 27.1465C39.6252 27.21 42.0391 28.8975 43.3125 32.209C43.4247 32.4563 43.4012 32.6908 43.2422 32.9121C40.3176 35.2549 37.0363 35.9346 33.3984 34.9512C31.8635 34.5377 30.5979 33.7408 29.6016 32.5605C30.5961 29.3374 32.7524 27.5326 36.0703 27.1465Z" fill="#FF9D4D"/>
<path opacity="0.973" fill-rule="evenodd" clip-rule="evenodd" d="M33.3984 51.8965C35.461 51.8965 37.5234 51.8965 39.5859 51.8965C39.5859 54.6622 39.5859 57.4277 39.5859 60.1934C45.4454 60.1934 51.3046 60.1934 57.1641 60.1934C57.1407 59.0674 57.1641 57.9424 57.2344 56.8184C59.42 58.9568 61.5527 61.1365 63.6328 63.3574C61.5975 65.5568 59.4882 67.6895 57.3047 69.7559C57.1643 68.6348 57.1175 67.5098 57.1641 66.3809C43.3828 66.3809 29.6016 66.3809 15.8203 66.3809C15.8669 67.5098 15.82 68.6348 15.6797 69.7559C13.5665 67.5959 11.4571 65.4397 9.35156 63.2871C11.459 61.1094 13.5918 58.9532 15.75 56.8184C15.8203 57.9424 15.8437 59.0674 15.8203 60.1934C21.6797 60.1934 27.539 60.1934 33.3984 60.1934C33.3984 57.4277 33.3984 54.6622 33.3984 51.8965Z" fill="#FF9D4D"/>
</svg>
