<svg width="72" height="73" viewBox="0 0 72 73" fill="none" xmlns="http://www.w3.org/2000/svg">
<g clip-path="url(#clip0_443_3305)">
<path opacity="0.986" fill-rule="evenodd" clip-rule="evenodd" d="M35.3672 0.990234C36.3105 1.02198 37.2481 1.11573 38.1797 1.27148C38.5368 2.00908 38.9118 2.73563 39.3047 3.45117C40.6745 3.79836 41.9636 4.33743 43.1719 5.06836C43.8538 4.77855 44.5569 4.54418 45.2813 4.36523C45.5101 4.38283 45.721 4.45314 45.9141 4.57617C46.8996 5.42115 47.7903 6.35865 48.586 7.38867C48.2676 8.10945 48.0333 8.85944 47.8828 9.63867C48.4854 10.8834 48.9776 12.1725 49.3594 13.5059C50.0749 13.8988 50.8015 14.2738 51.5391 14.6309C51.6769 14.9945 51.7237 15.3696 51.6797 15.7559C55.9924 15.7324 60.3049 15.7559 64.6172 15.8262C64.875 15.8965 65.0391 16.0606 65.1094 16.3184C65.1562 28.8808 65.2032 41.4434 65.25 54.0059C67.1525 58.729 69.0276 63.4635 70.875 68.209C71.0441 68.8127 70.8799 69.3049 70.3828 69.6855C47.3559 69.8258 24.3404 69.7789 1.33596 69.5449C0.977179 68.7732 1.00062 67.9997 1.40627 67.2246C3.14064 62.8184 4.87503 58.4121 6.6094 54.0059C6.65627 41.4434 6.70315 28.8808 6.75002 16.3184C6.82033 16.0606 6.9844 15.8965 7.24221 15.8262C9.1172 15.7324 10.9922 15.7324 12.8672 15.8262C13.125 15.8965 13.2891 16.0606 13.3594 16.3184C13.4532 16.6934 13.4532 17.0683 13.3594 17.4434C13.2891 17.7011 13.125 17.8652 12.8672 17.9355C11.5555 18.0059 10.243 18.0292 8.92971 18.0059C8.92971 29.6309 8.92971 41.2558 8.92971 52.8809C9.44745 52.9041 9.96308 52.8807 10.4766 52.8105C14.6793 47.2485 18.8277 41.647 22.9219 36.0059C25.1102 33.5747 27.6179 33.1763 30.4453 34.8105C31.9261 36.2444 33.3559 37.7209 34.7344 39.2402C34.8282 40.4121 34.8282 41.584 34.7344 42.7559C32.8828 40.8106 31.0313 38.8652 29.1797 36.9199C27.604 35.7879 26.1743 35.952 24.8906 37.4121C21.1687 42.5825 17.3953 47.7153 13.5703 52.8105C30.0235 52.8809 46.4766 52.9043 62.9297 52.8809C62.9297 41.2558 62.9297 29.6309 62.9297 18.0059C62.7219 17.969 62.5344 18.0158 62.3672 18.1465C56.2368 26.1756 50.026 34.1444 43.7344 42.0527C43.6012 40.6792 43.6482 39.3198 43.875 37.9746C49.0758 31.4161 54.2086 24.8068 59.2735 18.1465C56.7439 18.0059 54.2126 17.959 51.6797 18.0059C51.7106 18.4137 51.617 18.7887 51.3985 19.1309C50.7422 19.4589 50.086 19.7872 49.4297 20.1152C49.0201 21.4966 48.4576 22.809 47.7422 24.0527C48.0582 24.8809 48.2691 25.7246 48.375 26.584C47.513 27.7283 46.4816 28.6657 45.2813 29.3965C44.5412 29.2045 43.8147 28.9701 43.1016 28.6934C41.8579 29.4087 40.5454 29.9712 39.1641 30.3809C38.807 31.1184 38.432 31.845 38.0391 32.5605C36.5811 32.8529 35.128 32.8294 33.6797 32.4902C33.3227 31.7527 32.9476 31.026 32.5547 30.3105C31.1849 29.9633 29.8958 29.4243 28.6875 28.6934C28.0056 28.9832 27.3025 29.2176 26.5781 29.3965C26.3493 29.3789 26.1384 29.3086 25.9453 29.1855C24.9598 28.3405 24.0691 27.4031 23.2735 26.373C23.5776 25.6712 23.8121 24.9447 23.9766 24.1934C23.3882 22.9207 22.896 21.6081 22.5 20.2559C21.7845 19.863 21.0579 19.4879 20.3203 19.1309C20.1825 18.7672 20.1357 18.3922 20.1797 18.0059C18.8664 18.0292 17.5538 18.0059 16.2422 17.9355C15.8181 17.7205 15.6306 17.369 15.6797 16.8809C15.6306 16.3927 15.8181 16.0412 16.2422 15.8262C17.5538 15.7559 18.8664 15.7325 20.1797 15.7559C20.1488 15.348 20.2424 14.973 20.461 14.6309C21.1173 14.3028 21.7734 13.9746 22.4297 13.6465C22.8393 12.2651 23.4018 10.9526 24.1172 9.70898C23.8012 8.88086 23.5903 8.03711 23.4844 7.17773C24.3464 6.03351 25.3778 5.09601 26.5781 4.36523C27.3183 4.55723 28.0447 4.7916 28.7578 5.06836C30.0015 4.35299 31.314 3.79049 32.6953 3.38086C33.0524 2.64327 33.4274 1.91671 33.8203 1.20117C34.3626 1.17624 34.8783 1.10593 35.3672 0.990234ZM34.8047 10.6934C38.5992 10.4363 41.0132 12.1238 42.0469 15.7559C42.3722 19.5536 40.7081 21.9677 37.0547 22.998C33.257 23.3233 30.8429 21.6593 29.8125 18.0059C29.5159 14.2049 31.18 11.7674 34.8047 10.6934ZM28.0547 64.1309C33.3049 64.1074 38.5549 64.1309 43.8047 64.2012C44.7676 64.4636 45.0253 65.0494 44.5781 65.959C44.3464 66.1301 44.0886 66.2473 43.8047 66.3105C38.5548 66.4043 33.3047 66.4043 28.0547 66.3105C27.0919 66.0481 26.8341 65.4623 27.2813 64.5527C27.5451 64.3968 27.8028 64.2562 28.0547 64.1309Z" fill="#FF9D4D"/>
<path opacity="0.992" fill-rule="evenodd" clip-rule="evenodd" d="M37.6172 37.1308C38.7432 37.1075 39.8682 37.1308 40.9922 37.2011C41.25 37.2714 41.4141 37.4356 41.4844 37.6933C41.5782 41.8183 41.5782 45.9434 41.4844 50.0683C41.4141 50.3261 41.25 50.4902 40.9922 50.5605C39.8672 50.6543 38.7422 50.6543 37.6172 50.5605C37.3595 50.4902 37.1953 50.3261 37.125 50.0683C37.0312 45.9434 37.0312 41.8183 37.125 37.6933C37.2221 37.4332 37.386 37.2456 37.6172 37.1308Z" fill="#FF9D4D"/>
<path opacity="0.992" fill-rule="evenodd" clip-rule="evenodd" d="M55.6172 37.1308C56.7432 37.1075 57.8682 37.1308 58.9922 37.2011C59.25 37.2714 59.4141 37.4356 59.4844 37.6933C59.5782 41.8183 59.5782 45.9434 59.4844 50.0683C59.4141 50.3261 59.25 50.4902 58.9922 50.5605C57.8672 50.6543 56.7422 50.6543 55.6172 50.5605C55.3595 50.4902 55.1953 50.3261 55.125 50.0683C55.0312 45.9434 55.0312 41.8183 55.125 37.6933C55.2221 37.4332 55.386 37.2456 55.6172 37.1308Z" fill="#FF9D4D"/>
<path opacity="0.986" fill-rule="evenodd" clip-rule="evenodd" d="M46.6172 42.7558C47.7432 42.7325 48.8682 42.7558 49.9922 42.8261C50.25 42.8964 50.4141 43.0606 50.4844 43.3183C50.5782 45.5683 50.5782 47.8183 50.4844 50.0683C50.4141 50.3261 50.25 50.4902 49.9922 50.5605C48.8672 50.6543 47.7422 50.6543 46.6172 50.5605C46.3595 50.4902 46.1953 50.3261 46.125 50.0683C46.0312 47.8183 46.0312 45.5683 46.125 43.3183C46.2221 43.0582 46.386 42.8706 46.6172 42.7558Z" fill="#FF9D4D"/>
</g>
<defs>
<clipPath id="clip0_443_3305">
<rect width="72" height="72" fill="white" transform="translate(0 0.0761719)"/>
</clipPath>
</defs>
</svg>
