<svg width="72" height="73" viewBox="0 0 72 73" fill="none" xmlns="http://www.w3.org/2000/svg">
<path fill-rule="evenodd" clip-rule="evenodd" d="M34.8047 3.38086C35.5546 3.38086 36.3047 3.38086 37.0547 3.38086C37.0547 4.88086 37.0547 6.38085 37.0547 7.88086C36.3047 7.88086 35.5546 7.88086 34.8047 7.88086C34.8047 6.38085 34.8047 4.88086 34.8047 3.38086Z" fill="#FF9D4D"/>
<path opacity="0.892" fill-rule="evenodd" clip-rule="evenodd" d="M25.5234 5.77148C26.4375 6.96235 27.2344 8.25142 27.9141 9.63867C27.3558 10.1661 26.723 10.6115 26.0156 10.9746C25.1276 9.71001 24.3541 8.37407 23.6953 6.9668C24.2887 6.5361 24.8982 6.13767 25.5234 5.77148Z" fill="#FF9D4D"/>
<path opacity="0.894" fill-rule="evenodd" clip-rule="evenodd" d="M46.0547 5.77148C46.8699 6.02784 47.573 6.44972 48.1641 7.03711C47.4799 8.40121 46.7065 9.71371 45.8438 10.9746C45.2694 10.6054 44.6836 10.2538 44.0859 9.91992C44.0125 9.84099 43.9657 9.74723 43.9453 9.63867C44.6687 8.35548 45.3718 7.06642 46.0547 5.77148Z" fill="#FF9D4D"/>
<path opacity="0.983" fill-rule="evenodd" clip-rule="evenodd" d="M35.6485 11.1152C43.4017 11.5313 48.3002 15.4688 50.3438 22.9277C51.3179 29.0383 49.396 34.0072 44.5781 37.834C43.7184 38.8035 43.1559 39.9285 42.8906 41.209C42.7174 42.845 42.6471 44.4855 42.6797 46.1309C40.8048 46.1309 38.9297 46.1309 37.0547 46.1309C37.0312 41.5837 37.0547 37.0369 37.125 32.4902C41.2938 31.1844 43.0283 28.3719 42.3281 24.0527C40.9721 20.4101 38.3705 18.8399 34.5235 19.3418C30.4255 20.6696 28.7615 23.4586 29.5313 27.709C30.4133 30.2317 32.1477 31.8255 34.7344 32.4902C34.8047 37.0369 34.8282 41.5837 34.8047 46.1309C32.9298 46.1309 31.0547 46.1309 29.1797 46.1309C29.2077 44.7219 29.1609 43.3157 29.0391 41.9121C28.9134 40.3489 28.3275 38.9895 27.2813 37.834C21.6913 33.2053 20.0038 27.4397 22.2188 20.5371C24.8172 14.7289 29.2938 11.5882 35.6485 11.1152Z" fill="#FF9D4D"/>
<path opacity="0.894" fill-rule="evenodd" clip-rule="evenodd" d="M16.8047 13.6465C18.3101 14.2353 19.7163 15.0087 21.0234 15.9668C20.6484 16.5761 20.2735 17.1856 19.8984 17.7949C19.6469 17.868 19.4124 17.8212 19.1953 17.6543C18.0519 17.0025 16.9269 16.3229 15.8203 15.6152C16.1567 14.9543 16.4848 14.298 16.8047 13.6465Z" fill="#FF9D4D"/>
<path opacity="0.892" fill-rule="evenodd" clip-rule="evenodd" d="M54.4922 13.6464C54.7 13.6096 54.8875 13.6565 55.0547 13.7871C55.4186 14.374 55.7467 14.9834 56.0391 15.6152C54.9325 16.3228 53.8075 17.0025 52.6641 17.6543C52.4469 17.8212 52.2125 17.868 51.9609 17.7949C51.5682 17.1736 51.1933 16.5408 50.8359 15.8964C52.0975 15.1936 53.3163 14.4435 54.4922 13.6464Z" fill="#FF9D4D"/>
<path opacity="0.966" fill-rule="evenodd" clip-rule="evenodd" d="M34.8047 21.3809C38.8094 21.1434 40.661 23.0183 40.3594 27.0059C39.4657 29.669 37.6141 30.7707 34.8047 30.3106C32.1415 29.4169 31.0399 27.5653 31.5 24.7559C31.9709 22.9959 33.0725 21.8709 34.8047 21.3809Z" fill="#FF9D4D"/>
<path fill-rule="evenodd" clip-rule="evenodd" d="M13.4297 23.6309C14.9297 23.6309 16.4296 23.6309 17.9297 23.6309C17.9297 24.3808 17.9297 25.1309 17.9297 25.8809C16.4296 25.8809 14.9297 25.8809 13.4297 25.8809C13.4297 25.1309 13.4297 24.3808 13.4297 23.6309Z" fill="#FF9D4D"/>
<path fill-rule="evenodd" clip-rule="evenodd" d="M53.9297 23.6309C55.4297 23.6309 56.9296 23.6309 58.4297 23.6309C58.4297 24.3808 58.4297 25.1309 58.4297 25.8809C56.9296 25.8809 55.4297 25.8809 53.9297 25.8809C53.9297 25.1309 53.9297 24.3808 53.9297 23.6309Z" fill="#FF9D4D"/>
<path opacity="0.997" fill-rule="evenodd" clip-rule="evenodd" d="M7.80471 28.1309C11.6485 28.1309 15.4923 28.1309 19.336 28.1309C19.4224 28.8447 19.5631 29.5478 19.7578 30.2402C16.5249 30.3809 13.2904 30.4277 10.0547 30.3809C10.0547 41.2558 10.0547 52.1309 10.0547 63.0059C16.5236 62.9824 22.9923 63.0059 29.461 63.0762C30.1173 63.4043 30.7734 63.7325 31.4297 64.0605C34.4297 64.1543 37.4298 64.1543 40.4297 64.0605C41.086 63.7325 41.7422 63.4043 42.3985 63.0762C48.8671 63.0059 55.3358 62.9824 61.8047 63.0059C61.8047 52.1309 61.8047 41.2558 61.8047 30.3809C58.5689 30.4277 55.3346 30.3809 52.1016 30.2402C52.2963 29.5478 52.437 28.8447 52.5235 28.1309C56.3672 28.1309 60.211 28.1309 64.0547 28.1309C64.0547 39.7559 64.0547 51.3808 64.0547 63.0059C65.5548 63.0059 67.0547 63.0059 68.5547 63.0059C68.5332 65.041 67.7364 66.7051 66.1641 67.998C65.789 68.1855 65.4141 68.3731 65.0391 68.5605C45.6328 68.6543 26.2266 68.6543 6.82033 68.5605C4.9471 67.7181 3.79867 66.2883 3.37502 64.2715C3.30499 63.8521 3.28156 63.4303 3.30471 63.0059C4.80471 63.0059 6.3047 63.0059 7.80471 63.0059C7.80471 51.3808 7.80471 39.7559 7.80471 28.1309Z" fill="#FF9D4D"/>
<path opacity="0.894" fill-rule="evenodd" clip-rule="evenodd" d="M19.4766 33.8964C19.6625 33.8725 19.8266 33.9194 19.9688 34.0371C20.3026 34.6347 20.6542 35.2206 21.0234 35.7949C19.7588 36.6829 18.4229 37.4564 17.0156 38.1152C16.5374 37.517 16.139 36.8608 15.8203 36.1464C17.0481 35.3928 18.2668 34.6429 19.4766 33.8964Z" fill="#FF9D4D"/>
<path opacity="0.895" fill-rule="evenodd" clip-rule="evenodd" d="M51.9609 33.8965C53.3744 34.5332 54.7338 35.2832 56.0391 36.1465C55.7204 36.8609 55.322 37.517 54.8438 38.1152C53.4365 37.4564 52.1006 36.683 50.8359 35.7949C51.2303 35.1698 51.6053 34.537 51.9609 33.8965Z" fill="#FF9D4D"/>
<path fill-rule="evenodd" clip-rule="evenodd" d="M29.1797 48.3809C33.6797 48.3809 38.1797 48.3809 42.6797 48.3809C42.6797 49.1308 42.6797 49.8809 42.6797 50.6309C38.1797 50.6309 33.6797 50.6309 29.1797 50.6309C29.1797 49.8809 29.1797 49.1308 29.1797 48.3809Z" fill="#FF9D4D"/>
<path opacity="0.974" fill-rule="evenodd" clip-rule="evenodd" d="M29.1797 52.8809C33.6797 52.8809 38.1797 52.8809 42.6797 52.8809C42.7226 53.6208 42.6756 54.3473 42.539 55.0605C40.3487 55.8766 38.1455 56.65 35.9297 57.3809C33.7138 56.65 31.5107 55.8766 29.3203 55.0605C29.1837 54.3473 29.1368 53.6208 29.1797 52.8809Z" fill="#FF9D4D"/>
</svg>
