<svg width="73" height="73" viewBox="0 0 73 73" fill="none" xmlns="http://www.w3.org/2000/svg">
<g clip-path="url(#clip0_443_3325)">
<path opacity="0.964" fill-rule="evenodd" clip-rule="evenodd" d="M36.2499 0.00585938C36.2967 0.00585938 36.3437 0.00585938 36.3905 0.00585938C37.3418 2.78962 38.2794 5.57867 39.203 8.37305C42.1561 8.41992 45.1093 8.4668 48.0624 8.51367C45.6519 10.2443 43.2613 12.0022 40.8905 13.7871C41.795 16.5242 42.6857 19.2664 43.5624 22.0137C43.5156 22.084 43.4686 22.1543 43.4218 22.2246C41.067 20.473 38.6998 18.7387 36.3202 17.0215C33.9405 18.7387 31.5734 20.473 29.2186 22.2246C29.1718 22.1543 29.1248 22.084 29.078 22.0137C29.9547 19.2664 30.8454 16.5242 31.7499 13.7871C29.3791 12.0022 26.9885 10.2443 24.578 8.51367C27.5311 8.4668 30.4843 8.41992 33.4374 8.37305C34.3859 5.58648 35.3234 2.79741 36.2499 0.00585938Z" fill="#FF9D4D"/>
<path opacity="0.983" fill-rule="evenodd" clip-rule="evenodd" d="M34.8437 26.0214C39.2369 25.652 42.6354 27.2925 45.039 30.9433C47.4289 35.9894 46.5617 40.3722 42.4374 44.0917C37.99 46.9514 33.6775 46.764 29.4999 43.5292C26.2755 40.2414 25.4552 36.4212 27.039 32.0683C28.6439 28.7484 31.2455 26.7328 34.8437 26.0214Z" fill="#FF9D4D"/>
<path opacity="0.979" fill-rule="evenodd" clip-rule="evenodd" d="M13.328 30.2402C18.2073 30.6194 20.926 33.2444 21.4843 38.1152C21.0146 42.8975 18.3895 45.5225 13.6093 45.9902C8.78113 45.5684 6.15613 42.9433 5.73425 38.1152C6.18449 33.4539 8.71574 30.8289 13.328 30.2402Z" fill="#FF9D4D"/>
<path opacity="0.979" fill-rule="evenodd" clip-rule="evenodd" d="M58.7498 30.2402C63.727 30.5299 66.4457 33.1548 66.9061 38.1152C66.4869 42.9406 63.862 45.5657 59.0311 45.9902C55.2057 45.7778 52.6978 43.8558 51.5076 40.2246C50.7276 36.6574 51.7823 33.7746 54.6717 31.5762C55.9532 30.8286 57.3126 30.3832 58.7498 30.2402Z" fill="#FF9D4D"/>
<path opacity="0.983" fill-rule="evenodd" clip-rule="evenodd" d="M8.26547 48.5215C11.8283 48.498 15.3908 48.5215 18.953 48.5918C20.4487 48.8236 21.7378 49.4564 22.8202 50.4903C22.9139 50.5841 22.9139 50.6777 22.8202 50.7715C21.289 52.4462 20.164 54.368 19.4452 56.5371C18.8211 59.6639 18.2819 62.8046 17.828 65.959C12.6724 66.1231 7.5161 66.1465 2.35922 66.0293C0.878857 65.4834 0.292919 64.4287 0.601403 62.8653C0.947371 59.8337 1.463 56.8336 2.14828 53.8653C3.26601 50.9874 5.30507 49.2061 8.26547 48.5215Z" fill="#FF9D4D"/>
<path opacity="0.984" fill-rule="evenodd" clip-rule="evenodd" d="M53.6874 48.5215C57.2503 48.498 60.8127 48.5215 64.3749 48.5918C67.7473 49.3859 69.8802 51.4718 70.7733 54.8496C71.2905 57.7438 71.7359 60.6501 72.1093 63.5684C72.0635 64.8091 71.4542 65.6295 70.2811 66.0293C65.1248 66.1231 59.9687 66.1231 54.8124 66.0293C54.3732 63.0498 53.881 60.0731 53.3358 57.0996C52.6143 54.6713 51.419 52.5151 49.7499 50.6309C50.8684 49.5561 52.181 48.853 53.6874 48.5215Z" fill="#FF9D4D"/>
<path opacity="0.978" fill-rule="evenodd" clip-rule="evenodd" d="M50.5936 72.0059C41.1249 72.0059 31.6561 72.0059 22.1874 72.0059C20.5132 71.5709 19.6227 70.4694 19.5155 68.7012C20.0077 65.3497 20.4999 61.9981 20.9921 58.6465C21.642 54.9257 23.5873 52.1367 26.828 50.2793C27.1354 50.0952 27.4401 50.0717 27.7421 50.209C29.8046 55.084 31.867 59.9589 33.9296 64.834C34.035 61.3881 34.1522 57.9428 34.2811 54.498C34.2343 54.1465 34.1873 53.7949 34.1405 53.4434C33.8555 53.2756 33.6445 53.0412 33.5077 52.7402C33.1117 51.6231 32.7601 50.4981 32.453 49.3652C35.0311 49.3652 37.6093 49.3652 40.1874 49.3652C39.8803 50.4981 39.5287 51.6231 39.1327 52.7402C38.9959 53.0412 38.7849 53.2756 38.4999 53.4434C38.4531 53.7949 38.4061 54.1465 38.3593 54.498C38.4882 57.9428 38.6053 61.3881 38.7108 64.834C40.7734 59.9589 42.8358 55.084 44.8983 50.209C45.2002 50.0717 45.505 50.0952 45.8124 50.2793C49.0531 52.1367 50.9983 54.9257 51.6483 58.6465C52.1405 61.998 52.6327 65.3497 53.1249 68.7012C53.0353 70.405 52.1916 71.5066 50.5936 72.0059Z" fill="#FF9D4D"/>
</g>
<defs>
<clipPath id="clip0_443_3325">
<rect width="72" height="72" fill="white" transform="translate(0.460815 0.0761719)"/>
</clipPath>
</defs>
</svg>
