<svg width="120" height="111" viewBox="0 0 120 111" fill="none" xmlns="http://www.w3.org/2000/svg">
<g clip-path="url(#clip0_321_90)">
<path d="M52.9278 78.8907C52.0391 89.1536 43.4541 97.1863 32.9593 97.1863C21.8784 97.1863 12.8963 88.2086 12.8963 77.133C12.8963 66.0574 21.8027 57.1742 32.827 57.0986V44.1897C14.6927 44.2653 0 58.9887 0 77.133C0 95.2773 14.7494 110.076 32.9593 110.076C51.1692 110.076 64.9732 96.2601 65.8809 78.8718H52.9278V78.8907Z" fill="#FF9D4D"/>
<path d="M67.0911 31.1483C68.0555 20.9043 76.6972 12.9095 87.192 12.9851C98.273 13.0607 107.179 22.095 107.104 33.1706C107.028 44.1895 98.046 53.0727 87.0407 53.0727L86.9461 65.9816C105.08 66.0383 119.887 51.4284 120 33.2651C120.132 15.0641 105.477 0.208446 87.2676 0.076144C69.6439 -0.0561584 55.1592 13.6655 54.1381 31.0538L67.0911 31.1483Z" fill="#FF9D4D"/>
<path d="M70.8541 45.3237H52.0201V64.1485H70.8541V45.3237Z" fill="#FF9D4D"/>
</g>
<defs>
<clipPath id="clip0_321_90">
<rect width="120" height="110" fill="white" transform="translate(0 0.0761719)"/>
</clipPath>
</defs>
</svg>
