<svg width="141" height="141" viewBox="0 0 141 141" fill="none" xmlns="http://www.w3.org/2000/svg">
<mask id="mask0_929_802" style="mask-type:alpha" maskUnits="userSpaceOnUse" x="0" y="0" width="141" height="141">
<rect x="0.799561" y="24" width="118.433" height="118.433" transform="rotate(-11.5843 0.799561 24)" fill="#D9D9D9"/>
</mask>
<g mask="url(#mask0_929_802)">
<path d="M100.697 69.0077L98.7152 59.3393L118.052 55.3756L120.034 65.044L100.697 69.0077ZM113.435 101.658L95.5869 93.2269L99.8025 84.303L117.65 92.7341L113.435 101.658ZM91.875 45.6295L84.4885 39.0839L97.5796 24.3108L104.966 30.8564L91.875 45.6295ZM43.7981 110.895L39.8344 91.5582L35.0002 92.5492C32.3414 93.0942 29.8712 92.6141 27.5897 91.1088C25.3082 89.6035 23.8949 87.5215 23.3499 84.8626L21.3681 75.1943C20.823 72.5355 21.3032 70.0653 22.8085 67.7838C24.3137 65.5023 26.3958 64.089 29.0546 63.544L48.3914 59.5803L69.5895 40.123L81.4807 98.1333L54.337 88.5854L49.5028 89.5764L53.4665 108.913L43.7981 110.895ZM68.2945 82.9538L63.4389 59.2663L53.032 68.7036L31.0364 73.2124L33.0183 82.8808L55.0139 78.372L68.2945 82.9538ZM83.6889 84.3318L77.0497 51.9427C79.6214 53.4305 81.8569 55.4279 83.7561 57.9351C85.6553 60.4422 86.9435 63.3475 87.6206 66.6508C88.2977 69.9542 88.2565 73.132 87.4969 76.1841C86.7373 79.2363 85.468 81.9522 83.6889 84.3318Z" fill="#A2ABFD"/>
</g>
</svg>
