<svg width="128" height="128" viewBox="0 0 128 128" fill="none" xmlns="http://www.w3.org/2000/svg">
<mask id="mask0_218_482" style="mask-type:alpha" maskUnits="userSpaceOnUse" x="0" y="0" width="128" height="128">
<rect x="0.193115" y="22.2183" width="107.601" height="107.601" transform="rotate(-11.5843 0.193115 22.2183)" fill="#D9D9D9"/>
</mask>
<g mask="url(#mask0_218_482)">
<path d="M90.9534 63.1094L89.1528 54.3253L106.721 50.7241L108.522 59.5082L90.9534 63.1094ZM102.526 92.7732L86.3107 85.1133L90.1407 77.0057L106.356 84.6656L102.526 92.7732ZM82.9383 41.8694L76.2274 35.9225L88.1212 22.5007L94.8321 28.4476L82.9383 41.8694ZM39.2588 101.165L35.6576 83.5973L31.2656 84.4976C28.8499 84.9928 26.6057 84.5566 24.5329 83.189C22.4601 81.8214 21.1761 79.9298 20.6809 77.5141L18.8803 68.7301C18.3851 66.3145 18.8214 64.0702 20.189 61.9974C21.5565 59.9246 23.4482 58.6406 25.8638 58.1454L43.4319 54.5442L62.6912 36.8666L73.4947 89.571L48.8337 80.8964L44.4417 81.7967L48.0428 99.3648L39.2588 101.165ZM61.5146 75.7799L57.1032 54.2589L47.6481 62.8331L27.6644 66.9295L29.465 75.7135L49.4487 71.6172L61.5146 75.7799ZM75.501 77.0318L69.469 47.6052C71.8055 48.9569 73.8365 50.7717 75.562 53.0495C77.2875 55.3273 78.4578 57.9669 79.073 60.9681C79.6882 63.9693 79.6508 66.8564 78.9606 69.6294C78.2705 72.4024 77.1173 74.8699 75.501 77.0318Z" fill="#525BAD"/>
</g>
</svg>
