<svg width="104" height="96" viewBox="0 0 104 96" fill="none" xmlns="http://www.w3.org/2000/svg">
<path d="M43.1945 3.97429V6.05325H12.6757V5.19265C12.6757 3.56824 11.3726 2.25096 9.76576 2.25096H2.91034C1.3035 2.25096 0 3.56824 0 5.19265L0 12.1167C0 13.7424 1.3035 15.0594 2.91034 15.0594H9.76576C11.3728 15.0594 12.6757 13.7424 12.6757 12.1167V11.2533H31.5288C23.8288 16.3549 18.1612 24.2982 15.9462 33.5981H13.6911C11.5181 33.5981 9.75759 35.3791 9.75759 37.5735V46.938C9.75759 49.1314 11.5181 50.9125 13.6911 50.9125H22.9607C25.1338 50.9125 26.8947 49.1316 26.8947 46.938V37.5735C26.8947 35.3998 25.164 33.6454 23.0215 33.6119C25.9113 23.8813 33.5443 16.2168 43.1977 13.3524C43.2077 15.5396 44.9621 17.3106 47.1279 17.3106H56.3926C58.5288 17.3106 60.2461 15.5835 60.3046 13.4405C69.824 16.3898 77.3182 24.0304 80.1596 33.6792C78.1842 33.89 76.6243 35.5214 76.6243 37.5735V46.938C76.6243 49.1314 78.3852 50.9125 80.5583 50.9125H89.8264C91.9994 50.9125 93.7599 49.1316 93.7599 46.938V37.5735C93.7599 35.3793 91.9994 33.5981 89.8264 33.5981H87.2179C85.0029 24.2982 79.3353 16.3549 71.6369 11.2533H90.8446V12.1167C90.8446 13.7424 92.1481 15.0594 93.7549 15.0594H100.612C102.219 15.0594 103.522 13.7424 103.522 12.1167V5.19265C103.522 3.56824 102.219 2.25096 100.612 2.25096H93.7549C92.1481 2.25096 90.8446 3.56824 90.8446 5.19265V6.05325H60.3268V3.97429C60.3268 1.7803 58.5659 0 56.3928 0H47.1281C44.9554 0 43.1945 1.78009 43.1945 3.97429Z" fill="#E07116"/>
<path d="M61.9436 75.1486C61.9436 72.2567 63.5779 69.6118 66.1642 68.3187L72.1261 65.3377L54.3067 29.699H49.2155L31.3961 65.3377L37.3579 68.3187C39.9443 69.6118 41.5786 72.2567 41.5786 75.1486V75.5202H36.4873V95.8852H67.0348V75.5202H61.9436V75.1486ZM39.6337 63.7645L38.226 63.0619L49.2155 41.083V60.2465H54.3067V41.083L65.2962 63.0594L63.8885 63.762C59.5482 65.9334 56.8523 70.2966 56.8523 75.1486V75.5202H46.6698V75.1486C46.6698 70.2966 43.974 65.9334 39.6337 63.7645ZM61.9436 90.794H41.5786V80.6115H61.9436V90.794Z" fill="#E07116"/>
</svg>
