<svg width="56" height="56" viewBox="0 0 56 56" fill="none" xmlns="http://www.w3.org/2000/svg">
<g clip-path="url(#clip0_460_1120)">
<path d="M14.8969 0.120346C11.8016 0.514095 9.0125 2.3516 7.47031 4.98753C7.04375 5.72035 6.87969 5.90628 6.61719 5.96097C6.02656 6.09222 5.04219 6.69378 4.58281 7.18597C4.34219 7.45941 4.00312 7.9516 3.85 8.29066L3.55469 8.9141L3.52187 15.3016C3.48906 21.5578 3.5 21.711 3.71875 22.4657C3.92656 23.111 4.04688 23.3188 4.62656 23.8985C5.41406 24.675 6.22344 25.0469 7.15312 25.0469C7.63438 25.0469 7.77656 25.0032 7.99531 24.7625L8.25781 24.4782L8.29062 21.3828L8.32344 18.2875L8.69531 18.2219C8.89219 18.1782 9.42812 17.9703 9.86562 17.7516C10.8719 17.2485 12.1516 16.0016 12.6656 15.0063C12.8625 14.6344 13.0484 14.3282 13.0813 14.3282C13.1031 14.3282 13.7812 14.6016 14.5797 14.9407C18.6266 16.6469 23.1437 17.7844 27.65 18.211C28.5906 18.2985 29.3891 18.375 29.4547 18.375C29.6297 18.375 29.4766 25.8563 29.2797 26.6875C28.5906 29.575 26.95 31.9157 24.5437 33.4578C19.6328 36.6188 12.9172 35.0657 9.87656 30.0782C9.59219 29.6297 9.29688 29.1922 9.19844 29.1266C8.925 28.886 8.26875 28.9516 8.00625 29.236C7.64531 29.6188 7.7 30.1219 8.17031 30.8985C9.20937 32.6047 10.7297 34.136 12.4031 35.1641L13.475 35.8203L13.4094 36.2578C13.2781 37.0891 12.6219 38.2594 11.8891 38.9813C11.0359 39.8125 10.6312 40.0094 7.38281 41.125C3.83906 42.3391 3.34687 42.5907 2.17656 43.75C1.41094 44.5157 1.14844 44.8657 0.7875 45.6094C0.0765625 47.0969 0 47.6875 0 51.7782V55.3328L0.2625 55.6282C0.623437 56.0547 1.23594 56.0547 1.59687 55.6282L1.85938 55.3328V51.8328C1.85938 49.0547 1.89219 48.1797 2.03437 47.5782C2.31875 46.3203 3.24844 45.0188 4.38594 44.2969C4.8125 44.0125 8.61875 42.5907 8.69531 42.6782C8.71719 42.7 9.275 43.8157 9.95312 45.1719C10.6312 46.5282 11.2766 47.775 11.3969 47.9391C11.6812 48.3328 12.6219 48.8688 13.2016 48.9563C13.8141 49.0438 14.6672 48.836 15.1922 48.4532C15.4328 48.2782 16.1984 47.3375 16.9859 46.2438L18.3531 44.3516L18.8781 44.3625L19.4141 44.3735L20.7484 46.2219C21.4812 47.2391 22.2469 48.2125 22.4438 48.3766C22.8156 48.6938 23.6687 49 24.1719 49C24.7406 49 25.5719 48.6719 26.0203 48.2563C26.3594 47.961 26.6656 47.4469 27.2344 46.2875C27.6609 45.4344 28 44.625 28 44.5047C28 44.1657 27.4203 43.6407 27.0484 43.6407C26.5562 43.6516 26.3156 43.936 25.5609 45.4563C24.9594 46.6485 24.7844 46.911 24.5109 47.0313C23.9094 47.2719 23.6578 47.0641 22.3344 45.2157C21.6562 44.286 21.1094 43.4875 21.1094 43.4438C21.1094 43.4 21.9953 42.7875 23.0781 42.0657L25.0359 40.775L25.3969 41.0485C26.0531 41.5407 26.9172 41.9016 29.7937 42.8969C31.3687 43.4328 32.9 44.0235 33.2062 44.1985C33.8734 44.5813 34.8906 45.6094 35.2188 46.2547C35.8203 47.436 35.8094 47.3813 35.875 51.5375C35.9297 55.2672 35.9406 55.4532 36.1484 55.661C36.5312 56.0438 36.9906 56.0657 37.3953 55.7157L37.7453 55.4203L37.7125 51.3625L37.6688 47.3047L37.3734 46.5063C36.8156 45.0625 35.9953 43.9141 34.9562 43.1266C33.9937 42.4157 33.6109 42.2407 30.45 41.1469C26.6 39.8235 26.2391 39.6157 25.2219 38.2375C24.8937 37.8 24.5437 37.4063 24.4453 37.3625C24.0844 37.2313 23.7234 37.3078 23.4609 37.5703C23.1 37.9203 23.1 38.4344 23.4719 38.9703C23.625 39.2 23.7344 39.4078 23.7125 39.4297C23.7016 39.4407 22.6078 40.1625 21.2953 41.0157C19.8953 41.9344 18.8562 42.5469 18.7578 42.5141C18.6703 42.4703 18.0797 42.0985 17.4562 41.6719C16.1766 40.8188 15.75 40.7094 15.3453 41.1469C14.8094 41.7266 14.9953 42.2735 15.9141 42.875C16.3078 43.1266 16.625 43.3891 16.625 43.4657C16.6141 43.5313 16.0672 44.3407 15.3891 45.2703C14.0656 47.1078 13.8359 47.2828 13.2125 47.0203C12.9281 46.9 12.7312 46.5719 11.6812 44.4719L10.4891 42.0547L11.0469 41.8032C11.9219 41.4203 12.8187 40.7641 13.4969 40.0094C14.1859 39.2547 15.0281 37.7016 15.1484 36.9688C15.225 36.5203 15.2359 36.5094 15.575 36.575C15.7609 36.6078 16.3078 36.7063 16.7891 36.7938C19.1734 37.2422 22.225 36.8047 24.4453 35.6782C25.9984 34.9016 27.8031 33.3813 28.8859 31.9375C29.925 30.5594 30.7781 28.6344 31.1391 26.8297C31.3031 26.0094 31.3359 25.2328 31.3359 21.4703C31.3359 16.1438 31.5109 16.636 29.5641 16.5047C23.8547 16.111 18.9766 14.9078 14.0547 12.6766C13.2672 12.3266 12.5016 12.0313 12.3375 12.0313C11.8891 12.0313 11.6047 12.3485 11.3969 13.136C11.1344 14.0766 10.7625 14.7 10.0734 15.3563C9.39531 15.9797 8.62969 16.3516 7.63438 16.5157C6.42031 16.7235 6.46406 16.6032 6.43125 20.0594L6.39844 23.0016L6.04844 22.7063C5.34844 22.1157 5.34844 22.1594 5.38125 15.3453L5.41406 9.20941L5.74219 8.72816C6.125 8.20316 6.79219 7.76566 7.25156 7.76566C7.94062 7.76566 8.26875 7.50316 8.68437 6.62816C9.72344 4.46254 11.7141 2.82191 14.0984 2.15472C14.8969 1.93597 15.2031 1.92503 21.1641 1.89222C27.9453 1.84847 27.8031 1.83754 28.0984 2.46097C28.2406 2.76722 28.2297 2.86566 27.9016 3.77347C27.1578 5.78597 27.2234 5.95004 29.0391 6.45316C29.5203 6.58441 30.1 6.79222 30.3297 6.91253C30.9969 7.24066 31.6859 7.9516 32.0141 8.62972L32.3203 9.24222L32.375 15.6078L32.4297 21.9735L32.6703 22.225C33.0312 22.586 33.6437 22.5532 33.9719 22.1594L34.2344 21.8641V15.5969C34.2344 8.79378 34.2344 8.85941 33.6 7.6016C33.0203 6.44222 31.4125 5.17347 30.1 4.82347C29.8484 4.74691 29.6406 4.65941 29.6406 4.61566C29.6406 4.57191 29.7391 4.22191 29.8594 3.85003C30.1219 3.00785 30.1328 2.73441 29.9031 1.97972C29.7828 1.55316 29.5859 1.24691 29.2031 0.875034C28.3281 -0.0109024 28.4375 3.43323e-05 21.5578 0.0109711C18.2766 0.0219078 15.2797 0.0656586 14.8969 0.120346Z" fill="#FF9D4D"/>
<path d="M45.336 0.0655861C45.2156 0.0874596 44.8438 0.164022 44.5156 0.229649C41.8797 0.754648 39.4516 3.18277 38.8828 5.86246C38.6531 6.93433 38.675 8.33434 38.9375 9.34059C39.2547 10.5984 39.8453 11.6156 40.8735 12.6984C41.3656 13.2234 41.9235 13.9234 42.1203 14.2625C42.3172 14.6343 42.5797 14.9296 42.7328 14.9953C42.875 15.05 43.7391 15.0937 44.636 15.0937C46.3422 15.0937 46.8125 14.9953 46.9656 14.6015C46.9985 14.5031 47.0313 12.9828 47.0313 11.2218V8.01715L46.7797 7.78746C46.5063 7.5359 45.9594 7.47027 45.6094 7.65621C45.2485 7.85309 45.1719 8.37809 45.1719 10.839V13.2343H44.4281C43.7063 13.2343 43.6844 13.2234 43.4766 12.8734C43.3672 12.6875 42.875 12.1078 42.3828 11.5937C41.0594 10.1828 40.5781 9.09996 40.5781 7.49215C40.5891 4.75777 42.6344 2.38433 45.3688 1.96871C49.2078 1.37809 52.5328 5.05309 51.5703 8.80465C51.286 9.8984 50.8813 10.5765 49.886 11.6375C49.3719 12.1843 48.8141 12.8953 48.65 13.1906C48.2344 13.9562 48.0156 14.9734 48.0156 16.1656C48.0156 17.325 47.8735 17.7625 47.3703 18.189C46.8563 18.6156 46.2656 18.7687 45.7188 18.6046C45.2047 18.4515 44.5594 17.9265 44.45 17.5765C44.1656 16.6031 43.6297 16.2312 43.0063 16.5593C42.1313 17.0187 42.4813 18.4734 43.75 19.6109C44.636 20.4093 45.85 20.7046 47.0094 20.4093C47.8188 20.2015 48.3656 19.8734 48.9344 19.25C49.6344 18.4734 49.7985 17.9703 49.875 16.2968C49.9625 14.4265 50.0938 14.1312 51.3735 12.764C53.0141 11.025 53.6813 9.30777 53.561 7.10933C53.4625 5.23902 52.8828 3.83902 51.6469 2.50465C50.575 1.35621 49.4156 0.634335 48.0266 0.273397C47.3266 0.0983982 45.7406 -0.0328522 45.336 0.0655861Z" fill="#FF9D4D"/>
<path d="M15.5094 19.6328C15.0938 19.8625 14.9516 20.4094 15.0063 21.525C15.05 22.3781 15.0828 22.4766 15.3563 22.7172C15.7281 23.0344 16.1984 23.0344 16.5703 22.7172C16.8219 22.4984 16.8656 22.3672 16.9203 21.6016C16.9969 20.4641 16.8328 19.8516 16.4063 19.6328C16.0234 19.4359 15.8922 19.4359 15.5094 19.6328Z" fill="#FF9D4D"/>
<path d="M21.2406 19.7422L20.8906 20.0375V21.2297C20.8906 22.3563 20.9016 22.4438 21.1641 22.6953C21.5578 23.1 22.1047 23.0672 22.4766 22.6188C22.7609 22.2906 22.7719 22.2359 22.7281 21.1422C22.6953 19.8953 22.5641 19.6438 21.9188 19.5125C21.6563 19.4688 21.5141 19.5125 21.2406 19.7422Z" fill="#FF9D4D"/>
<path d="M16.0235 27.5078C15.4 28.1203 15.8922 28.9953 17.2157 29.5969C18.4953 30.1765 20.0047 30.0453 21.1969 29.2359C21.8532 28.7875 21.9844 28.6015 21.9844 28.0765C21.9844 27.3 21.1094 26.9719 20.4094 27.5078C19.3813 28.2953 18.3094 28.2953 17.3688 27.5078C16.9422 27.1469 16.3844 27.1359 16.0235 27.5078Z" fill="#FF9D4D"/>
<path d="M37.4609 29.2578C37.1109 29.5969 37.1109 30.0781 37.45 30.4828C37.7016 30.7781 37.7563 30.7891 38.9594 30.8219L40.2062 30.8656L39.2219 31.8719C37.7016 33.3922 36.8703 34.9781 36.4656 37.0453C36.3781 37.4938 36.3125 38.15 36.3125 38.5C36.3125 39.0359 36.3562 39.1672 36.5969 39.4188C36.9141 39.725 37.2422 39.7797 37.6578 39.5828C37.9969 39.4297 38.1719 39.0578 38.1719 38.4891C38.1719 37.8656 38.4781 36.4766 38.7734 35.7328C39.3641 34.2891 40.6766 32.7797 42.0547 31.9484C42.3937 31.7406 43.0719 31.4234 43.5641 31.2484C44.7453 30.8219 46.7141 30.7125 47.9391 31.0078C51.4172 31.85 53.8234 34.6937 54.1078 38.2812C54.1844 39.3094 54.4578 39.7031 55.0594 39.7031C55.9125 39.6922 56.1531 38.9812 55.8797 37.2969C55.5516 35.2297 54.6219 33.425 53.1016 31.8719L52.1062 30.8656L53.3531 30.8219C54.5562 30.7891 54.6109 30.7781 54.8625 30.4828C55.2016 30.0781 55.2016 29.5969 54.8516 29.2578L54.5891 28.9844H46.1562H37.7234L37.4609 29.2578Z" fill="#FF9D4D"/>
<path d="M45.7406 33.2938C45.5984 33.3703 45.1719 33.9391 44.7781 34.5516C43.9469 35.886 42.7984 37.4391 41.8578 38.5328C40.6875 39.8891 40.5781 40.0422 40.5781 40.3156C40.5781 40.4688 40.8844 41.3766 41.2562 42.35C41.7922 43.75 41.9016 44.1328 41.7812 44.1656C41.4969 44.2641 41.0156 44.8219 41.0156 45.0625C41.0156 45.6094 41.4312 46.036 41.9672 46.0469C42.2953 46.0469 42.3062 46.0578 42.2625 46.4516C41.9891 48.7047 41.4859 55.1906 41.5516 55.3766C41.6828 55.7047 41.9016 55.8797 42.2953 55.9563C42.5578 56.011 42.7 55.9563 42.9734 55.7047L43.3234 55.3985L43.6953 51.1875C44.2094 45.4891 44.1 46.0469 44.6578 46.0469C45.15 46.036 45.3906 45.9047 45.5875 45.5328C45.7953 45.15 45.7406 44.8438 45.4016 44.5047C45.1281 44.2422 44.9969 44.1875 44.5266 44.1875C44.0453 44.1875 43.9469 44.1547 43.8703 43.936C43.8156 43.8047 43.4984 42.9953 43.1703 42.1422L42.5688 40.5781L43.4656 39.5172C43.9578 38.9266 44.5266 38.2047 44.7344 37.9094L45.1172 37.3844L45.1719 39.1672C45.2266 41.1141 45.2922 41.3438 45.8281 41.5625C46.2109 41.7266 46.7469 41.5625 46.9219 41.2235C46.9875 41.1141 47.0312 40.2172 47.0312 39.2219C47.0312 38.2266 47.0641 37.4063 47.1188 37.4063C47.1625 37.4063 47.4359 37.7344 47.7422 38.15C48.0375 38.5547 48.5953 39.2328 48.9672 39.6703C49.35 40.1078 49.6562 40.5344 49.6562 40.6219C49.6562 40.7094 49.2953 41.7266 48.8469 42.8969L48.0375 45.0078L48.5078 50.1703C48.7703 53.0141 49.0328 55.4313 49.0984 55.5406C49.2844 55.8906 49.8094 56.0547 50.2031 55.8906C50.8812 55.6063 50.8812 55.5953 50.4766 51.0781C50.2688 48.825 50.0828 46.7688 50.05 46.5063L49.9844 46.0469H50.3562C50.7937 46.0469 51.2969 45.5438 51.2969 45.0953C51.2969 44.8328 50.8375 44.275 50.5312 44.1656C50.4109 44.1328 50.5203 43.75 51.0562 42.3172C51.4281 41.3328 51.7344 40.4141 51.7344 40.2828C51.7344 40.1406 51.3953 39.6375 50.9031 39.0797C49.7109 37.6906 48.2672 35.7547 47.4906 34.486C46.6922 33.1953 46.3422 32.9547 45.7406 33.2938Z" fill="#FF9D4D"/>
</g>
<defs>
<clipPath id="clip0_460_1120">
<rect width="56" height="56" fill="white"/>
</clipPath>
</defs>
</svg>
