<svg width="129" height="119" viewBox="0 0 129 119" fill="none" xmlns="http://www.w3.org/2000/svg">
<path d="M53.6073 4.93235L53.6073 7.51249H15.7314V6.44442C15.7314 4.42842 14.1142 2.79359 12.12 2.79359H3.61192C1.61773 2.79359 0 4.42842 0 6.44442L0 15.0376C0 17.0552 1.61773 18.6897 3.61192 18.6897H12.12C14.1144 18.6897 15.7314 17.0552 15.7314 15.0376V13.9661H39.1294C29.5731 20.2975 22.5392 30.1556 19.7903 41.6975H16.9916C14.2947 41.6975 12.1098 43.9078 12.1098 46.6312L12.1098 58.2532C12.1098 60.9753 14.2947 63.1858 16.9916 63.1858H28.4958C31.1927 63.1858 33.3781 60.9756 33.3781 58.2532V46.6312C33.3781 43.9335 31.2301 41.7561 28.5712 41.7146C32.1576 29.6383 41.6307 20.1261 53.6112 16.5712C53.6237 19.2857 55.801 21.4836 58.4888 21.4836H69.987C72.6381 21.4836 74.7694 19.3401 74.842 16.6806C86.6562 20.3409 95.957 29.8234 99.4834 41.7982C97.0318 42.0598 95.0959 44.0844 95.0959 46.6312V58.2532C95.0959 60.9753 97.2813 63.1858 99.9782 63.1858H111.481C114.177 63.1858 116.362 60.9756 116.362 58.2532V46.6312C116.362 43.908 114.177 41.6975 111.481 41.6975H108.243C105.494 30.1556 98.4604 20.2975 88.9062 13.9661H112.744V15.0376C112.744 17.0552 114.362 18.6897 116.356 18.6897H124.866C126.86 18.6897 128.478 17.0552 128.478 15.0376V6.44442C128.478 4.42842 126.86 2.79359 124.866 2.79359H116.356C114.362 2.79359 112.744 4.42842 112.744 6.44442V7.51249H74.8696V4.93235C74.8696 2.20948 72.6841 0 69.9872 0H58.4891C55.7927 0 53.6073 2.20921 53.6073 4.93235Z" fill="#FBA977"/>
<path d="M76.8761 93.2644C76.8761 89.6755 78.9044 86.3929 82.1142 84.788L89.5133 81.0885L67.3982 36.8584H61.0796L38.9646 81.0885L46.3637 84.788C49.5735 86.3929 51.6018 89.6755 51.6018 93.2644V93.7257H45.2832V119H83.1947V93.7257H76.8761V93.2644ZM49.1881 79.1361L47.441 78.2641L61.0796 50.9868V74.7699H67.3982V50.9868L81.0369 78.2609L79.2898 79.1329C73.9032 81.8278 70.5575 87.2428 70.5575 93.2644V93.7257H57.9204V93.2644C57.9204 87.2428 54.5747 81.8278 49.1881 79.1361ZM76.8761 112.681H51.6018V100.044H76.8761V112.681Z" fill="#FBA977"/>
</svg>
