<svg width="60" height="60" viewBox="0 0 60 60" fill="none" xmlns="http://www.w3.org/2000/svg">
<g clip-path="url(#clip0_457_1109)">
<path d="M27.832 2.00392C20.9531 2.95314 15.3164 7.96877 13.6523 14.6367C13.5 15.2578 13.3359 16.0547 13.3008 16.4063C13.2656 16.7578 13.207 17.2266 13.1719 17.4258L13.1133 17.8125H8.57812C4.26562 17.8125 4.01953 17.8242 3.51562 18.0586C2.8125 18.375 2.48438 18.6914 2.15625 19.3945L1.875 19.9805V35.2969V50.625H1.23047C0.691406 50.625 0.527344 50.6719 0.292969 50.918C0.128906 51.0703 0 51.3281 0 51.4688C0 51.8203 0.972656 54.2461 1.33594 54.8203C1.69922 55.4063 2.67188 56.2852 3.25781 56.5899C4.48828 57.2227 3.09375 57.1875 29.9648 57.1875C47.9297 57.1875 55.0078 57.1524 55.4531 57.0586C56.6719 56.8008 57.9961 55.875 58.6641 54.8203C59.0273 54.2461 60 51.8203 60 51.4688C60 51.3281 59.8711 51.0703 59.707 50.918C59.4727 50.6719 59.3086 50.625 58.7695 50.625H58.125V35.2969V19.9805L57.8438 19.3945C57.5156 18.6914 57.1875 18.375 56.4844 18.0586C55.9805 17.8242 55.7344 17.8125 51.4219 17.8125H46.8867L46.8164 17.25C46.2656 12.8906 44.7773 9.72658 41.8945 6.85548C39.4805 4.4297 36.7031 2.91798 33.4219 2.22658C32.0977 1.94533 29.1094 1.82814 27.832 2.00392ZM32.9297 4.03127C34.2891 4.32423 35.5781 4.78127 36.7969 5.40236C40.2305 7.16017 42.9609 10.3008 44.1914 13.9102C44.7891 15.668 44.9297 16.6406 44.9297 18.75C44.9297 20.8945 44.7656 21.9258 44.1562 23.6719C43.6523 25.0899 43.1133 26.1094 42.0234 27.7149C41.4961 28.4883 40.9102 29.3672 40.7344 29.6836L40.418 30.2461L39.6797 29.332L38.9414 28.418L39.6328 27.6445C44.4141 22.3125 44.25 14.4844 39.2578 9.4922C37.2539 7.4883 34.7461 6.21095 31.9922 5.8008C26.3086 4.93361 20.8359 7.79298 18.2344 12.9727C15.75 17.9414 16.7578 24.0235 20.7422 28.0078C25.0664 32.3203 31.7109 33.0938 36.9141 29.8945L37.4766 29.5547L38.4961 30.832C39.6445 32.2735 39.5859 32.0391 39.0938 33.6914L38.8125 34.6289H30H21.1758L20.918 33.6914C20.3203 31.5586 19.6523 30.1641 18.1172 27.9141C16.4883 25.5235 15.7617 23.9297 15.2812 21.6797C14.9766 20.2852 14.9766 17.2149 15.2812 15.8203C15.9258 12.8086 17.2617 10.3594 19.4414 8.19142C21.9141 5.71877 24.8789 4.26564 28.3594 3.82033C29.1797 3.71486 32.0742 3.85548 32.9297 4.03127ZM32.707 7.83986C34.8047 8.37892 36.4453 9.32814 37.9688 10.8867C39.4805 12.4102 40.4531 14.1445 40.9805 16.2422C41.2617 17.3555 41.2617 20.1445 40.9805 21.2578C40.6992 22.3828 40.2539 23.4727 39.6445 24.5039C39.1055 25.4063 37.8984 26.8711 37.7344 26.8125C37.6875 26.7891 37.4062 26.4844 37.1133 26.1211L36.5742 25.4649L37.125 24.8086C40.2891 21.0586 40.0664 15.5977 36.6094 12.1406C34.7812 10.3125 32.6484 9.43361 30 9.43361C27.3633 9.43361 25.1836 10.3242 23.3789 12.1289C21.5742 13.9336 20.6836 16.1133 20.6836 18.75C20.6836 21.3985 21.5625 23.5313 23.3906 25.3594C26.332 28.3008 30.9492 28.957 34.5234 26.9414L35.1211 26.6016L35.6836 27.3047C36.0938 27.8438 36.1992 28.0547 36.1055 28.1719C35.9062 28.418 34.1016 29.2617 33.2227 29.5195C30.0469 30.457 26.6484 29.9649 23.8711 28.1719C22.7695 27.4688 21.1641 25.8399 20.4844 24.7266C19.8633 23.7188 19.3125 22.4297 19.0195 21.2578C18.7383 20.1445 18.7383 17.3555 19.0195 16.2422C19.5586 14.1094 20.5195 12.3985 22.0781 10.8281C23.9297 8.9883 25.6523 8.12111 28.5938 7.57033C29.2852 7.44142 31.8398 7.60548 32.707 7.83986ZM31.582 11.4258C34.0898 11.9414 36.3867 14.0391 37.1602 16.5235C37.6641 18.1289 37.5703 20.0391 36.9141 21.586C36.5977 22.3477 35.5898 23.9063 35.4141 23.9063C35.3672 23.9063 35.0977 23.6133 34.8164 23.25L34.2891 22.582L34.6406 22.2774C34.8281 22.1133 35.2148 21.7852 35.4844 21.5625C36.1172 21.0352 36.2344 20.5781 35.8242 20.086C35.5781 19.793 35.5547 19.6641 35.6016 19.0313C35.7891 16.4531 33.9492 13.9805 31.3242 13.3008C28.4062 12.5391 25.3359 14.4024 24.5508 17.4258C23.7422 20.5078 25.8984 23.7422 29.1211 24.293C29.543 24.3633 29.8828 24.457 29.8828 24.5156C29.8828 24.5625 30 24.7031 30.1406 24.8438C30.5742 25.2539 31.0195 25.1485 31.9219 24.4336C32.3672 24.082 32.7539 23.7891 32.8008 23.7891C32.9414 23.7891 33.8789 25.0781 33.8203 25.1836C33.6914 25.3945 32.0391 26.0039 31.2422 26.1445C26.7656 26.918 22.5 23.3203 22.5 18.75C22.5 15.9844 24.1406 13.3242 26.6016 12.0938C28.207 11.2852 29.8594 11.0625 31.582 11.4258ZM31.7695 15.4805C32.5547 15.9024 32.918 16.2891 33.3516 17.1211C33.6914 17.8008 33.8906 19.1719 33.6211 19.0781C33.5273 19.043 33.1055 18.8906 32.6836 18.7383C31.9922 18.5039 31.875 18.4102 31.6992 18.0235C31.1602 16.7813 29.6484 16.5 28.6992 17.4492C27.9023 18.2461 27.9375 19.3242 28.7812 20.1211C29.2383 20.543 29.3203 20.6953 29.4141 21.293C29.6133 22.4414 29.6016 22.4883 29.1211 22.3828C28.4297 22.2305 27.5039 21.6211 27.0469 21.0352C25.4062 18.8789 26.4844 15.7969 29.1211 15.1055C29.8477 14.9063 31.0078 15.082 31.7695 15.4805ZM13.1836 20.2383C13.6172 23.6953 14.4258 25.8399 16.4297 28.7695C18.0469 31.1485 18.75 32.625 19.2305 34.6524C19.4648 35.6133 19.4648 35.6367 19.2422 35.9531C18.5977 36.8789 18.5977 38.1211 19.2422 39.0469C19.4648 39.375 19.4648 39.375 19.2422 39.6914C18.75 40.4063 18.6328 41.2383 18.8906 42.1172C19.0898 42.7617 20.0508 43.7344 20.707 43.9219C21.0352 44.0156 21.2227 44.1563 21.2812 44.332C21.4219 44.7891 22.3594 46.125 22.9102 46.6289C23.7422 47.3906 24.7969 48.0235 25.8281 48.3633C26.7305 48.6563 26.9297 48.6797 29.5547 48.7266C33.3164 48.7852 34.418 48.5625 36.1758 47.3672C37.2188 46.6641 38.4492 45.1875 38.7188 44.332C38.7773 44.1563 38.9648 44.0156 39.293 43.9219C39.9492 43.7344 40.9102 42.7617 41.1094 42.1172C41.3672 41.2383 41.25 40.4063 40.7578 39.7031C40.5352 39.375 40.5352 39.375 40.7578 39.0586C41.4023 38.1211 41.4023 36.8789 40.7578 35.9531C40.5469 35.6485 40.5469 35.6016 40.7344 34.8164C40.8281 34.3594 40.9336 33.9844 40.9688 33.9844C40.9922 33.9844 41.7305 34.8867 42.6094 35.9766L44.2148 37.9805L43.7695 39.3516C43.2891 40.8516 43.2422 41.2735 43.5469 41.6133C43.7344 41.8242 43.7227 41.8594 43.418 42.2695C43.2305 42.5156 42.8789 42.9375 42.6328 43.207C42.0938 43.8047 42.0469 44.2852 42.4805 44.707C43.0547 45.293 43.6758 45.0235 44.6484 43.7461L44.9414 43.3711L47.0508 46.0078C49.7109 49.3477 49.5938 49.2188 50.0742 49.2188C50.6602 49.2188 50.8945 48.8672 51.3867 47.3203C51.8086 46.0195 51.8555 45.9375 52.1367 45.9375C53.0508 45.9258 54.7969 45.6797 55.0312 45.5274C55.3477 45.3281 55.4766 44.9649 55.3828 44.5899C55.3125 44.3203 49.6523 37.1602 49.1836 36.75C48.9609 36.5625 48.7969 36.5391 47.9648 36.6094L47.0039 36.6797L46.9336 36.1289C46.8867 35.8125 46.6992 34.7813 46.5117 33.8203C46.0312 31.3477 46.043 31.2539 46.7695 30.5508C47.8242 29.543 49.1719 29.0625 51 29.0625C51.8203 29.0625 51.9609 29.0274 52.207 28.7695C52.5938 28.3828 52.5938 27.8555 52.1953 27.457C51.9023 27.1641 51.8789 27.1524 50.4727 27.211C49.3359 27.2578 48.8672 27.3399 48.1875 27.5742C47.0742 27.961 46.1719 28.5117 45.4102 29.2383C44.2266 30.3985 44.0977 31.1602 44.6367 33.9141C44.8477 34.9336 44.9883 35.7891 44.9648 35.8125C44.9414 35.836 44.2031 34.957 43.3242 33.8672L41.7188 31.875L42.0586 31.1836C42.2578 30.8086 42.9258 29.7422 43.5469 28.8164C45.5859 25.8047 46.3828 23.6953 46.8164 20.2383L46.8867 19.6875H51.293C55.6641 19.6875 55.7109 19.6875 55.9805 19.9453L56.25 20.1914V35.4141V50.625H45.8086C38.8125 50.625 35.2969 50.6602 35.1445 50.7422C35.0273 50.8125 34.7344 51.2344 34.5117 51.6797L34.1016 52.5H30H25.8984L25.4883 51.6797C25.2656 51.2344 24.9727 50.8125 24.8555 50.7422C24.7031 50.6602 21.1875 50.625 14.1914 50.625H3.75V35.4258V20.2266L4.00781 19.957L4.25391 19.6875H8.68359H13.1133L13.1836 20.2383ZM33 20.8828C33.1523 21.0352 31.8398 22.1485 31.5117 22.1485C31.4531 22.1485 31.1719 20.6367 31.1719 20.2852C31.1719 20.1914 32.8711 20.7656 33 20.8828ZM39.082 36.8555C39.4688 37.2305 39.4688 37.7695 39.082 38.1445L38.8008 38.4375H30H21.1992L20.918 38.1445C20.7305 37.9688 20.625 37.7227 20.625 37.5C20.625 37.2774 20.7305 37.0313 20.918 36.8555L21.1992 36.5625H30H38.8008L39.082 36.8555ZM50.2734 41.0274C52.9688 44.4141 52.7695 44.0625 52.0664 44.0625H51.4922L50.4141 42.7149C49.2891 41.3086 49.0078 41.1211 48.4102 41.3203C48.0469 41.4492 47.7656 41.9766 47.8594 42.3633C47.8945 42.5156 48.4102 43.2305 48.9961 43.9453L50.0625 45.2578L49.9219 45.7735C49.8398 46.0547 49.7461 46.2891 49.6992 46.2774C49.5586 46.2656 45.3516 40.8985 45.3516 40.7344C45.3516 40.6406 45.4805 40.1367 45.6445 39.6211L45.9492 38.6836L46.4414 38.625C46.8633 38.5664 47.2383 38.5313 48.0469 38.461C48.1406 38.461 49.1367 39.586 50.2734 41.0274ZM39.082 40.6055C39.4688 40.9805 39.4688 41.5195 39.082 41.8945L38.8008 42.1875H30H21.1992L20.918 41.8945C20.7305 41.7188 20.625 41.4727 20.625 41.25C20.625 41.0274 20.7305 40.7813 20.918 40.6055L21.1992 40.3125H30H38.8008L39.082 40.6055ZM36.6797 44.1797C36.6797 44.4375 35.2383 45.8086 34.5938 46.1485C33.4688 46.7461 32.6953 46.875 30 46.875C27.3047 46.875 26.5312 46.7461 25.4062 46.1485C24.7617 45.8086 23.3203 44.4375 23.3203 44.1797C23.3203 44.1094 25.793 44.0625 30 44.0625C34.207 44.0625 36.6797 44.1094 36.6797 44.1797ZM24.1992 53.3203C24.4219 53.7656 24.7148 54.1875 24.832 54.2578C25.1484 54.4219 34.8516 54.4219 35.168 54.2578C35.2852 54.1875 35.5781 53.7656 35.8008 53.3203L36.2109 52.5H46.9336C52.8281 52.5 57.6562 52.5352 57.6562 52.5703C57.6562 52.6055 57.4922 52.9805 57.3047 53.3789C56.9297 54.1641 56.5312 54.5625 55.7344 54.9961L55.2539 55.2539H30H4.74609L4.26562 54.9961C3.46875 54.5625 3.07031 54.1641 2.69531 53.3789C2.50781 52.9805 2.34375 52.6055 2.34375 52.5703C2.34375 52.5352 7.17188 52.5 13.0664 52.5H23.7891L24.1992 53.3203Z" fill="#FF9D4D"/>
<path d="M50.625 20.7773C50.0508 20.9648 49.0664 21.9726 48.8906 22.5703C48.5625 23.6719 48.7969 24.5508 49.6289 25.3711C50.8242 26.5781 52.4766 26.5547 53.5898 25.3125C54.6445 24.1406 54.6445 22.7344 53.5898 21.5625C52.8281 20.7187 51.7383 20.4258 50.625 20.7773ZM52.207 22.793C52.3945 22.9687 52.5 23.2148 52.5 23.4375C52.5 23.6601 52.3945 23.9062 52.207 24.082C52.0312 24.2695 51.7851 24.375 51.5625 24.375C51.3398 24.375 51.0937 24.2695 50.918 24.082C50.7305 23.9062 50.625 23.6601 50.625 23.4375C50.625 23.2148 50.7305 22.9687 50.918 22.793C51.0937 22.6055 51.3398 22.5 51.5625 22.5C51.7851 22.5 52.0312 22.6055 52.207 22.793Z" fill="#FF9D4D"/>
<path d="M8.43749 22.6523C7.86328 22.8398 6.8789 23.8476 6.70312 24.4453C6.37499 25.5469 6.60937 26.4258 7.4414 27.2461C8.63671 28.4531 10.2891 28.4297 11.4023 27.1875C12.457 26.0156 12.457 24.6094 11.4023 23.4375C10.6406 22.5937 9.55077 22.3008 8.43749 22.6523ZM10.0195 24.668C10.6055 25.2422 10.1953 26.25 9.37499 26.25C8.89452 26.25 8.43749 25.793 8.43749 25.3125C8.43749 24.832 8.89452 24.375 9.37499 24.375C9.59765 24.375 9.84374 24.4805 10.0195 24.668Z" fill="#FF9D4D"/>
<path d="M7.79302 29.3555C7.60552 29.5312 7.50005 29.7773 7.50005 30C7.50005 30.4219 7.94536 30.9375 8.30864 30.9375C8.50786 30.9375 8.46099 31.043 7.99224 31.6641C6.90239 33.1172 6.44536 34.7578 6.6563 36.4805C6.93755 38.7188 8.08599 40.1016 10.1954 40.6992C10.9688 40.9219 11.5196 41.4375 11.7188 42.1289C11.836 42.5273 11.8126 42.9375 11.5547 44.6953C11.3907 45.8438 11.2501 46.8867 11.2501 47.0156C11.2501 47.3672 11.7774 47.8125 12.1876 47.8125C12.9258 47.8125 13.043 47.5312 13.4063 44.9648C13.6172 43.4766 13.711 42.457 13.6641 42.1289C13.4649 40.8398 12.3868 39.4688 11.2735 39.082C10.9688 38.9766 10.5 38.8008 10.2188 38.707C9.21099 38.3555 8.66021 37.5586 8.49614 36.1992C8.33208 34.9102 8.9063 33.3164 9.85552 32.3906L10.3125 31.9453V32.5547C10.3125 33.3047 10.6641 33.75 11.2501 33.75C11.4727 33.75 11.7188 33.6445 11.8946 33.457C12.1758 33.1875 12.1876 33.1289 12.1876 31.4062C12.1876 29.6836 12.1758 29.625 11.8946 29.3555C11.6251 29.0742 11.5665 29.0625 9.8438 29.0625C8.12114 29.0625 8.06255 29.0742 7.79302 29.3555Z" fill="#FF9D4D"/>
<path d="M51.5625 30.1523C50.9883 30.3398 50.0039 31.3476 49.8281 31.9453C49.5 33.0469 49.7344 33.9258 50.5664 34.7461C51.7617 35.9531 53.4141 35.9297 54.5273 34.6875C55.582 33.5156 55.582 32.1094 54.5273 30.9375C53.7656 30.0937 52.6758 29.8008 51.5625 30.1523ZM53.1445 32.168C53.7305 32.7422 53.3203 33.75 52.5 33.75C52.0195 33.75 51.5625 33.293 51.5625 32.8125C51.5625 32.332 52.0195 31.875 52.5 31.875C52.7226 31.875 52.9687 31.9805 53.1445 32.168Z" fill="#FF9D4D"/>
<path d="M14.0625 32.0273C13.4883 32.2148 12.5039 33.2226 12.3281 33.8203C12 34.9219 12.2344 35.8008 13.0664 36.6211C14.2617 37.8281 15.9141 37.8047 17.0273 36.5625C18.082 35.3906 18.082 33.9844 17.0273 32.8125C16.2656 31.9687 15.1758 31.6758 14.0625 32.0273ZM15.6445 34.043C16.2305 34.6172 15.8203 35.625 15 35.625C14.7773 35.625 14.5312 35.5195 14.3555 35.332C14.168 35.1562 14.0625 34.9101 14.0625 34.6875C14.0625 34.4648 14.168 34.2187 14.3555 34.043C14.5312 33.8555 14.7773 33.75 15 33.75C15.2226 33.75 15.4687 33.8555 15.6445 34.043Z" fill="#FF9D4D"/>
<path d="M6.85545 43.418C6.49216 43.7696 6.48045 44.2735 6.80857 44.6953L7.04295 45L6.80857 45.3047C6.48045 45.7266 6.49216 46.2305 6.85545 46.5821C7.20701 46.9453 7.71091 46.9571 8.13279 46.6289L8.43748 46.3946L8.74217 46.6289C9.16404 46.9571 9.66795 46.9453 10.0195 46.5821C10.3828 46.2305 10.3945 45.7266 10.0664 45.3047L9.83201 45L10.0664 44.6953C10.3945 44.2735 10.3828 43.7696 10.0195 43.418C9.66795 43.0547 9.16404 43.043 8.74217 43.3711L8.43748 43.6055L8.13279 43.3711C7.71091 43.043 7.20701 43.0547 6.85545 43.418Z" fill="#FF9D4D"/>
<path d="M15.2929 45.293C14.9297 45.6446 14.9179 46.1485 15.2461 46.5703L15.4804 46.875L15.2461 47.1797C14.9179 47.6016 14.9297 48.1055 15.2929 48.4571C15.6445 48.8203 16.1484 48.8321 16.5703 48.5039L16.875 48.2696L17.1797 48.5039C17.6015 48.8321 18.1054 48.8203 18.457 48.4571C18.8203 48.1055 18.832 47.6016 18.5039 47.1797L18.2695 46.875L18.5039 46.5703C18.832 46.1485 18.8203 45.6446 18.457 45.293C18.1054 44.9297 17.6015 44.918 17.1797 45.2461L16.875 45.4805L16.5703 45.2461C16.1484 44.918 15.6445 44.9297 15.2929 45.293Z" fill="#FF9D4D"/>
<path d="M39.6679 45.293C39.3047 45.6446 39.2929 46.1485 39.6211 46.5703L39.8554 46.875L39.6211 47.1797C39.2929 47.6016 39.3047 48.1055 39.6679 48.4571C40.0195 48.8203 40.5234 48.8321 40.9453 48.5039L41.25 48.2696L41.5547 48.5039C41.9765 48.8321 42.4804 48.8203 42.832 48.4571C43.1953 48.1055 43.207 47.6016 42.8789 47.1797L42.6445 46.875L42.8789 46.5703C43.207 46.1485 43.1953 45.6446 42.832 45.293C42.4804 44.9297 41.9765 44.918 41.5547 45.2461L41.25 45.4805L40.9453 45.2461C40.5234 44.918 40.0195 44.9297 39.6679 45.293Z" fill="#FF9D4D"/>
</g>
<defs>
<clipPath id="clip0_457_1109">
<rect width="60" height="60" fill="white"/>
</clipPath>
</defs>
</svg>
