<svg width="24" height="22" viewBox="0 0 24 22" fill="none" xmlns="http://www.w3.org/2000/svg">
<path d="M0.779348 21.9229H3.89939C4.32983 21.9229 4.67873 21.574 4.67873 21.1435V7.50591C4.67873 7.07542 4.32983 6.72656 3.89939 6.72656H0.779348C0.348861 6.72656 0 7.07542 0 7.50591V21.1435C0 21.5739 0.348861 21.9229 0.779348 21.9229Z" fill="#484545"/>
<path d="M0.779348 4.32931H3.89939C4.32983 4.32931 4.67873 3.9804 4.67873 3.54996V0.779348C4.67873 0.348905 4.32983 0 3.89939 0H0.779348C0.348861 0 0 0.348905 0 0.779348V3.54996C0 3.9804 0.348861 4.32931 0.779348 4.32931Z" fill="#484545"/>
<path d="M22.8262 8.30958C22.3877 7.73247 21.7413 7.25787 20.8864 6.88587C20.0316 6.51413 19.0881 6.32812 18.0557 6.32812C15.9601 6.32812 14.1843 7.12792 12.7284 8.72782C12.4388 9.04616 12.2281 8.97656 12.2281 8.54607V7.50713C12.2281 7.07665 11.8792 6.72778 11.4487 6.72778H8.66167C8.23119 6.72778 7.88232 7.07665 7.88232 7.50713V21.1448C7.88232 21.5752 8.23123 21.9242 8.66167 21.9242H11.7817C12.2122 21.9242 12.5611 21.5752 12.5611 21.1448V16.4019C12.5611 14.4261 12.6804 13.0718 12.919 12.3392C13.1575 11.6066 13.5989 11.0183 14.2427 10.5743C14.8866 10.1303 15.6136 9.90813 16.424 9.90813C17.0567 9.90813 17.5979 10.0636 18.0475 10.3745C18.4971 10.6854 18.8218 11.1208 19.0217 11.6815C19.2216 12.2421 19.3214 13.477 19.3214 15.3864V21.1447C19.3214 21.5752 19.6703 21.9241 20.1007 21.9241H23.2208C23.6512 21.9241 24.0001 21.5752 24.0001 21.1447V13.4215C24.0001 12.0562 23.914 11.0072 23.7421 10.2746C23.5702 9.54199 23.2649 8.88699 22.8262 8.30958Z" fill="#484545"/>
</svg>
