<svg width="201" height="32" viewBox="0 0 201 32" fill="none" xmlns="http://www.w3.org/2000/svg">
<g clip-path="url(#clip0_396_319)">
<path d="M18.87 12.37C18.29 21.2 4.43 20.65 4.6 11.75C4.6 7.82 7.78 4.63 11.7 4.6V0C5.24 0.03 0 5.28 0 11.75C0.02 26.75 22.7 27.29 23.48 12.37H18.86H18.87Z" fill="#484545"/>
<path d="M3.68994 28.49C8.12994 32.93 15.2399 33.07 19.8599 28.92L16.5999 25.66C13.7899 28.02 9.58994 27.89 6.94994 25.24" fill="#484545"/>
<path d="M32.4299 8.30992C33.9099 7.96992 32.9699 11.9899 33.2199 12.6299C32.7799 14.3099 29.2299 12.4599 29.2699 16.5799C28.9799 17.1899 30.0199 24.0999 28.5099 23.7599C27.8399 23.5099 24.5599 24.3999 24.7099 22.9999V9.30992C24.5599 7.92992 27.8399 8.76992 28.5099 8.54992C29.6699 8.45992 29.1699 10.3099 29.2699 10.9499C29.7199 9.41992 30.9199 8.52992 32.4299 8.29992V8.30992Z" fill="#484545"/>
<path d="M47.9 14.19C47.58 14.79 48.71 24.21 47.14 23.77C46.24 23.56 42.94 24.5 43.46 22.58C32.36 30.16 31.08 9.50997 43.46 15.87C44 12.92 41.86 11 39.81 13.22C39.63 13.65 39.48 13.89 39.02 13.89C38.35 13.67 35.08 14.52 35.28 13.1C36.14 6.09997 48.18 6.51997 47.9 14.19ZM43.46 19.45C43.73 17.51 38.81 17.38 39.08 19.45C38.81 21.54 43.72 21.35 43.46 19.45Z" fill="#484545"/>
<path d="M67.07 16.1599C67.4 22.6499 59.51 26.8199 55.27 22.3399C54.97 22.9299 56.03 30.2099 54.51 29.8399C53.83 29.5799 50.56 30.4899 50.71 29.0799V9.30993C50.71 8.81993 50.98 8.54993 51.47 8.54993C52.59 8.76993 55.85 7.73993 55.27 9.96993C59.51 5.48993 67.4 9.65993 67.07 16.1499V16.1599ZM62.57 16.1599C62.77 11.2599 55.13 11.2599 55.33 16.1599C55.13 21.0599 62.77 21.0599 62.57 16.1599Z" fill="#484545"/>
<path d="M83.37 14.22C83.01 14.84 84.26 25.3 82.54 24.79C81.78 24.52 78.23 25.49 78.37 23.96C77.81 21.95 80.06 11.81 76.14 12.26C71.91 11.81 74.3 21.77 73.71 23.96C73.87 25.47 70.28 24.55 69.54 24.79C69.01 24.79 68.71 24.49 68.71 23.96V2.28996C68.71 1.75996 69.01 1.45996 69.54 1.45996C70.3 1.74996 73.86 0.749961 73.71 2.28996V9.64996C76.78 5.64996 83.86 7.85996 83.38 14.23L83.37 14.22Z" fill="#484545"/>
<path d="M100.92 16.55C101.56 19.35 97.7899 18.13 96.3299 18.37H89.8799C90.9299 21.76 94.4199 21.06 96.6299 19.74C97.1899 19.94 100.84 19.07 100.16 20.56C96.8899 27.86 84.3499 24.36 85.1099 16.55C84.6999 6.34001 101.32 5.81001 100.93 16.55H100.92ZM96.3799 14.37C95.5099 11.01 90.6099 11.44 89.8599 14.37H96.3799Z" fill="#484545"/>
<path d="M111.43 8.30992C112.91 7.96992 111.97 11.9899 112.22 12.6299C111.78 14.3099 108.22 12.4599 108.27 16.5799C107.98 17.1899 109.02 24.0999 107.51 23.7599C106.84 23.5099 103.56 24.3999 103.71 22.9999V9.30992C103.56 7.92992 106.84 8.76992 107.51 8.54992C108.67 8.45992 108.17 10.3099 108.27 10.9499C108.72 9.41992 109.92 8.52992 111.43 8.29992V8.30992Z" fill="#484545"/>
<path d="M125.64 19.2C125.78 25.75 113.57 25.94 113.05 19.57C112.78 18.15 116.11 19 116.76 18.78C117.22 18.78 117.37 19.02 117.58 19.42C117.89 20.59 121.32 20.47 121.08 19.21C121.08 17.02 113.14 19.03 113.14 13.13C113.08 6.69 124.65 6.31 125.28 12.77C125.55 14.19 122.22 13.34 121.57 13.56C121.11 13.56 120.96 13.32 120.75 12.89C120.39 11.69 117.51 11.95 117.71 13.13C117.71 15.38 125.65 13.28 125.65 19.21L125.64 19.2Z" fill="#484545"/>
<path d="M134.05 12.4C134.65 4.14002 147.62 4.74002 147.4 13.08C147.37 16.76 144.38 19.72 140.71 19.72L140.68 24.03C146.73 24.05 151.67 19.17 151.71 13.11C151.79 -0.929976 130.57 -1.57998 129.74 12.37L134.06 12.4H134.05Z" fill="#FF9D4D"/>
<path d="M136.7 16.37H130.7V22.37H136.7V16.37Z" fill="#FF9D4D"/>
<path d="M170.3 16.16C170.3 16.56 170.27 16.92 170.24 17.28C170.18 17.77 169.88 17.98 169.42 18.36H159.26C159.81 19.78 161.23 20.5 162.82 20.5C163.67 20.5 164.52 20.2 165.07 19.74C165.37 19.5 165.62 19.35 166.01 19.36H168.93C169.48 19.32 169.78 19.68 169.54 20.17C168.35 22.82 165.86 24.18 162.76 24.18C157.71 24.18 154.49 20.68 154.49 16.15C154.49 11.62 157.84 8.12 162.64 8.12C167.08 8.12 170.3 11.56 170.3 16.15V16.16ZM165.76 14.37C165.29 12.64 163.95 12.03 162.61 12.03C160.9 12.03 159.72 12.86 159.25 14.37H165.77H165.76Z" fill="#FF9D4D"/>
<path d="M184.49 18.78C184.49 22.12 181.64 23.55 178.44 23.55C175.47 23.55 172.8 22.21 172.45 19.13C172.39 18.64 172.68 18.37 173.15 18.37H176C176.44 18.37 176.58 18.6 176.79 18.98C177.02 19.47 177.57 19.77 178.45 19.77C179.67 19.77 180.14 19.36 180.14 18.78C180.14 16.69 172.55 18.61 172.55 12.97C172.55 9.67995 175.4 8.19995 178.45 8.19995C181.15 8.19995 183.8 9.53995 184.15 12.62C184.21 13.11 183.92 13.38 183.45 13.38H180.6C180.16 13.38 180.02 13.15 179.82 12.74C179.62 12.27 179.12 11.98 178.45 11.98C177.37 11.98 176.91 12.39 176.91 12.97C176.91 15.12 184.5 13.11 184.5 18.78H184.49Z" fill="#FF9D4D"/>
<path d="M200.19 23.37H197.33C196.9 23.37 196.56 23.22 196.33 22.89L191.7 16.79V22.61C191.7 23.03 191.36 23.37 190.94 23.37H187.46C187.04 23.37 186.7 23.03 186.7 22.61V3.13C186.7 2.71 187.04 2.37 187.46 2.37H190.94C191.36 2.37 191.7 2.71 191.7 3.13V14.89L195.57 8.85C195.78 8.52 196.08 8.37 196.47 8.37H199.92C200.52 8.37 200.73 8.76 200.4 9.27L195.99 15.87L200.64 22.47C201 22.98 200.79 23.37 200.19 23.37Z" fill="#FF9D4D"/>
</g>
<defs>
<clipPath id="clip0_396_319">
<rect width="200.82" height="31.93" fill="white"/>
</clipPath>
</defs>
</svg>
