<svg width="346" height="309" viewBox="0 0 346 309" fill="none" xmlns="http://www.w3.org/2000/svg">
<path d="M335.858 223.434C330.202 210.568 319.338 199.831 306.289 194.547C292.697 189.042 277.09 191.046 262.773 189.202C250.339 187.601 241.367 182.05 233.943 172.181C226.829 162.724 220.451 152.252 208.819 147.878C199.629 144.422 189.18 145.379 180.046 148.981C163.214 155.617 150.501 169.729 139.795 183.786C130.019 196.621 122.046 210.676 103.965 211.134C85.8724 211.593 68.648 201.272 50.431 204.007C26.3545 207.621 6.30381 227.664 2.10197 251.525C-1.83583 273.888 8.04552 295.578 25.0212 308.321H316.806C338.196 285.629 349.421 254.282 335.858 223.434Z" fill="#F7F0E3"/>
<path d="M72.0898 308.322H72.8925C78.4668 302.195 82.8334 294.76 85.6092 286.508C90.1021 273.151 89.9127 259.133 85.076 247.036C82.6316 240.923 79.1019 235.226 75.6884 229.715C72.2264 224.128 68.647 218.349 66.2173 212.158C65.2128 209.597 64.4707 206.848 64.0243 204.044C63.8232 204.017 63.6218 203.996 63.4204 203.971C63.8689 206.876 64.6319 209.723 65.6712 212.372C68.1198 218.613 71.7138 224.415 75.1895 230.025C78.5896 235.513 82.1056 241.189 84.5308 247.254C89.3159 259.221 89.5013 273.095 85.0528 286.321C82.2429 294.676 77.7848 302.18 72.0898 308.322Z" fill="white"/>
<path d="M315.396 282.875C321.408 284.156 327.201 285.305 332.804 286.027C332.9 285.842 332.993 285.656 333.088 285.47C327.439 284.752 321.591 283.594 315.518 282.301C306.271 280.331 296.263 278.198 286.336 278.198C280.19 278.198 274.076 279.016 268.193 281.195C265.965 282.021 263.817 283.069 261.773 284.316C256.462 282.053 251.123 279.582 245.834 276.869C249.672 273.978 253.55 271.147 257.47 268.409C286.568 248.091 313.421 236.572 339.365 233.303C339.313 233.113 339.259 232.923 339.205 232.733C313.192 236.029 286.279 247.577 257.134 267.928C253.131 270.724 249.171 273.617 245.255 276.571C239.306 273.498 233.43 270.12 227.742 266.394C217.425 259.634 205.154 249.985 194.437 237.165C235.967 232.506 278.249 226.636 312.777 203.559C314.089 202.682 315.541 201.649 317.046 200.477C316.879 200.358 316.711 200.242 316.543 200.126C315.101 201.243 313.711 202.229 312.451 203.07C277.932 226.142 235.572 231.967 193.988 236.625C186.415 227.465 179.649 216.706 174.947 204.25C167.622 184.848 168.009 165.808 176.008 152.012C176.355 151.412 176.722 150.823 177.1 150.239C176.766 150.392 176.435 150.551 176.104 150.71C175.898 151.044 175.696 151.379 175.5 151.717C167.412 165.667 167.01 184.89 174.397 204.458C179.074 216.846 185.78 227.563 193.291 236.703C190.884 236.972 188.477 237.238 186.076 237.502C177.417 238.458 168.463 239.447 159.768 240.566C156.594 240.974 153.367 241.451 150.155 242.048C143.271 227.518 135.709 213.343 125.933 201.187C125.793 201.327 125.651 201.462 125.51 201.599C135.202 213.663 142.717 227.732 149.559 242.16C135.552 244.832 121.951 249.853 114.689 261.542C107.906 272.458 107.912 287.546 114.707 306.39C114.942 307.041 115.184 307.684 115.429 308.322H116.058C115.789 307.624 115.521 306.918 115.259 306.19C108.528 287.525 108.505 272.607 115.187 261.851C122.363 250.302 135.89 245.347 149.819 242.708C152.249 247.849 154.597 253.032 156.93 258.184L157.184 258.744C165.287 276.633 173.669 293.896 184.643 308.322H185.375C174.301 293.869 165.873 276.503 157.719 258.502L157.465 257.942C155.152 252.834 152.823 247.695 150.415 242.597C153.565 242.015 156.73 241.548 159.843 241.148C168.533 240.029 177.484 239.041 186.141 238.086C188.669 237.807 191.203 237.527 193.739 237.244C204.558 250.264 216.985 260.047 227.42 266.884C233.046 270.571 238.856 273.916 244.736 276.963C234.755 284.513 225.046 292.455 215.567 300.211C212.284 302.896 208.964 305.61 205.618 308.322H206.548C209.705 305.761 212.839 303.2 215.938 300.665C225.484 292.856 235.262 284.856 245.314 277.262C250.574 279.968 255.883 282.435 261.165 284.695C253.938 289.291 248.049 296.408 244.488 305.051C244.042 306.133 243.652 307.225 243.292 308.322H243.91C244.25 307.301 244.615 306.283 245.03 305.274C248.601 296.608 254.54 289.498 261.823 284.975C276.589 291.249 291.102 295.906 303.572 299.595L304.042 299.734C309.297 301.288 314.672 302.88 319.426 305.438C319.559 305.286 319.693 305.135 319.825 304.983C314.993 302.362 309.539 300.747 304.208 299.171L303.739 299.032C291.395 295.38 277.049 290.78 262.441 284.6C264.344 283.467 266.336 282.51 268.398 281.746C283.621 276.104 300.502 279.702 315.396 282.875Z" fill="white"/>
<path d="M26.4917 244.868C29.0833 255.476 27.9272 266.932 23.3193 276.299C20.3013 282.435 15.9429 287.989 10.5746 292.76C10.6814 292.926 10.7905 293.09 10.8989 293.256C16.3543 288.422 20.7822 282.787 23.846 276.558C28.5137 267.069 29.6858 255.468 27.0616 244.729C25.0115 236.338 20.8901 229.23 15.1961 224.088C15.0691 224.237 14.9431 224.387 14.8177 224.538C20.417 229.601 24.4719 236.601 26.4917 244.868Z" fill="white"/>
<path d="M159.291 110.488C164.402 115.711 166.693 124.511 163.875 132.623C161.146 140.479 155.164 146.986 147.976 151.169C142.194 154.534 134.65 156.391 128.963 152.867C124.713 150.233 122.509 145.066 122.387 140.067C122.264 135.069 123.945 130.198 126.023 125.65C128.951 119.239 132.893 113.023 138.764 109.124C146.857 103.751 154.377 105.467 159.291 110.488Z" fill="#F7F0E3"/>
<path d="M91.5347 18.9084H49.2089V0H91.5347V18.9084ZM50.089 18.0283H90.6546V0.880127H50.089V18.0283Z" fill="#E9DDCA"/>
<path d="M63.9995 36.9907H21.6736V18.0823H63.9995V36.9907ZM22.5537 36.1106H63.1193V18.9624H22.5537V36.1106Z" fill="#E9DDCA"/>
<path d="M332.36 57.1389C329.62 48.0257 324.799 39.6589 317.899 32.0095C310.984 24.3601 301.554 18.0455 289.608 13.0513C277.662 8.05692 262.483 5.55994 244.073 5.55994C229.386 5.55994 214.419 7.54034 199.17 11.5014C183.907 15.4767 170.668 21.1311 159.439 28.4791L174.055 68.608L166.222 74.954L177.583 78.2929C188.798 72.423 199.015 68.1609 208.235 65.5057C217.44 62.8651 227.222 61.5447 237.594 61.5447C247.952 61.5447 255.794 64.0419 261.12 69.0361C266.447 74.0448 269.103 80.0578 269.103 87.1188C269.103 95.6436 266.362 103.207 260.909 109.823C255.428 116.439 249.385 123.127 242.765 129.886C238.17 134.579 233.701 139.43 229.386 144.424C225.072 149.433 221.249 154.786 217.946 160.527C214.629 166.253 211.973 172.424 209.963 179.04C207.94 185.656 206.942 193.075 206.942 201.299C206.942 203.954 206.998 207.111 207.153 210.785C207.178 211.463 207.214 212.124 207.255 212.776H196.514L208.235 220.702H265.224C264.929 218.937 264.788 216.885 264.788 214.531C264.788 212.177 264.788 210.412 264.788 209.235C264.788 204.241 265.8 199.318 267.81 194.468C269.82 189.617 272.35 184.996 275.371 180.576C278.393 176.17 281.766 171.979 285.518 168.018C289.257 164.043 292.855 160.297 296.312 156.767C300.908 152.074 305.658 147.079 310.549 141.784C315.44 136.488 319.768 130.92 323.507 125.036C327.245 119.152 330.337 112.765 332.782 105.848C335.227 98.9449 336.464 91.3817 336.464 83.1439C336.464 74.9202 335.087 66.2521 332.36 57.1389Z" fill="#E49B31"/>
<path d="M225.529 58.7453C215.279 58.7453 205.612 60.023 196.514 62.5786C187.403 65.1481 177.306 69.2732 166.222 74.9539L148.291 26.7448C159.388 19.6336 172.472 14.1613 187.556 10.3139C202.625 6.48052 217.417 4.56372 231.931 4.56372C250.126 4.56372 265.127 6.98044 276.932 11.8139C288.738 16.6473 298.058 22.7584 304.891 30.1613C311.711 37.5642 316.475 45.6616 319.183 54.4812C321.877 63.3008 323.239 71.6899 323.239 79.6484C323.239 87.6207 322.016 94.9403 319.6 101.621C317.183 108.316 314.127 114.496 310.433 120.191C306.738 125.885 302.461 131.274 297.627 136.399C292.794 141.525 288.099 146.358 283.557 150.9C280.141 154.316 276.585 157.941 272.89 161.789C269.182 165.622 265.849 169.678 262.862 173.942C259.876 178.22 257.376 182.692 255.39 187.386C253.404 192.081 252.404 196.845 252.404 201.678C252.404 202.817 252.404 204.526 252.404 206.803C252.404 209.081 252.543 211.067 252.835 212.776H196.514C195.931 209.928 195.584 206.734 195.445 203.178C195.292 199.623 195.236 196.567 195.236 193.998C195.236 186.039 196.222 178.859 198.222 172.456C200.208 166.053 202.834 160.08 206.111 154.539C209.375 148.983 213.153 143.802 217.417 138.955C221.681 134.122 226.098 129.427 230.64 124.885C237.181 118.344 243.154 111.871 248.571 105.468C253.959 99.0656 256.668 91.746 256.668 83.4958C256.668 76.6623 254.043 70.8429 248.779 65.9956C243.515 61.162 235.765 58.7453 225.529 58.7453Z" fill="#FBC343"/>
<path d="M269.124 276.02C269.124 286.295 265.798 294.222 259.146 299.816C252.493 305.42 244.975 308.211 236.58 308.211C228.174 308.211 220.655 305.42 214.003 299.816C207.362 294.223 204.036 286.295 204.036 276.02C204.036 265.757 207.362 257.828 214.003 252.224C224.243 243.583 239.392 241.657 251.381 247.722C262.02 253.104 269.124 264.033 269.124 276.02Z" fill="#E49B31"/>
<path d="M257.976 276.02C257.976 286.294 254.65 294.222 247.997 299.815C241.345 305.42 233.827 308.211 225.432 308.211C217.025 308.211 209.507 305.42 202.855 299.815C196.214 294.223 192.888 286.294 192.888 276.02C192.888 265.756 196.214 257.828 202.855 252.224C209.507 246.631 217.025 243.829 225.432 243.829C233.827 243.829 241.345 246.631 247.997 252.224C254.65 257.828 257.976 265.756 257.976 276.02Z" fill="#FBC343"/>
<path d="M89.262 130.351C89.8863 127.02 87.6917 123.813 84.36 123.188C81.0284 122.564 77.8214 124.759 77.197 128.09C76.5727 131.422 78.7674 134.629 82.099 135.253C85.4306 135.878 88.6376 133.683 89.262 130.351Z" fill="#D3DFFF"/>
<path d="M92.1979 141.889C92.5491 140.015 91.3039 138.209 89.4168 137.856C87.5297 137.502 85.7152 138.734 85.364 140.608C85.0128 142.482 86.258 144.288 88.1451 144.642C90.0322 144.995 91.8467 143.763 92.1979 141.889Z" fill="#D3DFFF"/>
<path d="M85.17 115.413C94.6069 105.977 94.6069 90.6763 85.17 81.2394C75.7331 71.8024 60.4328 71.8024 50.9959 81.2394C41.559 90.6763 41.559 105.977 50.9959 115.413C60.4328 124.85 75.7331 124.85 85.17 115.413Z" fill="#D3DFFF"/>
<path d="M58.8062 101.371C60.4877 101.371 61.8508 100.008 61.8508 98.3269C61.8508 96.6454 60.4877 95.2823 58.8062 95.2823C57.1248 95.2823 55.7617 96.6454 55.7617 98.3269C55.7617 100.008 57.1248 101.371 58.8062 101.371Z" fill="white"/>
<path d="M68.0849 101.372C69.7664 101.372 71.1295 100.008 71.1295 98.327C71.1295 96.6456 69.7664 95.2825 68.0849 95.2825C66.4035 95.2825 65.0404 96.6456 65.0404 98.327C65.0404 100.008 66.4035 101.372 68.0849 101.372Z" fill="white"/>
<path d="M77.3637 101.372C79.0452 101.372 80.4083 100.008 80.4083 98.327C80.4083 96.6456 79.0452 95.2825 77.3637 95.2825C75.6823 95.2825 74.3192 96.6456 74.3192 98.327C74.3192 100.008 75.6823 101.372 77.3637 101.372Z" fill="white"/>
<path d="M50.7739 296.114L53.0317 304.818C53.6206 307.088 55.8152 308.622 58.2434 308.457C65.6466 307.954 81.0284 306.14 89.8567 299.633L87.347 287.089C75.2088 286.403 63.857 287.078 54.0278 290.387C51.5667 291.216 50.1432 293.683 50.7739 296.114Z" fill="#102048"/>
<path d="M64.9214 303.043C64.793 303.043 64.6752 302.958 64.6388 302.828L61.6072 291.974C61.5636 291.817 61.6549 291.656 61.8109 291.612C61.968 291.569 62.129 291.66 62.1726 291.816L65.2042 302.671C65.2477 302.827 65.1566 302.988 65.0005 303.032C64.974 303.039 64.9472 303.043 64.9214 303.043Z" fill="white"/>
<path d="M71.4734 301.576C71.345 301.576 71.2271 301.491 71.1908 301.362L68.1591 290.507C68.1157 290.351 68.2068 290.189 68.3629 290.145C68.5201 290.101 68.6809 290.193 68.7245 290.349L71.7562 301.204C71.7998 301.36 71.7085 301.522 71.5524 301.565C71.5259 301.573 71.4994 301.576 71.4734 301.576Z" fill="white"/>
<path d="M79.0829 249.062L50.871 257.435L71.8224 286.142L101.901 288.534L143.389 270.991L127.624 247.268L79.0829 249.062Z" fill="#FBC343"/>
<path d="M113.863 253.049C175.819 234.708 185.775 289.464 89.1089 299.432C85.6945 295.59 81.7043 288.923 80.1199 283.351L131.168 259.761L113.863 253.049Z" fill="#FBC343"/>
<path d="M116.495 292.292C113.598 291.364 110.821 289.531 110.821 289.531L100.864 292.654L103.146 303.486L113.489 305.587C116.64 299.824 116.824 295.092 116.495 292.292Z" fill="#F9B384"/>
<path d="M80.3411 283.731L79.8989 282.97C90.5485 276.781 117.827 261.912 141.068 257.527L141.232 258.392C118.124 262.752 90.9514 277.565 80.3411 283.731Z" fill="#E49B31"/>
<path d="M79.0829 249.062C21.4146 238.097 6.47901 293.518 103.146 303.486C106.56 299.644 109.236 295.104 110.821 289.531C95.9722 279.595 79.3697 270.152 61.1738 261.156L79.0829 249.062Z" fill="#FBC343"/>
<path d="M110.585 289.902C107.841 288.156 104.983 286.31 101.957 284.356C86.7653 274.548 69.547 263.431 54.9181 257.092L55.268 256.284C69.9636 262.652 87.214 273.79 102.434 283.617C105.459 285.57 108.316 287.415 111.057 289.16L110.585 289.902Z" fill="#E49B31"/>
<path d="M36.7721 276.541L36.0018 276.115C38.1665 272.197 41.6337 269.553 46.3071 268.259L46.542 269.107C42.0425 270.353 38.8469 272.785 36.7721 276.541Z" fill="#E49B31"/>
<path d="M157.134 273.204C155.06 269.449 151.864 267.017 147.364 265.771L147.599 264.923C152.273 266.217 155.74 268.86 157.905 272.779L157.134 273.204Z" fill="#E49B31"/>
<path d="M97.7456 302.999L97.1023 302.398C101.715 297.458 104.549 292.242 105.764 286.453L106.625 286.634C105.376 292.584 102.472 297.938 97.7456 302.999Z" fill="#E49B31"/>
<path d="M145.256 289.066C137.868 284.501 123.544 292.388 119.948 292.787C118.9 292.903 117.688 292.674 116.495 292.292C116.824 295.092 116.64 299.824 113.49 305.587L115.246 305.944C115.246 305.944 127.393 310.397 140.277 307.805C152.17 305.413 151.064 292.654 145.256 289.066Z" fill="#102048"/>
<path d="M135.185 303.996C135.155 303.996 135.126 303.992 135.096 303.983C134.942 303.934 134.856 303.769 134.905 303.615C135.783 300.835 136.166 295.367 133.623 291.695C133.531 291.562 133.564 291.379 133.697 291.287C133.83 291.194 134.013 291.228 134.106 291.361C136.768 295.207 136.377 300.902 135.464 303.791C135.425 303.916 135.309 303.996 135.185 303.996Z" fill="white"/>
<path d="M129.391 305.097C129.361 305.097 129.332 305.092 129.302 305.083C129.148 305.034 129.062 304.869 129.111 304.715C129.989 301.935 130.372 296.467 127.829 292.795C127.737 292.662 127.77 292.479 127.903 292.387C128.036 292.295 128.219 292.328 128.312 292.461C130.974 296.307 130.583 302.002 129.67 304.892C129.631 305.017 129.515 305.097 129.391 305.097Z" fill="white"/>
<path d="M68.8804 177.604C68.8804 177.604 83.4039 165.254 82.8662 162.907C82.4817 161.23 78.3677 163.689 78.3677 163.689C78.3677 163.689 84.1373 156.844 83.8439 156.013C83.3196 154.527 79.3292 157.296 79.3292 157.296C79.3292 157.296 82.0264 153.414 80.737 152.781C79.4475 152.149 76.6363 154.541 76.6363 154.541C76.6363 154.541 78.2787 152.386 77.507 151.82C76.7353 151.255 73.4063 153.58 73.4063 153.58C73.4063 153.58 74.601 150.862 72.0631 151.893C69.5253 152.923 51.7303 169.253 51.7303 169.253L68.8804 177.604Z" fill="#F9B384"/>
<path d="M74.8226 162.956C74.752 162.956 74.6811 162.931 74.6248 162.88C72.1318 160.602 71.0327 160.049 68.2822 159.203C68.1273 159.155 68.0405 158.991 68.0881 158.836C68.1358 158.681 68.2998 158.594 68.455 158.642C71.3047 159.518 72.4428 160.091 75.0209 162.446C75.1406 162.556 75.1489 162.741 75.0397 162.861C74.9815 162.924 74.9022 162.956 74.8226 162.956Z" fill="#E28B6D"/>
<path d="M70.4469 169.655C70.4333 169.655 70.4197 169.654 70.406 169.652C70.2455 169.63 70.1336 169.481 70.1561 169.321C70.4415 167.279 71.0843 166.003 72.1215 165.42C73.0079 164.921 74.1615 164.972 75.5502 165.572C75.699 165.636 75.7675 165.809 75.7032 165.957C75.6392 166.106 75.4664 166.175 75.3176 166.11C74.1063 165.587 73.1279 165.527 72.409 165.931C71.5544 166.411 70.9919 167.579 70.7372 169.402C70.7165 169.549 70.591 169.655 70.4469 169.655Z" fill="#E28B6D"/>
<path d="M69.762 157.309C69.6841 157.309 69.6062 157.278 69.5484 157.216C69.4372 157.098 69.4428 156.913 69.5606 156.802L73.2051 153.367C73.3229 153.255 73.5085 153.261 73.6198 153.379C73.731 153.497 73.7254 153.683 73.6076 153.794L69.9631 157.228C69.9066 157.282 69.8343 157.309 69.762 157.309Z" fill="#E28B6D"/>
<path d="M73.1358 158.482C73.0626 158.482 72.9896 158.455 72.9326 158.4C72.8157 158.288 72.812 158.102 72.9241 157.985L76.4247 154.338C76.5369 154.221 76.7225 154.217 76.8397 154.33C76.9565 154.442 76.9603 154.628 76.8481 154.745L73.3475 158.392C73.2898 158.452 73.2128 158.482 73.1358 158.482Z" fill="#E28B6D"/>
<path d="M76.5829 160.536C76.5113 160.536 76.4395 160.51 76.3829 160.457C76.2644 160.346 76.2578 160.161 76.3684 160.042L79.1148 157.096C79.2256 156.978 79.4108 156.971 79.5295 157.081C79.6481 157.192 79.6546 157.378 79.5441 157.496L76.7976 160.442C76.7396 160.504 76.6615 160.536 76.5829 160.536Z" fill="#E28B6D"/>
<path d="M123.743 260.208L70.6423 262.262L64.7748 213.855C64.7748 213.855 82.5517 196.994 89.3911 190.785L100.937 190.192C136.76 206.475 130.894 226.812 123.743 260.208Z" fill="#3A6BEA"/>
<path d="M100.937 190.192C100.937 190.192 141.921 193.697 154.841 221.776C167.484 249.251 115.529 259.035 115.529 259.035L100.937 190.192Z" fill="#3A6BEA"/>
<path d="M54.0901 196.209L71.0258 175.6L55.1887 166.002C48.5824 170.596 35.8072 181 24.9807 192.782C22.5909 195.382 20.7244 198.42 19.7842 201.765C18.982 204.619 18.8362 207.438 19.2871 210.198C20.4622 217.393 26.1218 222.945 33.6765 223.83C40.1287 224.586 64.7744 222.657 84.7239 216.789L90.5914 194.143C87.5764 192.432 65.1679 192.135 54.0901 196.209Z" fill="#3A6BEA"/>
<g opacity="0.8">
<path d="M135.139 201.335C135.227 201.315 135.316 201.295 135.404 201.275C135.219 201.165 135.033 201.058 134.847 200.951C131.844 201.642 128.745 202.349 125.69 202.717C123.854 202.938 117.721 203.344 115.928 199.257C115.036 197.224 115.711 194.963 116.72 193.376C116.572 193.333 116.427 193.292 116.28 193.25C115.247 194.931 114.584 197.29 115.525 199.433C117.439 203.799 123.831 203.385 125.743 203.154C128.886 202.775 132.065 202.044 135.139 201.335Z" fill="white"/>
<path d="M154.265 233.004C152.308 232.247 150.285 231.465 148.158 231.666C144.428 232.018 141.237 235.707 141.043 239.888C140.911 242.739 142 245.727 144.076 248.354C144.201 248.276 144.326 248.198 144.45 248.119C142.42 245.565 141.355 242.666 141.483 239.909C141.667 235.938 144.68 232.437 148.2 232.104C150.222 231.917 152.109 232.642 154.107 233.414C154.82 233.69 155.545 233.967 156.282 234.203C156.32 234.062 156.356 233.919 156.391 233.776C155.673 233.545 154.963 233.274 154.265 233.004Z" fill="white"/>
<path d="M50.8215 219.009C48.2628 216.892 44.287 216.327 39.9157 217.457C36.0199 218.465 32.6773 220.461 30.381 223.102C30.5319 223.151 30.6793 223.206 30.8323 223.251C33.0664 220.745 36.2844 218.851 40.0255 217.883C44.2583 216.788 48.0919 217.323 50.5413 219.348C51.7054 220.31 52.5285 221.56 53.1267 222.909C53.2779 222.892 53.4295 222.874 53.5816 222.856C52.9554 221.406 52.0826 220.051 50.8215 219.009Z" fill="white"/>
<path d="M27.6903 189.903C32.4848 188.712 37.1633 187.039 41.4785 184.553C43.1089 183.614 44.9502 182.417 46.245 180.659C47.6225 178.788 48.0801 176.561 47.4694 174.701C47.2298 173.972 46.8057 173.332 46.2755 172.818C46.1633 172.91 46.05 173.003 45.9371 173.096C46.4321 173.567 46.8287 174.161 47.0512 174.839C47.6175 176.563 47.1838 178.641 45.8909 180.397C44.6444 182.09 42.8501 183.256 41.259 184.172C37.1889 186.517 32.7864 188.138 28.2641 189.309C28.0724 189.507 27.8814 189.705 27.6903 189.903Z" fill="white"/>
</g>
<path d="M104.688 179.43L104.68 180.181L104.561 191.853L104.547 193.118C104.524 195.096 103.713 196.889 102.404 198.191C101.102 199.485 99.3098 200.296 97.3235 200.311C93.3214 200.333 90.0482 197.119 90.0112 193.11L89.8699 178.686L104.688 179.43Z" fill="#F9B384"/>
<path d="M104.68 180.182L104.561 191.853C98.0746 189.213 95.4042 182.19 95.4042 182.19L104.68 180.182Z" fill="#102048"/>
<path d="M107.247 159.814C109.572 162.604 116.36 178.411 109.479 183.805C101.735 189.873 89.9513 179.899 89.9513 179.899L88.3706 161.488L98.5991 158.791L107.247 159.814Z" fill="#F9B384"/>
<path d="M83.1595 158.8C83.1595 158.8 60.4717 170.633 78.9708 204.742C81.3467 209.123 86.6094 211.035 91.1114 208.897C95.9408 206.604 97.7694 200.704 95.1471 196.046C92.1211 190.67 89.2005 183.748 90.4472 178.597L83.1595 158.8Z" fill="#102048"/>
<path d="M89.6389 168.74C92.0356 166.343 92.0356 162.458 89.6389 160.061C87.2422 157.664 83.3564 157.664 80.9597 160.061C78.563 162.458 78.563 166.343 80.9597 168.74C83.3564 171.137 87.2422 171.137 89.6389 168.74Z" fill="#FBC343"/>
<path d="M92.8519 171.775C92.1889 167.946 91.7848 165.321 95.6545 163.347C95.6545 163.347 109.292 165.827 111.896 160.682C114.5 155.536 110.532 147.416 102.226 153.057C80.9627 148.903 78.1111 168.803 84.5581 175.436L90.9213 174.459C92.2018 174.263 93.0728 173.052 92.8519 171.775Z" fill="#102048"/>
<path d="M103.411 172.693C103.912 172.693 104.318 172.287 104.318 171.786C104.318 171.285 103.912 170.879 103.411 170.879C102.91 170.879 102.504 171.285 102.504 171.786C102.504 172.287 102.91 172.693 103.411 172.693Z" fill="#102048"/>
<path d="M109.548 169.67C110.049 169.67 110.455 169.264 110.455 168.764C110.455 168.263 110.049 167.857 109.548 167.857C109.048 167.857 108.642 168.263 108.642 168.764C108.642 169.264 109.048 169.67 109.548 169.67Z" fill="#102048"/>
<path d="M108.921 174.576C108.857 174.576 108.793 174.553 108.744 174.506C108.641 174.408 108.637 174.246 108.735 174.143C109.098 173.76 109.497 173.222 109.329 172.832C109.155 172.427 108.421 172.252 108.084 172.252C107.361 172.252 107.013 170.965 106.951 170.707C106.918 170.569 107.002 170.43 107.14 170.397C107.278 170.363 107.417 170.448 107.45 170.586C107.582 171.13 107.881 171.738 108.084 171.738C108.43 171.738 109.489 171.902 109.801 172.629C110.024 173.149 109.79 173.777 109.107 174.496C109.056 174.55 108.989 174.576 108.921 174.576Z" fill="#102048"/>
<path d="M108.967 178.017C108.917 178.017 108.867 178.002 108.823 177.973C107.116 176.821 105.393 177.787 105.375 177.797C105.253 177.867 105.096 177.825 105.025 177.702C104.954 177.579 104.996 177.422 105.119 177.352C105.201 177.305 107.141 176.218 109.11 177.547C109.228 177.627 109.259 177.786 109.18 177.904C109.13 177.977 109.049 178.017 108.967 178.017Z" fill="#102048"/>
<path d="M103.014 167.859C103.53 168.83 102.631 169.025 101.578 169.584C100.525 170.144 99.4465 170.349 99.2006 169.885C98.9546 169.422 99.6087 168.593 100.662 168.034C101.715 167.474 102.615 167.108 103.014 167.859Z" fill="#102048"/>
<path d="M106.855 166.107C107.081 166.973 107.727 166.594 108.667 166.348C109.607 166.102 110.367 165.629 110.258 165.216C110.15 164.803 109.301 164.667 108.361 164.913C107.421 165.159 106.679 165.436 106.855 166.107Z" fill="#102048"/>
<path opacity="0.4" d="M101.049 177.981C102.134 176.98 102.202 175.288 101.201 174.203C100.2 173.118 98.5088 173.049 97.4234 174.05C96.338 175.052 96.2697 176.743 97.2707 177.828C98.2718 178.914 99.9632 178.982 101.049 177.981Z" fill="#EB5D60"/>
<path d="M92.3317 178.525C93.5533 176.942 93.0853 174.533 91.2863 173.145C89.4874 171.757 87.0387 171.915 85.8171 173.498C84.5955 175.082 85.0636 177.49 86.8625 178.878C88.6615 180.267 91.1101 180.108 92.3317 178.525Z" fill="#F9B384"/>
<path d="M90.6653 177.368C90.5235 177.368 90.4085 177.253 90.4085 177.111C90.4085 176.353 90.0391 175.653 89.4204 175.237C88.8914 174.881 88.2605 174.798 87.7334 175.013C87.602 175.065 87.4522 175.003 87.3987 174.872C87.3452 174.74 87.4081 174.591 87.5395 174.537C88.2251 174.258 89.0355 174.359 89.707 174.811C90.4679 175.322 90.922 176.182 90.922 177.111C90.9218 177.253 90.807 177.368 90.6653 177.368Z" fill="#102048"/>
<path d="M53.8713 196.001L44.6079 206.022L45.0388 206.421L54.3021 196.4L53.8713 196.001Z" fill="#102048"/>
<path d="M119.135 239.074L118.964 238.513C125.707 236.458 132.252 233.999 138.183 226.582L138.641 226.948C132.606 234.496 125.97 236.991 119.135 239.074Z" fill="#102048"/>
<path d="M123.235 216.352H65.8699C63.8069 216.352 62.1344 218.161 62.1344 220.393V261.35C62.1344 263.582 63.8069 265.391 65.8699 265.391H123.235C125.298 265.391 126.971 263.582 126.971 261.35V220.393C126.97 218.161 125.298 216.352 123.235 216.352Z" fill="#D3DFFF"/>
<path d="M97.5807 238.283C97.7985 238.283 97.975 238.474 97.975 238.71V243.034C97.975 243.269 97.7985 243.46 97.5807 243.46H91.524C91.3062 243.46 91.1297 243.269 91.1297 243.034V238.71C91.1297 238.474 91.3062 238.283 91.524 238.283H97.5807ZM97.5807 237.109H91.524C90.6596 237.109 89.9562 237.827 89.9562 238.71V243.034C89.9562 243.916 90.6596 244.634 91.524 244.634H97.5807C98.4451 244.634 99.1485 243.916 99.1485 243.034V238.71C99.1485 237.827 98.4451 237.109 97.5807 237.109Z" fill="#1F3C88"/>
<path d="M345.872 307.735H0V308.909H345.872V307.735Z" fill="#102048"/>
</svg>
