<svg width="72" height="72" viewBox="0 0 72 72" fill="none" xmlns="http://www.w3.org/2000/svg">
<path d="M33.615 55.854L48.681 53.19L48.8205 53.1585L41.0715 43.938C38.4729 40.8629 35.8883 37.7759 33.318 34.677C33.318 34.632 41.3236 12.5865 41.3685 12.51C45.7977 20.0926 50.1988 27.6917 54.5715 35.307L67.8465 58.3245L67.9501 58.5L18.684 58.4955L33.615 55.854ZM4.05005 53.046C4.05005 53.0325 7.69955 46.692 12.1635 38.9565L20.2815 24.885L29.7405 16.947C34.9425 12.5865 39.213 9 39.2265 9C39.193 9.13313 39.1431 9.26161 39.078 9.3825L28.8 31.4145L18.72 53.0505L11.385 53.0595C7.34855 53.064 4.05005 53.0595 4.05005 53.046Z" fill="#FF9D4D"/>
</svg>
