<svg width="72" height="72" viewBox="0 0 72 72" fill="none" xmlns="http://www.w3.org/2000/svg">
<path fill-rule="evenodd" clip-rule="evenodd" d="M41.598 4.5C41.1655 4.50492 40.7368 4.58093 40.329 4.725C43.9538 7.1055 39.699 10.5615 41.679 13.5C41.5405 12.5164 41.6965 11.5138 42.1274 10.6187C42.5583 9.72372 43.2447 8.97644 44.1 8.47125C44.7413 7.938 45.1508 7.74675 45.0135 6.86475C44.7975 5.42025 42.8715 4.5 41.598 4.5ZM46.773 5.4315C46.2735 7.95825 45.648 8.0505 43.7963 9.67725C43.0733 10.2461 42.5629 11.0418 42.3474 11.9361C42.1319 12.8304 42.2238 13.7713 42.6083 14.607C34.9583 11.637 25.1528 9.8415 17.964 14.9805C15.3788 16.8278 13.7993 19.4805 10.611 20.5627C8.55 21.267 6.525 21.06 5.238 23.103C4.76567 23.6929 4.51892 24.4318 4.54201 25.1872C4.5651 25.9426 4.85652 26.665 5.364 27.225C5.7465 27.6188 6.489 27.8707 6.795 28.2712C6.97275 28.4962 6.96825 28.7212 7.137 29.0205C7.43452 29.7183 7.86561 30.3512 8.406 30.8835C8.7345 31.1558 9.873 31.4212 10.0665 31.7115C10.3073 32.0737 9.67725 33.5115 10.206 33.7365C10.5638 33.9008 11.6055 32.0625 11.7068 31.9005C11.4998 33.3473 11.2275 35.9145 12.8543 33.777C13.626 32.7623 13.6733 32.427 14.9715 32.202C17.5337 31.7632 20.1591 31.8602 22.682 32.4869C25.2049 33.1137 27.5705 34.2566 29.6294 35.8435C31.6884 37.4304 33.3962 39.4268 34.6448 41.7069C35.8935 43.9869 36.656 46.501 36.8843 49.0905C36.6413 47.9655 35.172 46.1655 33.804 46.593C33.2213 46.773 33.0053 47.7787 32.6228 48.3615C32.1398 49.1009 31.5438 49.7599 30.8565 50.3145C30.9739 49.2237 30.9192 48.1213 30.6945 47.0475C30.285 48.7305 29.4638 51.5228 27.396 51.0705C26.7072 50.9653 26.0618 50.6687 25.5334 50.2143C25.0051 49.76 24.6151 49.1663 24.408 48.501C24.1403 46.791 25.947 44.7862 23.0423 44.6445C17.2148 44.3587 18.5625 52.929 22.0028 55.1632C21.2121 55.2507 20.4409 55.4658 19.719 55.8C21.9026 57.0689 24.3631 57.7854 26.8866 57.8871C29.41 57.9888 31.9202 57.4728 34.1989 56.3838C36.4776 55.2948 38.4558 53.6658 39.9618 51.6383C41.4677 49.6109 42.4557 47.2464 42.84 44.7503C43.6414 48.4018 43.1266 52.219 41.3865 55.5278C40.6582 56.9109 39.7252 58.1762 38.619 59.2808C37.944 59.9557 36.6075 60.6982 36.1688 61.398C38.8994 61.037 41.5679 60.3042 44.1 59.22C41.4791 62.7914 37.9956 65.6401 33.975 67.5C38.2922 67.1944 42.4655 65.819 46.1185 63.498C49.7715 61.177 52.7894 57.9832 54.9 54.2048C54.2274 57.9838 52.7335 61.5692 50.5238 64.7078C53.4958 62.718 56.0244 60.1353 57.9508 57.1217C59.8771 54.1082 61.1595 50.7288 61.7175 47.196C62.2705 49.7823 62.429 52.4373 62.1878 55.071C64.63 51.6789 66.2801 47.7821 67.0165 43.6677C67.7528 39.5533 67.5567 35.3261 66.4425 31.2975C65.5898 28.166 64.3111 25.1665 62.6423 22.383C61.9964 21.2983 61.2895 20.2511 60.525 19.2465C60.2257 18.8573 58.626 17.433 58.626 16.9965C58.6125 17.04 58.6013 17.04 58.5923 16.9965C58.5923 24.345 50.7173 28.9463 44.1225 27.0382C46.6754 26.8379 49.0835 25.7726 50.949 24.0184C52.8145 22.2642 54.0257 19.926 54.3825 17.3903C54.6835 14.8261 54.0912 12.2365 52.7055 10.0581C51.3197 7.8797 49.2231 6.24568 46.773 5.4315Z" fill="#FF9D4D"/>
</svg>
