<svg width="72" height="72" viewBox="0 0 72 72" fill="none" xmlns="http://www.w3.org/2000/svg">
<path d="M42.0275 35.9458C42.0275 32.7184 39.329 30.1016 35.9999 30.1016C32.6713 30.1016 29.9724 32.7184 29.9724 35.9458C29.9724 39.1736 32.6713 41.7901 35.9999 41.7901C39.329 41.7901 42.0275 39.1736 42.0275 35.9458Z" fill="#FF9D4D"/>
<path fill-rule="evenodd" clip-rule="evenodd" d="M55.5759 25.0958C56.8487 20.0808 58.4487 10.7808 52.8084 7.62786C47.1944 4.48863 39.8889 10.504 36.0313 14.1147C32.1849 10.5399 24.6742 4.55033 19.0387 7.71331C13.4269 10.8631 15.1574 20.0088 16.4585 25.0553C11.2237 26.4969 2.25 29.6019 2.25 35.9458C2.25 42.2716 11.2144 45.6498 16.4182 47.09C15.1123 52.1644 13.4684 61.1795 19.0874 64.3223C24.7439 67.4847 32.2313 61.6376 36.1247 57.9874C40.007 61.6194 47.2424 67.5047 52.8575 64.3531C58.4901 61.1917 57.0231 52.0164 55.7219 46.9406C60.7664 45.4972 69.75 42.1927 69.75 35.9458C69.75 29.6629 60.7282 26.5327 55.5759 25.0958ZM54.9365 44.2507C54.0821 41.6286 52.929 38.8402 51.5185 35.9597C52.8649 33.1472 53.9732 30.3948 54.8037 27.7895C58.5808 28.8513 66.8666 31.2779 66.8666 35.9458C66.8666 40.6575 58.9154 43.1071 54.9365 44.2507ZM51.4125 61.9335C47.223 64.2847 40.9997 58.6566 38.1325 55.982C40.0347 53.9649 41.9355 51.6199 43.7906 49.016C47.054 48.7354 50.1367 48.2764 52.9326 47.6498C53.8484 51.2401 55.6204 59.5717 51.4125 61.9335ZM20.5281 61.9C16.3382 59.5575 18.2533 51.5128 19.214 47.7749C21.9788 48.368 25.0394 48.7946 28.3104 49.0518C30.1777 51.5997 32.1336 53.9417 34.1046 55.9928C31.6694 58.2768 24.7376 64.2532 20.5281 61.9ZM5.13335 35.9458C5.13335 31.2165 13.3697 28.8074 17.2328 27.7483C18.0776 30.4121 19.1856 33.1974 20.5228 36.014C19.1683 38.8723 18.0445 41.7017 17.1919 44.397C13.5083 43.3746 5.13335 40.678 5.13335 35.9458ZM20.4833 10.133C24.6904 7.77186 31.2181 13.5221 34.0108 16.1103C32.0499 18.152 30.112 20.4763 28.2607 23.0096C25.0861 23.2949 22.0472 23.753 19.2535 24.3668C18.2053 20.2966 16.2808 12.4915 20.4833 10.133ZM45.8534 26.0485C48.0071 26.3119 50.0706 26.6625 52.0081 27.0913C51.4264 28.899 50.7015 30.7892 49.8476 32.7269C48.6099 30.4499 47.2813 28.2186 45.8534 26.0485ZM36.0322 18.1082C37.3621 19.5052 38.6941 21.0652 40.0046 22.7576C37.3466 22.6357 34.6844 22.6352 32.0265 22.7558C33.338 21.0791 34.6815 19.5214 36.0322 18.1082ZM22.1771 32.7249C21.3374 30.7939 20.619 28.8954 20.0322 27.0619C21.9582 26.644 24.012 26.3025 26.1518 26.0433C24.7199 28.2087 23.3935 30.4391 22.1771 32.7249ZM26.2132 46.0478C24.0028 45.8086 21.9178 45.4844 19.9925 45.0781C20.5885 43.2124 21.3228 41.2729 22.1804 39.3003C23.4135 41.6099 24.7601 43.8619 26.2132 46.0478ZM36.1121 53.9809C34.7454 52.551 33.3821 50.9695 32.0508 49.2685C34.7238 49.3702 37.402 49.3704 40.0748 49.2547C38.7603 50.9868 37.433 52.5706 36.1121 53.9809ZM49.8751 39.1999C50.7773 41.1939 51.5378 43.1228 52.1419 44.957C50.1847 45.3901 48.0717 45.7389 45.8453 45.9979C47.2837 43.7866 48.6335 41.5206 49.8751 39.1999ZM42.1814 46.3367C38.0927 46.62 33.9786 46.6168 29.8885 46.3599C27.5645 43.0684 25.4956 39.6067 23.7098 36.013C25.4871 32.4268 27.5409 28.9719 29.8539 25.6855C33.9469 25.3856 38.0651 25.3847 42.158 25.6873C44.4512 28.9735 46.5019 32.4193 48.3203 35.9732C46.5235 39.5577 44.4589 43.0195 42.1814 46.3367ZM51.3682 10.0498C55.5763 12.4032 53.7032 20.7613 52.7839 24.3958C49.9835 23.7692 46.9424 23.303 43.7587 23.0132C41.9038 20.4526 39.982 18.1242 38.0529 16.1088C40.8814 13.4649 47.2007 7.7195 51.3682 10.0498Z" fill="#FF9D4D"/>
</svg>
